<?xml version="1.0" standalone="no"?>
<!DOCTYPE svg PUBLIC "-//W3C//DTD SVG 1.1//EN" "http://www.w3.org/Graphics/SVG/1.1/DTD/svg11.dtd" >
<svg xmlns="http://www.w3.org/2000/svg" xmlns:xlink="http://www.w3.org/1999/xlink" version="1.1">
<metadata></metadata>
<defs>
<font id="akzentica_4fregular" horiz-adv-x="1294" >
<font-face units-per-em="2048" ascent="1638" descent="-410" />
<missing-glyph horiz-adv-x="573" />
<glyph unicode="ffj" horiz-adv-x="1484" d="M39 827v115h125v123q0 104 26.5 175t81 114t134 61.5t184.5 18.5v-115q-86 0 -141.5 -12.5t-87 -42t-45 -78.5t-13.5 -121v-123h412v123q0 104 26.5 175t81 114t133 61.5t183.5 18.5h123v-115h-123q-86 0 -141.5 -12.5t-87 -42t-45 -78.5t-13.5 -121v-123h510v-1161 q0 -53 -10.5 -102.5t-36 -87t-68.5 -60.5t-108 -23v121q37 0 61.5 33t24.5 115v1050h-373v-827h-137v827h-412v-827h-139v827h-125z" />
<glyph unicode="&#x407;&#x407;" horiz-adv-x="968" d="M-8 1526v168h127v-168h-127zM172 0v1352h139v-1352h-139zM420 1526v168h127v-168h-127zM657 0v1352h138v-1352h-138zM850 1526v168h127v-168h-127z" />
<glyph unicode="&#x457;&#x457;" horiz-adv-x="770" d="M-57 1116v168h127v-168h-127zM125 0v942h137v-942h-137zM322 1116v168h129v-168h-129zM510 0v942h139v-942h-139zM702 1116v168h127v-168h-127z" />
<glyph unicode="&#x27;&#x457;" horiz-adv-x="555" d="M20 1233v201h189v-201q0 -51 -7 -98.5t-27.5 -84t-56.5 -58t-91 -21.5v96q41 0 63.5 37t22.5 129h-93zM295 0v942h137v-942h-137zM485 1116v168h129v-168h-129z" />
<glyph unicode="&#x27;&#x407;" horiz-adv-x="604" d="M20 1495v199h189v-199q0 -53 -7 -100t-27.5 -83t-56.5 -57.5t-91 -21.5v94q41 0 63.5 38t22.5 130h-93zM295 0v1352h137v-1352h-137zM487 1526v168h127v-168h-127z" />
<glyph unicode="fk" horiz-adv-x="1486" d="M39 825v117h125v123q0 104 26.5 175t81 114t133 61.5t183.5 18.5h235v-906h193l266 414h156l-299 -463l309 -479h-156l-266 412h-203v-412h-139v1317h-96q-86 0 -141.5 -12.5t-87 -42t-45 -77.5t-13.5 -120v-123h248v-117h-248v-825h-137v825h-125z" />
<glyph unicode="fj" horiz-adv-x="935" d="M39 825v117h125v123q0 104 28.5 175t82 114t132 61.5t181.5 18.5h123v-117h-123q-86 0 -141.5 -12.5t-87 -42t-45 -77.5t-13.5 -120v-123h512v-1159q0 -53 -12.5 -102.5t-39 -87t-69.5 -60t-104 -22.5v120q37 0 61.5 32t24.5 114v1048h-373v-825h-137v825h-125z" />
<glyph unicode="fb" horiz-adv-x="1591" d="M39 825v117h125v123q0 104 26.5 175t81 114t133 61.5t183.5 18.5h235v-508q0 -39 -2 -79t-6 -79h4q35 111 106.5 153t190.5 42q98 0 172 -26t121 -84t70.5 -152.5t23.5 -229.5t-23.5 -229.5t-70.5 -152.5t-121 -83.5t-172 -25.5q-119 0 -190.5 41.5t-106.5 152.5v-2 l-6 -16l-20 -156h-109v1317h-96q-86 0 -141.5 -12.5t-87 -42t-45 -77.5t-13.5 -120v-123h248v-117h-248v-825h-137v825h-125zM823 471q0 -106 15.5 -179t48.5 -117t85 -62.5t126 -18.5q76 0 127 18.5t82.5 61.5t45 115.5t13.5 181.5q0 106 -13.5 179t-45 116t-82.5 61.5 t-127 18.5q-72 0 -123 -17.5t-85 -58.5t-49.5 -108.5t-17.5 -167.5v-23z" />
<glyph unicode="ffb" horiz-adv-x="2138" d="M39 825v117h125v123q0 104 26.5 175t81 114t133 61.5t183.5 18.5v-117q-86 0 -141.5 -12.5t-87 -42t-45 -77.5t-13.5 -120v-123h412v123q0 119 32.5 190.5t96 111.5t157 53.5t213.5 13.5h158v-508q0 -39 -2 -79t-4 -79q39 111 109.5 153t189.5 42q98 0 172 -26t121 -84 t70.5 -152.5t23.5 -229.5t-23.5 -229.5t-70.5 -152.5t-121 -83.5t-172 -25.5q-117 0 -189.5 41.5t-107.5 152.5v-2l-6 -16l-21 -156h-108v1317h-92q-86 0 -141.5 -12.5t-87 -42t-45 -77.5t-13.5 -120v-123h248v-117h-248v-825h-139v825h-412v-825h-137v825h-125zM1370 471 q0 -106 15.5 -179t48 -117t85 -62.5t126.5 -18.5q76 0 127 18.5t82.5 61.5t45 115.5t13.5 181.5q0 106 -13.5 179t-45 116t-83 61.5t-126.5 18.5q-74 0 -125.5 -18.5t-84 -59.5t-49 -110.5t-16.5 -170.5v-16z" />
<glyph unicode="ffk" horiz-adv-x="2041" d="M37 827v115h125v123q0 104 26.5 175t81 114t134 61.5t184.5 18.5v-115q-86 0 -141.5 -12.5t-87 -42t-45 -78.5t-13.5 -121v-123h412v123q0 104 26.5 175t80.5 114t133 61.5t184 18.5h231v-904h195l266 412h153l-299 -463l310 -479h-154l-266 412h-205v-412h-137v1319h-94 q-86 0 -141.5 -12.5t-87 -42t-45 -78.5t-13.5 -121v-123h248v-115h-248v-827h-137v827h-412v-827h-139v827h-125z" />
<glyph unicode="fh" horiz-adv-x="1601" d="M39 825v117h125v123q0 104 26.5 175t81 114t133 61.5t183.5 18.5h235v-508q0 -39 -2 -79t-6 -79h4q35 111 107.5 153t191.5 42q174 0 259 -91.5t85 -318.5v-553h-137v553q0 84 -12.5 140.5t-40 90t-71.5 48t-105 14.5q-72 0 -123 -18.5t-85 -60.5t-49.5 -110.5 t-15.5 -169.5v-487h-139v1317h-96q-86 0 -141.5 -12.5t-87 -42t-45 -77.5t-13.5 -120v-123h248v-117h-248v-825h-137v825h-125z" />
<glyph unicode="&#xfb00;" horiz-adv-x="1099" d="M39 827v115h125v123q0 104 26.5 175t81 114t134 61.5t184.5 18.5v-115q-86 0 -141.5 -12.5t-87 -42t-45 -78.5t-13.5 -121v-123h412v123q0 104 26.5 175t81 114t133 61.5t183.5 18.5v-115q-86 0 -141.5 -12.5t-87 -42t-45 -78.5t-13.5 -121v-123h248v-115h-248v-827h-137 v827h-412v-827h-139v827h-125z" />
<glyph unicode="&#xfb01;" horiz-adv-x="935" d="M39 827v115h125v123q0 104 26.5 175t81 114t134 61.5t184.5 18.5h121v-115h-121q-86 0 -141.5 -12.5t-87 -42t-45 -78.5t-13.5 -121v-123h510v-942h-139v827h-371v-827h-139v827h-125z" />
<glyph unicode="&#xfb02;" horiz-adv-x="966" d="M39 825v117h125v123q0 104 26.5 175t81 114t133 61.5t183.5 18.5h235v-1162q0 -86 24.5 -118.5t61.5 -32.5v-121q-80 0 -125 33t-67.5 85t-27.5 116.5t-5 130.5v952h-96q-86 0 -141.5 -12.5t-87 -42t-45 -77.5t-13.5 -120v-123h248v-117h-248v-825h-137v825h-125z" />
<glyph unicode="&#xfb03;" horiz-adv-x="1484" d="M39 827v115h125v123q0 104 26.5 175t81 114t134 61.5t184.5 18.5v-115q-86 0 -141.5 -12.5t-87 -42t-45 -78.5t-13.5 -121v-123h412v123q0 104 26.5 175t81 114t133 61.5t183.5 18.5h123v-115h-123q-86 0 -141.5 -12.5t-87 -42t-45 -78.5t-13.5 -121v-123h510v-942h-137 v827h-373v-827h-137v827h-412v-827h-139v827h-125z" />
<glyph unicode="&#xfb04;" horiz-adv-x="1513" d="M39 827v115h125v123q0 104 26.5 175t81 114t134 61.5t184.5 18.5v-115q-86 0 -141.5 -12.5t-87 -42t-45 -78.5t-13.5 -121v-123h412v123q0 104 26.5 175t81 114t133 61.5t183.5 18.5h231v-1162q0 -86 24.5 -118.5t61.5 -32.5v-121q-66 0 -108.5 22.5t-68.5 60.5t-36 87 t-10 102v1047h-94q-86 0 -141.5 -12.5t-87 -42t-45 -78.5t-13.5 -121v-123h248v-115h-248v-827h-137v827h-412v-827h-139v827h-125z" />
<glyph horiz-adv-x="0" />
<glyph horiz-adv-x="682" />
<glyph unicode=" "  horiz-adv-x="573" />
<glyph unicode="&#x09;" horiz-adv-x="573" />
<glyph unicode="&#xa0;" horiz-adv-x="573" />
<glyph unicode="!" horiz-adv-x="425" d="M131 1352h164l-25 -942h-112zM145 0v168h138v-168h-138z" />
<glyph unicode="&#x22;" horiz-adv-x="583" d="M131 1352h137l-24 -328h-88zM340 1352h139l-26 -328h-86z" />
<glyph unicode="#" horiz-adv-x="1185" d="M84 414l16 112h211l43 297h-213l17 113h213l57 416h113l-58 -416h297l58 416h112l-57 -416h207l-17 -113h-206l-43 -297h208l-16 -112h-207l-59 -414h-113l60 414h-297l-60 -414h-112l59 414h-213zM424 526h297l43 297h-297z" />
<glyph unicode="$" horiz-adv-x="1058" d="M78 430h137q0 -113 67.5 -165t190.5 -62v418q-72 12 -138.5 31.5t-117.5 55t-82 92t-33 142.5q-2 152 93.5 232.5t277.5 93.5v166h109v-166q84 -4 151.5 -25.5t115.5 -62.5t74.5 -104.5t26.5 -153.5h-135q0 113 -61.5 164t-171.5 59v-414q82 -12 153.5 -33.5t125.5 -58.5 t85 -93.5t31 -139.5q0 -156 -104.5 -234t-290.5 -88v-166h-109v164q-197 10 -296 93t-99 255zM242 944q0 -55 18.5 -90t51 -56.5t73.5 -32.5t88 -17v399q-102 -8 -166.5 -54.5t-64.5 -148.5zM582 203q55 4 102 16t82 36t54.5 62t19.5 91t-20.5 87.5t-56.5 56t-83 33 t-98 19.5v-401z" />
<glyph unicode="%" horiz-adv-x="1351" d="M70 1014q0 98 15 164.5t46 107.5t78 58.5t113 17.5t112.5 -17.5t77.5 -58.5t45 -107.5t14 -164.5t-14 -166t-45 -108t-77.5 -57t-112.5 -17t-113 17t-78 57t-46 107.5t-15 166.5zM188 1014q0 -143 32 -197.5t102 -54.5t101.5 54t31.5 198q0 141 -32 195.5t-101 54.5 q-70 0 -102 -54.5t-32 -195.5zM248 0l731 1352h131l-731 -1352h-131zM780 328q0 98 15.5 164.5t46 107.5t78 58.5t112.5 17.5q66 0 113 -17.5t77.5 -58.5t45 -107.5t14.5 -164.5t-14.5 -166t-45 -108t-77.5 -57t-113 -17t-113 17t-77.5 57t-46 107.5t-15.5 166.5zM899 328 q0 -143 31.5 -197.5t101.5 -54.5t101.5 54t31.5 198q0 141 -31.5 195.5t-101.5 54.5t-101.5 -54.5t-31.5 -195.5z" />
<glyph unicode="&#x26;" horiz-adv-x="1146" d="M51 326q0 129 52.5 215t132.5 155l38 31q-29 39 -58.5 71.5t-52 69.5t-36.5 83t-14 110q0 145 89 228t294 83q180 0 271 -77.5t91 -270.5h-137q0 131 -54.5 179t-168.5 48q-127 0 -185.5 -51t-58.5 -156q0 -41 8 -72.5t23.5 -58t38 -52t49.5 -54.5l51 -57 q96 -106 192.5 -209t194.5 -209q10 41 16.5 88t6.5 106h137q0 -190 -53 -309q51 -55 100 -109.5t102 -107.5h-170l-106 111q-61 -70 -154.5 -100.5t-216.5 -30.5q-113 0 -192.5 23.5t-131 68.5t-75 109.5t-23.5 144.5zM188 336q0 -131 76 -184.5t211 -53.5q98 0 168 26 t111 85l-396 428l-39 -37q-63 -59 -98 -119.5t-33 -144.5z" />
<glyph unicode="'" horiz-adv-x="374" d="M131 1341h137l-24 -327h-88z" />
<glyph unicode="(" horiz-adv-x="602" d="M150 471q0 276 24.5 460.5t76.5 296t132 159t190 47.5v-121q-74 0 -128 -41t-90 -138.5t-52 -259t-16 -403.5t16 -403.5t52 -259t90.5 -138.5t127.5 -41v-121q-111 0 -190.5 47.5t-131.5 158t-76.5 296t-24.5 461.5z" />
<glyph unicode=")" horiz-adv-x="604" d="M31 -371q74 0 128 41t90 138.5t52 259t16 403.5t-16 403.5t-52 259t-90.5 138.5t-127.5 41v121q111 0 190.5 -47.5t132 -159t77 -295.5t24.5 -461q0 -276 -24.5 -461.5t-77 -296t-132.5 -158t-190 -47.5v121z" />
<glyph unicode="*" horiz-adv-x="874" d="M88 1145l37 98l256 -82v273h111v-275q66 23 129 43.5t129 40.5l36 -98l-264 -86l166 -219l-82 -66l-170 225l-170 -227l-82 68l162 219z" />
<glyph unicode="+" horiz-adv-x="1212" d="M98 623v112h449v451h112v-451h453v-112h-453v-451h-112v451h-449z" />
<glyph unicode="," horiz-adv-x="458" d="M117 0v199h198v-199q0 -53 -8 -100t-29.5 -83t-58.5 -57.5t-96 -21.5v94q45 0 70.5 38t25.5 130h-102z" />
<glyph unicode="-" horiz-adv-x="937" d="M145 416v119h646v-119h-646z" />
<glyph unicode="." horiz-adv-x="509" d="M156 0v199h198v-199h-198z" />
<glyph unicode="/" horiz-adv-x="784" d="M27 -246l553 1680h125l-553 -1680h-125z" />
<glyph unicode="0" horiz-adv-x="1183" d="M94 676q0 197 30 331t90 215t154.5 115.5t223.5 34.5t222 -34.5t154.5 -115.5t90 -215.5t28.5 -330.5q0 -197 -28.5 -331t-90 -215t-154.5 -115.5t-222 -34.5t-223.5 34.5t-154.5 115.5t-90 215t-30 331zM233 676q0 -164 20.5 -274.5t64.5 -177t112 -95.5t162 -29 q92 0 159.5 29t111.5 95.5t65.5 177t21.5 274.5q0 160 -21.5 269.5t-65.5 178t-111.5 98t-159.5 29.5q-94 0 -162 -29.5t-112 -98t-64.5 -178t-20.5 -269.5z" />
<glyph unicode="1" horiz-adv-x="919" d="M127 0v119h262v1083l-262 -55v123l401 82v-1233h265v-119h-666z" />
<glyph unicode="2" horiz-adv-x="1028" d="M72 0v121l608 659q20 20 42.5 46t41 54.5t31 63.5t12.5 76q0 127 -79 179t-226 52q-154 0 -221.5 -50t-67.5 -177h-135q0 193 107.5 270.5t314.5 77.5q119 0 203.5 -23.5t139 -66.5t79 -105.5t24.5 -140.5q0 -61 -15.5 -109t-39 -86t-50 -69t-48.5 -57l-547 -594h706 v-121h-880z" />
<glyph unicode="3" horiz-adv-x="1038" d="M14 328h140q0 -63 25.5 -106.5t68.5 -71t99 -40t116 -12.5q94 0 157.5 24.5t102.5 67.5t56.5 99.5t17.5 120.5q0 125 -74 200.5t-250 75.5h-119v117l357 428h-656v121h830v-121l-246 -287q-33 -37 -66.5 -72.5t-68.5 -70.5q29 -4 45 -8q197 -10 291 -107.5t94 -275.5 q0 -92 -25.5 -171t-81 -136.5t-144.5 -90t-216 -32.5q-88 0 -170 18t-144.5 60t-100.5 107.5t-38 162.5z" />
<glyph unicode="4" horiz-adv-x="1073" d="M33 338v121l428 893h147l-428 -893h574v456l137 27v-483h125v-121h-125v-338h-137v338h-721z" />
<glyph unicode="5" horiz-adv-x="1034" d="M37 328h139q0 -63 25.5 -107.5t68.5 -71t98.5 -38t116.5 -11.5q94 0 158 25t102.5 66.5t56 99t17.5 123.5q0 72 -16.5 130t-54 100t-99 64.5t-149.5 22.5q-57 0 -112.5 -9t-98.5 -29.5t-69.5 -55.5t-26.5 -84h-140l39 799h809v-121h-684l-27 -494q51 61 138.5 88 t185.5 27q223 0 332.5 -110.5t109.5 -327.5q0 -94 -25.5 -173t-81.5 -137.5t-144.5 -91t-212.5 -32.5q-90 0 -172 18t-145.5 60t-100.5 107.5t-37 162.5z" />
<glyph unicode="6" horiz-adv-x="1128" d="M102 676q0 195 29 328t88.5 214.5t149.5 117.5t213 36q88 0 168.5 -18.5t141 -60.5t96.5 -108.5t36 -160.5h-137q0 61 -24.5 105.5t-66.5 71t-96.5 38.5t-111.5 12q-84 0 -145.5 -25.5t-103.5 -84t-63.5 -153.5t-25.5 -234q-8 -25 -8 -72q43 90 133 126t221 36 q223 0 334.5 -111.5t111.5 -310.5q0 -98 -26.5 -180t-81.5 -140.5t-142 -90t-210 -31.5t-213 36.5t-149.5 118.5t-88.5 215t-29 326zM258 467q2 -18 3 -36.5t5 -41.5q33 -160 111 -225.5t207 -65.5q86 0 147.5 24.5t100 69t56 103.5t17.5 129q0 133 -76.5 216t-244.5 83 q-150 0 -238 -61.5t-88 -194.5z" />
<glyph unicode="7" horiz-adv-x="1017" d="M49 1231v121h891v-121l-590 -1231h-147l590 1231h-744z" />
<glyph unicode="8" horiz-adv-x="1138" d="M98 365q4 147 75 222t183 111q-104 35 -161.5 99.5t-65.5 189.5q-6 84 17.5 154.5t79 122t142.5 80t210 28.5q223 0 329.5 -95.5t106.5 -279.5q0 -76 -17.5 -130t-49.5 -94t-78 -65.5t-101 -43.5q63 -16 114.5 -41t87.5 -62t55 -89t19 -126q0 -180 -125.5 -273 t-355.5 -93q-125 0 -214 27.5t-145.5 77.5t-82 122t-23.5 158zM236 358q0 -143 88 -200.5t241 -57.5q72 0 133.5 12.5t107.5 42t72.5 78.5t26.5 125q0 72 -25.5 117t-71.5 72.5t-109.5 42t-141.5 24.5q-4 -2 -14 -2q-59 -10 -114.5 -20t-98.5 -36t-68.5 -72t-25.5 -126z M266 995q0 -72 20.5 -115.5t57.5 -71.5t91 -42t122 -25q63 8 120.5 20.5t101.5 39t69.5 73t25.5 121.5q0 74 -23.5 123t-65.5 79t-99 42t-123 12q-135 0 -216 -56.5t-81 -199.5z" />
<glyph unicode="9" horiz-adv-x="1105" d="M61 928q0 98 27 180t82 140.5t142 91t210 32.5t213 -37t149.5 -118.5t88 -216t28.5 -326.5q0 -195 -28.5 -328t-88 -214t-149.5 -116.5t-213 -35.5q-90 0 -170 18t-140 60t-96 107.5t-36 162.5h137q0 -63 24.5 -106.5t66.5 -71t95.5 -40t112.5 -12.5q84 0 145.5 26 t103.5 84t63.5 154.5t25.5 235.5q4 14 6 30.5t2 39.5q-43 -90 -134 -126t-220 -36q-223 0 -335 111.5t-112 310.5zM199 926q0 -133 75.5 -216t245.5 -83q150 0 237 61.5t87 196.5q0 18 -1 36.5t-5 41.5q-33 158 -111 223t-207 65q-86 0 -147.5 -24.5t-100.5 -68.5 t-56 -103.5t-17 -128.5z" />
<glyph unicode=":" horiz-adv-x="509" d="M156 0v199h198v-199h-198zM156 614v199h198v-199h-198z" />
<glyph unicode=";" horiz-adv-x="501" d="M147 0v199h199v-199q0 -53 -8 -100t-29.5 -83t-58.5 -57.5t-96 -21.5v94q45 0 70.5 38t25.5 130h-103zM150 614v199h198v-199h-198z" />
<glyph unicode="&#x3c;" horiz-adv-x="1077" d="M98 629v102l858 471v-135l-600 -322l-161 -63q195 -84 385 -182.5t376 -200.5v-135q-217 117 -429 232.5t-429 232.5z" />
<glyph unicode="=" horiz-adv-x="1048" d="M98 489v113h850v-113h-850zM98 756v112h850v-112h-850z" />
<glyph unicode="&#x3e;" horiz-adv-x="1079" d="M111 164v135q96 53 190 102.5t191 102.5l219 112l161 66q-201 74 -387 179.5t-374 205.5v135l858 -471v-102q-217 -117 -429 -232.5t-429 -232.5z" />
<glyph unicode="?" horiz-adv-x="989" d="M12 1024q0 94 33 160.5t92.5 108.5t141 60.5t182.5 18.5q254 0 367.5 -102.5t113.5 -286.5q0 -115 -35 -182.5t-85 -104.5t-105 -52t-99 -28q-27 -8 -48 -20t-37.5 -36.5t-25.5 -67.5t-9 -113h-140q0 106 21.5 171.5t56.5 103.5t82 57.5t100 31.5q33 10 66 21.5t59.5 36 t43 66.5t16.5 114q0 78 -24.5 130t-68.5 83t-106.5 44t-136.5 13q-147 0 -233.5 -51t-86.5 -176h-135zM358 0v168h140v-168h-140z" />
<glyph unicode="@" horiz-adv-x="1361" d="M94 467q0 199 34 333t105.5 216t180 116.5t260.5 34.5q156 0 267.5 -34.5t183 -113.5t104.5 -209t33 -321q0 -111 -12.5 -185.5t-39 -118.5t-67.5 -63.5t-99 -19.5q-49 0 -81.5 12.5t-51 35t-26.5 53t-8 65.5q-23 -106 -78.5 -146t-149.5 -40q-72 0 -124 20.5t-85.5 66.5 t-51 119.5t-17.5 182.5q0 215 68.5 302t209.5 87q78 0 129 -28.5t78 -98.5l27 107h86v-543q0 -37 18.5 -64.5t59.5 -27.5q57 0 79.5 66.5t22.5 207.5q0 166 -25.5 278.5t-83 181.5t-146.5 98.5t-218 29.5q-123 0 -212 -29.5t-145.5 -100.5t-84 -185.5t-27.5 -286.5 q0 -174 28.5 -288t90 -181.5t157 -94t228.5 -26.5q59 0 121.5 6t113.5 20.5t84 39t33 59.5h119q0 -63 -43 -106.5t-112 -70t-156 -37.5t-173 -11q-160 0 -274.5 32.5t-187 112.5t-107.5 213t-35 334zM485 471q0 -82 10.5 -136t32 -88t56.5 -48.5t84 -14.5q96 0 139 57.5 t47 202.5v33q-2 156 -44 218.5t-142 62.5t-141.5 -62.5t-41.5 -224.5z" />
<glyph unicode="A" horiz-adv-x="1282" d="M20 0l558 1352h129q139 -340 276 -676t279 -676h-146q-31 74 -59.5 147.5t-59.5 147.5h-714q-29 -74 -58.5 -147.5t-60.5 -147.5h-144zM332 416h616q-59 147 -116.5 290.5t-101.5 257t-68 185.5q-18 54 -19 69q0 5 2 5h-8q-8 -37 -23 -86q-12 -41 -31.5 -98.5 t-47.5 -127.5z" />
<glyph unicode="B" horiz-adv-x="1214" d="M172 0v1352h490q217 0 319 -78t102 -275q0 -147 -60 -220.5t-189 -98.5q150 -23 220 -98.5t70 -229.5q0 -100 -27.5 -167.5t-85 -108.5t-144.5 -58.5t-205 -17.5h-490zM311 121h338q92 0 156.5 12t104.5 40t58.5 74t18.5 111q0 143 -78 203t-260 60h-338v-500zM311 739 h338q80 0 136.5 13.5t92 43t52 79t16.5 120.5q0 131 -67.5 183.5t-229.5 52.5h-338v-492z" />
<glyph unicode="C" horiz-adv-x="1193" d="M94 678q0 199 33 332t99.5 214t170 114.5t244.5 33.5q100 0 190.5 -15.5t159 -54t108.5 -106.5t40 -172h-138q0 72 -29.5 116t-79.5 68.5t-114.5 33.5t-134.5 9q-109 0 -185.5 -26.5t-126.5 -93t-74 -177t-24 -276.5q0 -168 24 -278.5t74 -177t127 -94.5t183 -28 q68 0 133.5 9.5t115.5 34t80.5 68.5t30.5 116h138q0 -104 -41 -172t-109.5 -107t-160 -54t-189.5 -15q-141 0 -243.5 34.5t-169 115.5t-99.5 215t-33 333z" />
<glyph unicode="D" horiz-adv-x="1302" d="M172 0v1352h375q172 0 297 -34t204.5 -113t118.5 -209t39 -320t-39 -320.5t-118.5 -209t-204.5 -112.5t-297 -34h-375zM311 121h236q135 0 234.5 27.5t163 92t94 171t30.5 264.5q0 156 -30.5 262t-94 172t-163 93.5t-234.5 27.5h-236v-1110z" />
<glyph unicode="E" horiz-adv-x="1122" d="M172 0v1352h846v-121h-707v-492h625v-118h-625v-500h707v-121h-846z" />
<glyph unicode="F" horiz-adv-x="1077" d="M172 0v1352h846v-121h-707v-492h625v-121h-625v-618h-139z" />
<glyph unicode="G" horiz-adv-x="1302" d="M94 676q0 197 33 330t99.5 213.5t170 116.5t244.5 36q100 0 190.5 -15.5t159 -55t108.5 -106.5t40 -171h-131q0 70 -30 114t-79 69.5t-115.5 34.5t-140.5 9q-117 0 -195.5 -28.5t-127 -96t-69 -179t-20.5 -277.5q0 -143 16.5 -250t58.5 -178.5t115 -107.5t183 -36 q182 0 289.5 97.5t136.5 316.5h-362v115h501v-627h-112l-25 260q-57 -152 -170.5 -216t-269.5 -64q-150 0 -246 52t-152.5 145t-78 221t-21.5 278z" />
<glyph unicode="H" horiz-adv-x="1372" d="M172 0v1352h139v-613h748v613h137v-1352h-137v621h-748v-621h-139z" />
<glyph unicode="I" horiz-adv-x="483" d="M172 0v1352h139v-1352h-139z" />
<glyph unicode="J" horiz-adv-x="950" d="M14 328h129q0 -121 64.5 -176.5t206.5 -55.5q61 0 109 11.5t82 37t52.5 70.5t18.5 113v1024h139v-1024q0 -168 -95 -258t-308 -90q-201 0 -299.5 82.5t-98.5 265.5z" />
<glyph unicode="K" horiz-adv-x="1204" d="M172 0v1352h139v-613h303l396 613h153l-430 -668l441 -684h-154l-399 621h-310v-621h-139z" />
<glyph unicode="L" horiz-adv-x="1054" d="M172 0v1352h139v-1231h697v-121h-836z" />
<glyph unicode="M" horiz-adv-x="1667" d="M172 0v1352h174q98 -246 195.5 -487.5t195.5 -487.5q16 -39 28.5 -74t27.5 -67q10 -29 17 -48.5t11 -33.5q6 -16 8 -27h7q2 10 8 27q4 14 11 33.5t17 48.5l445 1116h176v-1352h-139v936q0 111 6 166q2 33 6 55h-6q0 -8 -14.5 -56t-49.5 -132q-27 -61 -50 -122t-50 -120 l-291 -727h-145q-98 244 -196.5 494.5t-201.5 486.5q-18 41 -29 75t-18 56q-8 27 -10 45h-6l6 -55q2 -29 4 -71t2 -95v-936h-139z" />
<glyph unicode="N" horiz-adv-x="1370" d="M172 0v1352h158l528 -838q37 -59 73 -117.5t65.5 -107.5t48 -81t18.5 -34h8q-4 37 -6 76q-4 35 -5 79t-1 93v930h137v-1352h-156l-530 834l-94 153q-23 37 -43.5 70t-35.5 58.5t-23 40.5l-9 15h-6q2 -37 6 -75q2 -35 4 -80t2 -92v-924h-139z" />
<glyph unicode="O" horiz-adv-x="1345" d="M94 676q0 197 34 331t104.5 215t180 115.5t261.5 34.5q150 0 259 -34.5t180 -115.5t104.5 -215.5t33.5 -330.5q0 -197 -33.5 -331t-104.5 -215t-180 -115.5t-259 -34.5q-152 0 -261.5 34.5t-180 115.5t-104.5 215t-34 331zM233 676q0 -164 26 -274.5t79 -177t137 -95.5 t199 -29t197.5 29t137 95.5t80 177t25.5 274.5q0 162 -25.5 272.5t-80 178t-137.5 96t-197 28.5q-115 0 -199 -28.5t-137 -96t-79 -178t-26 -272.5z" />
<glyph unicode="P" horiz-adv-x="1185" d="M172 0v1352h490q119 0 206.5 -22.5t144 -74t84 -134.5t27.5 -206q0 -127 -27.5 -214t-84 -140t-144.5 -76.5t-206 -23.5h-351v-461h-139zM311 582h338q90 0 154.5 16t105.5 55t59.5 103.5t18.5 158.5q0 88 -18.5 148.5t-59.5 97.5t-105.5 53.5t-154.5 16.5h-338v-649z " />
<glyph unicode="Q" horiz-adv-x="1345" d="M94 676q0 197 34 331t104.5 215t180 115.5t261.5 34.5q150 0 259 -34.5t180 -115.5t104.5 -215.5t33.5 -330.5q0 -172 -25.5 -296t-79.5 -206t-137 -126t-196 -58l205 -318h-158l-196 308q-147 0 -255 35.5t-177.5 116.5t-103.5 214t-34 330zM233 676q0 -164 26 -274.5 t79 -177t137 -95.5t199 -29t197.5 29t137 95.5t80 177t25.5 274.5q0 162 -25.5 272.5t-80 178t-137.5 96t-197 28.5q-115 0 -199 -28.5t-137 -96t-79 -178t-26 -272.5z" />
<glyph unicode="R" horiz-adv-x="1224" d="M172 0v1352h490q119 0 205.5 -22.5t144 -74t85 -134.5t27.5 -206q0 -199 -67.5 -301t-208.5 -135l307 -479h-158l-297 461h-389v-461h-139zM311 580h338q180 0 259 73.5t79 261.5q0 88 -18.5 148.5t-59.5 97.5t-105.5 53.5t-154.5 16.5h-338v-651z" />
<glyph unicode="S" horiz-adv-x="1183" d="M68 328h137q0 -121 90 -174.5t276 -53.5q86 0 157 12.5t120 42t76.5 80t27.5 125.5q0 76 -30.5 121t-83 71t-120 37t-138.5 21q-98 12 -187.5 34t-156 64t-105.5 108.5t-39 170.5q0 90 27.5 162t87 121t155 75.5t230.5 26.5q223 0 347 -79t124 -269h-135q0 125 -86 176 t-254 51q-84 0 -149.5 -12t-111.5 -43t-71 -81t-25 -126q0 -78 30 -123t78 -69.5t110.5 -35.5t130.5 -20q100 -14 192 -33.5t163 -59.5t113 -107.5t42 -175.5q0 -201 -131.5 -293t-391.5 -92q-252 0 -375.5 83.5t-123.5 264.5z" />
<glyph unicode="T" horiz-adv-x="1112" d="M27 1231v121h1058v-121h-460v-1231h-138v1231h-460z" />
<glyph unicode="U" horiz-adv-x="1304" d="M135 676v676h139v-676q0 -164 22.5 -274.5t69 -177t118 -95.5t169.5 -29t170 29t118 95.5t68.5 177t22.5 274.5v676h137v-676q0 -197 -30.5 -331t-93 -215t-160 -115.5t-232.5 -34.5t-233 34.5t-160.5 115.5t-93.5 215t-31 331z" />
<glyph unicode="V" horiz-adv-x="1296" d="M27 1352h143l371 -914q29 -70 48 -126t32 -97q14 -49 24 -86h8q8 37 23 86q12 41 30.5 97.5t47.5 127.5l368 912h146l-555 -1352h-129z" />
<glyph unicode="W" horiz-adv-x="1689" d="M31 1352h139l258 -906q18 -70 30.5 -128t20.5 -101q8 -51 15 -92h8q6 41 14 92q8 43 20.5 101.5t30.5 125.5l195 703h164l196 -703q18 -68 30.5 -126t21.5 -101q8 -51 14 -92h6q6 41 14 92q8 43 20.5 101.5t33.5 127.5l256 906h141l-395 -1352h-152l-205 727 q-18 68 -30.5 126t-18.5 99q-8 49 -10 88h-8q-4 -39 -13 -88q-8 -41 -19 -98t-30 -127l-203 -727h-151z" />
<glyph unicode="X" horiz-adv-x="1105" d="M27 0l440 684l-422 668h162l268 -439q41 -72 55.5 -104.5t18.5 -42.5q6 -2 18.5 34t61.5 113l274 439h160l-426 -668l440 -684h-166q-72 113 -142.5 224.5t-141.5 226.5q-43 72 -57.5 103.5t-18.5 43.5q-10 -8 -21.5 -39.5t-56.5 -109.5q-72 -113 -142.5 -224.5 t-142.5 -224.5h-161z" />
<glyph unicode="Y" horiz-adv-x="1114" d="M23 1352h149l246 -449q16 -31 33.5 -61.5t31.5 -59.5q43 -92 54.5 -133t13.5 -41h6q-6 4 10.5 44t46 101.5t71.5 139.5t86 160t87 159.5t78 139.5h149l-462 -844v-508h-140v508z" />
<glyph unicode="Z" horiz-adv-x="1040" d="M57 0v121l764 1110h-764v121h932v-121l-766 -1110h766v-121h-932z" />
<glyph unicode="[" horiz-adv-x="665" d="M176 -492v1926h424v-121h-287v-1684h287v-121h-424z" />
<glyph unicode="\" horiz-adv-x="786" d="M80 1434h125l553 -1680h-125z" />
<glyph unicode="]" horiz-adv-x="665" d="M66 -371h286v1684h-286v121h423v-1926h-423v121z" />
<glyph unicode="^" horiz-adv-x="897" d="M76 954l309 480h129l309 -480h-147l-156 248l-71 158l-72 -158l-158 -248h-143z" />
<glyph unicode="_" horiz-adv-x="1210" d="M109 -258h993v-111h-993v111z" />
<glyph unicode="`" horiz-adv-x="534" d="M102 1354h185l145 -267h-119z" />
<glyph unicode="a" horiz-adv-x="985" d="M76 254q0 94 33.5 147.5t86 79t116 32.5t122.5 13l289 27v98q0 104 -53.5 149.5t-188.5 45.5q-127 0 -175 -43t-48 -119h-135q0 147 85 213t273 66q109 0 181.5 -20.5t117.5 -60.5t63.5 -98.5t18.5 -132.5v-438q0 -47 21.5 -73.5t54.5 -26.5v-117q-61 0 -99 14.5 t-61.5 38t-33 55t-11.5 68.5q-37 -113 -111.5 -152.5t-201.5 -39.5q-68 0 -130.5 11t-110.5 40.5t-75.5 83t-27.5 139.5zM213 256q0 -94 48 -127t161 -33q76 0 131 15.5t91 52.5t53.5 98.5t21.5 153.5l4 30l-313 -30q-39 -4 -75 -9.5t-62.5 -21.5t-43 -46t-16.5 -83z" />
<glyph unicode="b" horiz-adv-x="1054" d="M147 0v1409l140 25v-508q0 -39 -2 -79t-4 -79q39 111 109.5 153t189.5 42q98 0 171.5 -26t121 -84t71 -152.5t23.5 -229.5t-23.5 -229.5t-71 -152.5t-121 -83.5t-171.5 -25.5q-117 0 -190 41.5t-107 152.5v-2l-7 -16l-20 -156h-109zM287 453q0 -102 15 -171t49 -111 t86 -59.5t124 -17.5q76 0 127 18.5t83 61.5t45 115.5t13 181.5q0 106 -13 179t-45 116t-83 61.5t-127 18.5q-72 0 -123 -17.5t-85 -58.5t-50 -108.5t-16 -167.5v-41z" />
<glyph unicode="c" horiz-adv-x="925" d="M88 471q0 137 22.5 230.5t70.5 151.5t122 84t178 26q82 0 151.5 -15.5t121 -49.5t80 -86t28.5 -128h-137q0 92 -63.5 128t-169.5 36q-78 0 -129.5 -19.5t-82 -63.5t-43 -115.5t-12.5 -178.5q0 -106 12.5 -179t43 -117t83 -62.5t130.5 -18.5q102 0 166.5 34t64.5 128h137 q0 -76 -28.5 -128t-80 -85t-121 -48t-151.5 -15q-104 0 -178 24.5t-122 82.5t-70.5 151.5t-22.5 232.5z" />
<glyph unicode="d" horiz-adv-x="1054" d="M86 471q0 135 23.5 229.5t71.5 152.5t122 84t172 26q117 0 188.5 -42t106.5 -153h4q-2 39 -4 79t-2 79v483l137 25v-1434h-106q-4 41 -9.5 87t-17.5 87q-35 -111 -107.5 -152.5t-189.5 -41.5q-98 0 -172 25.5t-122 83.5t-71.5 152.5t-23.5 229.5zM225 471 q0 -109 15.5 -181.5t47 -115.5t83 -61.5t125.5 -18.5q72 0 123 18.5t83.5 60.5t48 110.5t17.5 169.5v18q0 106 -15.5 178t-48 116t-84 62.5t-124.5 18.5q-74 0 -125.5 -18.5t-83 -61.5t-47 -114.5t-15.5 -180.5z" />
<glyph unicode="e" horiz-adv-x="964" d="M86 471q0 141 24.5 235.5t75 150.5t128 81t184.5 25q98 0 168.5 -19.5t117.5 -64.5t70 -119t23 -180q0 -37 -3.5 -80t-15.5 -80h-633q2 -92 16.5 -154.5t47.5 -100.5t84 -54.5t127 -16.5q49 0 90 8.5t71.5 26.5t48 49t17.5 78h135q0 -76 -28.5 -129t-78.5 -86t-120 -47 t-150 -14q-102 0 -178 24.5t-125 81.5t-72.5 151.5t-23.5 233.5zM225 528h510q2 16 3 34t1 38q0 133 -54 189.5t-191 56.5q-74 0 -123 -16.5t-81 -53.5t-47.5 -97.5t-17.5 -150.5z" />
<glyph unicode="f" horiz-adv-x="548" d="M39 827v115h125v123q0 104 26.5 175t81 114t134 61.5t184.5 18.5v-115q-86 0 -141.5 -12.5t-87 -42t-45 -78.5t-13.5 -121v-123h248v-115h-248v-827h-139v827h-125z" />
<glyph unicode="g" horiz-adv-x="1021" d="M59 -240q0 88 44 154t110 127q-45 45 -45 113q0 78 61 127q-68 41 -104.5 115.5t-36.5 197.5q0 104 27.5 175t79 114t124 61.5t162.5 18.5q117 0 204 -32t134 -108q35 63 85 91t118 28v-121q-109 0 -166 -86q10 -29 15.5 -64.5t5.5 -76.5q0 -104 -28 -175t-79 -114 t-125 -61.5t-164 -18.5q-41 0 -77.5 3t-69.5 14q-29 -29 -29 -82q0 -59 49 -76.5t127 -28.5q74 -10 153 -22.5t143.5 -41t106.5 -79.5t42 -137q0 -129 -104.5 -203t-338.5 -74q-424 0 -424 262zM190 -217q0 -88 69 -129t222 -41q135 0 220 36t85 132q0 49 -25.5 77.5 t-67.5 44t-97.5 23t-114.5 15.5q-47 8 -94 19t-86 28q-18 -23 -37.5 -43.5t-36 -45t-27 -52t-10.5 -64.5zM225 594q0 -72 13.5 -121t43 -78.5t79 -42t120.5 -12.5q74 0 123 12.5t79 42t42 78.5t12 121t-12 120t-42 77.5t-79 43t-123 13.5q-72 0 -121 -13.5t-78.5 -43 t-43 -77.5t-13.5 -120z" />
<glyph unicode="h" horiz-adv-x="1067" d="M150 0v1409l139 25v-508q0 -39 -2 -79t-6 -79h4q35 111 107.5 153t191.5 42q174 0 259 -91.5t85 -318.5v-553h-137v553q0 84 -13.5 140.5t-42 90t-71.5 48t-103 14.5q-72 0 -123 -18.5t-85 -60.5t-49 -110.5t-15 -169.5v-487h-139z" />
<glyph unicode="i" horiz-adv-x="385" d="M125 0v942h137v-942h-137zM125 1188v164h137v-164h-137z" />
<glyph unicode="j" horiz-adv-x="415" d="M53 -371q37 0 61.5 33t24.5 113v1167h137v-1161q0 -53 -10 -102.5t-35.5 -87t-68.5 -60.5t-109 -23v121zM139 1188v164h137v-164h-137z" />
<glyph unicode="k" horiz-adv-x="952" d="M150 0v1411l139 23v-904h192l267 412h155l-299 -463l309 -479h-155l-266 412h-203v-412h-139z" />
<glyph unicode="l" horiz-adv-x="417" d="M135 272v1139l137 23v-1162q0 -86 25 -118.5t61 -32.5v-121q-66 0 -108.5 22.5t-68 60.5t-36 87t-10.5 102z" />
<glyph unicode="m" horiz-adv-x="1554" d="M150 0v942h112l25 -168q31 109 95 149t171 40q123 0 188.5 -47.5t89.5 -155.5q31 117 99.5 160t181.5 43q88 0 146.5 -22.5t93 -71t49 -125t14.5 -187.5v-557h-139v557q0 82 -6 137.5t-25.5 89t-55.5 49t-95 15.5q-66 0 -111 -17.5t-73.5 -58.5t-43 -108.5t-14.5 -167.5 v-496h-139v557q0 82 -6.5 137.5t-25.5 89t-55 49t-96 15.5q-66 0 -110.5 -17.5t-73.5 -58.5t-43 -108.5t-14 -167.5v-496h-139z" />
<glyph unicode="n" horiz-adv-x="1071" d="M150 0v942h108l21 -156l6 -20q35 113 109.5 155t201.5 42q98 0 162.5 -22.5t101.5 -72t52.5 -127t15.5 -188.5v-553h-137v553q0 82 -8.5 138.5t-32 91t-66.5 49t-113 14.5q-76 0 -129 -18.5t-86.5 -61.5t-50 -113.5t-16.5 -175.5v-477h-139z" />
<glyph unicode="o" horiz-adv-x="1003" d="M88 471q0 139 24.5 233.5t75 151.5t128 82t186.5 25q106 0 185 -25t130 -82t76 -151.5t25 -233.5t-25 -233.5t-76 -151.5t-130 -81.5t-185 -24.5q-109 0 -186.5 24.5t-128 81.5t-75 151.5t-24.5 233.5zM225 471q0 -106 15.5 -179t48.5 -117t86 -62.5t127 -18.5 q76 0 128 18.5t85 62.5t48 117t15 179t-15 179t-48 117t-85 62.5t-128 18.5q-74 0 -127 -18.5t-86 -62.5t-48.5 -116.5t-15.5 -179.5z" />
<glyph unicode="p" horiz-adv-x="1056" d="M150 -492v1434h108l21 -158l6 -18q35 111 107.5 154t191.5 43q98 0 170.5 -27t120 -85t71 -151.5t23.5 -228.5t-23.5 -229.5t-71 -152.5t-120 -83.5t-170.5 -25.5q-119 0 -192 40.5t-107 151.5h-4q4 -41 6 -79t2 -79v-506h-139zM289 471q0 -106 15 -179t48 -117t85 -62.5 t126 -18.5q72 0 123 18.5t83 61.5t47 115.5t15 181.5q0 106 -15 179t-47 116t-83 61.5t-123 18.5t-123 -17.5t-84.5 -58.5t-49 -108.5t-17.5 -167.5v-23z" />
<glyph unicode="q" horiz-adv-x="1056" d="M86 471q0 135 23.5 228.5t71.5 151.5t120 85t170 27q121 0 192.5 -43t106.5 -154l6 18q6 41 12.5 79t10.5 79h106v-1434h-137v506q0 41 2 79t4 79h-4q-35 -111 -107.5 -151.5t-191.5 -40.5q-98 0 -170 25.5t-120 83.5t-71.5 152.5t-23.5 229.5zM225 471 q0 -109 14.5 -181.5t47 -115.5t84 -61.5t123.5 -18.5q70 0 122 17.5t85.5 58.5t50 108.5t16.5 167.5v31q0 104 -16.5 175t-49 114t-84 61.5t-124.5 18.5q-72 0 -123.5 -18.5t-84 -61.5t-47 -115.5t-14.5 -179.5z" />
<glyph unicode="r" horiz-adv-x="610" d="M143 0v942h113l20 -160q0 -10 5 -30q33 109 103.5 151.5t188.5 42.5v-115q-76 0 -131 -17t-90 -57t-52 -105.5t-19 -162.5v-489h-138z" />
<glyph unicode="s" horiz-adv-x="897" d="M61 256h132q0 -88 60 -125t187 -37q119 0 182.5 34t63.5 128q0 47 -20.5 74.5t-55.5 44t-79 24t-89 13.5q-72 8 -139 24.5t-118.5 47t-82 79.5t-30.5 125q0 131 87 203t287 72q186 0 275.5 -66t89.5 -213h-135q0 88 -55.5 126t-178.5 38q-113 0 -173 -34t-60 -128 q0 -47 19.5 -74.5t52 -44t74.5 -23.5t87 -14q78 -10 146.5 -26.5t121 -47t82 -79.5t29.5 -123q0 -133 -88 -203.5t-295 -70.5q-193 0 -285 65.5t-92 210.5z" />
<glyph unicode="t" horiz-adv-x="628" d="M23 825v117h124v215q35 6 70 14.5t70 16.5v-246h309v-117h-309v-456q0 -141 67.5 -197.5t198.5 -56.5v-115q-96 0 -172 18.5t-128 61.5t-79 113.5t-27 175.5v456h-124z" />
<glyph unicode="u" horiz-adv-x="1062" d="M133 471v471h137v-471q0 -109 8.5 -181.5t33 -115.5t68.5 -61.5t118 -18.5q70 0 121 17.5t84.5 58.5t50 108.5t18.5 165.5v498h139v-942h-108l-21 154l-6 22q-35 -113 -108.5 -154.5t-196.5 -41.5q-100 0 -165.5 26.5t-103.5 85t-53.5 151.5t-15.5 228z" />
<glyph unicode="v" horiz-adv-x="946" d="M18 942h146l231 -577q23 -55 35 -100.5t23 -80.5q8 -39 16 -69h4q6 31 16 69q10 33 23.5 79t36.5 99l231 580h144l-387 -942h-129z" />
<glyph unicode="w" horiz-adv-x="1347" d="M23 942h141l151 -536q18 -70 30.5 -125.5t19.5 -94.5q8 -45 12 -80h8q2 35 10 80q6 39 17.5 94.5t29.5 127.5l148 534h162l147 -534q37 -145 49 -222q8 -45 13 -80h6q0 33 8 78q6 39 17.5 94.5t33.5 127.5l156 536h139l-285 -942h-151l-154 530q-20 66 -30.5 119 t-16.5 90q-8 43 -10 74h-6q-2 -31 -11 -74q-6 -37 -17 -90t-30 -119l-151 -530h-152z" />
<glyph unicode="x" horiz-adv-x="880" d="M37 0l321 479l-301 463h162l143 -223q27 -45 42.5 -74t25.5 -45q10 -20 14 -31h7q4 10 12 31q8 16 23.5 45t43.5 72l146 225h151l-305 -459l322 -483h-154l-170 254q-29 41 -43 67.5t-22 43.5q-8 20 -11 30h-8q-4 -8 -12 -28q-8 -16 -23.5 -45t-44.5 -70l-168 -252h-151z " />
<glyph unicode="y" horiz-adv-x="923" d="M18 942h144l194 -498l54 -155q16 -43 25 -78t16 -59q8 -29 10 -52h6q4 29 12 66q6 33 18.5 77t32.5 99l41 98l193 502h141l-391 -1003q-43 -111 -85 -193t-86 -134t-95 -78t-113 -26v121q43 0 78 24.5t65.5 71t59.5 112t57 149.5z" />
<glyph unicode="z" horiz-adv-x="849" d="M51 0v115l574 712h-574v115h748v-115l-574 -712h574v-115h-748z" />
<glyph unicode="{" horiz-adv-x="661" d="M86 602v62l205 84q35 16 41 36.5t10 44.5q8 86 10 193.5t22.5 204t73 162t160.5 65.5v-119q-43 0 -68.5 -41t-40 -111.5t-19.5 -163.5t-9 -198q0 -23 -5 -46t-16.5 -44.5t-33 -38t-54.5 -22.5l-149 -35v-2l149 -35q39 -8 61.5 -27.5t33 -42t12.5 -45t2 -37.5 q4 -102 10 -196t19.5 -165t39 -113t68.5 -42v-116q-72 0 -119 38.5t-75.5 98t-43 132.5t-19.5 142.5t-6 126t-3 84.5q-4 29 -12 49.5t-39 32.5z" />
<glyph unicode="|" horiz-adv-x="536" d="M211 -246v1680h113v-1680h-113z" />
<glyph unicode="}" horiz-adv-x="663" d="M53 -70q43 0 68.5 42t39 113t19.5 165t10 196q0 14 2.5 37t12.5 45.5t31.5 42t62.5 27.5l150 35v2l-150 35q-35 6 -55.5 22.5t-31.5 38t-16.5 45t-5.5 45.5q-4 104 -9 197.5t-19.5 164t-40 111.5t-68.5 41v119q109 0 161 -65.5t72.5 -162t22.5 -204t10 -193.5 q4 -25 10.5 -45t41.5 -36l204 -84v-62l-204 -84q-31 -12 -39 -32.5t-13 -49.5q-2 -27 -3 -84t-6 -126.5t-19.5 -142.5t-43 -132.5t-75.5 -98t-119 -38.5v116z" />
<glyph unicode="~" horiz-adv-x="1218" d="M141 526q0 176 76 250t205 74q63 0 105 -15.5t69 -38t40 -48t23 -46.5q4 -12 13.5 -26t25 -26.5t41 -20.5t64.5 -8q35 0 62.5 9t48 31.5t30.5 63.5t10 106h121q0 -178 -75.5 -250.5t-202.5 -72.5q-61 0 -102.5 14.5t-68 36t-41 47t-26.5 49.5q-14 29 -45 55.5t-104 26.5 q-33 0 -60.5 -8t-47 -31.5t-30 -64.5t-10.5 -107h-121z" />
<glyph unicode="&#xa1;" horiz-adv-x="425" d="M131 -492l27 943h112l25 -943h-164zM145 690v170h138v-170h-138z" />
<glyph unicode="&#xa2;" horiz-adv-x="925" d="M88 799q0 199 77 285.5t247 101.5v166h108v-166q74 -4 136.5 -20.5t108.5 -50.5t71.5 -85t25.5 -121h-131q0 86 -57.5 123t-153.5 41v-551q45 2 84 11.5t66.5 29t44 49t16.5 74.5h131q0 -72 -25.5 -122t-71.5 -82.5t-108.5 -50t-136.5 -21.5v-164h-108v166 q-170 10 -247 98t-77 289zM221 799q0 -135 40 -197.5t151 -75.5v543q-111 -12 -151 -74.5t-40 -195.5z" />
<glyph unicode="&#xa3;" horiz-adv-x="1054" d="M70 0v123h59q45 0 78 21.5t56.5 56.5t35.5 76.5t14 84.5q0 45 -8 83t-24 77h-199v103h145q-45 66 -84 138.5t-39 178.5q0 86 29 147.5t80 101.5t122 59.5t152 19.5q76 0 144.5 -17.5t121 -56.5t83 -101.5t30.5 -152.5h-137q0 57 -20.5 98t-54 65.5t-81 36t-98.5 11.5 q-238 0 -237 -213q0 -49 12 -91t32.5 -80t45 -72.5t47.5 -71.5h352v-103h-305q18 -66 18 -127q0 -111 -40 -182.5t-103 -93.5h330q117 0 163 40t46 117h135q0 -147 -82 -211.5t-262 -64.5h-557z" />
<glyph unicode="&#xa5;" horiz-adv-x="1114" d="M23 1352h151l295 -535q27 -53 42 -92t26 -66q10 -31 14 -51h6q4 20 14 51q10 27 25.5 66t42.5 92l297 535h149l-362 -662h258v-102h-313l-45 -80v-146h358v-102h-358v-260h-138v260h-354v102h354v146l-45 80h-309v102h254z" />
<glyph unicode="&#xa7;" horiz-adv-x="897" d="M61 252h132q0 -88 60 -125t185 -37q121 0 184.5 34t63.5 126q0 47 -20.5 75.5t-55.5 45t-79 23.5t-89 14q-72 8 -138 23t-117.5 46t-83 80t-31.5 123q0 80 35.5 134t117.5 83q-68 29 -110.5 80t-42.5 141q0 131 87 203t287 72q186 0 275.5 -65.5t89.5 -213.5h-135 q0 88 -55.5 126t-178.5 38q-113 0 -173 -34t-60 -128q0 -47 19.5 -74.5t52 -44t74.5 -23.5t87 -13q78 -10 146.5 -28t121 -47.5t82 -77.5t29.5 -120q0 -82 -36.5 -136t-118.5 -81q70 -31 112.5 -81t42.5 -140q0 -135 -88 -206t-295 -71q-193 0 -285 65.5t-92 213.5zM209 680 q0 -47 19.5 -74.5t52 -43t74.5 -24t87 -14.5q119 0 181.5 34t62.5 128q0 47 -20.5 74.5t-55.5 44t-79 24t-89 13.5q-113 0 -173 -34t-60 -128z" />
<glyph unicode="&#xa8;" horiz-adv-x="782" d="M141 1116v168h127v-168h-127zM514 1116v168h129v-168h-129z" />
<glyph unicode="&#xa9;" horiz-adv-x="1527" d="M98 676q0 197 39 331t120 215t207 115.5t300 34.5t299 -34.5t207 -115.5t121 -215.5t39 -330.5q0 -197 -39 -331t-121 -215t-207 -115.5t-299 -34.5t-300 34.5t-207 115.5t-120 215t-39 331zM190 676q0 -174 34 -292t103.5 -189.5t178 -102.5t258.5 -31t258 31t178 102.5 t103.5 189.5t33.5 292t-33.5 291.5t-103.5 189.5t-178.5 102.5t-257.5 30.5q-150 0 -258.5 -30.5t-178 -102.5t-103.5 -189.5t-34 -291.5zM387 676q0 121 22.5 203t69.5 133t120 72.5t173 21.5q80 0 147.5 -15.5t116.5 -47t77 -84t28 -125.5h-131q0 90 -61.5 125.5 t-166.5 35.5q-76 0 -126 -16t-80.5 -53t-43 -98.5t-12.5 -151.5t12.5 -151.5t43 -98.5t81 -53.5t127.5 -16.5q98 0 162 34t64 128h131q0 -74 -28 -126t-77 -85t-116.5 -47t-147.5 -14q-100 0 -173 21.5t-120 71.5t-69.5 133t-22.5 204z" />
<glyph unicode="&#xaa;" horiz-adv-x="638" d="M104 807q0 49 17.5 75.5t45.5 40t59.5 16.5t62.5 7q35 4 66.5 6t64.5 4v48q0 47 -22.5 64t-82.5 17q-57 0 -77.5 -16t-20.5 -55h-90q0 78 45 111.5t143 33.5q111 0 153 -41t42 -114v-209q0 -47 39 -47v-74q-59 0 -87 23.5t-32 58.5q-20 -53 -56 -70.5t-95 -17.5 q-35 0 -66 5t-55.5 20.5t-39 43t-14.5 70.5zM195 809q0 -39 19.5 -53.5t68.5 -14.5q72 0 102.5 32t34.5 118q-35 -2 -69 -5t-68 -7q-41 -4 -64.5 -14.5t-23.5 -55.5z" />
<glyph unicode="&#xab;" horiz-adv-x="761" d="M88 483l260 357h133l-219 -291q-12 -16 -24.5 -30.5t-26.5 -31.5v-8q14 -16 26.5 -29.5t24.5 -29.5l236 -318h-133zM354 483l191 254h123l-150 -190q-12 -16 -24.5 -29.5t-26.5 -30.5v-8q14 -16 26.5 -29.5t24.5 -29.5l166 -215h-123z" />
<glyph unicode="&#xad;" horiz-adv-x="937" d="M145 416v119h646v-119h-646z" />
<glyph unicode="&#xae;" horiz-adv-x="1527" d="M98 676q0 197 39 331t120 215t207 115.5t300 34.5t299 -34.5t207 -115.5t121 -215.5t39 -330.5q0 -197 -39 -331t-121 -215t-207 -115.5t-299 -34.5t-300 34.5t-207 115.5t-120 215t-39 331zM190 676q0 -174 34 -292t103.5 -189.5t178 -102.5t258.5 -31t258 31t178 102.5 t103.5 189.5t33.5 292t-33.5 291.5t-103.5 189.5t-178.5 102.5t-257.5 30.5q-150 0 -258.5 -30.5t-178 -102.5t-103.5 -189.5t-34 -291.5zM467 246v860h350q168 0 247 -65.5t79 -223.5q0 -123 -45 -186.5t-137 -85.5l190 -299h-141l-181 284h-229v-284h-133zM600 639h205 q115 0 162 38t47 138q0 98 -46 139t-163 41h-205v-356z" />
<glyph unicode="&#xb0;" horiz-adv-x="643" d="M70 1096q0 150 60 208t192 58q131 0 190 -58.5t59 -207.5q0 -76 -14 -127t-45 -82t-77.5 -44.5t-112.5 -13.5t-113 13.5t-78 44.5t-46 82t-15 127zM188 1096q0 -98 32 -134t102 -36t101.5 36.5t31.5 133.5q0 94 -32 131t-101 37q-70 0 -102 -37t-32 -131z" />
<glyph unicode="&#xb2;" horiz-adv-x="534" d="M39 676v76l295 313q16 18 41.5 49t25.5 70q0 55 -34.5 78.5t-104.5 23.5t-101.5 -23.5t-31.5 -82.5h-86q0 102 55.5 142t163.5 40q123 0 175 -45t52 -123q0 -33 -8 -58.5t-20 -44t-24.5 -33t-20.5 -24.5l-264 -282h342v-76h-455z" />
<glyph unicode="&#xb3;" horiz-adv-x="546" d="M31 848h90q0 -59 42 -83t99 -24q88 0 121 41t33 99q0 59 -34 92t-116 33h-63v73l164 197h-316v76h428v-76l-112 -127q-16 -18 -34 -36l-36 -36q207 -8 207 -196q0 -92 -54.5 -153.5t-185.5 -61.5q-47 0 -89 10t-73.5 31.5t-51 56.5t-19.5 84z" />
<glyph unicode="&#xb4;" horiz-adv-x="534" d="M102 1087l146 267h184l-211 -267h-119z" />
<glyph unicode="&#xb7;" horiz-adv-x="409" d="M141 662v169h127v-169h-127z" />
<glyph unicode="&#xb8;" horiz-adv-x="638" d="M180 -297q23 -14 64 -22.5t88 -8.5t75.5 13.5t28.5 54.5q0 45 -41 67.5t-133 26.5l21 182h96l-14 -114q86 -6 138 -41t52 -113q0 -86 -61.5 -129t-157.5 -43q-47 0 -90 9t-66 24v94z" />
<glyph unicode="&#xb9;" horiz-adv-x="430" d="M45 676v76h125v505l-125 -24v78l215 41v-600h125v-76h-340z" />
<glyph unicode="&#xba;" horiz-adv-x="643" d="M70 1014q0 98 15 164.5t46 107.5t78 58.5t113 17.5t112.5 -17.5t77.5 -58.5t45 -107.5t14 -164.5t-14 -166t-45 -108t-77.5 -57t-112.5 -17t-113 17t-78 57t-46 107.5t-15 166.5zM188 1014q0 -143 32 -197.5t102 -54.5t101.5 54t31.5 198q0 141 -32 195.5t-101 54.5 q-70 0 -102 -54.5t-32 -195.5z" />
<glyph unicode="&#xbb;" horiz-adv-x="772" d="M88 205l166 215q12 16 24.5 29.5t26.5 29.5v8q-14 16 -26.5 29.5t-24.5 30.5l-150 190h123l191 -254l-207 -278h-123zM274 102l236 318q12 16 24.5 29.5t26.5 29.5v8q-14 16 -26.5 30.5t-24.5 31.5l-219 291h133l260 -357l-276 -381h-134z" />
<glyph unicode="&#xbf;" horiz-adv-x="989" d="M47 -123q0 115 35 182.5t85 104.5t105.5 52t96.5 28q27 8 49 20t38.5 37t26 67t9.5 113h137q0 -106 -20.5 -171.5t-56.5 -103.5t-83 -57.5t-100 -33.5q-31 -10 -64 -20.5t-59.5 -35t-44 -66.5t-17.5 -114q0 -78 24.5 -130t69 -83t106.5 -44t136 -13q147 0 233.5 51 t86.5 176h137q0 -96 -33 -161.5t-92 -107.5t-142 -60.5t-184 -18.5q-254 0 -366.5 102.5t-112.5 286.5zM492 690v170h137v-170h-137z" />
<glyph unicode="&#xc6;" horiz-adv-x="1662" d="M20 0l558 1352h978v-121h-604v-492h523v-118h-523v-500h604v-121h-741v295h-530l-121 -295h-144zM332 416h483v807h-176q-10 -37 -25 -86q-12 -41 -31.5 -98.5t-47.5 -127.5z" />
<glyph unicode="&#xe6;" horiz-adv-x="1517" d="M76 254q0 92 29.5 144.5t75.5 79t102.5 34.5t109.5 14l289 29v96q0 104 -50 149.5t-171 45.5q-117 0 -160 -39t-43 -123h-135q0 143 79 211t244 68q82 0 140.5 -16.5t95.5 -50.5t56.5 -84t23.5 -116q27 150 105.5 208.5t215.5 58.5q176 0 262.5 -87.5t86.5 -295.5 q0 -37 -4.5 -80t-14.5 -80h-592q2 -92 15.5 -153.5t43 -100.5t75.5 -55.5t116 -16.5q45 0 83 8.5t66.5 26.5t45 49t16.5 78h135q0 -76 -27.5 -129t-75.5 -86t-110.5 -47t-132.5 -14q-139 0 -218 66.5t-99 242.5q-12 -92 -38 -151.5t-68 -94.5t-101.5 -49t-138.5 -14 q-68 0 -128.5 11t-105.5 40.5t-71.5 83t-26.5 139.5zM213 256q0 -92 44 -126t146 -34q74 0 126.5 16.5t85 56.5t49 106.5t18.5 168.5l-262 -24q-45 -4 -83 -9t-65.5 -20.5t-43 -46.5t-15.5 -88zM821 528h471q2 10 2 18.5v18.5q0 80 -11 134.5t-37.5 86t-70 46t-106.5 14.5 q-68 0 -114 -15.5t-75.5 -52.5t-43 -98.5t-15.5 -151.5z" />
<glyph unicode="&#x130;" horiz-adv-x="483" d="M172 0v1352h139v-1352h-139zM178 1526v168h127v-168h-127z" />
<glyph unicode="&#x152;" horiz-adv-x="1792" d="M94 676q0 197 32 331t96.5 215t164.5 115.5t240 34.5q111 0 192 -20h869v-121h-674q70 -70 104.5 -188.5t40.5 -303.5h447v-118h-447q-4 -186 -40 -308.5t-105 -191.5h674v-121h-869q-81 -20 -192 -20q-139 0 -239.5 34.5t-165 115.5t-96.5 215t-32 331zM233 676 q0 -164 23 -274.5t71 -177t123 -95.5t177 -29t177 29t123 95.5t71.5 177t23.5 274.5q0 162 -23.5 272.5t-71.5 178t-123 96t-177 28.5t-177 -28.5t-123 -96t-71 -178t-23 -272.5z" />
<glyph unicode="&#x153;" horiz-adv-x="1492" d="M86 471q0 137 22.5 231.5t67.5 152.5t114.5 83t164.5 25q123 0 198.5 -45.5t112.5 -159.5q35 115 109.5 160t197.5 45q170 0 251 -86t81 -297q0 -37 -4 -80t-15 -80h-550q2 -92 14 -153.5t38.5 -100.5t69.5 -55.5t107 -16.5q39 0 72.5 7.5t60.5 25.5t42 50t15 79h136 q0 -76 -26 -128t-71 -85t-105.5 -48t-129.5 -15q-115 0 -187.5 44t-107.5 158q-35 -115 -110.5 -158.5t-198.5 -43.5q-94 0 -164 24.5t-115 81.5t-67.5 151.5t-22.5 233.5zM225 471q0 -109 12.5 -180.5t41 -115.5t72.5 -62.5t110 -18.5q63 0 108 18.5t73 62.5t41 115.5 t13 180.5q0 106 -13 178t-41 116t-73 62.5t-108 18.5q-66 0 -110 -18.5t-72.5 -62.5t-41 -115.5t-12.5 -178.5zM836 528h430q2 10 2 19.5v19.5q0 158 -46 218.5t-159 60.5q-61 0 -103 -16.5t-69 -53.5t-40 -97.5t-15 -150.5z" />
<glyph unicode="&#x192;" horiz-adv-x="548" d="M39 827v115h125v123q0 104 26.5 175t81 114t134 61.5t184.5 18.5v-115q-86 0 -141.5 -12.5t-87 -42t-45 -78.5t-13.5 -121v-123h248v-115h-248v-1044q0 -53 -10 -102.5t-36 -87t-70 -60t-109 -22.5v120q37 0 61.5 32t24.5 114v1050h-125z" />
<glyph unicode="&#x2c6;" horiz-adv-x="782" d="M96 1092l256 266h80l254 -266h-139l-84 82q-37 35 -55 63q-8 14 -15 29h-4q-6 -12 -14 -27q-8 -12 -21.5 -29.5t-34.5 -35.5l-81 -82h-142z" />
<glyph unicode="&#x2da;" horiz-adv-x="581" d="M102 1255q0 72 51.5 125.5t137.5 53.5t137 -53.5t51 -125.5q0 -78 -48 -131t-140 -53t-140.5 53.5t-48.5 130.5zM193 1253q0 -39 24.5 -68.5t73.5 -29.5t73.5 29.5t24.5 68.5q0 43 -25.5 72t-72.5 29t-72.5 -29t-25.5 -72z" />
<glyph unicode="&#x2dc;" horiz-adv-x="796" d="M102 1098q0 45 5.5 85t21.5 70.5t46 48t81 17.5q49 0 82 -17.5t70 -41.5q35 -27 59.5 -41.5t54.5 -14.5q35 0 49.5 26.5t14.5 90.5h108q0 -47 -4 -88t-20.5 -70.5t-48 -46t-84.5 -16.5q-47 0 -78 16.5t-66 38.5q-39 27 -64.5 42t-54.5 15q-39 0 -53 -26.5t-14 -87.5h-105 z" />
<glyph unicode="&#x400;" horiz-adv-x="1122" d="M172 0v1352h846v-121h-707v-492h625v-118h-625v-500h707v-121h-846zM389 1764h195l145 -267h-123z" />
<glyph unicode="&#x401;" horiz-adv-x="1122" d="M172 0v1352h846v-121h-707v-492h625v-118h-625v-500h707v-121h-846zM342 1526v168h127v-168h-127zM715 1526v168h129v-168h-129z" />
<glyph unicode="&#x402;" horiz-adv-x="1388" d="M29 1231v121h870v-121h-461v-225q0 -129 -6 -254l-4 -80h4q37 123 126 166t230 43q127 0 215.5 -25t142.5 -77t78.5 -133t24.5 -193q0 -125 -28.5 -211t-88 -140.5t-151.5 -78t-219 -23.5h-51v119h34q102 0 172 18.5t113 58.5t61.5 104.5t18.5 156.5q0 82 -15.5 140 t-55.5 94t-106.5 52.5t-166.5 16.5q-90 0 -152.5 -16.5t-101.5 -55.5t-56.5 -100.5t-17.5 -153.5v-434h-139v1231h-270z" />
<glyph unicode="&#x403;" horiz-adv-x="1024" d="M178 0v1352h789v-121h-652v-1231h-137zM421 1497l146 267h194l-217 -267h-123z" />
<glyph unicode="&#x404;" horiz-adv-x="1193" d="M94 678q0 193 33 326t99.5 214.5t169 117.5t241.5 36q102 0 193.5 -18.5t160 -60.5t108.5 -108.5t40 -160.5h-135q0 61 -30 105.5t-79 71t-114.5 38.5t-137.5 12q-102 0 -177 -26.5t-126 -86t-77.5 -157.5t-31.5 -242h568v-118h-568q4 -145 31 -245t77 -161t126 -88 t178 -27q70 0 135.5 12.5t115.5 39t80 69.5t30 107h135q0 -96 -41 -162t-110.5 -108t-160 -60t-190.5 -18q-139 0 -241.5 35.5t-169 118.5t-99.5 216t-33 328z" />
<glyph unicode="&#x405;" horiz-adv-x="1183" d="M68 328h137q0 -121 90 -174.5t276 -53.5q86 0 157 12.5t120 42t76.5 80t27.5 125.5q0 76 -30.5 121t-83 71t-120 37t-138.5 21q-98 12 -187.5 34t-156 64t-105.5 108.5t-39 170.5q0 90 27.5 162t87 121t155 75.5t230.5 26.5q223 0 347 -79t124 -269h-135q0 125 -86 176 t-254 51q-84 0 -149.5 -12t-111.5 -43t-71 -81t-25 -126q0 -78 30 -123t78 -69.5t110.5 -35.5t130.5 -20q100 -14 192 -33.5t163 -59.5t113 -107.5t42 -175.5q0 -201 -131.5 -293t-391.5 -92q-252 0 -375.5 83.5t-123.5 264.5z" />
<glyph unicode="&#x406;" horiz-adv-x="483" d="M172 0v1352h139v-1352h-139z" />
<glyph unicode="&#x407;" horiz-adv-x="483" d="M-6 1526v168h127v-168h-127zM172 0v1352h139v-1352h-139zM367 1526v168h129v-168h-129z" />
<glyph unicode="&#x408;" horiz-adv-x="950" d="M14 328h129q0 -121 64.5 -176.5t206.5 -55.5q61 0 109 11.5t82 37t52.5 70.5t18.5 113v1024h139v-1024q0 -168 -95 -258t-308 -90q-201 0 -299.5 82.5t-98.5 265.5z" />
<glyph unicode="&#x409;" horiz-adv-x="1847" d="M43 0v121q84 0 128 25.5t64.5 79t25.5 135t11 192.5l50 799h731v-533h268q119 0 207 -21.5t145.5 -70.5t85 -130t27.5 -198q0 -113 -27.5 -189.5t-85 -122.5t-145.5 -66.5t-207 -20.5h-406v1231h-464l-39 -678q-8 -152 -21.5 -256t-50.5 -171t-106.5 -96.5t-190.5 -29.5z M1053 121h256q180 0 259 60.5t79 217.5q0 168 -79 233.5t-259 65.5h-256v-577z" />
<glyph unicode="&#x40a;" horiz-adv-x="1908" d="M172 0v1352h139v-613h666v613h137v-533h268q119 0 207 -21.5t145.5 -70.5t85 -130t27.5 -198q0 -113 -27.5 -189.5t-85 -122.5t-145.5 -66.5t-207 -20.5h-405v621h-666v-621h-139zM1114 121h256q180 0 259 60.5t79 217.5q0 168 -79 233.5t-259 65.5h-256v-577z" />
<glyph unicode="&#x40b;" horiz-adv-x="1388" d="M29 1231v121h870v-121h-461v-187q0 -145 -6 -292l-4 -80l2 -2q37 125 124 168t226 43q236 0 352.5 -104.5t116.5 -346.5v-430h-139v430q0 92 -23.5 155.5t-67.5 102.5t-109.5 55.5t-151.5 16.5q-84 0 -143.5 -15.5t-99.5 -52.5t-58.5 -100.5t-18.5 -159.5v-432h-139v1231 h-270z" />
<glyph unicode="&#x40c;" horiz-adv-x="1204" d="M172 0v1352h139v-613h303l396 613h153l-430 -668l441 -684h-154l-399 621h-310v-621h-139zM512 1497l146 267h194l-217 -267h-123z" />
<glyph unicode="&#x40d;" horiz-adv-x="1370" d="M172 0v1352h139v-930q0 -55 -2 -102.5t-4 -81.5q-4 -41 -6 -74h8q0 2 19.5 37t49.5 87t67.5 116.5t76.5 127.5l520 820h156v-1352h-137v924q0 113 6 184q2 41 6 74h-8q-14 -27 -33 -58q-16 -27 -34.5 -61.5t-41.5 -69.5l-108 -178l-516 -815h-158zM450 1764h195l145 -267 h-123z" />
<glyph unicode="&#x40e;" horiz-adv-x="1179" d="M27 1352h149q84 -174 164 -344t164 -344l14 -39q25 -53 39 -92t25 -66q8 -31 14 -51h6q-4 4 13.5 51t49 124t74.5 174t88 200.5t91.5 204t82.5 182.5h152l-508 -1098q-23 -49 -42 -95t-51 -82t-84 -57.5t-144 -21.5v119q57 0 85.5 9t46 31.5t32 59.5t42.5 94zM315 1710 h109q0 -98 164 -98t164 98h110q0 -104 -69.5 -152t-204.5 -48t-204 48t-69 152z" />
<glyph unicode="&#x40f;" horiz-adv-x="1320" d="M172 0v1352h139v-1231h697v1231h137v-1352h-416v-287h-137v287h-420z" />
<glyph unicode="&#x410;" horiz-adv-x="1282" d="M20 0l558 1352h129q139 -340 276 -676t279 -676h-146q-31 74 -59.5 147.5t-59.5 147.5h-714q-29 -74 -58.5 -147.5t-60.5 -147.5h-144zM332 416h616q-59 147 -116.5 290.5t-101.5 257t-68.5 185.5t-16.5 74h-8q-8 -37 -23 -86q-12 -41 -31.5 -98.5t-47.5 -127.5z" />
<glyph unicode="&#x411;" horiz-adv-x="1191" d="M178 0v1352h850v-121h-713v-422h340q123 0 212 -21.5t147.5 -70.5t87 -128t28.5 -196q0 -111 -28.5 -186.5t-87 -121.5t-147.5 -65.5t-212 -19.5h-477zM315 121h328q94 0 159.5 13t107.5 46t61.5 84t19.5 129q0 82 -19.5 139.5t-61.5 91t-107.5 49t-159.5 15.5h-328v-567 z" />
<glyph unicode="&#x412;" horiz-adv-x="1214" d="M172 0v1352h490q217 0 319 -78t102 -275q0 -147 -60 -220.5t-189 -98.5q150 -23 220 -98.5t70 -229.5q0 -100 -27.5 -167.5t-85 -108.5t-144.5 -58.5t-205 -17.5h-490zM311 121h338q92 0 156.5 12t104.5 40t58.5 74t18.5 111q0 143 -78 203t-260 60h-338v-500zM311 739 h338q80 0 136.5 13.5t92 43t52 79t16.5 120.5q0 131 -67.5 183.5t-229.5 52.5h-338v-492z" />
<glyph unicode="&#x413;" horiz-adv-x="1024" d="M178 0v1352h789v-121h-652v-1231h-137z" />
<glyph unicode="&#x414;" horiz-adv-x="1333" d="M45 119h72q10 0 35.5 26.5t54.5 81t53.5 139.5t30.5 201l45 785h817v-1233h133v-365h-139v246h-965v-246h-137v365zM274 119h740v1112h-549l-37 -664q-6 -92 -21.5 -164.5t-37 -128t-47 -94.5t-48.5 -61z" />
<glyph unicode="&#x415;" horiz-adv-x="1122" d="M172 0v1352h846v-121h-707v-492h625v-118h-625v-500h707v-121h-846z" />
<glyph unicode="&#x416;" horiz-adv-x="1613" d="M27 0l440 684l-430 668h156l393 -613h153v613h138v-613h149l395 613h156l-430 -668l440 -684h-155l-400 621h-155v-621h-138v621h-157l-400 -621h-155z" />
<glyph unicode="&#x417;" horiz-adv-x="1181" d="M63 328h136q0 -123 93 -175.5t273 -52.5q86 0 156 12.5t120 42t77.5 80t27.5 125.5q0 76 -29.5 127.5t-81 80t-119 41t-143.5 12.5h-100v118h94q68 0 131.5 10.5t111.5 38t76.5 76.5t28.5 125t-25.5 126t-71.5 81t-111.5 43t-147.5 12q-166 0 -253 -51t-87 -176h-135 q0 94 33 160.5t94 108.5t148 60.5t196 18.5q266 0 386 -104.5t114 -280.5q-6 -131 -79 -202.5t-190 -100.5q139 -27 219 -102.5t80 -223.5q0 -197 -135 -287.5t-391 -90.5q-248 0 -372 83.5t-124 264.5z" />
<glyph unicode="&#x418;" horiz-adv-x="1370" d="M172 0v1352h139v-930q0 -55 -2 -102.5t-4 -81.5q-4 -41 -6 -74h8q0 2 19.5 37t49.5 87t67.5 116.5t76.5 127.5l520 820h156v-1352h-137v924q0 113 6 184q2 41 6 74h-8q-14 -27 -33 -58q-16 -27 -34.5 -61.5t-41.5 -69.5l-108 -178l-516 -815h-158z" />
<glyph unicode="&#x419;" horiz-adv-x="1370" d="M172 0v1352h139v-930q0 -55 -2 -102.5t-4 -81.5q-4 -41 -6 -74h8q0 2 19.5 37t49.5 87t67.5 116.5t76.5 127.5l520 820h156v-1352h-137v924q0 113 6 184q2 41 6 74h-8q-14 -27 -33 -58q-16 -27 -34.5 -61.5t-41.5 -69.5l-108 -178l-516 -815h-158zM409 1710h109 q0 -98 164 -98t164 98h110q0 -104 -69.5 -152t-204.5 -48t-204 48t-69 152z" />
<glyph unicode="&#x41a;" horiz-adv-x="1204" d="M172 0v1352h139v-613h303l396 613h153l-430 -668l441 -684h-154l-399 621h-310v-621h-139z" />
<glyph unicode="&#x41b;" horiz-adv-x="1314" d="M43 0v119q84 0 128 25.5t64.5 78.5t25.5 135t11 195l50 799h813v-1352h-138v1231h-548l-37 -678q-10 -152 -23.5 -256t-50.5 -171t-105.5 -96.5t-189.5 -29.5z" />
<glyph unicode="&#x41c;" horiz-adv-x="1665" d="M168 0v1352h174q98 -246 195.5 -487.5t195.5 -487.5q16 -39 28.5 -74t27.5 -67q10 -29 17 -48.5t11 -33.5q6 -16 8 -27h7q2 10 8 27q4 14 11 33.5t17 48.5l445 1116h176v-1352h-139v936q0 111 6 166q2 33 6 55h-6q0 -8 -14.5 -56t-49.5 -132q-27 -61 -50 -122t-50 -120 l-291 -727h-145q-98 244 -196.5 494.5t-201.5 486.5q-18 41 -29 75t-18 56q-8 27 -10 45h-6l6 -55q2 -29 4 -71t2 -95v-936h-139z" />
<glyph unicode="&#x41d;" horiz-adv-x="1372" d="M172 0v1352h139v-613h748v613h137v-1352h-137v621h-748v-621h-139z" />
<glyph unicode="&#x41e;" horiz-adv-x="1345" d="M94 676q0 197 34 331t104.5 215t180 115.5t261.5 34.5q150 0 259 -34.5t180 -115.5t104.5 -215.5t33.5 -330.5q0 -197 -33.5 -331t-104.5 -215t-180 -115.5t-259 -34.5q-152 0 -261.5 34.5t-180 115.5t-104.5 215t-34 331zM233 676q0 -164 26 -274.5t79 -177t137 -95.5 t199 -29t197.5 29t137 95.5t80 177t25.5 274.5q0 162 -25.5 272.5t-80 178t-137.5 96t-197 28.5q-115 0 -199 -28.5t-137 -96t-79 -178t-26 -272.5z" />
<glyph unicode="&#x41f;" horiz-adv-x="1320" d="M172 0v1352h973v-1352h-137v1231h-697v-1231h-139z" />
<glyph unicode="&#x420;" horiz-adv-x="1185" d="M172 0v1352h490q119 0 206.5 -22.5t144 -74t84 -134.5t27.5 -206q0 -127 -27.5 -214t-84 -140t-144.5 -76.5t-206 -23.5h-351v-461h-139zM311 582h338q90 0 154.5 16t105.5 55t59.5 103.5t18.5 158.5q0 88 -18.5 148.5t-59.5 97.5t-105.5 53.5t-154.5 16.5h-338v-649z " />
<glyph unicode="&#x421;" horiz-adv-x="1193" d="M94 678q0 199 33 332t99.5 214t170 114.5t244.5 33.5q100 0 190.5 -15.5t159 -54t108.5 -106.5t40 -172h-138q0 72 -29.5 116t-79.5 68.5t-114.5 33.5t-134.5 9q-109 0 -185.5 -26.5t-126.5 -93t-74 -177t-24 -276.5q0 -168 24 -278.5t74 -177t127 -94.5t183 -28 q68 0 133.5 9.5t115.5 34t80.5 68.5t30.5 116h138q0 -104 -41 -172t-109.5 -107t-160 -54t-189.5 -15q-141 0 -243.5 34.5t-169 115.5t-99.5 215t-33 333z" />
<glyph unicode="&#x422;" horiz-adv-x="1112" d="M27 1231v121h1058v-121h-460v-1231h-138v1231h-460z" />
<glyph unicode="&#x423;" horiz-adv-x="1179" d="M27 1352h149q84 -174 164 -344t164 -344l14 -39q25 -53 39 -92t25 -66q8 -31 14 -51h6q-4 4 13.5 51t49 124t74.5 174t88 200.5t91.5 204t82.5 182.5h152l-508 -1098q-23 -49 -42 -95t-51 -82t-84 -57.5t-144 -21.5v119q57 0 85.5 9t46 31.5t32 59.5t42.5 94z" />
<glyph unicode="&#x424;" horiz-adv-x="1558" d="M98 676q0 131 31 223t102.5 149.5t188.5 85t291 31.5v166l139 21v-187q172 -4 289.5 -31.5t188.5 -85t101.5 -149.5t30.5 -223q0 -133 -30.5 -225.5t-101.5 -149.5t-188.5 -85t-289.5 -32v-184h-139v184q-174 4 -291 32t-188.5 85t-102.5 149.5t-31 225.5zM236 676 q0 -100 20 -169t73.5 -113t145.5 -65.5t236 -23.5v742q-143 -4 -235.5 -25t-146 -65t-73.5 -112.5t-20 -168.5zM850 305q141 2 233.5 23.5t144.5 65.5t72.5 113t20.5 169q0 98 -20.5 167.5t-72.5 112.5t-144.5 64.5t-233.5 26.5v-742z" />
<glyph unicode="&#x425;" horiz-adv-x="1105" d="M27 0l440 684l-422 668h162l268 -439q41 -72 55.5 -104.5t18.5 -42.5q6 -2 18.5 34t61.5 113l274 439h160l-426 -668l440 -684h-166q-72 113 -142.5 224.5t-141.5 226.5q-43 72 -57.5 103.5t-18.5 43.5q-10 -8 -21.5 -39.5t-56.5 -109.5q-72 -113 -142.5 -224.5 t-142.5 -224.5h-161z" />
<glyph unicode="&#x426;" horiz-adv-x="1331" d="M178 0v1352h137v-1231h697v1231h139v-1231h133v-367h-139v246h-967z" />
<glyph unicode="&#x427;" horiz-adv-x="1187" d="M61 922v430h138v-430q0 -188 88 -267.5t276 -79.5q82 0 141.5 15.5t98.5 55.5t56.5 106.5t17.5 169.5v430h139v-1352h-139v496q0 41 2 78.5t6 78.5h-4q-39 -117 -123 -157.5t-217 -40.5q-242 0 -361 108.5t-119 358.5z" />
<glyph unicode="&#x428;" horiz-adv-x="1726" d="M172 0v1352h139v-1231h484v1231h139v-1231h481v1231h137v-1352h-1380z" />
<glyph unicode="&#x429;" horiz-adv-x="1726" d="M172 0v1352h139v-1233h484v1233h137v-1233h483v1233h137v-1233h134v-365h-138v246h-1376z" />
<glyph unicode="&#x42a;" horiz-adv-x="1280" d="M14 1231v121h389v-533h351q119 0 207 -21.5t144 -71.5t84 -130t28 -197q0 -113 -28 -189.5t-84 -122.5t-144.5 -66.5t-206.5 -20.5h-490v1231h-250zM403 119h338q180 0 259 61.5t79 218.5q0 84 -18.5 141.5t-59 92.5t-105.5 50t-155 15h-338v-579z" />
<glyph unicode="&#x42b;" horiz-adv-x="1605" d="M172 0v1352h139v-533h351q119 0 206.5 -21.5t144 -70.5t84 -130t27.5 -198q0 -113 -27.5 -189.5t-84 -122.5t-144.5 -66.5t-206 -20.5h-490zM311 121h338q180 0 259 60.5t79 217.5q0 168 -79 233.5t-259 65.5h-338v-577zM1294 0v1352h140v-1352h-140z" />
<glyph unicode="&#x42c;" horiz-adv-x="1185" d="M172 0v1352h139v-533h351q119 0 206.5 -21.5t144 -70.5t84 -130t27.5 -198q0 -113 -27.5 -189.5t-84 -122.5t-144.5 -66.5t-206 -20.5h-490zM311 121h338q180 0 259 60.5t79 217.5q0 168 -79 233.5t-259 65.5h-338v-577z" />
<glyph unicode="&#x42d;" horiz-adv-x="1191" d="M53 328h135q0 -63 30 -106.5t80 -70t115.5 -39t135.5 -12.5q100 0 176 27t126 88t77.5 160.5t32.5 245.5h-568v118h568q-4 143 -32 241.5t-78 158t-126 86t-176 26.5q-72 0 -137.5 -12t-114.5 -38.5t-79 -71t-30 -105.5h-135q0 94 40 160.5t108.5 108.5t160 60.5 t193.5 18.5q139 0 241.5 -36t169 -117.5t99.5 -215t33 -325.5q0 -195 -33 -328t-99.5 -216t-169 -118.5t-241.5 -35.5q-100 0 -191.5 18t-160 60t-109.5 107.5t-41 162.5z" />
<glyph unicode="&#x42e;" horiz-adv-x="1746" d="M178 0v1352h137v-613h260q4 178 38 300t100.5 196t165 105.5t233.5 31.5q139 0 240.5 -34.5t167 -115.5t97.5 -215.5t32 -330.5q0 -197 -32 -331t-97.5 -215t-167 -115.5t-240.5 -34.5q-135 0 -234.5 31.5t-165 107.5t-99 197.5t-38.5 304.5h-260v-621h-137zM713 676 q0 -164 23.5 -274.5t71.5 -177t124 -95.5t180 -29t179 29t124 95.5t72.5 177t23.5 274.5q0 160 -23.5 269.5t-72.5 178t-123.5 98t-179.5 29.5q-104 0 -180 -29.5t-124 -98t-71.5 -178t-23.5 -269.5z" />
<glyph unicode="&#x42f;" horiz-adv-x="1224" d="M68 0l307 479q-141 33 -209 135.5t-68 300.5q0 123 28 206t85 134.5t144 74t208 22.5h488v-1352h-138v461h-391l-295 -461h-159zM238 915q0 -94 18 -158.5t59 -103.5t105.5 -56t154.5 -17h338v651h-338q-90 0 -154.5 -16.5t-105.5 -53.5t-59 -97t-18 -149z" />
<glyph unicode="&#x430;" horiz-adv-x="985" d="M76 254q0 94 33.5 147.5t86 79t116 32.5t122.5 13l289 27v98q0 104 -53.5 149.5t-188.5 45.5q-127 0 -175 -43t-48 -119h-135q0 147 85 213t273 66q109 0 181.5 -20.5t117.5 -60.5t63.5 -98.5t18.5 -132.5v-438q0 -47 21.5 -73.5t54.5 -26.5v-117q-61 0 -99 14.5 t-61.5 38t-33 55t-11.5 68.5q-37 -113 -111.5 -152.5t-201.5 -39.5q-68 0 -130.5 11t-110.5 40.5t-75.5 83t-27.5 139.5zM213 256q0 -94 48 -127t161 -33q76 0 131 15.5t91 52.5t53.5 98.5t21.5 153.5l4 30l-313 -30q-39 -4 -75 -9.5t-62.5 -21.5t-43 -46t-16.5 -83z" />
<glyph unicode="&#x431;" horiz-adv-x="1017" d="M88 471q0 254 26.5 410.5t80 243.5t131 119t182.5 40q45 4 82 9t64.5 19.5t49 43t37.5 78.5h138q-20 -94 -56.5 -145.5t-83.5 -76t-106.5 -33t-124.5 -14.5q-59 -6 -107.5 -25.5t-85 -65.5t-60.5 -127t-34 -210h6q33 129 109 177.5t205 48.5q94 0 166.5 -25t119.5 -82 t72 -151.5t25 -233.5t-25 -233.5t-75 -151.5t-129 -81.5t-187 -24.5q-109 0 -188.5 24.5t-131 81.5t-76 151.5t-24.5 233.5zM231 471q0 -106 15.5 -177t48.5 -114t86 -61.5t127 -18.5q76 0 128 18.5t85 61.5t48 114t15 177q0 104 -15 176t-48 115t-85 61.5t-128 18.5 q-74 0 -127 -18.5t-86 -61.5t-48.5 -115t-15.5 -176z" />
<glyph unicode="&#x432;" horiz-adv-x="974" d="M147 0v942h402q164 0 239.5 -55.5t75.5 -196.5q0 -86 -29.5 -137t-89.5 -76q82 -18 121 -70.5t39 -156.5q0 -139 -71.5 -194.5t-223.5 -55.5h-463zM287 117h315q86 0 126 31.5t40 111.5q0 90 -40 122t-126 32h-315v-297zM287 526h260q94 0 137 32t43 122q0 84 -47 113.5 t-145 29.5h-248v-297z" />
<glyph unicode="&#x433;" horiz-adv-x="761" d="M150 0v942h583v-121h-446v-821h-137z" />
<glyph unicode="&#x434;" horiz-adv-x="1011" d="M31 119h49q12 0 30.5 13t36 46t31 88t19.5 137q10 135 19 269.5t20 269.5h643v-823h102v-365h-139v246h-672v-246h-139v365zM246 119h493v702h-377l-28 -418q-6 -125 -33 -191.5t-55 -92.5z" />
<glyph unicode="&#x435;" horiz-adv-x="964" d="M86 471q0 141 24.5 235.5t75 150.5t128 81t184.5 25q98 0 168.5 -19.5t117.5 -64.5t70 -119t23 -180q0 -37 -3.5 -80t-15.5 -80h-633q2 -92 16.5 -154.5t47.5 -100.5t84 -54.5t127 -16.5q49 0 90 8.5t71.5 26.5t48 49t17.5 78h135q0 -76 -28.5 -129t-78.5 -86t-120 -47 t-150 -14q-102 0 -178 24.5t-125 81.5t-72.5 151.5t-23.5 233.5zM225 528h510q2 16 3 34t1 38q0 133 -54 189.5t-191 56.5q-74 0 -123 -16.5t-81 -53.5t-47.5 -97.5t-17.5 -150.5z" />
<glyph unicode="&#x436;" horiz-adv-x="1253" d="M12 0l310 479l-299 463h153l266 -412h115v412h139v-412h113l266 412h156l-299 -463l309 -479h-156l-266 412h-123v-412h-139v412h-125l-266 -412h-154z" />
<glyph unicode="&#x437;" horiz-adv-x="897" d="M59 256h129q0 -82 60.5 -119t187.5 -37q117 0 181.5 34t64.5 128q0 47 -21.5 77t-56.5 47t-78 24.5t-88 7.5h-102v106h102q43 0 85 7.5t75 24.5t53.5 48t20.5 78q0 92 -60.5 126t-171.5 34q-123 0 -179 -36t-56 -122h-135q0 147 90 213t276 66q199 0 286 -70t87 -199 q0 -94 -53.5 -146t-134.5 -77q86 -23 142 -75t56 -148q0 -129 -90 -198.5t-293 -69.5q-190 0 -283.5 65.5t-93.5 210.5z" />
<glyph unicode="&#x438;" horiz-adv-x="1062" d="M147 0v942h140v-526q0 -53 -2 -100.5t-4 -82.5q-4 -41 -7 -75h9l36 73q16 35 41 79t54 91l346 541h153v-942h-139v522q0 113 6 185q2 41 6 75h-8q-4 -10 -26.5 -50t-59.5 -101.5t-84 -138t-99 -159.5t-105.5 -169t-102.5 -164h-154z" />
<glyph unicode="&#x439;" horiz-adv-x="1062" d="M147 0v942h140v-526q0 -53 -2 -100.5t-4 -82.5q-4 -41 -7 -75h9l36 73q16 35 41 79t54 91l346 541h153v-942h-139v522q0 113 6 185q2 41 6 75h-8q-4 -10 -26.5 -50t-59.5 -101.5t-84 -138t-99 -159.5t-105.5 -169t-102.5 -164h-154zM258 1300h109q0 -98 164 -98t164 98 h110q0 -104 -69.5 -152t-204.5 -48t-204 48t-69 152z" />
<glyph unicode="&#x43a;" horiz-adv-x="952" d="M150 0v942h139v-412h192l267 412h155l-299 -463l309 -479h-155l-266 412h-203v-412h-139z" />
<glyph unicode="&#x43b;" horiz-adv-x="1009" d="M29 -2v119q51 0 78.5 12t41 40t17.5 75t10 114l39 584h645v-942h-139v821h-377l-31 -463q-6 -104 -17 -173.5t-40 -110.5t-82 -58.5t-145 -17.5z" />
<glyph unicode="&#x43c;" horiz-adv-x="1280" d="M150 0v942h169l322 -786l320 786h172v-942h-140v530q0 117 6 177q4 35 9 59h-7q-6 -25 -14 -59q-8 -29 -22.5 -72t-36.5 -98l-221 -537h-132l-223 537q-23 55 -37 98t-22 72q-8 35 -14 59h-7q2 -25 7 -59q4 -29 6 -73t2 -104v-530h-137z" />
<glyph unicode="&#x43d;" horiz-adv-x="1062" d="M150 0v942h137v-407h493v407h140v-942h-140v416h-493v-416h-137z" />
<glyph unicode="&#x43e;" horiz-adv-x="1003" d="M88 471q0 139 24.5 233.5t75 151.5t128 82t186.5 25q106 0 185 -25t130 -82t76 -151.5t25 -233.5t-25 -233.5t-76 -151.5t-130 -81.5t-185 -24.5q-109 0 -186.5 24.5t-128 81.5t-75 151.5t-24.5 233.5zM225 471q0 -106 15.5 -179t48.5 -117t86 -62.5t127 -18.5 q76 0 128 18.5t85 62.5t48 117t15 179t-15 179t-48 117t-85 62.5t-128 18.5q-74 0 -127 -18.5t-86 -62.5t-48.5 -116.5t-15.5 -179.5z" />
<glyph unicode="&#x43f;" horiz-adv-x="1046" d="M150 0v942h749v-942h-139v821h-473v-821h-137z" />
<glyph unicode="&#x440;" horiz-adv-x="1056" d="M150 -492v1434h108l21 -158l6 -18q35 111 107.5 154t191.5 43q98 0 170.5 -27t120 -85t71 -151.5t23.5 -228.5t-23.5 -229.5t-71 -152.5t-120 -83.5t-170.5 -25.5q-119 0 -192 40.5t-107 151.5h-4q4 -41 6 -79t2 -79v-506h-139zM289 471q0 -106 15 -179t48 -117t85 -62.5 t126 -18.5q72 0 123 18.5t83 61.5t47 115.5t15 181.5q0 106 -15 179t-47 116t-83 61.5t-123 18.5t-123 -17.5t-84.5 -58.5t-49 -108.5t-17.5 -167.5v-23z" />
<glyph unicode="&#x441;" horiz-adv-x="925" d="M88 471q0 137 22.5 230.5t70.5 151.5t122 84t178 26q82 0 151.5 -15.5t121 -49.5t80 -86t28.5 -128h-137q0 92 -63.5 128t-169.5 36q-78 0 -129.5 -19.5t-82 -63.5t-43 -115.5t-12.5 -178.5q0 -106 12.5 -179t43 -117t83 -62.5t130.5 -18.5q102 0 166.5 34t64.5 128h137 q0 -76 -28.5 -128t-80 -85t-121 -48t-151.5 -15q-104 0 -178 24.5t-122 82.5t-70.5 151.5t-22.5 232.5z" />
<glyph unicode="&#x442;" horiz-adv-x="815" d="M29 821v121h757v-121h-309v-821h-139v821h-309z" />
<glyph unicode="&#x443;" horiz-adv-x="927" d="M18 942h144l194 -498l54 -155q16 -43 25 -78t16 -59q8 -29 10 -52h6q4 29 12 66q6 33 18.5 77t32.5 99l41 98l193 502h141l-391 -1003q-43 -111 -85 -193t-86 -134t-95 -78t-113 -26v121q43 0 78 24.5t65.5 71t59.5 112t57 149.5z" />
<glyph unicode="&#x444;" horiz-adv-x="1355" d="M94 471q0 145 31 238.5t93.5 148.5t159.5 76.5t232 26.5v364l138 27v-391q133 -4 230 -27t159.5 -77t93.5 -147.5t31 -238.5t-31 -239.5t-93.5 -148.5t-159.5 -76.5t-230 -26.5v-472h-138v472q-135 4 -232 26.5t-159.5 76.5t-93.5 148.5t-31 239.5zM231 471 q0 -111 19.5 -182.5t63.5 -112.5t117 -57.5t179 -18.5v742q-106 -4 -179 -20.5t-117 -57.5t-63.5 -111.5t-19.5 -181.5zM748 100q104 2 175.5 19.5t115.5 58.5t63.5 111.5t19.5 181.5t-19.5 180.5t-63.5 110.5t-115.5 58.5t-175.5 21.5v-742z" />
<glyph unicode="&#x445;" horiz-adv-x="837" d="M19 0l321 479l-301 463h162l143 -223q27 -45 42.5 -74t25.5 -45q10 -20 14 -31h7q4 10 12 31q8 16 23.5 45t43.5 72l146 225h151l-305 -459l322 -483h-154l-170 254q-29 41 -43 67.5t-22 43.5q-8 20 -11 30h-8q-4 -8 -12 -28q-8 -16 -23.5 -45t-44.5 -70l-168 -252h-151z " />
<glyph unicode="&#x446;" horiz-adv-x="1060" d="M156 0v942h137v-821h473v821h139v-821h133v-367h-139v246h-743z" />
<glyph unicode="&#x447;" horiz-adv-x="991" d="M70 680v262h137v-262q0 -84 12 -139.5t40 -88t71 -47t104 -14.5q70 0 121 18.5t84 60.5t48 110.5t18 171.5v190h137v-942h-137v315q0 39 2 78t4 80h-4q-35 -113 -107 -155t-188 -42q-88 0 -152.5 20.5t-106.5 69t-62.5 125t-20.5 189.5z" />
<glyph unicode="&#x448;" horiz-adv-x="1341" d="M150 0v942h137v-821h315v821h139v-821h314v821h139v-942h-1044z" />
<glyph unicode="&#x449;" horiz-adv-x="1341" d="M147 0v942h140v-823h315v823h139v-823h314v823h137v-823h133v-365h-137v246h-1041z" />
<glyph unicode="&#x44a;" horiz-adv-x="1038" d="M16 821v121h383v-344h222q174 0 255.5 -67.5t81.5 -237.5q0 -84 -20 -140.5t-61 -90t-105.5 -48t-150.5 -14.5h-359v821h-246zM399 117h213q111 0 159 38t48 138q0 104 -48 145t-159 41h-213v-362z" />
<glyph unicode="&#x44b;" horiz-adv-x="1261" d="M147 0v942h140v-344h221q174 0 255 -67.5t81 -237.5q0 -84 -19.5 -140.5t-61.5 -90t-105.5 -48t-149.5 -14.5h-361zM287 117h213q109 0 158 38t49 138q0 104 -49.5 145t-157.5 41h-213v-362zM981 0v942h139v-942h-139z" />
<glyph unicode="&#x44c;" horiz-adv-x="931" d="M147 0v942h140v-344h221q174 0 255 -67.5t81 -237.5q0 -84 -19.5 -140.5t-61.5 -90t-105.5 -48t-149.5 -14.5h-361zM287 117h213q109 0 158 38t49 138q0 104 -49.5 145t-157.5 41h-213v-362z" />
<glyph unicode="&#x44d;" horiz-adv-x="925" d="M66 256h135q0 -94 64.5 -128t166.5 -34q74 0 123 16.5t81 54.5t46 99.5t18 151.5h-391v110h391q-4 90 -18 151.5t-45 99.5t-81 54.5t-122 16.5q-104 0 -168.5 -36t-64.5 -128h-135q0 76 28.5 128t78.5 86t119.5 49.5t151.5 15.5q104 0 179 -26t123.5 -84t71 -151.5 t22.5 -230.5q0 -139 -22.5 -232.5t-71 -151.5t-123 -82.5t-179.5 -24.5q-82 0 -151.5 15t-119.5 48t-78.5 85t-28.5 128z" />
<glyph unicode="&#x44e;" horiz-adv-x="1363" d="M150 0v942h137v-407h196q6 121 32 202.5t74 132t119.5 72t168.5 21.5q102 0 175.5 -25t122 -82t72 -151.5t23.5 -233.5t-23.5 -233.5t-72 -151.5t-122 -81.5t-175.5 -24.5q-98 0 -170 21.5t-120 72.5t-74 135t-30 207h-196v-416h-137zM621 471q0 -106 13 -178t44 -115 t80 -61.5t119 -18.5t117.5 18.5t78.5 61.5t45.5 115t14.5 178q0 104 -14.5 176t-45.5 115t-79 61.5t-117 18.5q-70 0 -119 -18.5t-80 -61.5t-44 -115t-13 -176z" />
<glyph unicode="&#x44f;" horiz-adv-x="923" d="M55 0l221 356q-104 23 -153 90.5t-49 202.5q0 166 81 229.5t257 63.5h364v-942h-139v344h-217l-213 -344h-152zM213 645q0 -113 48 -153.5t159 -40.5h217v372h-217q-109 0 -158 -33.5t-49 -144.5z" />
<glyph unicode="&#x450;" horiz-adv-x="964" d="M86 471q0 141 24.5 235.5t75 150.5t128 81t184.5 25q98 0 168.5 -19.5t117.5 -64.5t70 -119t23 -180q0 -37 -3.5 -80t-15.5 -80h-633q2 -92 16.5 -154.5t47.5 -100.5t84 -54.5t127 -16.5q49 0 90 8.5t71.5 26.5t48 49t17.5 78h135q0 -76 -28.5 -129t-78.5 -86t-120 -47 t-150 -14q-102 0 -178 24.5t-125 81.5t-72.5 151.5t-23.5 233.5zM225 528h510q2 16 3 34t1 38q0 133 -54 189.5t-191 56.5q-74 0 -123 -16.5t-81 -53.5t-47.5 -97.5t-17.5 -150.5zM288 1354h185l145 -267h-119z" />
<glyph unicode="&#x451;" horiz-adv-x="964" d="M86 471q0 141 24.5 235.5t75 150.5t128 81t184.5 25q98 0 168.5 -19.5t117.5 -64.5t70 -119t23 -180q0 -37 -3.5 -80t-15.5 -80h-633q2 -92 16.5 -154.5t47.5 -100.5t84 -54.5t127 -16.5q49 0 90 8.5t71.5 26.5t48 49t17.5 78h135q0 -76 -28.5 -129t-78.5 -86t-120 -47 t-150 -14q-102 0 -178 24.5t-125 81.5t-72.5 151.5t-23.5 233.5zM225 528h510q2 16 3 34t1 38q0 133 -54 189.5t-191 56.5q-74 0 -123 -16.5t-81 -53.5t-47.5 -97.5t-17.5 -150.5zM231 1116v168h127v-168h-127zM604 1116v168h129v-168h-129z" />
<glyph unicode="&#x452;" horiz-adv-x="1126" d="M29 1133v112h180v164l139 25v-189h268v-112h-268v-252q-2 -29 -3 -56.5t-5 -56.5h6q35 111 106.5 153t190.5 42q176 0 260 -89.5t84 -306.5v-567q0 -139 -19.5 -232.5t-59.5 -151.5t-102.5 -83t-146.5 -25q-129 0 -203.5 56.5t-74.5 185.5h137q0 -121 146 -121 q51 0 86.5 17.5t58 60.5t32 115t9.5 178v567q0 80 -12.5 133.5t-40 86t-71.5 46t-105 13.5q-74 0 -126.5 -19.5t-84 -63.5t-47 -116t-15.5 -178v-469h-139v1133h-180z" />
<glyph unicode="&#x453;" horiz-adv-x="761" d="M150 0v942h583v-121h-446v-821h-137zM290 1087l146 267h194l-217 -267h-123z" />
<glyph unicode="&#x454;" horiz-adv-x="925" d="M86 471q0 137 22.5 230.5t70.5 151.5t123 84t179 26q82 0 150.5 -15.5t120 -49.5t80 -86t28.5 -128h-135q0 90 -64.5 126t-168.5 36q-72 0 -122.5 -16.5t-81 -54.5t-46 -99.5t-17.5 -151.5h391v-108h-391q2 -90 17.5 -151.5t46 -99.5t81 -54.5t124.5 -16.5 q100 0 165.5 36t65.5 126h135q0 -76 -28.5 -128t-80 -85t-120 -48t-150.5 -15q-104 0 -179 24.5t-123 82.5t-70.5 151.5t-22.5 232.5z" />
<glyph unicode="&#x455;" horiz-adv-x="897" d="M61 256h132q0 -88 60 -125t187 -37q119 0 182.5 34t63.5 128q0 47 -20.5 74.5t-55.5 44t-79 24t-89 13.5q-72 8 -139 24.5t-118.5 47t-82 79.5t-30.5 125q0 131 87 203t287 72q186 0 275.5 -66t89.5 -213h-135q0 88 -55.5 126t-178.5 38q-113 0 -173 -34t-60 -128 q0 -47 19.5 -74.5t52 -44t74.5 -23.5t87 -14q78 -10 146.5 -26.5t121 -47t82 -79.5t29.5 -123q0 -133 -88 -203.5t-295 -70.5q-193 0 -285 65.5t-92 210.5z" />
<glyph unicode="&#x456;" horiz-adv-x="385" d="M125 0v942h137v-942h-137zM125 1188v164h137v-164h-137z" />
<glyph unicode="&#x457;" horiz-adv-x="385" d="M-57 1116v168h127v-168h-127zM125 0v942h137v-942h-137zM315 1116v168h129v-168h-129z" />
<glyph unicode="&#x458;" horiz-adv-x="415" d="M53 -371q37 0 61.5 33t24.5 113v1167h137v-1161q0 -53 -10 -102.5t-35.5 -87t-68.5 -60.5t-109 -23v121zM139 1188v164h137v-164h-137z" />
<glyph unicode="&#x459;" horiz-adv-x="1345" d="M29 -2v119q51 0 78.5 12t41 40t17.5 75t10 114l39 584h573v-344h150q174 0 255 -67.5t81 -237.5q0 -84 -19.5 -140.5t-61.5 -90t-105.5 -48t-149.5 -14.5h-289v821h-305l-31 -463q-6 -104 -17 -173.5t-40 -110.5t-82 -58.5t-145 -17.5zM788 117h142q109 0 158 38t49 138 q0 104 -49.5 145t-157.5 41h-142v-362z" />
<glyph unicode="&#x45a;" horiz-adv-x="1404" d="M150 0v942h137v-407h422v407h139v-344h149q174 0 255 -67.5t81 -235.5q0 -84 -19.5 -140.5t-61.5 -91t-105.5 -49t-149.5 -14.5h-288v416h-422v-416h-137zM848 117h141q109 0 158 38t49 140t-49 143t-158 41h-141v-362z" />
<glyph unicode="&#x45b;" horiz-adv-x="1126" d="M29 1133v112h180v164l139 25v-189h268v-112h-268v-252q-2 -29 -3 -56.5t-5 -56.5h4q35 111 107.5 153t191.5 42q88 0 152.5 -25t107.5 -81t63.5 -146t20.5 -219v-492h-137v463q0 111 -11.5 183.5t-38 117.5t-70.5 63.5t-109 18.5q-74 0 -126.5 -19.5t-85 -63.5t-47 -116 t-14.5 -178v-469h-139v1133h-180z" />
<glyph unicode="&#x45c;" horiz-adv-x="952" d="M150 0v942h139v-412h192l267 412h155l-299 -463l309 -479h-155l-266 412h-203v-412h-139zM374 1087l146 267h194l-217 -267h-123z" />
<glyph unicode="&#x45d;" horiz-adv-x="1062" d="M147 0v942h140v-526q0 -53 -2 -100.5t-4 -82.5q-4 -41 -7 -75h9l36 73q16 35 41 79t54 91l346 541h153v-942h-139v522q0 113 6 185q2 41 6 75h-8q-4 -10 -26.5 -50t-59.5 -101.5t-84 -138t-99 -159.5t-105.5 -169t-102.5 -164h-154zM295 1354h195l145 -267h-123z" />
<glyph unicode="&#x45e;" horiz-adv-x="927" d="M18 942h144l194 -498l54 -155q16 -43 25 -78t16 -59q8 -29 10 -52h6q4 29 12 66q6 33 18.5 77t32.5 99l41 98l193 502h141l-391 -1003q-43 -111 -85 -193t-86 -134t-95 -78t-113 -26v121q43 0 78 24.5t65.5 71t59.5 112t57 149.5zM188 1300h109q0 -98 164 -98t164 98h110 q0 -104 -69.5 -152t-204.5 -48t-204 48t-69 152z" />
<glyph unicode="&#x45f;" horiz-adv-x="1046" d="M150 0v942h137v-821h473v821h139v-942h-307v-287h-137v287h-305z" />
<glyph unicode="&#x462;" horiz-adv-x="1296" d="M27 1231v121h854v-121h-404v-422h283q123 0 212 -21.5t147.5 -70.5t87 -128t28.5 -196q0 -111 -28.5 -186.5t-87 -121.5t-147.5 -65.5t-212 -19.5h-422v1231h-311zM477 119h271q186 0 267 60.5t81 213.5q0 82 -19.5 139.5t-61.5 91t-107.5 49t-159.5 15.5h-271v-569z" />
<glyph unicode="&#x463;" horiz-adv-x="993" d="M23 1071v117h124v221l140 25v-246h309v-117h-309v-350h221q205 0 301 -83t96 -284q0 -102 -23.5 -169.5t-72.5 -108.5t-124 -58.5t-177 -17.5h-361v1071h-124zM287 117h213q141 0 204.5 50t63.5 187q0 135 -63.5 191.5t-204.5 56.5h-213v-485z" />
<glyph unicode="&#x464;" horiz-adv-x="1673" d="M178 0v1352h137v-613h260q4 178 39 300t102.5 196t168 105.5t235.5 31.5q100 0 190.5 -15.5t159 -54t108.5 -106.5t40 -172h-137q0 72 -30 116t-80 68.5t-114.5 33.5t-134.5 9q-102 0 -178 -24.5t-126 -84t-75.5 -157.5t-29.5 -246h407v-118h-407q2 -150 28.5 -250.5 t76.5 -159.5t125 -85t177 -26q68 0 133.5 9.5t115.5 34t81 68.5t31 116h137q0 -104 -41 -172t-109.5 -107t-159.5 -54t-190 -15q-135 0 -235.5 31.5t-167 107.5t-101 197.5t-39.5 304.5h-260v-621h-137z" />
<glyph unicode="&#x465;" horiz-adv-x="1320" d="M150 0v942h137v-407h196q6 119 32 200.5t73 132t118.5 73t170.5 22.5q82 0 150.5 -15.5t119.5 -49.5t79.5 -86t28.5 -128h-135q0 92 -64.5 128t-168.5 36q-72 0 -121 -16.5t-80 -53.5t-46 -96t-19 -147h266v-119h-266q2 -92 17 -153.5t47 -98.5t81 -53.5t123 -16.5 q102 0 166.5 34t64.5 128h135q0 -76 -28.5 -128t-79.5 -85t-120 -48t-150 -15q-98 0 -170 22.5t-120 73.5t-74 134t-30 206h-196v-416h-137z" />
<glyph unicode="&#x466;" horiz-adv-x="1282" d="M20 0l558 1352h129l555 -1352h-146l-188 465h-219v-465h-136v465h-221l-188 -465h-144zM401 586h480l-133 325q-29 70 -47.5 127.5t-30.5 98.5q-14 49 -23 86h-8q-10 -37 -25 -86q-12 -41 -31.5 -98.5t-47.5 -127.5z" />
<glyph unicode="&#x467;" horiz-adv-x="946" d="M18 0l390 942h129l387 -942h-144l-116 295h-134v-295h-114v295h-135l-117 -295h-146zM319 395h304l-74 185q-23 53 -36 98t-24 80q-10 37 -16 69h-4q-8 -31 -16 -69q-10 -35 -22.5 -81t-35.5 -99z" />
<glyph unicode="&#x468;" horiz-adv-x="1695" d="M172 0v1352h139v-613h426l254 613h129l555 -1352h-145l-189 465h-219v-465h-135v465h-221l-188 -465h-144l256 621h-379v-621h-139zM815 586h479l-133 325q-29 70 -47 127.5t-31 98.5q-14 49 -22 86h-8q-10 -37 -25 -86q-12 -41 -31.5 -98.5t-48.5 -127.5z" />
<glyph unicode="&#x469;" horiz-adv-x="1298" d="M150 0v942h137v-407h303l168 407h129l387 -942h-146l-116 295h-131v-295h-115v295h-135l-117 -295h-145l172 416h-254v-416h-137zM670 395h303l-74 185q-23 53 -36 98t-23 80q-10 37 -17 69h-4q-6 -31 -16 -69q-10 -35 -23.5 -81t-36.5 -99z" />
<glyph unicode="&#x46a;" horiz-adv-x="1400" d="M76 1352h1247l-418 -650q106 -23 185 -71.5t129.5 -133.5t75 -207t24.5 -290h-139q0 156 -23.5 264.5t-74 179t-128 106.5t-184.5 46v-596h-139v596q-109 -10 -186.5 -45t-128 -105.5t-75 -180t-24.5 -265.5h-137q0 168 24.5 290t74.5 207t128 134t187 71zM309 1231 q82 -129 164 -256t164 -256q14 0 26.5 1t28.5 1t33.5 -1t34.5 -1q84 129 166 256t164 256h-781z" />
<glyph unicode="&#x46b;" horiz-adv-x="1218" d="M92 0q0 231 64.5 351t210.5 163l-275 428h1030l-274 -428q143 -43 208.5 -163t65.5 -351h-139q0 106 -18.5 182t-57.5 126t-96 76t-133 34v-418h-139v418q-156 -14 -232 -110.5t-76 -307.5h-139zM319 831l187 -290q23 2 46 3t48 1q29 0 55.5 -1t51.5 -3l188 290h-576z " />
<glyph unicode="&#x46c;" horiz-adv-x="1818" d="M172 0v1352h139v-613h576l-393 613h1247l-418 -650q106 -20 185 -70t129.5 -134t75 -207t24.5 -291h-140q0 158 -23.5 267.5t-73.5 180t-128 105.5t-184 43v-596h-139v596q-141 -12 -230.5 -73.5t-130.5 -194.5q-27 -59 -40 -140.5t-13 -187.5h-137q0 250 55 397.5 t174 220.5h-416v-618h-139zM727 1231q82 -129 164 -256t164 -256q14 0 26.5 1t28.5 1t33.5 -1t34.5 -1q84 129 165.5 256t163.5 256h-780z" />
<glyph unicode="&#x46d;" horiz-adv-x="1579" d="M147 0v942h140v-407h430l-262 407h1028l-275 -428q143 -43 209 -163t66 -351h-137q0 109 -16.5 185.5t-53.5 125.5t-95.5 75t-142.5 32v-418h-137v418q-164 -12 -236.5 -109.5t-72.5 -308.5h-137q0 147 27.5 248.5t86.5 165.5h-282v-414h-140zM680 831l188 -290 q23 2 45.5 3t49.5 1q29 0 55 -1t51 -3l188 290h-577z" />
<glyph unicode="&#x48a;" horiz-adv-x="1374" d="M172 0v1352h139v-930q0 -55 -2 -102.5t-4 -81.5q-4 -41 -6 -74h8l17 32q18 33 45.5 82.5t61.5 108.5t69 113l540 852h156v-1198h115l-99 -400h-122l53 246h-84v924q0 113 6 184q2 41 6 74h-8q-4 -6 -26.5 -46t-58.5 -100.5t-81 -135.5t-92 -148l-475 -752h-158zM410 1710 h108q0 -98 164 -98t164 98h110q0 -104 -69.5 -152.5t-204.5 -48.5t-203.5 48.5t-68.5 152.5z" />
<glyph unicode="&#x48b;" horiz-adv-x="1075" d="M147 0v942h140v-455q0 -61 -2 -119.5t-4 -105.5q-4 -53 -7 -104h9l36 73q16 35 41 79t54 91l346 541h153v-788h113q-23 -100 -48.5 -199.5t-47.5 -200.5h-123l53 246h-86v522q0 113 6 185q2 41 6 75h-8q-14 -27 -30 -55q-14 -25 -32 -56.5t-40 -66.5l-115 -192 q-66 -104 -130 -206t-130 -206h-154zM258 1300h109q-1 -98 163 -98t164 98h111q0 -104 -69.5 -152t-205.5 -48q-135 0 -203.5 48t-68.5 152z" />
<glyph unicode="&#x48c;" horiz-adv-x="1185" d="M47 1085v107h125v160h139v-160h330v-107h-330v-266h351q119 0 206.5 -21.5t144 -70.5t84 -130t27.5 -198q0 -113 -27.5 -189.5t-84 -122.5t-144.5 -66.5t-206 -20.5h-490v1085h-125zM311 121h338q180 0 259 60.5t79 217.5q0 168 -79 233.5t-259 65.5h-338v-577z" />
<glyph unicode="&#x48d;" horiz-adv-x="946" d="M29 748v94h125v100h137v-100h330v-94h-330v-152h221q174 0 256 -67.5t82 -233.5q0 -84 -20.5 -140.5t-61.5 -91t-105.5 -49t-150.5 -14.5h-358v748h-125zM291 117h213q111 0 159 38t48 140t-48.5 143t-158.5 41h-213v-362z" />
<glyph unicode="&#x48e;" horiz-adv-x="1185" d="M172 0v1352h490q119 0 205.5 -22.5t144 -74t85 -134.5t27.5 -206q0 -201 -69 -303l151 -127q-16 -18 -31.5 -37.5t-31.5 -37.5l-156 129q-57 -41 -138 -59.5t-187 -18.5h-351v-461h-139zM311 580h320q78 0 140.5 11t107.5 42l-217 180q16 18 31.5 37.5t31.5 38.5 q55 -47 109.5 -93t111.5 -94q41 78 41 213q0 88 -18.5 148.5t-59.5 97.5t-105.5 53.5t-154.5 16.5h-338v-651z" />
<glyph unicode="&#x48f;" horiz-adv-x="1056" d="M150 -492v1434h108l21 -158l6 -18q31 104 98.5 147t175.5 48q104 0 181 -24t128.5 -80t76 -150.5t24.5 -235.5q0 -205 -56 -317q33 -29 65 -55.5t64 -53.5l-61 -74q-31 25 -61.5 50.5t-61.5 52.5q-47 -51 -115.5 -72.5t-158.5 -21.5q-119 0 -192 40.5t-107 151.5h-4 q4 -41 6 -79t2 -79v-506h-139zM289 463q0 -104 15 -175t48 -114t85 -61.5t126 -18.5q66 0 112 15.5t77 52.5q-47 39 -93.5 79t-93.5 78l62 76q45 -39 89 -75.5t89 -73.5q12 41 19 97t7 128q0 106 -15 179t-47 116t-83 61.5t-123 18.5t-123 -17.5t-84.5 -58.5t-50 -108.5 t-16.5 -167.5v-31z" />
<glyph unicode="&#x490;" horiz-adv-x="1024" d="M178 0v1352h649v286h140v-407h-652v-1231h-137z" />
<glyph unicode="&#x491;" horiz-adv-x="761" d="M147 0v942h447v287h137v-408h-444v-821h-140z" />
<glyph unicode="&#x492;" horiz-adv-x="1044" d="M16 618v103h183v631h788v-121h-649v-510h254v-103h-254v-618h-139v618h-183z" />
<glyph unicode="&#x493;" horiz-adv-x="798" d="M16 424v102h170v416h584v-121h-444v-295h215v-102h-215v-424h-140v424h-170z" />
<glyph unicode="&#x494;" horiz-adv-x="1191" d="M178 0v1352h850v-121h-713v-422h224q152 0 262 -32t182 -103.5t105.5 -187t33.5 -285.5t-34.5 -286t-108.5 -185.5t-187.5 -99t-269.5 -29.5v118q119 0 206 25t144.5 81t84 148.5t26.5 227.5t-25.5 228t-80 150.5t-139.5 83t-201 25.5h-222v-688h-137z" />
<glyph unicode="&#x495;" horiz-adv-x="931" d="M147 0v942h625v-121h-485v-268h162q102 0 176.5 -23.5t123 -79t72 -146.5t23.5 -224q0 -135 -23.5 -226.5t-73 -146.5t-125 -78.5t-180.5 -23.5v116q70 0 120 17.5t82 58.5t47.5 110.5t15.5 172.5q0 100 -15.5 167.5t-47.5 109.5t-81 60.5t-117 18.5h-159v-436h-140z" />
<glyph unicode="&#x496;" horiz-adv-x="1613" d="M27 0l440 684l-430 668h156l393 -613h153v613h138v-613h149l395 613h156l-430 -668l340 -530h110v-400h-135v246h-30l-400 621h-155v-621h-138v621h-157l-400 -621h-155z" />
<glyph unicode="&#x497;" horiz-adv-x="1253" d="M12 0l310 479l-299 463h153q66 -104 132.5 -206.5t133.5 -207.5h115v414h137v-414h115l266 414h156l-299 -463q53 -82 105.5 -164t105.5 -163v2h108v-400h-135v246h-31l-266 412h-125v-412h-137v412h-125q-68 -104 -134.5 -206t-131.5 -206h-154z" />
<glyph unicode="&#x498;" horiz-adv-x="1181" d="M63 328h136q0 -123 93 -175.5t273 -52.5q86 0 156 12.5t120 42t77.5 80t27.5 125.5q0 76 -29.5 127.5t-81 80t-119 41t-143.5 12.5h-100v118h94q68 0 131.5 10.5t111.5 38t76.5 76.5t28.5 125t-25.5 126t-71.5 81t-111.5 43t-147.5 12q-166 0 -253 -51t-87 -176h-135 q0 94 33 160.5t94 108.5t148 60.5t196 18.5q266 0 386 -104.5t114 -280.5q-6 -131 -79 -202.5t-190 -100.5q139 -27 219 -102.5t80 -223.5q0 -174 -105.5 -265t-307.5 -107q-4 -174 -73 -260t-214 -86v102q168 0 174 238q-248 0 -372 83.5t-124 264.5z" />
<glyph unicode="&#x499;" horiz-adv-x="897" d="M59 256h129q0 -82 60.5 -119t187.5 -37q117 0 181.5 34t64.5 128q0 47 -21.5 77t-56.5 47t-78 24.5t-88 7.5h-102v106h102q43 0 85 7.5t75 24.5t53.5 48t20.5 78q0 92 -60.5 126t-171.5 34q-123 0 -179 -36t-56 -122h-135q0 147 90 213t276 66q199 0 286 -70t87 -199 q0 -94 -53.5 -146t-134.5 -77q86 -23 142 -75t56 -148q0 -111 -64.5 -177.5t-205.5 -84.5q-4 -174 -71.5 -260t-215.5 -86v102q168 0 174 238q-190 0 -283.5 65.5t-93.5 210.5z" />
<glyph unicode="&#x49a;" horiz-adv-x="1204" d="M172 0v1352h139v-613h303l396 613h153l-430 -668l342 -530h109v-400h-135v246h-29l-399 621h-310v-621h-139z" />
<glyph unicode="&#x49b;" horiz-adv-x="952" d="M150 0v942h139v-414h192l267 414h155l-299 -463q53 -82 104.5 -164t104.5 -161h111v-400h-136v246h-30l-266 412h-203v-412h-139z" />
<glyph unicode="&#x49c;" horiz-adv-x="1302" d="M172 0v1352h139v-613h236v408h102v-408h66l395 613h154l-430 -668l440 -684h-154l-399 621h-72v-416h-102v416h-236v-621h-139z" />
<glyph unicode="&#x49d;" horiz-adv-x="1050" d="M150 0v942h139v-412h155v218h103v-218h35l266 412h156l-299 -463l309 -479h-156l-266 412h-45v-217h-103v217h-155v-412h-139z" />
<glyph unicode="&#x49e;" horiz-adv-x="1263" d="M27 1096v102h206v154h138v-154h309v-102h-309v-357h303l395 613h156l-430 -668l440 -684h-156l-399 621h-309v-621h-138v1096h-206z" />
<glyph unicode="&#x49f;" horiz-adv-x="1024" d="M27 750v92h196v100h137v-100h228v-92h-228v-220h195l266 412h154l-299 -463l309 -479h-154l-266 412h-205v-412h-137v750h-196z" />
<glyph unicode="&#x4a0;" horiz-adv-x="1292" d="M10 1231v121h389v-613h303l396 613h153l-430 -668l441 -684h-154l-399 621h-310v-621h-139v1231h-250z" />
<glyph unicode="&#x4a1;" horiz-adv-x="1056" d="M10 821v121h383v-414h193l268 414h154l-299 -463l309 -479h-154l-268 412h-203v-412h-137v821h-246z" />
<glyph unicode="&#x4a2;" horiz-adv-x="1372" d="M172 0v1352h139v-613h748v613h137v-1198h100v-400h-135v246h-102v618h-748v-618h-139z" />
<glyph unicode="&#x4a3;" horiz-adv-x="1062" d="M147 0v942h140v-407h493v407h138v-788h100v-400h-135v246h-103v414h-493v-414h-140z" />
<glyph unicode="&#x4a4;" horiz-adv-x="1458" d="M172 0v1352h139v-613h748v613h389v-121h-252v-1231h-137v621h-748v-621h-139z" />
<glyph unicode="&#x4a5;" horiz-adv-x="1175" d="M147 0v942h140v-407h493v407h383v-121h-245v-821h-138v414h-493v-414h-140z" />
<glyph unicode="&#x4a6;" horiz-adv-x="1560" d="M172 0v1352h733v-551q147 0 253 -31t175.5 -104.5t102 -193.5t32.5 -298t-32.5 -299t-102 -195.5t-175 -106.5t-253.5 -32v121q111 0 191 25.5t132 86t76.5 158t24.5 242.5q0 143 -24.5 240.5t-76.5 157t-132 85t-191 25.5v-682h-139v1231h-455v-1231h-139z" />
<glyph unicode="&#x4a7;" horiz-adv-x="1218" d="M150 0v942h567v-397q106 0 185 -24.5t130 -83t76 -155t25 -237.5t-25 -237.5t-76 -155t-130 -83t-185 -24.5v121q76 0 128 18.5t85 63.5t48 117t15 180q0 106 -15 179t-48 118t-85 63.5t-128 18.5v-424h-137v821h-293v-821h-137z" />
<glyph unicode="&#x4a8;" horiz-adv-x="1263" d="M94 678q0 195 33 328t102.5 213.5t176 116.5t251.5 36q102 0 191.5 -17.5t156 -58.5t104.5 -107.5t38 -164.5h-137q0 66 -29 110t-76 69.5t-111.5 36.5t-134.5 11q-111 0 -191.5 -29.5t-132.5 -97t-78 -177t-26 -271.5q0 -166 28 -275.5t84 -176t143 -93.5t206 -27 q16 0 29.5 1t30.5 4q-23 90 -33 204.5t-10 261.5q0 78 6 137.5t29.5 99.5t70.5 60.5t129 20.5q70 0 114 -16.5t68.5 -51t32.5 -92t8 -137.5q0 -252 -62.5 -386t-182.5 -187q41 -92 101 -134.5t138 -42.5v-120q-131 0 -225 62t-150 204q-29 -4 -60.5 -8t-66.5 -4 q-145 0 -251.5 35.5t-176 117.5t-103.5 216t-34 329zM842 555q0 -254 37 -414q78 45 116.5 149.5t38.5 303.5q0 100 -17.5 139t-82.5 39q-29 0 -47.5 -9t-28.5 -32.5t-13 -65.5t-3 -110z" />
<glyph unicode="&#x4a9;" horiz-adv-x="997" d="M86 469q0 139 23.5 234.5t72.5 152.5t125 82t180 25q82 0 152 -15.5t120 -48.5t77.5 -86t27.5 -129h-135q0 92 -64.5 127t-166.5 35q-78 0 -130.5 -18.5t-84 -61.5t-45 -115.5t-13.5 -181.5q0 -147 33 -216t117 -85q31 -27 78 -43q14 -27 47 -29q-8 47 -11.5 104.5 t-3.5 125.5q0 63 5.5 112t26 82t58 50.5t103.5 17.5q121 0 161 -56.5t40 -179.5q0 -166 -56.5 -251t-181.5 -107q31 -80 84 -117t137 -37v-104q-133 0 -215 56t-123 190q-4 0 -9 -1t-9 -1q-111 0 -189.5 23.5t-130 79.5t-76 150.5t-24.5 235.5zM598 307q0 -121 12 -203 q82 20 116 79t34 167q0 76 -17.5 105.5t-70.5 29.5h-6q-41 -2 -54.5 -37t-13.5 -141z" />
<glyph unicode="&#x4aa;" horiz-adv-x="1193" d="M94 678q0 199 33 332t99.5 214t170 114.5t244.5 33.5q100 0 190.5 -15.5t159 -54t108.5 -106.5t40 -172h-138q0 72 -29.5 116t-79.5 68.5t-114.5 33.5t-134.5 9q-109 0 -185.5 -26.5t-126.5 -93t-74 -177t-24 -276.5q0 -168 24 -278.5t74 -177t127 -94.5t183 -28 q68 0 133.5 9.5t115.5 34t80.5 68.5t30.5 116h138q0 -104 -40 -171t-107.5 -106t-155.5 -55t-187 -16q6 -238 176 -238v-102q-147 0 -215.5 86t-72.5 258q-115 10 -198 53t-137.5 125t-81 209t-26.5 307z" />
<glyph unicode="&#x4ab;" horiz-adv-x="925" d="M88 471q0 137 22.5 230.5t70.5 151.5t122 84t178 26q82 0 151.5 -15.5t121 -49.5t80 -86t28.5 -128h-137q0 92 -63.5 128t-169.5 36q-78 0 -129.5 -19.5t-82 -63.5t-43 -115.5t-12.5 -178.5q0 -106 12.5 -179t43 -117t83 -62.5t130.5 -18.5q102 0 166.5 34t64.5 128h137 q0 -72 -25.5 -122t-70.5 -83t-107.5 -50t-136.5 -19q4 -123 46 -181.5t130 -58.5v-102q-147 0 -215.5 85t-72.5 259q-84 8 -145.5 37.5t-100.5 88t-57.5 146.5t-18.5 215z" />
<glyph unicode="&#x4ac;" horiz-adv-x="1112" d="M27 1231v121h1058v-121h-460v-1077h100v-400h-135v246h-103v1231h-460z" />
<glyph unicode="&#x4ad;" horiz-adv-x="815" d="M29 821v121h757v-121h-311v-667h100v-400h-135v246h-102v821h-309z" />
<glyph unicode="&#x4ae;" horiz-adv-x="1114" d="M23 1352h149l246 -449q16 -31 33.5 -61.5t31.5 -59.5q43 -92 54.5 -133t13.5 -41h6q-6 4 10.5 44t46 101.5t71.5 139.5t86 160t87 159.5t78 139.5h149l-462 -844v-508h-140v508z" />
<glyph unicode="&#x4af;" horiz-adv-x="946" d="M18 942h146q47 -123 95 -242.5t97 -242.5l47 -129q16 -49 29.5 -89t22.5 -69q8 -33 14 -57h2q-2 2 6 28.5t23.5 72.5t38 107.5t49.5 135.5l190 485h146l-383 -932v-497h-138v497z" />
<glyph unicode="&#x4b0;" horiz-adv-x="1114" d="M23 1352h149l311 -570q20 -47 33.5 -78.5t22.5 -54.5q8 -25 12 -41h6q0 -4 22.5 66.5t100.5 214.5l256 463h149l-462 -844v-146h325v-102h-325v-260h-140v260h-323v102h323v146z" />
<glyph unicode="&#x4b1;" horiz-adv-x="946" d="M18 942h146l203 -510q29 -72 48 -131t31 -100q14 -49 23 -88h4q-2 0 14.5 57t51.5 156l36 104l203 512h146l-383 -932v-143h297v-103h-297v-251h-138v251h-292v103h292v143z" />
<glyph unicode="&#x4b2;" horiz-adv-x="1105" d="M27 0l440 684l-422 668h162l268 -439q41 -72 55.5 -104.5t18.5 -42.5q6 -2 18.5 34t61.5 113l274 439h160l-426 -668q86 -135 171 -266t171 -266v2h108v-400h-135v246h-41q-72 113 -142.5 224.5t-141.5 226.5q-43 72 -57.5 103.5t-18.5 43.5q-10 -8 -21.5 -40t-56.5 -109 l-285 -449h-161z" />
<glyph unicode="&#x4b3;" horiz-adv-x="880" d="M37 0l321 479l-301 463h162l143 -223q27 -45 42.5 -74t25.5 -45q10 -20 14 -31h7q4 10 12 31q8 16 23.5 45t43.5 72l146 225h151l-305 -459l219 -329h115v-400h-135v246h-31l-170 254q-29 41 -43 67.5t-22 43.5q-8 20 -11 30h-8q-4 -8 -12 -28q-8 -16 -23.5 -45 t-44.5 -70l-168 -252h-151z" />
<glyph unicode="&#x4b4;" horiz-adv-x="1445" d="M27 1231v121h854v-121h-451v-1110h696v1231h140v-1231h133v-367h-139v246h-967v1231h-266z" />
<glyph unicode="&#x4b5;" horiz-adv-x="1159" d="M27 821v121h655v-121h-289v-700h473v821h138v-821h133v-367h-138v246h-745v821h-227z" />
<glyph unicode="&#x4b6;" horiz-adv-x="1187" d="M61 922v430h138v-430q0 -188 88 -267.5t274 -79.5q82 0 140.5 15.5t97.5 52.5t57 100.5t21 159.5v449h139v-1198h100v-400h-135v246h-104v496q0 41 2 78.5t4 78.5h-4q-37 -117 -121 -157.5t-219 -40.5q-240 0 -359 108.5t-119 358.5z" />
<glyph unicode="&#x4b7;" horiz-adv-x="991" d="M70 666v276h137v-276q0 -84 12 -139.5t40 -88t71 -47t104 -14.5q70 0 121 18.5t84 60.5t48 110.5t18 168.5v207h137v-788h100v-400h-135v246h-102v299q0 41 2 79t4 79h-4q-35 -111 -107 -154t-188 -43q-88 0 -152.5 21.5t-106.5 68.5t-62.5 125t-20.5 191z" />
<glyph unicode="&#x4b8;" horiz-adv-x="1187" d="M61 922v430h138v-430q0 -172 69.5 -251t223.5 -91v403h112v-405q72 2 123 20t85 57t49.5 102.5t15.5 155.5v439h139v-1352h-139v496q0 41 2 78.5t6 78.5h-4q-35 -100 -102.5 -143t-174.5 -51v-336h-112v334q-215 10 -323 118.5t-108 346.5z" />
<glyph unicode="&#x4b9;" horiz-adv-x="991" d="M70 680v262h137v-244q0 -78 9 -133t28.5 -92t53.5 -55.5t83 -24.5v262h102v-260q113 14 167.5 97t54.5 276v174h137v-942h-137v313q0 41 2 80l4 78h-4q-29 -92 -83.5 -134t-140.5 -52v-162h-102v153q-80 6 -138.5 30t-97.5 71t-57 120.5t-18 182.5z" />
<glyph unicode="&#x4ba;" horiz-adv-x="1187" d="M162 0v1352h139v-496q0 -41 -2 -80t-6 -78h4q37 117 122 157t218 40q242 0 360.5 -107.5t118.5 -357.5v-430h-137v430q0 188 -88.5 267t-276.5 79q-82 0 -140 -15.5t-97 -52t-57.5 -101t-18.5 -163.5v-444h-139z" />
<glyph unicode="&#x4bb;" horiz-adv-x="1009" d="M147 0v1409l140 25v-789q0 -41 -2 -80l-4 -78q39 109 109.5 151t191.5 42q88 0 152.5 -21.5t107.5 -69.5t63.5 -126t20.5 -193v-270h-138v270q0 84 -12 141.5t-39.5 91.5t-71.5 48t-106 14q-72 0 -123 -18.5t-85 -60.5t-49 -111.5t-15 -169.5v-205h-140z" />
<glyph unicode="&#x4bc;" horiz-adv-x="1523" d="M29 952h131q0 -82 50 -125t148 -53q8 166 46 279.5t107 184.5t170 102.5t237 31.5q129 0 225 -27.5t158.5 -100.5t94 -197.5t31.5 -321.5q0 -14 -1 -33.5t-5 -38.5h-927q2 -156 26.5 -262t76.5 -171.5t131 -94.5t187 -29q70 0 133.5 12.5t111.5 40t76 71.5t28 108h137 q0 -96 -38 -162t-104.5 -108t-155.5 -60t-192 -18q-137 0 -237.5 32.5t-168 106.5t-103 192.5t-42.5 290.5l-6 53q-158 12 -241.5 84t-83.5 213zM496 770h794q-2 154 -27.5 248t-71.5 146.5t-112.5 70.5t-150.5 18q-104 0 -182 -24.5t-131.5 -81.5t-83 -149.5t-35.5 -227.5z " />
<glyph unicode="&#x4bd;" horiz-adv-x="1191" d="M29 692h121q0 -139 167 -160q6 123 33 205t77 132.5t124 72t174 21.5q98 0 170 -19.5t119 -64.5t69.5 -119t22.5 -180q0 -37 -4 -80t-15 -80h-632q2 -92 16 -154.5t46 -100.5t83 -54.5t127 -16.5q49 0 90 8.5t72 26.5t48 49t17 78h138q0 -76 -29 -129t-80 -86t-119.5 -47 t-150.5 -14q-98 0 -171 22.5t-122 73.5t-75 136t-30 210q-141 14 -213.5 77.5t-72.5 192.5zM455 528h510q2 16 2 34v38q0 133 -53.5 189.5t-190.5 56.5q-74 0 -124 -16.5t-81 -53.5t-46 -97.5t-17 -150.5z" />
<glyph unicode="&#x4be;" horiz-adv-x="1523" d="M29 952h131q0 -82 50 -125t148 -53q8 166 46 279.5t107 184.5t170 102.5t237 31.5q129 0 225 -27.5t158.5 -100.5t94 -197.5t31.5 -321.5q0 -14 -1 -33.5t-5 -38.5h-927q2 -156 26.5 -262t76.5 -171.5t131 -94.5t187 -29q66 0 128.5 14.5t111.5 43t79 71.5t30 103h137 q0 -94 -38 -160t-102.5 -107t-151.5 -60t-187 -19q4 -123 45 -181.5t129 -58.5v-102q-147 0 -215 86t-72 260q-111 10 -192.5 48t-137 111.5t-84 185t-35.5 269.5l-6 55q-158 12 -241.5 84t-83.5 213zM496 770h794q-2 154 -26.5 248t-71.5 146.5t-113.5 70.5t-150.5 18 q-104 0 -182 -24.5t-131.5 -81.5t-83 -149.5t-35.5 -227.5z" />
<glyph unicode="&#x4bf;" horiz-adv-x="1191" d="M29 692h121q0 -139 167 -160q6 123 33 205t77 132.5t124 72t174 21.5q98 0 170 -19.5t119 -64.5t69.5 -119t22.5 -180q0 -37 -4 -80t-15 -80h-632q2 -92 16 -154.5t46 -100.5t83 -54.5t127 -16.5q49 0 90 8.5t72 26.5t48 49t17 78h138q0 -72 -26 -122t-71 -83t-106.5 -50 t-134.5 -19q4 -123 46 -181.5t130 -58.5v-102q-147 0 -216 86t-73 258q-80 8 -139.5 34.5t-99.5 79t-61.5 131t-25.5 193.5q-141 14 -213.5 77.5t-72.5 192.5zM455 528h510q2 16 2 34v38q0 133 -53.5 189.5t-190.5 56.5q-74 0 -124 -16.5t-81 -53.5t-46 -97.5t-17 -150.5z " />
<glyph unicode="&#x4c0;" horiz-adv-x="559" d="M29 0v119h180v1112h-180v121h501v-121h-182v-1112h182v-119h-501z" />
<glyph unicode="&#x4c1;" horiz-adv-x="1613" d="M27 0l440 684l-430 668h156l393 -613h153v613h138v-613h149l395 613h156l-430 -668l440 -684h-155l-400 621h-155v-621h-138v621h-157l-400 -621h-155zM532 1710h109q0 -98 164 -98t164 98h110q0 -104 -69.5 -152t-204.5 -48t-204 48t-69 152z" />
<glyph unicode="&#x4c2;" horiz-adv-x="1253" d="M12 0l310 479l-299 463h153l266 -412h115v412h139v-412h113l266 412h156l-299 -463l309 -479h-156l-266 412h-123v-412h-139v412h-125l-266 -412h-154zM352 1300h109q0 -98 164 -98t164 98h110q0 -104 -69.5 -152t-204.5 -48t-204 48t-69 152z" />
<glyph unicode="&#x4c3;" horiz-adv-x="1216" d="M172 0v1352h139v-613h170q23 0 43.5 -1t40.5 -3l398 617h155q-104 -160 -204.5 -316.5t-202.5 -316.5q104 -18 181 -61.5t126 -116t73.5 -176t24.5 -242.5q0 -178 -25.5 -296t-77.5 -189.5t-134 -101.5t-193 -30v132q80 0 135.5 23.5t90 79.5t50 149.5t15.5 232.5 t-28.5 233.5t-88 152.5t-151 83.5t-217.5 25.5h-181v-618h-139z" />
<glyph unicode="&#x4c4;" horiz-adv-x="974" d="M150 0v942h139v-412h147l266 412h154l-272 -424q156 -25 229.5 -138.5t73.5 -359.5q0 -141 -24.5 -235t-77 -151.5t-132.5 -82t-190 -24.5v119q78 0 132 18.5t89 62.5t50.5 115.5t15.5 177.5q0 111 -15.5 187t-50.5 121t-89 64.5t-132 19.5h-174v-412h-139z" />
<glyph unicode="&#x4c5;" horiz-adv-x="1314" d="M43 0v119q84 0 128 25.5t64.5 78.5t25.5 135t11 195l50 799h813v-1198h114l-98 -400h-123l53 246h-84v1231h-548l-37 -678q-10 -152 -23.5 -256t-50.5 -171t-105.5 -96.5t-189.5 -29.5z" />
<glyph unicode="&#x4c6;" horiz-adv-x="1021" d="M29 -2v119q51 0 78.5 12t41 40t17.5 75t10 114l39 584h645v-788h113q-23 -100 -48.5 -199.5t-47.5 -200.5h-123l51 246h-84v821h-379q-4 -92 -11 -184t-12 -184q-6 -133 -16 -220.5t-38.5 -139.5t-83 -73.5t-152.5 -21.5z" />
<glyph unicode="&#x4c7;" horiz-adv-x="1372" d="M172 0v1352h139v-613h748v613h137v-1307q0 -154 -25.5 -258t-80 -166.5t-137.5 -90.5t-197 -28v121q82 0 139 20.5t94 69.5t53.5 130t16.5 202v576h-748v-621h-139z" />
<glyph unicode="&#x4c8;" horiz-adv-x="1062" d="M147 0v942h140v-407h493v407h138v-922q0 -139 -25 -233t-75 -151.5t-129 -82t-185 -24.5v117q74 0 127 18.5t86 62.5t48 115.5t15 177.5v394h-493v-414h-140z" />
<glyph unicode="&#x4c9;" horiz-adv-x="1376" d="M172 0v1352h139v-613h748v613h137v-1198h115l-99 -400h-122l53 246h-84v618h-748v-618h-139z" />
<glyph unicode="&#x4ca;" horiz-adv-x="1075" d="M147 0v942h140v-407h493v407h138v-788h114l-98 -400h-123l53 246h-84v414h-493v-414h-140z" />
<glyph unicode="&#x4cb;" horiz-adv-x="1187" d="M61 922v430h138v-430q0 -188 88 -267.5t276 -79.5q82 0 141.5 15.5t98.5 55.5t56.5 106.5t17.5 169.5v430h139v-1352h-105v-246h-135v400h101v342q0 41 2 78.5t6 78.5h-4q-39 -117 -123 -157.5t-217 -40.5q-242 0 -361 108.5t-119 358.5z" />
<glyph unicode="&#x4cc;" horiz-adv-x="991" d="M70 666v276h137v-276q0 -84 12 -139.5t40 -89.5t70 -48t103 -14q143 0 208 83t65 290v194h137v-942h-103v-246h-135v389h101v156q0 41 2 79t4 79h-4q-35 -113 -108 -155t-189 -42q-86 0 -150.5 20.5t-106.5 68.5t-62.5 125t-20.5 192z" />
<glyph unicode="&#x4cd;" horiz-adv-x="1671" d="M172 0v1352h174q98 -246 195.5 -487.5t195.5 -487.5q16 -39 28.5 -74t27.5 -67q10 -29 17 -48.5t11 -33.5q6 -16 8 -27h7q2 10 8 27q4 14 11 33.5t17 48.5l445 1116h176v-1198h113q-23 -100 -48.5 -199.5t-48.5 -200.5h-123l52 246h-84v936q0 111 6 166q2 33 6 55h-6 q-4 -14 -18.5 -68.5t-53.5 -146.5l-92 -215l-291 -727h-145q-98 244 -196.5 494.5t-201.5 486.5q-18 41 -29 75t-18 56q-8 27 -10 45h-6l6 -55q2 -29 4 -71t2 -95v-936h-139z" />
<glyph unicode="&#x4ce;" horiz-adv-x="1292" d="M147 0v942h172l320 -788q82 199 161 394t161 394h169v-788h115l-98 -400h-123l53 246h-84v350q0 86 1 160t3 129t4.5 89t4.5 38h-5q-4 -20 -12 -45q-6 -23 -16 -53.5t-27 -71.5l-84 -211q-39 -98 -78 -193.5t-79 -191.5h-132l-157 385q-31 84 -58.5 152.5t-47 119t-29 78 t-5.5 31.5h-4q0 2 3.5 -28.5t5.5 -87t4 -133.5t2 -167v-350h-140z" />
<glyph unicode="&#x4d0;" horiz-adv-x="1282" d="M20 0l558 1352h129q139 -340 276 -676t279 -676h-146q-31 74 -59.5 147.5t-59.5 147.5h-714q-29 -74 -58.5 -147.5t-60.5 -147.5h-144zM332 416h616q-59 147 -116.5 290.5t-101.5 257t-68.5 185.5t-16.5 74h-8q-8 -37 -23 -86q-12 -41 -31.5 -98.5t-47.5 -127.5z M366 1710h109q0 -98 164 -98t164 98h110q0 -104 -69.5 -152t-204.5 -48t-204 48t-69 152z" />
<glyph unicode="&#x4d1;" horiz-adv-x="985" d="M76 254q0 94 33.5 147.5t86 79t116 32.5t122.5 13l289 27v98q0 104 -53.5 149.5t-188.5 45.5q-127 0 -175 -43t-48 -119h-135q0 147 85 213t273 66q109 0 181.5 -20.5t117.5 -60.5t63.5 -98.5t18.5 -132.5v-438q0 -47 21.5 -73.5t54.5 -26.5v-117q-61 0 -99 14.5 t-61.5 38t-33 55t-11.5 68.5q-37 -113 -111.5 -152.5t-201.5 -39.5q-68 0 -130.5 11t-110.5 40.5t-75.5 83t-27.5 139.5zM213 256q0 -94 48 -127t161 -33q76 0 131 15.5t91 52.5t53.5 98.5t21.5 153.5l4 30l-313 -30q-39 -4 -75 -9.5t-62.5 -21.5t-43 -46t-16.5 -83z M217 1300h109q0 -98 164 -98t164 98h110q0 -104 -69.5 -152t-204.5 -48t-204 48t-69 152z" />
<glyph unicode="&#x4d2;" horiz-adv-x="1282" d="M20 0l558 1352h129q139 -340 276 -676t279 -676h-146q-31 74 -59.5 147.5t-59.5 147.5h-714q-29 -74 -58.5 -147.5t-60.5 -147.5h-144zM332 416h616q-59 147 -116.5 290.5t-101.5 257t-68.5 185.5t-16.5 74h-8q-8 -37 -23 -86q-12 -41 -31.5 -98.5t-47.5 -127.5z M389 1526v168h127v-168h-127zM762 1526v168h129v-168h-129z" />
<glyph unicode="&#x4d3;" horiz-adv-x="985" d="M76 254q0 94 33.5 147.5t86 79t116 32.5t122.5 13l289 27v98q0 104 -53.5 149.5t-188.5 45.5q-127 0 -175 -43t-48 -119h-135q0 147 85 213t273 66q109 0 181.5 -20.5t117.5 -60.5t63.5 -98.5t18.5 -132.5v-438q0 -47 21.5 -73.5t54.5 -26.5v-117q-61 0 -99 14.5 t-61.5 38t-33 55t-11.5 68.5q-37 -113 -111.5 -152.5t-201.5 -39.5q-68 0 -130.5 11t-110.5 40.5t-75.5 83t-27.5 139.5zM213 256q0 -94 48 -127t161 -33q76 0 131 15.5t91 52.5t53.5 98.5t21.5 153.5l4 30l-313 -30q-39 -4 -75 -9.5t-62.5 -21.5t-43 -46t-16.5 -83z M241 1116v168h127v-168h-127zM614 1116v168h129v-168h-129z" />
<glyph unicode="&#x4d4;" horiz-adv-x="1662" d="M20 0l558 1352h978v-121h-604v-492h523v-118h-523v-500h604v-121h-741v295h-530l-121 -295h-144zM332 416h483v807h-176q-10 -37 -25 -86q-12 -41 -31.5 -98.5t-47.5 -127.5z" />
<glyph unicode="&#x4d5;" horiz-adv-x="1517" d="M76 254q0 92 29.5 144.5t75.5 79t102.5 34.5t109.5 14l289 29v96q0 104 -50 149.5t-171 45.5q-117 0 -160 -39t-43 -123h-135q0 143 79 211t244 68q82 0 140.5 -16.5t95.5 -50.5t56.5 -84t23.5 -116q27 150 105.5 208.5t215.5 58.5q176 0 262.5 -87.5t86.5 -295.5 q0 -37 -4.5 -80t-14.5 -80h-592q2 -92 15.5 -153.5t43 -100.5t75.5 -55.5t116 -16.5q45 0 83 8.5t66.5 26.5t45 49t16.5 78h135q0 -76 -27.5 -129t-75.5 -86t-110.5 -47t-132.5 -14q-139 0 -218 66.5t-99 242.5q-12 -92 -38 -151.5t-68 -94.5t-101.5 -49t-138.5 -14 q-68 0 -128.5 11t-105.5 40.5t-71.5 83t-26.5 139.5zM213 256q0 -92 44 -126t146 -34q74 0 126.5 16.5t85 56.5t49 106.5t18.5 168.5l-262 -24q-45 -4 -83 -9t-65.5 -20.5t-43 -46.5t-15.5 -88zM821 528h471q2 10 2 18.5v18.5q0 80 -11 134.5t-37.5 86t-70 46t-106.5 14.5 q-68 0 -114 -15.5t-75.5 -52.5t-43 -98.5t-15.5 -151.5z" />
<glyph unicode="&#x4d6;" horiz-adv-x="1122" d="M172 0v1352h846v-121h-707v-492h625v-118h-625v-500h707v-121h-846zM286 1710h109q0 -98 164 -98t164 98h110q0 -104 -69.5 -152t-204.5 -48t-204 48t-69 152z" />
<glyph unicode="&#x4d7;" horiz-adv-x="964" d="M86 471q0 141 24.5 235.5t75 150.5t128 81t184.5 25q98 0 168.5 -19.5t117.5 -64.5t70 -119t23 -180q0 -37 -3.5 -80t-15.5 -80h-633q2 -92 16.5 -154.5t47.5 -100.5t84 -54.5t127 -16.5q49 0 90 8.5t71.5 26.5t48 49t17.5 78h135q0 -76 -28.5 -129t-78.5 -86t-120 -47 t-150 -14q-102 0 -178 24.5t-125 81.5t-72.5 151.5t-23.5 233.5zM209 1300h109q0 -98 164 -98t164 98h110q0 -104 -69.5 -152t-204.5 -48t-204 48t-69 152zM225 528h510q2 16 3 34t1 38q0 133 -54 189.5t-191 56.5q-74 0 -123 -16.5t-81 -53.5t-47.5 -97.5t-17.5 -150.5z " />
<glyph unicode="&#x4d8;" horiz-adv-x="1261" d="M94 625q0 8 1 34.5t5 38.5h928q-2 156 -26.5 261.5t-77 171t-131 94t-187.5 28.5q-72 0 -135 -12t-110.5 -38.5t-75 -71t-27.5 -107.5h-139q0 94 39 160.5t105.5 108.5t155.5 60.5t191 18.5q143 0 249 -36t173.5 -117.5t100 -214t32.5 -324.5q0 -197 -32.5 -330 t-102 -216t-175 -118.5t-251.5 -35.5q-129 0 -225 27.5t-158.5 99t-94.5 196.5t-32 322zM233 580q4 -154 29 -248t70 -146.5t110.5 -71t151.5 -18.5q104 0 181 24.5t130 81t83 149.5t36 229h-791z" />
<glyph unicode="&#x4d9;" horiz-adv-x="964" d="M96 360q0 37 4 80t17 82h633q-4 92 -18.5 153.5t-46.5 99.5t-83 54.5t-127 16.5q-98 0 -162.5 -34t-64.5 -128h-137q0 76 28.5 129t79.5 86t121 48.5t149 15.5q102 0 177 -25t124.5 -82t73 -152.5t23.5 -234.5t-24.5 -233.5t-75 -151.5t-127 -80.5t-183.5 -23.5 q-98 0 -169.5 19t-119 64.5t-70 118t-22.5 178.5zM236 340q0 -68 12 -114t40.5 -75.5t75.5 -43t117 -13.5q72 0 122 16.5t81 53.5t46 97.5t18 150.5h-510q-2 -16 -2 -34v-38z" />
<glyph unicode="&#x4da;" horiz-adv-x="1261" d="M94 625q0 8 1 34.5t5 38.5h928q-2 156 -26.5 261.5t-77 171t-131 94t-187.5 28.5q-72 0 -135 -12t-110.5 -38.5t-75 -71t-27.5 -107.5h-139q0 94 39 160.5t105.5 108.5t155.5 60.5t191 18.5q143 0 249 -36t173.5 -117.5t100 -214t32.5 -324.5q0 -197 -32.5 -330 t-102 -216t-175 -118.5t-251.5 -35.5q-129 0 -225 27.5t-158.5 99t-94.5 196.5t-32 322zM233 580q4 -154 29 -248t70 -146.5t110.5 -71t151.5 -18.5q104 0 181 24.5t130 81t83 149.5t36 229h-791zM379 1526v168h127v-168h-127zM752 1526v168h129v-168h-129z" />
<glyph unicode="&#x4db;" horiz-adv-x="964" d="M96 360q0 37 4 80t17 82h633q-4 92 -18.5 153.5t-46.5 99.5t-83 54.5t-127 16.5q-98 0 -162.5 -34t-64.5 -128h-137q0 76 28.5 129t79.5 86t121 48.5t149 15.5q102 0 177 -25t124.5 -82t73 -152.5t23.5 -234.5t-24.5 -233.5t-75 -151.5t-127 -80.5t-183.5 -23.5 q-98 0 -169.5 19t-119 64.5t-70 118t-22.5 178.5zM229 1116v168h127v-168h-127zM236 340q0 -68 12 -114t40.5 -75.5t75.5 -43t117 -13.5q72 0 122 16.5t81 53.5t46 97.5t18 150.5h-510q-2 -16 -2 -34v-38zM602 1116v168h129v-168h-129z" />
<glyph unicode="&#x4dc;" horiz-adv-x="1613" d="M27 0l440 684l-430 668h156l393 -613h153v613h138v-613h149l395 613h156l-430 -668l440 -684h-155l-400 621h-155v-621h-138v621h-157l-400 -621h-155zM555 1526v168h127v-168h-127zM928 1526v168h129v-168h-129z" />
<glyph unicode="&#x4dd;" horiz-adv-x="1253" d="M12 0l310 479l-299 463h153l266 -412h115v412h139v-412h113l266 412h156l-299 -463l309 -479h-156l-266 412h-123v-412h-139v412h-125l-266 -412h-154zM374 1116v168h127v-168h-127zM747 1116v168h129v-168h-129z" />
<glyph unicode="&#x4de;" horiz-adv-x="1181" d="M63 328h136q0 -123 93 -175.5t273 -52.5q86 0 156 12.5t120 42t77.5 80t27.5 125.5q0 76 -29.5 127.5t-81 80t-119 41t-143.5 12.5h-100v118h94q68 0 131.5 10.5t111.5 38t76.5 76.5t28.5 125t-25.5 126t-71.5 81t-111.5 43t-147.5 12q-166 0 -253 -51t-87 -176h-135 q0 94 33 160.5t94 108.5t148 60.5t196 18.5q266 0 386 -104.5t114 -280.5q-6 -131 -79 -202.5t-190 -100.5q139 -27 219 -102.5t80 -223.5q0 -197 -135 -287.5t-391 -90.5q-248 0 -372 83.5t-124 264.5zM338 1526v168h127v-168h-127zM711 1526v168h129v-168h-129z" />
<glyph unicode="&#x4df;" horiz-adv-x="897" d="M59 256h129q0 -82 60.5 -119t187.5 -37q117 0 181.5 34t64.5 128q0 47 -21.5 77t-56.5 47t-78 24.5t-88 7.5h-102v106h102q43 0 85 7.5t75 24.5t53.5 48t20.5 78q0 92 -60.5 126t-171.5 34q-123 0 -179 -36t-56 -122h-135q0 147 90 213t276 66q199 0 286 -70t87 -199 q0 -94 -53.5 -146t-134.5 -77q86 -23 142 -75t56 -148q0 -129 -90 -198.5t-293 -69.5q-190 0 -283.5 65.5t-93.5 210.5zM196 1116v168h127v-168h-127zM569 1116v168h129v-168h-129z" />
<glyph unicode="&#x4e0;" horiz-adv-x="1038" d="M14 -164h140q0 -61 25.5 -105t68.5 -71t99 -39t116 -12q94 0 157.5 45t102.5 120.5t56.5 176t17.5 213.5q0 121 -17.5 217t-56.5 163.5t-100.5 104.5t-149.5 37h-119v117l357 428h-656v121h830v-121l-178 -207l-107 -115q-25 -27 -49 -54t-51 -54q109 -14 190.5 -55 t136 -116t81 -189.5t26.5 -276.5q0 -145 -25.5 -269t-81 -214.5t-144.5 -141.5t-216 -51q-88 0 -170 19.5t-144.5 60.5t-100.5 107.5t-38 160.5z" />
<glyph unicode="&#x4e1;" horiz-adv-x="999" d="M23 -164h139q0 -61 25.5 -105t66.5 -71t95 -39t112 -12q84 0 140 28.5t91 75.5t50.5 110.5t15.5 135.5q0 145 -73 231t-245 86h-118v117l356 428h-615v121h785v-121l-248 -286q-33 -37 -66.5 -72t-68.5 -72q29 -4 45 -8q199 -12 293 -118.5t94 -305.5q0 -102 -23.5 -188 t-76 -148.5t-134 -98.5t-198.5 -36q-86 0 -166 19.5t-141.5 60.5t-98 107.5t-36.5 160.5z" />
<glyph unicode="&#x4e2;" horiz-adv-x="1370" d="M172 0v1352h139v-930q0 -55 -2 -102.5t-4 -81.5q-4 -41 -6 -74h8q0 2 19.5 37t49.5 87t67.5 116.5t76.5 127.5l520 820h156v-1352h-137v924q0 113 6 184q2 41 6 74h-8q-14 -27 -33 -58q-16 -27 -34.5 -61.5t-41.5 -69.5l-108 -178l-516 -815h-158zM353 1596v96h665v-96 h-665z" />
<glyph unicode="&#x4e3;" horiz-adv-x="1062" d="M147 0v942h140v-526q0 -53 -2 -100.5t-4 -82.5q-4 -41 -7 -75h9l36 73q16 35 41 79t54 91l346 541h153v-942h-139v522q0 113 6 185q2 41 6 75h-8q-4 -10 -26.5 -50t-59.5 -101.5t-84 -138t-99 -159.5t-105.5 -169t-102.5 -164h-154zM197 1186v96h665v-96h-665z" />
<glyph unicode="&#x4e4;" horiz-adv-x="1370" d="M172 0v1352h139v-930q0 -55 -2 -102.5t-4 -81.5q-4 -41 -6 -74h8q0 2 19.5 37t49.5 87t67.5 116.5t76.5 127.5l520 820h156v-1352h-137v924q0 113 6 184q2 41 6 74h-8q-14 -27 -33 -58q-16 -27 -34.5 -61.5t-41.5 -69.5l-108 -178l-516 -815h-158zM434 1526v168h127v-168 h-127zM807 1526v168h129v-168h-129z" />
<glyph unicode="&#x4e5;" horiz-adv-x="1062" d="M147 0v942h140v-526q0 -53 -2 -100.5t-4 -82.5q-4 -41 -7 -75h9l36 73q16 35 41 79t54 91l346 541h153v-942h-139v522q0 113 6 185q2 41 6 75h-8q-4 -10 -26.5 -50t-59.5 -101.5t-84 -138t-99 -159.5t-105.5 -169t-102.5 -164h-154zM278 1116v168h127v-168h-127z M651 1116v168h129v-168h-129z" />
<glyph unicode="&#x4e6;" horiz-adv-x="1345" d="M94 676q0 197 34 331t104.5 215t180 115.5t261.5 34.5q150 0 259 -34.5t180 -115.5t104.5 -215.5t33.5 -330.5q0 -197 -33.5 -331t-104.5 -215t-180 -115.5t-259 -34.5q-152 0 -261.5 34.5t-180 115.5t-104.5 215t-34 331zM233 676q0 -164 26 -274.5t79 -177t137 -95.5 t199 -29t197.5 29t137 95.5t80 177t25.5 274.5q0 162 -25.5 272.5t-80 178t-137.5 96t-197 28.5q-115 0 -199 -28.5t-137 -96t-79 -178t-26 -272.5zM422 1526v168h127v-168h-127zM795 1526v168h129v-168h-129z" />
<glyph unicode="&#x4e7;" horiz-adv-x="1003" d="M88 471q0 139 24.5 233.5t75 151.5t128 82t186.5 25q106 0 185 -25t130 -82t76 -151.5t25 -233.5t-25 -233.5t-76 -151.5t-130 -81.5t-185 -24.5q-109 0 -186.5 24.5t-128 81.5t-75 151.5t-24.5 233.5zM225 471q0 -106 15.5 -179t48.5 -117t86 -62.5t127 -18.5 q76 0 128 18.5t85 62.5t48 117t15 179t-15 179t-48 117t-85 62.5t-128 18.5q-74 0 -127 -18.5t-86 -62.5t-48.5 -116.5t-15.5 -179.5zM250 1116v168h127v-168h-127zM623 1116v168h129v-168h-129z" />
<glyph unicode="&#x4e8;" horiz-adv-x="1345" d="M94 676q0 197 34 331t104.5 215t180 115.5t261.5 34.5q150 0 259 -34.5t180 -115.5t104.5 -215.5t33.5 -330.5q0 -197 -33.5 -331t-104.5 -215t-180 -115.5t-259 -34.5q-152 0 -261.5 34.5t-180 115.5t-104.5 215t-34 331zM233 621q4 -147 32 -247t82 -161t135 -87 t192 -26q109 0 189.5 26t134 87t82 160.5t32.5 247.5h-879zM233 739h879q-6 143 -34.5 241.5t-82 158t-133 86t-188.5 26.5t-190 -26.5t-135 -86t-82.5 -157.5t-33.5 -242z" />
<glyph unicode="&#x4e9;" horiz-adv-x="1003" d="M88 471q0 139 24.5 233.5t75 151.5t128 82t186.5 25q106 0 185 -25t130 -82t76 -151.5t25 -233.5t-25 -233.5t-76 -151.5t-130 -81.5t-185 -24.5q-109 0 -186.5 24.5t-128 81.5t-75 151.5t-24.5 233.5zM227 420q2 -92 19.5 -154.5t50.5 -100.5t83 -54.5t122 -16.5 q70 0 120 16.5t83.5 54.5t51 100.5t21.5 154.5h-551zM227 530h549q-4 88 -21.5 149.5t-50 98.5t-82.5 53.5t-120 16.5t-120 -16.5t-83 -53.5t-50.5 -98.5t-21.5 -149.5z" />
<glyph unicode="&#x4ea;" horiz-adv-x="1345" d="M94 676q0 197 34 331t104.5 215t180 115.5t261.5 34.5q150 0 259 -34.5t180 -115.5t104.5 -215.5t33.5 -330.5q0 -197 -33.5 -331t-104.5 -215t-180 -115.5t-259 -34.5q-152 0 -261.5 34.5t-180 115.5t-104.5 215t-34 331zM233 621q4 -147 32 -247t82 -161t135 -87 t192 -26q109 0 189.5 26t134 87t82 160.5t32.5 247.5h-879zM233 739h879q-6 143 -34.5 241.5t-82 158t-133 86t-188.5 26.5t-190 -26.5t-135 -86t-82.5 -157.5t-33.5 -242zM422 1526v168h127v-168h-127zM795 1526v168h129v-168h-129z" />
<glyph unicode="&#x4eb;" horiz-adv-x="1003" d="M88 471q0 139 24.5 233.5t75 151.5t128 82t186.5 25q106 0 185 -25t130 -82t76 -151.5t25 -233.5t-25 -233.5t-76 -151.5t-130 -81.5t-185 -24.5q-109 0 -186.5 24.5t-128 81.5t-75 151.5t-24.5 233.5zM227 420q2 -92 19.5 -154.5t50.5 -100.5t83 -54.5t122 -16.5 q70 0 120 16.5t83.5 54.5t51 100.5t21.5 154.5h-551zM227 530h549q-4 88 -21.5 149.5t-50 98.5t-82.5 53.5t-120 16.5t-120 -16.5t-83 -53.5t-50.5 -98.5t-21.5 -149.5zM250 1116v168h127v-168h-127zM623 1116v168h129v-168h-129z" />
<glyph unicode="&#x4ec;" horiz-adv-x="1191" d="M53 328h135q0 -63 30 -106.5t80 -70t115.5 -39t135.5 -12.5q100 0 176 27t126 88t77.5 160.5t32.5 245.5h-568v118h568q-4 143 -32 241.5t-78 158t-126 86t-176 26.5q-72 0 -137.5 -12t-114.5 -38.5t-79 -71t-30 -105.5h-135q0 94 40 160.5t108.5 108.5t160 60.5 t193.5 18.5q139 0 241.5 -36t169 -117.5t99.5 -215t33 -325.5q0 -195 -33 -328t-99.5 -216t-169 -118.5t-241.5 -35.5q-100 0 -191.5 18t-160 60t-109.5 107.5t-41 162.5zM344 1526v168h127v-168h-127zM717 1526v168h129v-168h-129z" />
<glyph unicode="&#x4ed;" horiz-adv-x="925" d="M66 256h135q0 -94 64.5 -128t166.5 -34q74 0 123 16.5t81 54.5t46 99.5t18 151.5h-391v110h391q-4 90 -18 151.5t-45 99.5t-81 54.5t-122 16.5q-104 0 -168.5 -36t-64.5 -128h-135q0 76 28.5 128t78.5 86t119.5 49.5t151.5 15.5q104 0 179 -26t123.5 -84t71 -151.5 t22.5 -230.5q0 -139 -22.5 -232.5t-71 -151.5t-123 -82.5t-179.5 -24.5q-82 0 -151.5 15t-119.5 48t-78.5 85t-28.5 128zM213 1116v168h127v-168h-127zM586 1116v168h129v-168h-129z" />
<glyph unicode="&#x4ee;" horiz-adv-x="1179" d="M27 1352h149q84 -174 164 -344t164 -344l14 -39q25 -53 39 -92t25 -66q8 -31 14 -51h6q-4 4 13.5 51t49 124t74.5 174t88 200.5t91.5 204t82.5 182.5h152l-508 -1098q-23 -49 -42 -95t-51 -82t-84 -57.5t-144 -21.5v119q57 0 85.5 9t46 31.5t32 59.5t42.5 94zM256 1596 v96h665v-96h-665z" />
<glyph unicode="&#x4ef;" horiz-adv-x="927" d="M18 942h144l194 -498l54 -155q16 -43 25 -78t16 -59q8 -29 10 -52h6q4 29 12 66q6 33 18.5 77t32.5 99l41 98l193 502h141l-391 -1003q-43 -111 -85 -193t-86 -134t-95 -78t-113 -26v121q43 0 78 24.5t65.5 71t59.5 112t57 149.5zM134 1186v96h665v-96h-665z" />
<glyph unicode="&#x4f0;" horiz-adv-x="1179" d="M27 1352h149q84 -174 164 -344t164 -344l14 -39q25 -53 39 -92t25 -66q8 -31 14 -51h6q-4 4 13.5 51t49 124t74.5 174t88 200.5t91.5 204t82.5 182.5h152l-508 -1098q-23 -49 -42 -95t-51 -82t-84 -57.5t-144 -21.5v119q57 0 85.5 9t46 31.5t32 59.5t42.5 94zM338 1526 v168h127v-168h-127zM711 1526v168h129v-168h-129z" />
<glyph unicode="&#x4f1;" horiz-adv-x="927" d="M18 942h144l194 -498l54 -155q16 -43 25 -78t16 -59q8 -29 10 -52h6q4 29 12 66q6 33 18.5 77t32.5 99l41 98l193 502h141l-391 -1003q-43 -111 -85 -193t-86 -134t-95 -78t-113 -26v121q43 0 78 24.5t65.5 71t59.5 112t57 149.5zM213 1116v168h127v-168h-127zM586 1116 v168h129v-168h-129z" />
<glyph unicode="&#x4f2;" horiz-adv-x="1179" d="M27 1352h149q84 -174 164 -344t164 -344l14 -39q25 -53 39 -92t25 -66q8 -31 14 -51h6q-4 4 13.5 51t49 124t74.5 174t88 200.5t91.5 204t82.5 182.5h152l-508 -1098q-23 -49 -42 -95t-51 -82t-84 -57.5t-144 -21.5v119q57 0 85.5 9t46 31.5t32 59.5t42.5 94zM372 1497 l127 267h170l-194 -267h-103zM647 1497l143 267h176l-213 -267h-106z" />
<glyph unicode="&#x4f3;" horiz-adv-x="927" d="M18 942h144l194 -498l54 -155q16 -43 25 -78t16 -59q8 -29 10 -52h6q4 29 12 66q6 33 18.5 77t32.5 99l41 98l193 502h141l-391 -1003q-43 -111 -85 -193t-86 -134t-95 -78t-113 -26v121q43 0 78 24.5t65.5 71t59.5 112t57 149.5zM245 1087l127 267h170l-194 -267h-103z M520 1087l143 267h176l-213 -267h-106z" />
<glyph unicode="&#x4f4;" horiz-adv-x="1187" d="M61 922v430h138v-430q0 -188 88 -267.5t276 -79.5q82 0 141.5 15.5t98.5 55.5t56.5 106.5t17.5 169.5v430h139v-1352h-139v496q0 41 2 78.5t6 78.5h-4q-39 -117 -123 -157.5t-217 -40.5q-242 0 -361 108.5t-119 358.5zM342 1526v168h127v-168h-127zM715 1526v168h129 v-168h-129z" />
<glyph unicode="&#x4f5;" horiz-adv-x="991" d="M70 680v262h137v-262q0 -84 12 -139.5t40 -88t71 -47t104 -14.5q70 0 121 18.5t84 60.5t48 110.5t18 171.5v190h137v-942h-137v315q0 39 2 78t4 80h-4q-35 -113 -107 -155t-188 -42q-88 0 -152.5 20.5t-106.5 69t-62.5 125t-20.5 189.5zM243 1116v168h127v-168h-127z M616 1116v168h129v-168h-129z" />
<glyph unicode="&#x4f8;" horiz-adv-x="1605" d="M172 0v1352h139v-533h351q119 0 206.5 -21.5t144 -70.5t84 -130t27.5 -198q0 -113 -27.5 -189.5t-84 -122.5t-144.5 -66.5t-206 -20.5h-490zM311 121h338q180 0 259 60.5t79 217.5q0 168 -79 233.5t-259 65.5h-338v-577zM551 1526v168h127v-168h-127zM924 1526v168h129 v-168h-129zM1294 0v1352h140v-1352h-140z" />
<glyph unicode="&#x4f9;" horiz-adv-x="1261" d="M147 0v942h140v-344h221q174 0 255 -67.5t81 -237.5q0 -84 -19.5 -140.5t-61.5 -90t-105.5 -48t-149.5 -14.5h-361zM287 117h213q109 0 158 38t49 138q0 104 -49.5 145t-157.5 41h-213v-362zM381 1116v168h127v-168h-127zM754 1116v168h129v-168h-129zM981 0v942h139 v-942h-139z" />
<glyph unicode="&#x1e00;" horiz-adv-x="1282" d="M20 0l558 1352h129q139 -340 276 -676t279 -676h-146q-31 74 -59.5 147.5t-59.5 147.5h-714q-29 -74 -58.5 -147.5t-60.5 -147.5h-144zM332 416h616q-59 147 -116.5 290.5t-101.5 257t-68.5 185.5t-16.5 74h-8q-8 -37 -23 -86q-12 -41 -31.5 -98.5t-47.5 -127.5z M450 -307q0 72 51.5 125t137.5 53t137 -53.5t51 -124.5q0 -78 -48 -131.5t-140 -53.5t-140.5 53.5t-48.5 131.5zM541 -309q0 -39 24.5 -69t73.5 -30t73.5 30t24.5 69q0 43 -25.5 71.5t-72.5 28.5t-72.5 -28.5t-25.5 -71.5z" />
<glyph unicode="&#x1e01;" horiz-adv-x="985" d="M76 254q0 94 33.5 147.5t86 79t116 32.5t122.5 13l289 27v98q0 104 -53.5 149.5t-188.5 45.5q-127 0 -175 -43t-48 -119h-135q0 147 85 213t273 66q109 0 181.5 -20.5t117.5 -60.5t63.5 -98.5t18.5 -132.5v-438q0 -47 21.5 -73.5t54.5 -26.5v-117q-61 0 -99 14.5 t-61.5 38t-33 55t-11.5 68.5q-37 -113 -111.5 -152.5t-201.5 -39.5q-68 0 -130.5 11t-110.5 40.5t-75.5 83t-27.5 139.5zM213 256q0 -94 48 -127t161 -33q76 0 131 15.5t91 52.5t53.5 98.5t21.5 153.5l4 30l-313 -30q-39 -4 -75 -9.5t-62.5 -21.5t-43 -46t-16.5 -83z M303 -307q0 72 51.5 125t137.5 53t137 -53.5t51 -124.5q0 -78 -48 -131.5t-140 -53.5t-140.5 53.5t-48.5 131.5zM394 -309q0 -39 24.5 -69t73.5 -30t73.5 30t24.5 69q0 43 -25.5 71.5t-72.5 28.5t-72.5 -28.5t-25.5 -71.5z" />
<glyph unicode="&#x1e02;" horiz-adv-x="1214" d="M172 0v1352h490q217 0 319 -78t102 -275q0 -147 -60 -220.5t-189 -98.5q150 -23 220 -98.5t70 -229.5q0 -100 -27.5 -167.5t-85 -108.5t-144.5 -58.5t-205 -17.5h-490zM311 121h338q92 0 156.5 12t104.5 40t58.5 74t18.5 111q0 143 -78 203t-260 60h-338v-500zM311 739 h338q80 0 136.5 13.5t92 43t52 79t16.5 120.5q0 131 -67.5 183.5t-229.5 52.5h-338v-492zM542 1526v168h127v-168h-127z" />
<glyph unicode="&#x1e03;" horiz-adv-x="1054" d="M147 0v1409l140 25v-508q0 -39 -2 -79t-4 -79q39 111 109.5 153t189.5 42q98 0 171.5 -26t121 -84t71 -152.5t23.5 -229.5t-23.5 -229.5t-71 -152.5t-121 -83.5t-171.5 -25.5q-117 0 -190 41.5t-107 152.5v-2l-7 -16l-20 -156h-109zM247 1556v168h127v-168h-127zM287 453 q0 -102 15 -171t49 -111t86 -59.5t124 -17.5q76 0 127 18.5t83 61.5t45 115.5t13 181.5q0 106 -13 179t-45 116t-83 61.5t-127 18.5q-72 0 -123 -17.5t-85 -58.5t-50 -108.5t-16 -167.5v-41z" />
<glyph unicode="&#x1e04;" horiz-adv-x="1214" d="M172 0v1352h490q217 0 319 -78t102 -275q0 -147 -60 -220.5t-189 -98.5q150 -23 220 -98.5t70 -229.5q0 -100 -27.5 -167.5t-85 -108.5t-144.5 -58.5t-205 -17.5h-490zM311 121h338q92 0 156.5 12t104.5 40t58.5 74t18.5 111q0 143 -78 203t-260 60h-338v-500zM311 739 h338q80 0 136.5 13.5t92 43t52 79t16.5 120.5q0 131 -67.5 183.5t-229.5 52.5h-338v-492zM542 -174h127v-170h-127v170z" />
<glyph unicode="&#x1e05;" horiz-adv-x="1054" d="M147 0v1409l140 25v-508q0 -39 -2 -79t-4 -79q39 111 109.5 153t189.5 42q98 0 171.5 -26t121 -84t71 -152.5t23.5 -229.5t-23.5 -229.5t-71 -152.5t-121 -83.5t-171.5 -25.5q-117 0 -190 41.5t-107 152.5v-2l-7 -16l-20 -156h-109zM287 453q0 -102 15 -171t49 -111 t86 -59.5t124 -17.5q76 0 127 18.5t83 61.5t45 115.5t13 181.5q0 106 -13 179t-45 116t-83 61.5t-127 18.5q-72 0 -123 -17.5t-85 -58.5t-50 -108.5t-16 -167.5v-41zM463 -174h127v-170h-127v170z" />
<glyph unicode="&#x1e06;" horiz-adv-x="1214" d="M172 0v1352h490q217 0 319 -78t102 -275q0 -147 -60 -220.5t-189 -98.5q150 -23 220 -98.5t70 -229.5q0 -100 -27.5 -167.5t-85 -108.5t-144.5 -58.5t-205 -17.5h-490zM273 -244h665v-98h-665v98zM311 121h338q92 0 156.5 12t104.5 40t58.5 74t18.5 111q0 143 -78 203 t-260 60h-338v-500zM311 739h338q80 0 136.5 13.5t92 43t52 79t16.5 120.5q0 131 -67.5 183.5t-229.5 52.5h-338v-492z" />
<glyph unicode="&#x1e07;" horiz-adv-x="1054" d="M147 0v1409l140 25v-508q0 -39 -2 -79t-4 -79q39 111 109.5 153t189.5 42q98 0 171.5 -26t121 -84t71 -152.5t23.5 -229.5t-23.5 -229.5t-71 -152.5t-121 -83.5t-171.5 -25.5q-117 0 -190 41.5t-107 152.5v-2l-7 -16l-20 -156h-109zM193 -244h665v-98h-665v98zM287 453 q0 -102 15 -171t49 -111t86 -59.5t124 -17.5q76 0 127 18.5t83 61.5t45 115.5t13 181.5q0 106 -13 179t-45 116t-83 61.5t-127 18.5q-72 0 -123 -17.5t-85 -58.5t-50 -108.5t-16 -167.5v-41z" />
<glyph unicode="&#x1e08;" horiz-adv-x="1193" d="M94 678q0 199 33 332t99.5 214t170 114.5t244.5 33.5q100 0 190.5 -15.5t159 -54t108.5 -106.5t40 -172h-138q0 72 -29.5 116t-79.5 68.5t-114.5 33.5t-134.5 9q-109 0 -185.5 -26.5t-126.5 -93t-74 -177t-24 -276.5q0 -168 24 -278.5t74 -177t127 -94.5t183 -28 q68 0 133.5 9.5t115.5 34t80.5 68.5t30.5 116h138q0 -98 -37 -164t-99.5 -106t-145.5 -58t-175 -20l-8 -78q84 -6 136 -41t52 -113q0 -86 -61.5 -129t-157.5 -43q-47 0 -90 9t-66 24v94q25 -14 65 -22.5t87 -8.5t75.5 13.5t28.5 54.5q0 45 -39.5 67.5t-134.5 26.5l17 148 q-127 6 -219.5 43.5t-152.5 119.5t-90 212t-30 321zM501 1497l146 267h194l-217 -267h-123z" />
<glyph unicode="&#x1e09;" horiz-adv-x="925" d="M88 471q0 137 22.5 230.5t70.5 151.5t122 84t178 26q82 0 151.5 -15.5t121 -49.5t80 -86t28.5 -128h-137q0 92 -63.5 128t-169.5 36q-78 0 -129.5 -19.5t-82 -63.5t-43 -115.5t-12.5 -178.5q0 -106 12.5 -179t43 -117t83 -62.5t130.5 -18.5q102 0 166.5 34t64.5 128h137 q0 -72 -25.5 -122t-70.5 -83t-107.5 -50t-136.5 -19l-8 -80q86 -6 138.5 -41t52.5 -113q0 -86 -62.5 -129t-159.5 -43q-47 0 -90 9t-65 24v94q25 -14 65.5 -22.5t85.5 -8.5q47 0 77 13.5t30 54.5q0 45 -41 67.5t-135 26.5l16 148q-88 6 -151.5 34.5t-105.5 87t-61.5 148.5 t-19.5 219zM368 1087l146 267h194l-217 -267h-123z" />
<glyph unicode="&#x1e0a;" horiz-adv-x="1302" d="M172 0v1352h375q172 0 297 -34t204.5 -113t118.5 -209t39 -320t-39 -320.5t-118.5 -209t-204.5 -112.5t-297 -34h-375zM311 121h236q135 0 234.5 27.5t163 92t94 171t30.5 264.5q0 156 -30.5 262t-94 172t-163 93.5t-234.5 27.5h-236v-1110zM585 1526v168h127v-168h-127z " />
<glyph unicode="&#x1e0b;" horiz-adv-x="1054" d="M86 471q0 135 23.5 229.5t71.5 152.5t122 84t172 26q117 0 188.5 -42t106.5 -153h4q-2 39 -4 79t-2 79v483l137 25v-1434h-106q-4 41 -9.5 87t-17.5 87q-35 -111 -107.5 -152.5t-189.5 -41.5q-98 0 -172 25.5t-122 83.5t-71.5 152.5t-23.5 229.5zM225 471 q0 -109 15.5 -181.5t47 -115.5t83 -61.5t125.5 -18.5q72 0 123 18.5t83.5 60.5t48 110.5t17.5 169.5v18q0 106 -15.5 178t-48 116t-84 62.5t-124.5 18.5q-74 0 -125.5 -18.5t-83 -61.5t-47 -114.5t-15.5 -180.5zM673 1556v168h127v-168h-127z" />
<glyph unicode="&#x1e0c;" horiz-adv-x="1302" d="M172 0v1352h375q172 0 297 -34t204.5 -113t118.5 -209t39 -320t-39 -320.5t-118.5 -209t-204.5 -112.5t-297 -34h-375zM311 121h236q135 0 234.5 27.5t163 92t94 171t30.5 264.5q0 156 -30.5 262t-94 172t-163 93.5t-234.5 27.5h-236v-1110zM585 -174h127v-170h-127v170z " />
<glyph unicode="&#x1e0d;" horiz-adv-x="1054" d="M86 471q0 135 23.5 229.5t71.5 152.5t122 84t172 26q117 0 188.5 -42t106.5 -153h4q-2 39 -4 79t-2 79v483l137 25v-1434h-106q-4 41 -9.5 87t-17.5 87q-35 -111 -107.5 -152.5t-189.5 -41.5q-98 0 -172 25.5t-122 83.5t-71.5 152.5t-23.5 229.5zM225 471 q0 -109 15.5 -181.5t47 -115.5t83 -61.5t125.5 -18.5q72 0 123 18.5t83.5 60.5t48 110.5t17.5 169.5v18q0 106 -15.5 178t-48 116t-84 62.5t-124.5 18.5q-74 0 -125.5 -18.5t-83 -61.5t-47 -114.5t-15.5 -180.5zM463 -174h127v-170h-127v170z" />
<glyph unicode="&#x1e0e;" horiz-adv-x="1302" d="M172 0v1352h375q172 0 297 -34t204.5 -113t118.5 -209t39 -320t-39 -320.5t-118.5 -209t-204.5 -112.5t-297 -34h-375zM311 121h236q135 0 234.5 27.5t163 92t94 171t30.5 264.5q0 156 -30.5 262t-94 172t-163 93.5t-234.5 27.5h-236v-1110zM318 -244h665v-98h-665v98z " />
<glyph unicode="&#x1e0f;" horiz-adv-x="1054" d="M86 471q0 135 23.5 229.5t71.5 152.5t122 84t172 26q117 0 188.5 -42t106.5 -153h4q-2 39 -4 79t-2 79v483l137 25v-1434h-106q-4 41 -9.5 87t-17.5 87q-35 -111 -107.5 -152.5t-189.5 -41.5q-98 0 -172 25.5t-122 83.5t-71.5 152.5t-23.5 229.5zM193 -244h665v-98h-665 v98zM225 471q0 -109 15.5 -181.5t47 -115.5t83 -61.5t125.5 -18.5q72 0 123 18.5t83.5 60.5t48 110.5t17.5 169.5v18q0 106 -15.5 178t-48 116t-84 62.5t-124.5 18.5q-74 0 -125.5 -18.5t-83 -61.5t-47 -114.5t-15.5 -180.5z" />
<glyph unicode="&#x1e10;" horiz-adv-x="1302" d="M172 0v1352h375q172 0 297 -34t204.5 -113t118.5 -209t39 -320q0 -174 -31.5 -297t-99 -203t-170 -121t-243.5 -51l-11 -102q82 -6 133.5 -41t51.5 -113q0 -86 -60.5 -129t-154.5 -43q-47 0 -90.5 9t-65.5 24v94q25 -14 65.5 -22.5t85.5 -8.5t73 13.5t28 54.5 q0 45 -39 67.5t-131 26.5l18 166h-393zM311 121h236q135 0 234.5 27.5t163 92t94 171t30.5 264.5q0 156 -30.5 262t-94 172t-163 93.5t-234.5 27.5h-236v-1110z" />
<glyph unicode="&#x1e11;" horiz-adv-x="1054" d="M86 471q0 135 23.5 229.5t71.5 152.5t122 84t172 26q117 0 188.5 -42t106.5 -153h4l-6 141v500q35 4 68.5 10t68.5 13v-1432h-106q-4 41 -9.5 87t-17.5 87q-31 -96 -88 -137t-147 -51l-11 -82q82 -6 133.5 -41t51.5 -115q0 -86 -60.5 -128t-152.5 -42q-47 0 -91.5 9.5 t-66.5 23.5v94q25 -14 66 -23.5t86 -9.5t72.5 14.5t27.5 55.5q0 45 -39 66.5t-129 25.5l16 148q-90 4 -156.5 32.5t-110.5 87t-65.5 149.5t-21.5 220zM225 471q0 -109 15.5 -181.5t47 -115.5t83 -61.5t125.5 -18.5q72 0 123 18.5t83.5 61.5t49 113.5t16.5 175.5v24 q-2 100 -17.5 169t-48 111t-84 60.5t-122.5 18.5q-74 0 -125.5 -18.5t-83 -61.5t-47 -114.5t-15.5 -180.5z" />
<glyph unicode="&#x1e12;" horiz-adv-x="1302" d="M172 0v1352h375q172 0 297 -34t204.5 -113t118.5 -209t39 -320t-39 -320.5t-118.5 -209t-204.5 -112.5t-297 -34h-375zM311 121h236q135 0 234.5 27.5t163 92t94 171t30.5 264.5q0 156 -30.5 262t-94 172t-163 93.5t-234.5 27.5h-236v-1110zM338 -412l266 262h90 l264 -262h-149l-84 82q-23 20 -35 38t-22 32q-10 16 -17 29h-4q-6 -14 -16 -29q-20 -31 -60 -70l-82 -82h-151z" />
<glyph unicode="&#x1e13;" horiz-adv-x="1054" d="M86 471q0 135 23.5 229.5t71.5 152.5t122 84t172 26q117 0 188.5 -42t106.5 -153h4q-2 39 -4 79t-2 79v483l137 25v-1434h-106q-4 41 -9.5 87t-17.5 87q-35 -111 -107.5 -152.5t-189.5 -41.5q-98 0 -172 25.5t-122 83.5t-71.5 152.5t-23.5 229.5zM215 -412l266 262h90 l264 -262h-149l-84 82q-23 20 -35 38t-22 32q-10 16 -17 29h-4q-6 -14 -16 -29q-20 -31 -60 -70l-82 -82h-151zM225 471q0 -109 15.5 -181.5t47 -115.5t83 -61.5t125.5 -18.5q72 0 123 18.5t83.5 60.5t48 110.5t17.5 169.5v18q0 106 -15.5 178t-48 116t-84 62.5t-124.5 18.5 q-74 0 -125.5 -18.5t-83 -61.5t-47 -114.5t-15.5 -180.5z" />
<glyph unicode="&#x1e14;" horiz-adv-x="1122" d="M172 0v1352h846v-121h-707v-492h625v-118h-625v-500h707v-121h-846zM228 1555v96h665v-96h-665zM329 2054h195l145 -267h-123z" />
<glyph unicode="&#x1e15;" horiz-adv-x="964" d="M86 471q0 141 24.5 235.5t75 150.5t128 81t184.5 25q98 0 168.5 -19.5t117.5 -64.5t70 -119t23 -180q0 -37 -3.5 -80t-15.5 -80h-633q2 -92 16.5 -154.5t47.5 -100.5t84 -54.5t127 -16.5q49 0 90 8.5t71.5 26.5t48 49t17.5 78h135q0 -76 -28.5 -129t-78.5 -86t-120 -47 t-150 -14q-102 0 -178 24.5t-125 81.5t-72.5 151.5t-23.5 233.5zM152 1147v96h665v-96h-665zM225 528h510q2 16 3 34t1 38q0 133 -54 189.5t-191 56.5q-74 0 -123 -16.5t-81 -53.5t-47.5 -97.5t-17.5 -150.5zM256 1651h195l145 -267h-123z" />
<glyph unicode="&#x1e16;" horiz-adv-x="1122" d="M172 0v1352h846v-121h-707v-492h625v-118h-625v-500h707v-121h-846zM271 1555v96h665v-96h-665zM487 1787l146 267h194l-217 -267h-123z" />
<glyph unicode="&#x1e17;" horiz-adv-x="964" d="M86 471q0 141 24.5 235.5t75 150.5t128 81t184.5 25q98 0 168.5 -19.5t117.5 -64.5t70 -119t23 -180q0 -37 -3.5 -80t-15.5 -80h-633q2 -92 16.5 -154.5t47.5 -100.5t84 -54.5t127 -16.5q49 0 90 8.5t71.5 26.5t48 49t17.5 78h135q0 -76 -28.5 -129t-78.5 -86t-120 -47 t-150 -14q-102 0 -178 24.5t-125 81.5t-72.5 151.5t-23.5 233.5zM152 1147v96h665v-96h-665zM225 528h510q2 16 3 34t1 38q0 133 -54 189.5t-191 56.5q-74 0 -123 -16.5t-81 -53.5t-47.5 -97.5t-17.5 -150.5zM389 1384l146 267h194l-217 -267h-123z" />
<glyph unicode="&#x1e18;" horiz-adv-x="1122" d="M172 0v1352h846v-121h-707v-492h625v-118h-625v-500h707v-121h-846zM248 -412l266 262h90l264 -262h-149l-84 82q-23 20 -35 38t-22 32q-10 16 -17 29h-4q-6 -14 -16 -29q-20 -31 -60 -70l-82 -82h-151z" />
<glyph unicode="&#x1e19;" horiz-adv-x="964" d="M86 471q0 141 24.5 235.5t75 150.5t128 81t184.5 25q98 0 168.5 -19.5t117.5 -64.5t70 -119t23 -180q0 -37 -3.5 -80t-15.5 -80h-633q2 -92 16.5 -154.5t47.5 -100.5t84 -54.5t127 -16.5q49 0 90 8.5t71.5 26.5t48 49t17.5 78h135q0 -76 -28.5 -129t-78.5 -86t-120 -47 t-150 -14q-102 0 -178 24.5t-125 81.5t-72.5 151.5t-23.5 233.5zM170 -412l266 262h90l264 -262h-149l-84 82q-23 20 -35 38t-22 32q-10 16 -17 29h-4q-6 -14 -16 -29q-20 -31 -60 -70l-82 -82h-151zM225 528h510q2 16 3 34t1 38q0 133 -54 189.5t-191 56.5 q-74 0 -123 -16.5t-81 -53.5t-47.5 -97.5t-17.5 -150.5z" />
<glyph unicode="&#x1e1a;" horiz-adv-x="1122" d="M172 0v1352h846v-121h-707v-492h625v-118h-625v-500h707v-121h-846zM264 -379q0 45 5.5 85t21.5 70.5t46 48t81 17.5q49 0 82 -17.5t70 -41.5q35 -27 59.5 -41t54.5 -14q35 0 49.5 25.5t14.5 90.5h108q0 -47 -4 -88t-20.5 -70.5t-48 -46t-84.5 -16.5q-47 0 -78 16.5 t-66 38.5q-39 27 -64.5 42.5t-54.5 15.5q-39 0 -53 -26.5t-14 -88.5h-105z" />
<glyph unicode="&#x1e1b;" horiz-adv-x="964" d="M86 471q0 141 24.5 235.5t75 150.5t128 81t184.5 25q98 0 168.5 -19.5t117.5 -64.5t70 -119t23 -180q0 -37 -3.5 -80t-15.5 -80h-633q2 -92 16.5 -154.5t47.5 -100.5t84 -54.5t127 -16.5q49 0 90 8.5t71.5 26.5t48 49t17.5 78h135q0 -76 -28.5 -129t-78.5 -86t-120 -47 t-150 -14q-102 0 -178 24.5t-125 81.5t-72.5 151.5t-23.5 233.5zM184 -379q0 45 5.5 85t21.5 70.5t46 48t81 17.5q49 0 82 -17.5t70 -41.5q35 -27 59.5 -41t54.5 -14q35 0 49.5 25.5t14.5 90.5h108q0 -47 -4 -88t-20.5 -70.5t-48 -46t-84.5 -16.5q-47 0 -78 16.5t-66 38.5 q-39 27 -64.5 42.5t-54.5 15.5q-39 0 -53 -26.5t-14 -88.5h-105zM225 528h510q2 16 3 34t1 38q0 133 -54 189.5t-191 56.5q-74 0 -123 -16.5t-81 -53.5t-47.5 -97.5t-17.5 -150.5z" />
<glyph unicode="&#x1e1c;" horiz-adv-x="1122" d="M172 0v1352h846v-121h-707v-492h625v-118h-625v-500h707v-121h-445l-12 -98q86 -6 138.5 -41t52.5 -113q0 -86 -61.5 -129t-158.5 -43q-47 0 -90 9t-65 24v94q23 -14 63.5 -22.5t87.5 -8.5t76 13.5t29 54.5q0 45 -41 67.5t-133 26.5l18 166h-305zM286 1710h109 q0 -98 164 -98t164 98h110q0 -104 -69.5 -152t-204.5 -48t-204 48t-69 152z" />
<glyph unicode="&#x1e1d;" horiz-adv-x="964" d="M86 471q0 141 24.5 235.5t75 150.5t128 81t184.5 25q98 0 168.5 -19.5t117.5 -64.5t70 -119t23 -180q0 -37 -3.5 -80t-15.5 -80h-633q2 -92 16.5 -154.5t47.5 -100.5t84 -54.5t127 -16.5q96 0 161.5 36t65.5 126h135q0 -72 -26.5 -123t-72.5 -84t-109.5 -49t-137.5 -18 q-16 0 -23.5 -8.5t-9.5 -19.5t-1 -24.5t-1 -25.5q82 -6 133.5 -41t51.5 -115q0 -86 -60.5 -128t-154.5 -42q-47 0 -90.5 9.5t-65.5 23.5v94q25 -14 65.5 -23.5t85.5 -9.5t73 14.5t28 55.5q0 45 -39 66.5t-131 25.5l16 152q-80 8 -137 38.5t-95 89t-56.5 146.5t-18.5 211z M209 1300h109q0 -98 164 -98t164 98h110q0 -104 -69.5 -152t-204.5 -48t-204 48t-69 152zM225 528h510q2 16 3 34t1 38q0 133 -54 189.5t-191 56.5q-74 0 -123 -16.5t-81 -53.5t-47.5 -97.5t-17.5 -150.5z" />
<glyph unicode="&#x1e1e;" horiz-adv-x="1077" d="M172 0v1352h846v-121h-707v-492h625v-121h-625v-618h-139zM475 1526v168h127v-168h-127z" />
<glyph unicode="&#x1e1f;" horiz-adv-x="548" d="M39 827v115h125v123q0 104 26.5 175t81 114t134 61.5t184.5 18.5v-115q-86 0 -141.5 -12.5t-87 -42t-45 -78.5t-13.5 -121v-123h248v-115h-248v-827h-139v827h-125zM243 1556v168h127v-168h-127z" />
<glyph unicode="&#x1e20;" horiz-adv-x="1302" d="M94 676q0 197 33 330t99.5 213.5t170 116.5t244.5 36q100 0 190.5 -15.5t159 -55t108.5 -106.5t40 -171h-131q0 70 -30 114t-79 69.5t-115.5 34.5t-140.5 9q-117 0 -195.5 -28.5t-127 -96t-69 -179t-20.5 -277.5q0 -143 16.5 -250t58.5 -178.5t115 -107.5t183 -36 q182 0 289.5 97.5t136.5 316.5h-362v115h501v-627h-112l-25 260q-57 -152 -170.5 -216t-269.5 -64q-150 0 -246 52t-152.5 145t-78 221t-21.5 278zM318 1596v96h665v-96h-665z" />
<glyph unicode="&#x1e21;" horiz-adv-x="1021" d="M59 -240q0 88 44 154t110 127q-45 45 -45 113q0 78 61 127q-68 41 -104.5 115.5t-36.5 197.5q0 104 27.5 175t79 114t124 61.5t162.5 18.5q117 0 204 -32t134 -108q35 63 85 91t118 28v-121q-109 0 -166 -86q10 -29 15.5 -64.5t5.5 -76.5q0 -104 -28 -175t-79 -114 t-125 -61.5t-164 -18.5q-41 0 -77.5 3t-69.5 14q-29 -29 -29 -82q0 -59 49 -76.5t127 -28.5q74 -10 153 -22.5t143.5 -41t106.5 -79.5t42 -137q0 -129 -104.5 -203t-338.5 -74q-424 0 -424 262zM177 1186v96h665v-96h-665zM190 -217q0 -88 69 -129t222 -41q135 0 220 36 t85 132q0 49 -25.5 77.5t-67.5 44t-97.5 23t-114.5 15.5q-47 8 -94 19t-86 28q-18 -23 -37.5 -43.5t-36 -45t-27 -52t-10.5 -64.5zM225 594q0 -72 13.5 -121t43 -78.5t79 -42t120.5 -12.5q74 0 123 12.5t79 42t42 78.5t12 121t-12 120t-42 77.5t-79 43t-123 13.5 q-72 0 -121 -13.5t-78.5 -43t-43 -77.5t-13.5 -120z" />
<glyph unicode="&#x1e22;" horiz-adv-x="1372" d="M172 0v1352h139v-613h748v613h137v-1352h-137v621h-748v-621h-139zM620 1526v168h127v-168h-127z" />
<glyph unicode="&#x1e23;" horiz-adv-x="1067" d="M150 0v1409l139 25v-508q0 -39 -2 -79t-6 -79h4q35 111 107.5 153t191.5 42q174 0 259 -91.5t85 -318.5v-553h-137v553q0 84 -13.5 140.5t-42 90t-71.5 48t-103 14.5q-72 0 -123 -18.5t-85 -60.5t-49 -110.5t-15 -169.5v-487h-139zM522 1218v168h127v-168h-127z" />
<glyph unicode="&#x1e24;" horiz-adv-x="1372" d="M172 0v1352h139v-613h748v613h137v-1352h-137v621h-748v-621h-139zM620 -174h127v-170h-127v170z" />
<glyph unicode="&#x1e25;" horiz-adv-x="1067" d="M150 0v1409l139 25v-508q0 -39 -2 -79t-6 -79h4q35 111 107.5 153t191.5 42q174 0 259 -91.5t85 -318.5v-553h-137v553q0 84 -13.5 140.5t-42 90t-71.5 48t-103 14.5q-72 0 -123 -18.5t-85 -60.5t-49 -110.5t-15 -169.5v-487h-139zM469 -174h127v-170h-127v170z" />
<glyph unicode="&#x1e26;" horiz-adv-x="1372" d="M172 0v1352h139v-613h748v613h137v-1352h-137v621h-748v-621h-139zM434 1526v168h127v-168h-127zM807 1526v168h129v-168h-129z" />
<glyph unicode="&#x1e27;" horiz-adv-x="1067" d="M150 0v1409l139 25v-508q0 -39 -2 -79t-6 -79h4q35 111 107.5 153t191.5 42q174 0 259 -91.5t85 -318.5v-553h-137v553q0 84 -13.5 140.5t-42 90t-71.5 48t-103 14.5q-72 0 -123 -18.5t-85 -60.5t-49 -110.5t-15 -169.5v-487h-139zM317 1567v168h129v-168h-129zM692 1567 v168h127v-168h-127z" />
<glyph unicode="&#x1e28;" horiz-adv-x="1372" d="M90 -295q25 -14 66 -23.5t86 -9.5t72.5 14.5t27.5 55.5q0 45 -39 66.5t-131 25.5l18 166h-18v1352h139v-613h748v613h137v-1352h-137v618h-748v-618h-24l-11 -96q82 -6 133.5 -41t51.5 -115q0 -86 -60.5 -128t-154.5 -42q-47 0 -90 9.5t-66 23.5v94z" />
<glyph unicode="&#x1e29;" horiz-adv-x="1067" d="M70 -295q25 -14 65.5 -23.5t85.5 -9.5t73 14.5t28 55.5q0 45 -39 66.5t-131 25.5l18 166h-20v1409l139 25v-508q0 -39 -2 -79t-6 -79h4q35 111 106.5 153t190.5 42q88 0 153.5 -26t108.5 -84t63.5 -152.5t20.5 -229.5v-471h-137v471q0 109 -13.5 181.5t-41 115.5 t-71.5 60.5t-104 17.5q-72 0 -123 -18.5t-85 -60.5t-49 -110.5t-15 -169.5v-487h-23l-10 -96q82 -6 133 -41t51 -115q0 -86 -62.5 -128t-152.5 -42q-47 0 -90 9.5t-65 23.5v94z" />
<glyph unicode="&#x1e2a;" horiz-adv-x="1372" d="M172 0v1352h139v-613h748v613h137v-1352h-137v621h-748v-621h-139zM411 -160h109q0 -98 164 -98t164 98h110q0 -104 -69.5 -152t-204.5 -48t-204 48t-69 152z" />
<glyph unicode="&#x1e2b;" horiz-adv-x="1067" d="M150 0v1409l139 25v-508q0 -39 -2 -79t-6 -79h4q35 111 107.5 153t191.5 42q174 0 259 -91.5t85 -318.5v-553h-137v553q0 84 -13.5 140.5t-42 90t-71.5 48t-103 14.5q-72 0 -123 -18.5t-85 -60.5t-49 -110.5t-15 -169.5v-487h-139zM260 -160h109q0 -98 164 -98t164 98 h110q0 -104 -69.5 -152t-204.5 -48t-204 48t-69 152z" />
<glyph unicode="&#x1e2c;" horiz-adv-x="483" d="M-52 -379q0 45 5.5 85t21.5 70.5t46 48t81 17.5q49 0 82 -17.5t70 -41.5q35 -27 59.5 -41t54.5 -14q35 0 49.5 25.5t14.5 90.5h108q0 -47 -4 -88t-20.5 -70.5t-48 -46t-84.5 -16.5q-47 0 -78 16.5t-66 38.5q-39 27 -64.5 42.5t-54.5 15.5q-39 0 -53 -26.5t-14 -88.5h-105 zM172 0v1352h139v-1352h-139z" />
<glyph unicode="&#x1e2d;" horiz-adv-x="385" d="M-101 -379q0 45 5.5 85t21.5 70.5t46 48t81 17.5q49 0 82 -17.5t70 -41.5q35 -27 59.5 -41t54.5 -14q35 0 49.5 25.5t14.5 90.5h108q0 -47 -4 -88t-20.5 -70.5t-48 -46t-84.5 -16.5q-47 0 -78 16.5t-66 38.5q-39 27 -64.5 42.5t-54.5 15.5q-39 0 -53 -26.5t-14 -88.5 h-105zM125 0v942h137v-942h-137zM125 1188v164h137v-164h-137z" />
<glyph unicode="&#x1e2e;" horiz-adv-x="483" d="M-35 1495v158h117v-158h-117zM166 1592l129 252h158q-45 -63 -91 -126t-91 -126h-105zM172 0v1352h139v-1352h-139zM406 1495v158h116v-158h-116z" />
<glyph unicode="&#x1e2f;" horiz-adv-x="385" d="M-84 1085v158h117v-158h-117zM117 1182l129 252h158q-45 -63 -91 -126t-91 -126h-105zM125 0v942h137v-942h-137zM357 1085v158h116v-158h-116z" />
<glyph unicode="&#x1e30;" horiz-adv-x="1204" d="M172 0v1352h139v-613h303l396 613h153l-430 -668l441 -684h-154l-399 621h-310v-621h-139zM497 1497l146 267h194l-217 -267h-123z" />
<glyph unicode="&#x1e31;" horiz-adv-x="952" d="M150 0v1411l139 23v-904h192l267 412h155l-299 -463l309 -479h-155l-266 412h-203v-412h-139zM258 1527l146 267h194l-217 -267h-123z" />
<glyph unicode="&#x1e32;" horiz-adv-x="1204" d="M172 0v1352h139v-613h303l396 613h153l-430 -668l441 -684h-154l-399 621h-310v-621h-139zM536 -174h127v-170h-127v170z" />
<glyph unicode="&#x1e33;" horiz-adv-x="952" d="M150 0v1411l139 23v-904h192l267 412h155l-299 -463l309 -479h-155l-266 412h-203v-412h-139zM399 -174h127v-170h-127v170z" />
<glyph unicode="&#x1e34;" horiz-adv-x="1204" d="M172 0v1352h139v-613h303l396 613h153l-430 -668l441 -684h-154l-399 621h-310v-621h-139zM269 -244h665v-98h-665v98z" />
<glyph unicode="&#x1e35;" horiz-adv-x="952" d="M150 0v1411l139 23v-904h192l267 412h155l-299 -463l309 -479h-155l-266 412h-203v-412h-139zM203 -244h665v-98h-665v98z" />
<glyph unicode="&#x1e36;" horiz-adv-x="1054" d="M172 0v1352h139v-1231h697v-121h-836zM463 -174h127v-170h-127v170z" />
<glyph unicode="&#x1e37;" horiz-adv-x="417" d="M135 272v1139l137 23v-1162q0 -86 25 -118.5t61 -32.5v-121q-66 0 -108.5 22.5t-68 60.5t-36 87t-10.5 102zM180 -174h127v-170h-127v170z" />
<glyph unicode="&#x1e38;" horiz-adv-x="1054" d="M172 0v1352h139v-1231h697v-121h-836zM195 1596v96h665v-96h-665zM463 -174h127v-170h-127v170z" />
<glyph unicode="&#x1e39;" horiz-adv-x="417" d="M-127 1626v96h665v-96h-665zM135 272v1139l137 23v-1162q0 -86 25 -118.5t61 -32.5v-121q-66 0 -108.5 22.5t-68 60.5t-36 87t-10.5 102zM180 -174h127v-170h-127v170z" />
<glyph unicode="&#x1e3a;" horiz-adv-x="1054" d="M172 0v1352h139v-1231h697v-121h-836zM195 -244h665v-98h-665v98z" />
<glyph unicode="&#x1e3b;" horiz-adv-x="417" d="M-120 -244h665v-98h-665v98zM135 272v1139l137 23v-1162q0 -86 25 -118.5t61 -32.5v-121q-66 0 -108.5 22.5t-68 60.5t-36 87t-10.5 102z" />
<glyph unicode="&#x1e3c;" horiz-adv-x="1054" d="M172 0v1352h139v-1231h697v-121h-836zM215 -412l266 262h90l264 -262h-149l-84 82q-23 20 -35 38t-22 32q-10 16 -17 29h-4q-6 -14 -16 -29q-20 -31 -60 -70l-82 -82h-151z" />
<glyph unicode="&#x1e3d;" horiz-adv-x="417" d="M-100 -412l266 262h90l264 -262h-149l-84 82q-23 20 -35 38t-22 32q-10 16 -17 29h-4q-6 -14 -16 -29q-20 -31 -60 -70l-82 -82h-151zM135 272v1139l137 23v-1162q0 -86 25 -118.5t61 -32.5v-121q-66 0 -108.5 22.5t-68 60.5t-36 87t-10.5 102z" />
<glyph unicode="&#x1e3e;" horiz-adv-x="1667" d="M172 0v1352h174q98 -246 195.5 -487.5t195.5 -487.5q16 -39 28.5 -74t27.5 -67q10 -29 17 -48.5t11 -33.5q6 -16 8 -27h7q2 10 8 27q4 14 11 33.5t17 48.5l445 1116h176v-1352h-139v936q0 111 6 166q2 33 6 55h-6q0 -8 -14.5 -56t-49.5 -132q-27 -61 -50 -122t-50 -120 l-291 -727h-145q-98 244 -196.5 494.5t-201.5 486.5q-18 41 -29 75t-18 56q-8 27 -10 45h-6l6 -55q2 -29 4 -71t2 -95v-936h-139zM729 1497l146 267h194l-217 -267h-123z" />
<glyph unicode="&#x1e3f;" horiz-adv-x="1554" d="M150 0v942h112l25 -168q31 109 95 149t171 40q123 0 188.5 -47.5t89.5 -155.5q31 117 99.5 160t181.5 43q88 0 146.5 -22.5t93 -71t49 -125t14.5 -187.5v-557h-139v557q0 82 -6 137.5t-25.5 89t-55.5 49t-95 15.5q-66 0 -111 -17.5t-73.5 -58.5t-43 -108.5t-14.5 -167.5 v-496h-139v557q0 82 -6.5 137.5t-25.5 89t-55 49t-96 15.5q-66 0 -110.5 -17.5t-73.5 -58.5t-43 -108.5t-14 -167.5v-496h-139zM606 1087l146 267h194l-217 -267h-123z" />
<glyph unicode="&#x1e40;" horiz-adv-x="1667" d="M172 0v1352h174q98 -246 195.5 -487.5t195.5 -487.5q16 -39 28.5 -74t27.5 -67q10 -29 17 -48.5t11 -33.5q6 -16 8 -27h7q2 10 8 27q4 14 11 33.5t17 48.5l445 1116h176v-1352h-139v936q0 111 6 166q2 33 6 55h-6q0 -8 -14.5 -56t-49.5 -132q-27 -61 -50 -122t-50 -120 l-291 -727h-145q-98 244 -196.5 494.5t-201.5 486.5q-18 41 -29 75t-18 56q-8 27 -10 45h-6l6 -55q2 -29 4 -71t2 -95v-936h-139zM768 1526v168h127v-168h-127z" />
<glyph unicode="&#x1e41;" horiz-adv-x="1554" d="M150 0v942h112l25 -168q31 109 95 149t171 40q123 0 188.5 -47.5t89.5 -155.5q31 117 99.5 160t181.5 43q88 0 146.5 -22.5t93 -71t49 -125t14.5 -187.5v-557h-139v557q0 82 -6 137.5t-25.5 89t-55.5 49t-95 15.5q-66 0 -111 -17.5t-73.5 -58.5t-43 -108.5t-14.5 -167.5 v-496h-139v557q0 82 -6.5 137.5t-25.5 89t-55 49t-96 15.5q-66 0 -110.5 -17.5t-73.5 -58.5t-43 -108.5t-14 -167.5v-496h-139zM712 1116v168h127v-168h-127z" />
<glyph unicode="&#x1e42;" horiz-adv-x="1667" d="M172 0v1352h174q98 -246 195.5 -487.5t195.5 -487.5q16 -39 28.5 -74t27.5 -67q10 -29 17 -48.5t11 -33.5q6 -16 8 -27h7q2 10 8 27q4 14 11 33.5t17 48.5l445 1116h176v-1352h-139v936q0 111 6 166q2 33 6 55h-6q0 -8 -14.5 -56t-49.5 -132q-27 -61 -50 -122t-50 -120 l-291 -727h-145q-98 244 -196.5 494.5t-201.5 486.5q-18 41 -29 75t-18 56q-8 27 -10 45h-6l6 -55q2 -29 4 -71t2 -95v-936h-139zM768 -174h127v-170h-127v170z" />
<glyph unicode="&#x1e43;" horiz-adv-x="1554" d="M150 0v942h112l25 -168q31 109 95 149t171 40q123 0 188.5 -47.5t89.5 -155.5q31 117 99.5 160t181.5 43q88 0 146.5 -22.5t93 -71t49 -125t14.5 -187.5v-557h-139v557q0 82 -6 137.5t-25.5 89t-55.5 49t-95 15.5q-66 0 -111 -17.5t-73.5 -58.5t-43 -108.5t-14.5 -167.5 v-496h-139v557q0 82 -6.5 137.5t-25.5 89t-55 49t-96 15.5q-66 0 -110.5 -17.5t-73.5 -58.5t-43 -108.5t-14 -167.5v-496h-139zM712 -174h127v-170h-127v170z" />
<glyph unicode="&#x1e44;" horiz-adv-x="1370" d="M172 0v1352h158l528 -838q37 -59 73 -117.5t65.5 -107.5t48 -81t18.5 -34h8q-4 37 -6 76q-4 35 -5 79t-1 93v930h137v-1352h-156l-530 834l-94 153q-23 37 -43.5 70t-35.5 58.5t-23 40.5l-9 15h-6q2 -37 6 -75q2 -35 4 -80t2 -92v-924h-139zM620 1526v168h127v-168h-127z " />
<glyph unicode="&#x1e45;" horiz-adv-x="1071" d="M150 0v942h108l21 -156l6 -20q35 113 109.5 155t201.5 42q98 0 162.5 -22.5t101.5 -72t52.5 -127t15.5 -188.5v-553h-137v553q0 82 -8.5 138.5t-32 91t-66.5 49t-113 14.5q-76 0 -129 -18.5t-86.5 -61.5t-50 -113.5t-16.5 -175.5v-477h-139zM471 1116v168h127v-168h-127z " />
<glyph unicode="&#x1e46;" horiz-adv-x="1370" d="M172 0v1352h158l528 -838q37 -59 73 -117.5t65.5 -107.5t48 -81t18.5 -34h8q-4 37 -6 76q-4 35 -5 79t-1 93v930h137v-1352h-156l-530 834l-94 153q-23 37 -43.5 70t-35.5 58.5t-23 40.5l-9 15h-6q2 -37 6 -75q2 -35 4 -80t2 -92v-924h-139zM620 -174h127v-170h-127v170z " />
<glyph unicode="&#x1e47;" horiz-adv-x="1071" d="M150 0v942h108l21 -156l6 -20q35 113 109.5 155t201.5 42q98 0 162.5 -22.5t101.5 -72t52.5 -127t15.5 -188.5v-553h-137v553q0 82 -8.5 138.5t-32 91t-66.5 49t-113 14.5q-76 0 -129 -18.5t-86.5 -61.5t-50 -113.5t-16.5 -175.5v-477h-139zM471 -174h127v-170h-127v170z " />
<glyph unicode="&#x1e48;" horiz-adv-x="1370" d="M172 0v1352h158l528 -838q37 -59 73 -117.5t65.5 -107.5t48 -81t18.5 -34h8q-4 37 -6 76q-4 35 -5 79t-1 93v930h137v-1352h-156l-530 834l-94 153q-23 37 -43.5 70t-35.5 58.5t-23 40.5l-9 15h-6q2 -37 6 -75q2 -35 4 -80t2 -92v-924h-139zM353 -244h665v-98h-665v98z " />
<glyph unicode="&#x1e49;" horiz-adv-x="1071" d="M150 0v942h108l21 -156l6 -20q35 113 109.5 155t201.5 42q98 0 162.5 -22.5t101.5 -72t52.5 -127t15.5 -188.5v-553h-137v553q0 82 -8.5 138.5t-32 91t-66.5 49t-113 14.5q-76 0 -129 -18.5t-86.5 -61.5t-50 -113.5t-16.5 -175.5v-477h-139zM201 -244h665v-98h-665v98z " />
<glyph unicode="&#x1e4a;" horiz-adv-x="1370" d="M172 0v1352h158l528 -838q37 -59 73 -117.5t65.5 -107.5t48 -81t18.5 -34h8q-4 37 -6 76q-4 35 -5 79t-1 93v930h137v-1352h-156l-530 834l-94 153q-23 37 -43.5 70t-35.5 58.5t-23 40.5l-9 15h-6q2 -37 6 -75q2 -35 4 -80t2 -92v-924h-139zM373 -412l266 262h90 l264 -262h-149l-84 82q-23 20 -35 38t-22 32q-10 16 -17 29h-4q-6 -14 -16 -29q-20 -31 -60 -70l-82 -82h-151z" />
<glyph unicode="&#x1e4b;" horiz-adv-x="1071" d="M150 0v942h108l21 -156l6 -20q35 113 109.5 155t201.5 42q98 0 162.5 -22.5t101.5 -72t52.5 -127t15.5 -188.5v-553h-137v553q0 82 -8.5 138.5t-32 91t-66.5 49t-113 14.5q-76 0 -129 -18.5t-86.5 -61.5t-50 -113.5t-16.5 -175.5v-477h-139zM223 -412l266 262h90 l264 -262h-149l-84 82q-23 20 -35 38t-22 32q-10 16 -17 29h-4q-6 -14 -16 -29q-20 -31 -60 -70l-82 -82h-151z" />
<glyph unicode="&#x1e4c;" horiz-adv-x="1345" d="M94 676q0 197 34 331t104.5 215t180 115.5t261.5 34.5q150 0 259 -34.5t180 -115.5t104.5 -215.5t33.5 -330.5q0 -197 -33.5 -331t-104.5 -215t-180 -115.5t-259 -34.5q-152 0 -261.5 34.5t-180 115.5t-104.5 215t-34 331zM233 676q0 -164 26 -274.5t79 -177t137 -95.5 t199 -29t197.5 29t137 95.5t80 177t25.5 274.5q0 162 -25.5 272.5t-80 178t-137.5 96t-197 28.5q-115 0 -199 -28.5t-137 -96t-79 -178t-26 -272.5zM377 1497q0 45 5 85t20.5 70.5t46 48t81.5 17.5q49 0 82 -17.5t68 -41.5q37 -27 61.5 -41t53.5 -14q37 0 50 26.5t13 89.5 h111q0 -47 -4 -88t-20.5 -70.5t-48.5 -46t-85 -16.5q-47 0 -79 16.5t-66 38.5q-37 27 -62.5 42.5t-56.5 15.5q-39 0 -53.5 -26.5t-14.5 -88.5h-102zM600 1804l145 267h195l-215 -267h-125z" />
<glyph unicode="&#x1e4d;" horiz-adv-x="1003" d="M88 471q0 139 24.5 233.5t75 151.5t128 82t186.5 25q106 0 185 -25t130 -82t76 -151.5t25 -233.5t-25 -233.5t-76 -151.5t-130 -81.5t-185 -24.5q-109 0 -186.5 24.5t-128 81.5t-75 151.5t-24.5 233.5zM205 1087q0 45 5 85t21.5 71t47 48.5t81.5 17.5q47 0 81 -17.5 t69 -42.5q37 -27 60.5 -41t54.5 -14q35 0 49 26.5t14 90.5h109q0 -47 -4.5 -88t-20.5 -71t-48 -46t-85 -16q-47 0 -78 16t-65 39q-39 27 -64.5 42t-54.5 15q-39 0 -53.5 -26.5t-14.5 -88.5h-104zM225 471q0 -106 15.5 -179t48.5 -117t86 -62.5t127 -18.5q76 0 128 18.5 t85 62.5t48 117t15 179t-15 179t-48 117t-85 62.5t-128 18.5q-74 0 -127 -18.5t-86 -62.5t-48.5 -116.5t-15.5 -179.5zM430 1395l145 266h195l-215 -266h-125z" />
<glyph unicode="&#x1e4e;" horiz-adv-x="1345" d="M94 676q0 197 34 331t104.5 215t180 115.5t261.5 34.5q150 0 259 -34.5t180 -115.5t104.5 -215.5t33.5 -330.5q0 -197 -33.5 -331t-104.5 -215t-180 -115.5t-259 -34.5q-152 0 -261.5 34.5t-180 115.5t-104.5 215t-34 331zM233 676q0 -164 26 -274.5t79 -177t137 -95.5 t199 -29t197.5 29t137 95.5t80 177t25.5 274.5q0 162 -25.5 272.5t-80 178t-137.5 96t-197 28.5q-115 0 -199 -28.5t-137 -96t-79 -178t-26 -272.5zM377 1497q0 45 5 85t20.5 70.5t46 48t81.5 17.5q49 0 82 -17.5t68 -41.5q37 -27 61.5 -41t53.5 -14q37 0 50 26.5t13 89.5 h111q0 -47 -4 -88t-20.5 -70.5t-48.5 -46t-85 -16.5q-47 0 -79 16.5t-66 38.5q-37 27 -62.5 42.5t-56.5 15.5q-39 0 -53.5 -26.5t-14.5 -88.5h-102zM422 1833v168h127v-168h-127zM795 1833v168h129v-168h-129z" />
<glyph unicode="&#x1e4f;" horiz-adv-x="1003" d="M88 471q0 139 24.5 233.5t75 151.5t128 82t186.5 25q106 0 185 -25t130 -82t76 -151.5t25 -233.5t-25 -233.5t-76 -151.5t-130 -81.5t-185 -24.5q-109 0 -186.5 24.5t-128 81.5t-75 151.5t-24.5 233.5zM205 1087q0 45 5 85t21.5 71t47 48.5t81.5 17.5q47 0 81 -17.5 t69 -42.5q37 -27 60.5 -41t54.5 -14q35 0 49 26.5t14 90.5h109q0 -47 -4.5 -88t-20.5 -71t-48 -46t-85 -16q-47 0 -78 16t-65 39q-39 27 -64.5 42t-54.5 15q-39 0 -53.5 -26.5t-14.5 -88.5h-104zM225 471q0 -106 15.5 -179t48.5 -117t86 -62.5t127 -18.5q76 0 128 18.5 t85 62.5t48 117t15 179t-15 179t-48 117t-85 62.5t-128 18.5q-74 0 -127 -18.5t-86 -62.5t-48.5 -116.5t-15.5 -179.5zM250 1423v168h129v-168h-129zM625 1423v168h127v-168h-127z" />
<glyph unicode="&#x1e50;" horiz-adv-x="1345" d="M94 676q0 197 34 331t104.5 215t180 115.5t261.5 34.5q150 0 259 -34.5t180 -115.5t104.5 -215.5t33.5 -330.5q0 -197 -33.5 -331t-104.5 -215t-180 -115.5t-259 -34.5q-152 0 -261.5 34.5t-180 115.5t-104.5 215t-34 331zM233 676q0 -164 26 -274.5t79 -177t137 -95.5 t199 -29t197.5 29t137 95.5t80 177t25.5 274.5q0 162 -25.5 272.5t-80 178t-137.5 96t-197 28.5q-115 0 -199 -28.5t-137 -96t-79 -178t-26 -272.5zM340 1554v97h666v-97h-666zM420 2071h194l146 -267h-123z" />
<glyph unicode="&#x1e51;" horiz-adv-x="1003" d="M88 471q0 139 24.5 233.5t75 151.5t128 82t186.5 25q106 0 185 -25t130 -82t76 -151.5t25 -233.5t-25 -233.5t-76 -151.5t-130 -81.5t-185 -24.5q-109 0 -186.5 24.5t-128 81.5t-75 151.5t-24.5 233.5zM168 1145v96h666v-96h-666zM225 471q0 -106 15.5 -179t48.5 -117 t86 -62.5t127 -18.5q76 0 128 18.5t85 62.5t48 117t15 179t-15 179t-48 117t-85 62.5t-128 18.5q-74 0 -127 -18.5t-86 -62.5t-48.5 -116.5t-15.5 -179.5zM260 1661h195l145 -266h-125z" />
<glyph unicode="&#x1e52;" horiz-adv-x="1345" d="M94 676q0 197 34 331t104.5 215t180 115.5t261.5 34.5q150 0 259 -34.5t180 -115.5t104.5 -215.5t33.5 -330.5q0 -197 -33.5 -331t-104.5 -215t-180 -115.5t-259 -34.5q-152 0 -261.5 34.5t-180 115.5t-104.5 215t-34 331zM233 676q0 -164 26 -274.5t79 -177t137 -95.5 t199 -29t197.5 29t137 95.5t80 177t25.5 274.5q0 162 -25.5 272.5t-80 178t-137.5 96t-197 28.5q-115 0 -199 -28.5t-137 -96t-79 -178t-26 -272.5zM340 1554v97h666v-97h-666zM592 1804l145 267h195l-217 -267h-123z" />
<glyph unicode="&#x1e53;" horiz-adv-x="1003" d="M88 471q0 139 24.5 233.5t75 151.5t128 82t186.5 25q106 0 185 -25t130 -82t76 -151.5t25 -233.5t-25 -233.5t-76 -151.5t-130 -81.5t-185 -24.5q-109 0 -186.5 24.5t-128 81.5t-75 151.5t-24.5 233.5zM168 1145v96h666v-96h-666zM225 471q0 -106 15.5 -179t48.5 -117 t86 -62.5t127 -18.5q76 0 128 18.5t85 62.5t48 117t15 179t-15 179t-48 117t-85 62.5t-128 18.5q-74 0 -127 -18.5t-86 -62.5t-48.5 -116.5t-15.5 -179.5zM444 1395l146 266h194l-217 -266h-123z" />
<glyph unicode="&#x1e54;" horiz-adv-x="1185" d="M172 0v1352h490q119 0 206.5 -22.5t144 -74t84 -134.5t27.5 -206q0 -127 -27.5 -214t-84 -140t-144.5 -76.5t-206 -23.5h-351v-461h-139zM311 582h338q90 0 154.5 16t105.5 55t59.5 103.5t18.5 158.5q0 88 -18.5 148.5t-59.5 97.5t-105.5 53.5t-154.5 16.5h-338v-649z M467 1497l146 267h194l-217 -267h-123z" />
<glyph unicode="&#x1e55;" horiz-adv-x="1056" d="M150 -492v1434h108l21 -158l6 -18q35 111 107.5 154t191.5 43q98 0 170.5 -27t120 -85t71 -151.5t23.5 -228.5t-23.5 -229.5t-71 -152.5t-120 -83.5t-170.5 -25.5q-119 0 -192 40.5t-107 151.5h-4q4 -41 6 -79t2 -79v-506h-139zM289 471q0 -106 15 -179t48 -117t85 -62.5 t126 -18.5q72 0 123 18.5t83 61.5t47 115.5t15 181.5q0 106 -15 179t-47 116t-83 61.5t-123 18.5t-123 -17.5t-84.5 -58.5t-49 -108.5t-17.5 -167.5v-23zM403 1087l146 267h194l-217 -267h-123z" />
<glyph unicode="&#x1e56;" horiz-adv-x="1185" d="M172 0v1352h490q119 0 206.5 -22.5t144 -74t84 -134.5t27.5 -206q0 -127 -27.5 -214t-84 -140t-144.5 -76.5t-206 -23.5h-351v-461h-139zM311 582h338q90 0 154.5 16t105.5 55t59.5 103.5t18.5 158.5q0 88 -18.5 148.5t-59.5 97.5t-105.5 53.5t-154.5 16.5h-338v-649z M528 1526v168h127v-168h-127z" />
<glyph unicode="&#x1e57;" horiz-adv-x="1056" d="M150 -492v1434h108l21 -158l6 -18q35 111 107.5 154t191.5 43q98 0 170.5 -27t120 -85t71 -151.5t23.5 -228.5t-23.5 -229.5t-71 -152.5t-120 -83.5t-170.5 -25.5q-119 0 -192 40.5t-107 151.5h-4q4 -41 6 -79t2 -79v-506h-139zM289 471q0 -106 15 -179t48 -117t85 -62.5 t126 -18.5q72 0 123 18.5t83 61.5t47 115.5t15 181.5q0 106 -15 179t-47 116t-83 61.5t-123 18.5t-123 -17.5t-84.5 -58.5t-49 -108.5t-17.5 -167.5v-23zM465 1116v168h127v-168h-127z" />
<glyph unicode="&#x1e58;" horiz-adv-x="1224" d="M172 0v1352h490q119 0 205.5 -22.5t144 -74t85 -134.5t27.5 -206q0 -199 -67.5 -301t-208.5 -135l307 -479h-158l-297 461h-389v-461h-139zM311 580h338q180 0 259 73.5t79 261.5q0 88 -18.5 148.5t-59.5 97.5t-105.5 53.5t-154.5 16.5h-338v-651zM549 1526v168h127v-168 h-127z" />
<glyph unicode="&#x1e59;" horiz-adv-x="610" d="M143 0v942h113l20 -160q0 -10 5 -30q33 109 103.5 151.5t188.5 42.5v-115q-76 0 -131 -17t-90 -57t-52 -105.5t-19 -162.5v-489h-138zM239 1116v168h127v-168h-127z" />
<glyph unicode="&#x1e5a;" horiz-adv-x="1224" d="M172 0v1352h490q119 0 205.5 -22.5t144 -74t85 -134.5t27.5 -206q0 -199 -67.5 -301t-208.5 -135l307 -479h-158l-297 461h-389v-461h-139zM311 580h338q180 0 259 73.5t79 261.5q0 88 -18.5 148.5t-59.5 97.5t-105.5 53.5t-154.5 16.5h-338v-651zM549 -174h127v-170 h-127v170z" />
<glyph unicode="&#x1e5b;" horiz-adv-x="610" d="M143 0v942h113l20 -160q0 -10 5 -30q33 109 103.5 151.5t188.5 42.5v-115q-76 0 -131 -17t-90 -57t-52 -105.5t-19 -162.5v-489h-138zM239 -174h127v-170h-127v170z" />
<glyph unicode="&#x1e5c;" horiz-adv-x="1224" d="M172 0v1352h490q119 0 205.5 -22.5t144 -74t85 -134.5t27.5 -206q0 -199 -67.5 -301t-208.5 -135l307 -479h-158l-297 461h-389v-461h-139zM279 1596v96h665v-96h-665zM311 580h338q180 0 259 73.5t79 261.5q0 88 -18.5 148.5t-59.5 97.5t-105.5 53.5t-154.5 16.5h-338 v-651zM549 -174h127v-170h-127v170z" />
<glyph unicode="&#x1e5d;" horiz-adv-x="610" d="M-24 1186v96h665v-96h-665zM143 0v942h113l20 -160q0 -10 5 -30q33 109 103.5 151.5t188.5 42.5v-115q-76 0 -131 -17t-90 -57t-52 -105.5t-19 -162.5v-489h-138zM239 -174h127v-170h-127v170z" />
<glyph unicode="&#x1e5e;" horiz-adv-x="1224" d="M172 0v1352h490q119 0 205.5 -22.5t144 -74t85 -134.5t27.5 -206q0 -199 -67.5 -301t-208.5 -135l307 -479h-158l-297 461h-389v-461h-139zM279 -244h665v-98h-665v98zM311 580h338q180 0 259 73.5t79 261.5q0 88 -18.5 148.5t-59.5 97.5t-105.5 53.5t-154.5 16.5h-338 v-651z" />
<glyph unicode="&#x1e5f;" horiz-adv-x="610" d="M-24 -244h665v-98h-665v98zM143 0v942h113l20 -160q0 -10 5 -30q33 109 103.5 151.5t188.5 42.5v-115q-76 0 -131 -17t-90 -57t-52 -105.5t-19 -162.5v-489h-138z" />
<glyph unicode="&#x1e60;" horiz-adv-x="1183" d="M68 328h137q0 -121 90 -174.5t276 -53.5q86 0 157 12.5t120 42t76.5 80t27.5 125.5q0 76 -30.5 121t-83 71t-120 37t-138.5 21q-98 12 -187.5 34t-156 64t-105.5 108.5t-39 170.5q0 90 27.5 162t87 121t155 75.5t230.5 26.5q223 0 347 -79t124 -269h-135q0 125 -86 176 t-254 51q-84 0 -149.5 -12t-111.5 -43t-71 -81t-25 -126q0 -78 30 -123t78 -69.5t110.5 -35.5t130.5 -20q100 -14 192 -33.5t163 -59.5t113 -107.5t42 -175.5q0 -201 -131.5 -293t-391.5 -92q-252 0 -375.5 83.5t-123.5 264.5zM526 1526v168h127v-168h-127z" />
<glyph unicode="&#x1e61;" horiz-adv-x="897" d="M61 256h132q0 -88 60 -125t187 -37q119 0 182.5 34t63.5 128q0 47 -20.5 74.5t-55.5 44t-79 24t-89 13.5q-72 8 -139 24.5t-118.5 47t-82 79.5t-30.5 125q0 131 87 203t287 72q186 0 275.5 -66t89.5 -213h-135q0 88 -55.5 126t-178.5 38q-113 0 -173 -34t-60 -128 q0 -47 19.5 -74.5t52 -44t74.5 -23.5t87 -14q78 -10 146.5 -26.5t121 -47t82 -79.5t29.5 -123q0 -133 -88 -203.5t-295 -70.5q-193 0 -285 65.5t-92 210.5zM383 1116v168h127v-168h-127z" />
<glyph unicode="&#x1e62;" horiz-adv-x="1183" d="M68 328h137q0 -121 90 -174.5t276 -53.5q86 0 157 12.5t120 42t76.5 80t27.5 125.5q0 76 -30.5 121t-83 71t-120 37t-138.5 21q-98 12 -187.5 34t-156 64t-105.5 108.5t-39 170.5q0 90 27.5 162t87 121t155 75.5t230.5 26.5q223 0 347 -79t124 -269h-135q0 125 -86 176 t-254 51q-84 0 -149.5 -12t-111.5 -43t-71 -81t-25 -126q0 -78 30 -123t78 -69.5t110.5 -35.5t130.5 -20q100 -14 192 -33.5t163 -59.5t113 -107.5t42 -175.5q0 -201 -131.5 -293t-391.5 -92q-252 0 -375.5 83.5t-123.5 264.5zM526 -174h127v-170h-127v170z" />
<glyph unicode="&#x1e63;" horiz-adv-x="897" d="M61 256h132q0 -88 60 -125t187 -37q119 0 182.5 34t63.5 128q0 47 -20.5 74.5t-55.5 44t-79 24t-89 13.5q-72 8 -139 24.5t-118.5 47t-82 79.5t-30.5 125q0 131 87 203t287 72q186 0 275.5 -66t89.5 -213h-135q0 88 -55.5 126t-178.5 38q-113 0 -173 -34t-60 -128 q0 -47 19.5 -74.5t52 -44t74.5 -23.5t87 -14q78 -10 146.5 -26.5t121 -47t82 -79.5t29.5 -123q0 -133 -88 -203.5t-295 -70.5q-193 0 -285 65.5t-92 210.5zM383 -174h127v-170h-127v170z" />
<glyph unicode="&#x1e64;" horiz-adv-x="1183" d="M68 328h137q0 -121 90 -174.5t276 -53.5q86 0 157 12.5t120 42t76.5 80t27.5 125.5q0 76 -30.5 121t-83 71t-120 37t-138.5 21q-98 12 -187.5 34t-156 64t-105.5 108.5t-39 170.5q0 90 27.5 162t87 121t155 75.5t230.5 26.5q223 0 347 -79t124 -269h-135q0 125 -86 176 t-254 51q-84 0 -149.5 -12t-111.5 -43t-71 -81t-25 -126q0 -78 30 -123t78 -69.5t110.5 -35.5t130.5 -20q100 -14 192 -33.5t163 -59.5t113 -107.5t42 -175.5q0 -201 -131.5 -293t-391.5 -92q-252 0 -375.5 83.5t-123.5 264.5zM526 1833v168h127v-168h-127zM555 1490 l146 267h194l-217 -267h-123z" />
<glyph unicode="&#x1e65;" horiz-adv-x="897" d="M61 256h132q0 -88 60 -125t187 -37q119 0 182.5 34t63.5 128q0 47 -20.5 74.5t-55.5 44t-79 24t-89 13.5q-72 8 -139 24.5t-118.5 47t-82 79.5t-30.5 125q0 131 87 203t287 72q186 0 275.5 -66t89.5 -213h-135q0 88 -55.5 126t-178.5 38q-113 0 -173 -34t-60 -128 q0 -47 19.5 -74.5t52 -44t74.5 -23.5t87 -14q78 -10 146.5 -26.5t121 -47t82 -79.5t29.5 -123q0 -133 -88 -203.5t-295 -70.5q-193 0 -285 65.5t-92 210.5zM383 1431v168h127v-168h-127zM393 1085l146 267h194l-217 -267h-123z" />
<glyph unicode="&#x1e66;" horiz-adv-x="1183" d="M68 328h137q0 -121 90 -174.5t276 -53.5q86 0 157 12.5t120 42t76.5 80t27.5 125.5q0 76 -30.5 121t-83 71t-120 37t-138.5 21q-98 12 -187.5 34t-156 64t-105.5 108.5t-39 170.5q0 90 27.5 162t87 121t155 75.5t230.5 26.5q223 0 347 -79t124 -269h-135q0 125 -86 176 t-254 51q-84 0 -149.5 -12t-111.5 -43t-71 -81t-25 -126q0 -78 30 -123t78 -69.5t110.5 -35.5t130.5 -20q100 -14 192 -33.5t163 -59.5t113 -107.5t42 -175.5q0 -201 -131.5 -293t-391.5 -92q-252 0 -375.5 83.5t-123.5 264.5zM285 1755h151l82 -82q39 -39 60 -70 q10 -16 16 -29h4q6 12 17 29q10 14 22 31.5t35 38.5l84 82h149l-264 -260h-90zM526 1833v168h127v-168h-127z" />
<glyph unicode="&#x1e67;" horiz-adv-x="897" d="M61 256h132q0 -88 60 -125t187 -37q119 0 182.5 34t63.5 128q0 47 -20.5 74.5t-55.5 44t-79 24t-89 13.5q-72 8 -139 24.5t-118.5 47t-82 79.5t-30.5 125q0 131 87 203t287 72q186 0 275.5 -66t89.5 -213h-135q0 88 -55.5 126t-178.5 38q-113 0 -173 -34t-60 -128 q0 -47 19.5 -74.5t52 -44t74.5 -23.5t87 -14q78 -10 146.5 -26.5t121 -47t82 -79.5t29.5 -123q0 -133 -88 -203.5t-295 -70.5q-193 0 -285 65.5t-92 210.5zM139 1344h151l82 -82q39 -39 60 -70q10 -16 16 -29h4q6 12 17 29q10 14 22 31.5t35 38.5l84 82h149l-264 -260h-90z M383 1423v168h127v-168h-127z" />
<glyph unicode="&#x1e68;" horiz-adv-x="1183" d="M68 328h137q0 -121 90 -174.5t276 -53.5q86 0 157 12.5t120 42t76.5 80t27.5 125.5q0 76 -30.5 121t-83 71t-120 37t-138.5 21q-98 12 -187.5 34t-156 64t-105.5 108.5t-39 170.5q0 90 27.5 162t87 121t155 75.5t230.5 26.5q223 0 347 -79t124 -269h-135q0 125 -86 176 t-254 51q-84 0 -149.5 -12t-111.5 -43t-71 -81t-25 -126q0 -78 30 -123t78 -69.5t110.5 -35.5t130.5 -20q100 -14 192 -33.5t163 -59.5t113 -107.5t42 -175.5q0 -201 -131.5 -293t-391.5 -92q-252 0 -375.5 83.5t-123.5 264.5zM526 -174h127v-170h-127v170zM526 1526v168 h127v-168h-127z" />
<glyph unicode="&#x1e69;" horiz-adv-x="897" d="M61 256h132q0 -88 60 -125t187 -37q119 0 182.5 34t63.5 128q0 47 -20.5 74.5t-55.5 44t-79 24t-89 13.5q-72 8 -139 24.5t-118.5 47t-82 79.5t-30.5 125q0 131 87 203t287 72q186 0 275.5 -66t89.5 -213h-135q0 88 -55.5 126t-178.5 38q-113 0 -173 -34t-60 -128 q0 -47 19.5 -74.5t52 -44t74.5 -23.5t87 -14q78 -10 146.5 -26.5t121 -47t82 -79.5t29.5 -123q0 -133 -88 -203.5t-295 -70.5q-193 0 -285 65.5t-92 210.5zM383 -174h127v-170h-127v170zM383 1116v168h127v-168h-127z" />
<glyph unicode="&#x1e6a;" horiz-adv-x="1112" d="M27 1231v121h1058v-121h-460v-1231h-138v1231h-460zM491 1526v168h127v-168h-127z" />
<glyph unicode="&#x1e6b;" horiz-adv-x="628" d="M23 825v117h124v215q35 6 70 14.5t70 16.5v-246h309v-117h-309v-456q0 -141 67.5 -197.5t198.5 -56.5v-115q-96 0 -172 18.5t-128 61.5t-79 113.5t-27 175.5v456h-124zM153 1335v168h127v-168h-127z" />
<glyph unicode="&#x1e6c;" horiz-adv-x="1112" d="M27 1231v121h1058v-121h-460v-1231h-138v1231h-460zM491 -174h127v-170h-127v170z" />
<glyph unicode="&#x1e6d;" horiz-adv-x="628" d="M23 825v117h124v215q35 6 70 14.5t70 16.5v-246h309v-117h-309v-456q0 -141 67.5 -197.5t198.5 -56.5v-115q-96 0 -172 18.5t-128 61.5t-79 113.5t-27 175.5v456h-124zM250 -174h127v-170h-127v170z" />
<glyph unicode="&#x1e6e;" horiz-adv-x="1112" d="M27 1231v121h1058v-121h-460v-1231h-138v1231h-460zM224 -244h665v-98h-665v98z" />
<glyph unicode="&#x1e6f;" horiz-adv-x="628" d="M-14 -244h665v-98h-665v98zM23 825v117h124v215q35 6 70 14.5t70 16.5v-246h309v-117h-309v-456q0 -141 67.5 -197.5t198.5 -56.5v-115q-96 0 -172 18.5t-128 61.5t-79 113.5t-27 175.5v456h-124z" />
<glyph unicode="&#x1e70;" horiz-adv-x="1112" d="M27 1231v121h1058v-121h-460v-1231h-138v1231h-460zM244 -412l266 262h90l264 -262h-149l-84 82q-23 20 -35 38t-22 32q-10 16 -17 29h-4q-6 -14 -16 -29q-20 -31 -60 -70l-82 -82h-151z" />
<glyph unicode="&#x1e71;" horiz-adv-x="628" d="M6 -412l266 262h90l264 -262h-149l-84 82q-23 20 -35 38t-22 32q-10 16 -17 29h-4q-6 -14 -16 -29q-20 -31 -60 -70l-82 -82h-151zM23 825v117h124v215q35 6 70 14.5t70 16.5v-246h309v-117h-309v-456q0 -141 67.5 -197.5t198.5 -56.5v-115q-96 0 -172 18.5t-128 61.5 t-79 113.5t-27 175.5v456h-124z" />
<glyph unicode="&#x1e72;" horiz-adv-x="1304" d="M135 676v676h139v-676q0 -164 22.5 -274.5t69 -177t118 -95.5t169.5 -29t170 29t118 95.5t68.5 177t22.5 274.5v676h137v-676q0 -197 -30.5 -331t-93 -215t-160 -115.5t-232.5 -34.5t-233 34.5t-160.5 115.5t-93.5 215t-31 331zM401 -174h127v-170h-127v170zM774 -174 h129v-170h-129v170z" />
<glyph unicode="&#x1e73;" horiz-adv-x="1062" d="M133 471v471h137v-471q0 -109 8.5 -181.5t33 -115.5t68.5 -61.5t118 -18.5q70 0 121 17.5t84.5 58.5t50 108.5t18.5 165.5v498h139v-942h-108l-21 154l-6 22q-35 -113 -108.5 -154.5t-196.5 -41.5q-100 0 -165.5 26.5t-103.5 85t-53.5 151.5t-15.5 228zM278 -174h127 v-170h-127v170zM651 -174h129v-170h-129v170z" />
<glyph unicode="&#x1e74;" horiz-adv-x="1304" d="M135 676v676h139v-676q0 -164 22.5 -274.5t69 -177t118 -95.5t169.5 -29t170 29t118 95.5t68.5 177t22.5 274.5v676h137v-676q0 -197 -30.5 -331t-93 -215t-160 -115.5t-232.5 -34.5t-233 34.5t-160.5 115.5t-93.5 215t-31 331zM354 -379q0 45 5.5 85t21.5 70.5t46 48 t81 17.5q49 0 82 -17.5t70 -41.5q35 -27 59.5 -41t54.5 -14q35 0 49.5 25.5t14.5 90.5h108q0 -47 -4 -88t-20.5 -70.5t-48 -46t-84.5 -16.5q-47 0 -78 16.5t-66 38.5q-39 27 -64.5 42.5t-54.5 15.5q-39 0 -53 -26.5t-14 -88.5h-105z" />
<glyph unicode="&#x1e75;" horiz-adv-x="1062" d="M133 471v471h137v-471q0 -109 8.5 -181.5t33 -115.5t68.5 -61.5t118 -18.5q70 0 121 17.5t84.5 58.5t50 108.5t18.5 165.5v498h139v-942h-108l-21 154l-6 22q-35 -113 -108.5 -154.5t-196.5 -41.5q-100 0 -165.5 26.5t-103.5 85t-53.5 151.5t-15.5 228zM233 -379 q0 45 5.5 85t21.5 70.5t46 48t81 17.5q49 0 82 -17.5t70 -41.5q35 -27 59.5 -41t54.5 -14q35 0 49.5 25.5t14.5 90.5h108q0 -47 -4 -88t-20.5 -70.5t-48 -46t-84.5 -16.5q-47 0 -78 16.5t-66 38.5q-39 27 -64.5 42.5t-54.5 15.5q-39 0 -53 -26.5t-14 -88.5h-105z" />
<glyph unicode="&#x1e76;" horiz-adv-x="1304" d="M135 676v676h139v-676q0 -164 22.5 -274.5t69 -177t118 -95.5t169.5 -29t170 29t118 95.5t68.5 177t22.5 274.5v676h137v-676q0 -197 -30.5 -331t-93 -215t-160 -115.5t-232.5 -34.5t-233 34.5t-160.5 115.5t-93.5 215t-31 331zM340 -412l266 262h90l264 -262h-149 l-84 82q-23 20 -35 38t-22 32q-10 16 -17 29h-4q-6 -14 -16 -29q-20 -31 -60 -70l-82 -82h-151z" />
<glyph unicode="&#x1e77;" horiz-adv-x="1062" d="M133 471v471h137v-471q0 -109 8.5 -181.5t33 -115.5t68.5 -61.5t118 -18.5q70 0 121 17.5t84.5 58.5t50 108.5t18.5 165.5v498h139v-942h-108l-21 154l-6 22q-35 -113 -108.5 -154.5t-196.5 -41.5q-100 0 -165.5 26.5t-103.5 85t-53.5 151.5t-15.5 228zM219 -412l266 262 h90l264 -262h-149l-84 82q-23 20 -35 38t-22 32q-10 16 -17 29h-4q-6 -14 -16 -29q-20 -31 -60 -70l-82 -82h-151z" />
<glyph unicode="&#x1e78;" horiz-adv-x="1304" d="M135 676v676h139v-676q0 -164 22.5 -274.5t69 -177t118 -95.5t169.5 -29t170 29t118 95.5t68.5 177t22.5 274.5v676h137v-676q0 -197 -30.5 -331t-93 -215t-160 -115.5t-232.5 -34.5t-233 34.5t-160.5 115.5t-93.5 215t-31 331zM356 1430q0 45 5.5 85.5t20.5 71.5 t46 48.5t82 17.5q49 0 82 -18.5t67 -41.5q37 -27 61.5 -42t53.5 -15q37 0 50.5 26.5t13.5 92.5h110q0 -49 -4 -90t-20.5 -71t-48 -46t-84.5 -16q-47 0 -79 17t-67 40q-37 27 -62.5 42t-56.5 15q-39 0 -53 -27.5t-14 -88.5h-103zM598 1716l143 266h197l-217 -266h-123z" />
<glyph unicode="&#x1e79;" horiz-adv-x="1062" d="M133 471v471h137v-471q0 -109 8.5 -181.5t33 -115.5t68.5 -61.5t118 -18.5q70 0 121 17.5t84.5 58.5t50 108.5t18.5 165.5v498h139v-942h-108l-21 154l-6 22q-35 -113 -108.5 -154.5t-196.5 -41.5q-100 0 -165.5 26.5t-103.5 85t-53.5 151.5t-15.5 228zM233 1051 q0 45 5.5 85t21.5 70.5t47 48t82 17.5q39 0 65.5 -12.5t55.5 -28.5l39 -25q35 -23 55.5 -37t48.5 -12q35 0 49.5 26.5t14.5 90.5h108q0 -47 -4 -88t-20.5 -71t-48 -46t-84.5 -16q-39 0 -64.5 11t-52.5 28l-37 24q-35 23 -57.5 37t-50.5 14q-39 0 -53.5 -27.5t-14.5 -88.5 h-105zM500 1348l145 266h195l-217 -266h-123z" />
<glyph unicode="&#x1e7a;" horiz-adv-x="1304" d="M135 676v676h139v-676q0 -164 22.5 -274.5t69 -177t118 -95.5t169.5 -29t170 29t118 95.5t68.5 177t22.5 274.5v676h137v-676q0 -197 -30.5 -331t-93 -215t-160 -115.5t-232.5 -34.5t-233 34.5t-160.5 115.5t-93.5 215t-31 331zM319 1524v96h666v-96h-666zM401 1745v170 h127v-170h-127zM774 1745v170h129v-170h-129z" />
<glyph unicode="&#x1e7b;" horiz-adv-x="1062" d="M133 471v471h137v-471q0 -109 8.5 -181.5t33 -115.5t68.5 -61.5t118 -18.5q70 0 121 17.5t84.5 58.5t50 108.5t18.5 165.5v498h139v-942h-108l-21 154l-6 22q-35 -113 -108.5 -154.5t-196.5 -41.5q-100 0 -165.5 26.5t-103.5 85t-53.5 151.5t-15.5 228zM197 1114v96h665 v-96h-665zM279 1335v170h129v-170h-129zM653 1335v170h127v-170h-127z" />
<glyph unicode="&#x1e7c;" horiz-adv-x="1296" d="M27 1352h143l371 -914q29 -70 48 -126t32 -97q14 -49 24 -86h8q8 37 23 86q12 41 30.5 97.5t47.5 127.5l368 912h146l-555 -1352h-129zM350 1508q0 45 5.5 85t21.5 70.5t46 48t81 17.5q49 0 82 -17.5t70 -41.5q35 -27 59.5 -41.5t54.5 -14.5q35 0 49.5 26.5t14.5 90.5 h108q0 -47 -4 -88t-20.5 -70.5t-48 -46t-84.5 -16.5q-47 0 -78 16.5t-66 38.5q-39 27 -64.5 42t-54.5 15q-39 0 -53 -26.5t-14 -87.5h-105z" />
<glyph unicode="&#x1e7d;" horiz-adv-x="946" d="M18 942h146l231 -577q23 -55 35 -100.5t23 -80.5q8 -39 16 -69h4q6 31 16 69q10 33 23.5 79t36.5 99l231 580h144l-387 -942h-129zM176 1098q0 45 5.5 85t21.5 70.5t46 48t81 17.5q49 0 82 -17.5t70 -41.5q35 -27 59.5 -41.5t54.5 -14.5q35 0 49.5 26.5t14.5 90.5h108 q0 -47 -4 -88t-20.5 -70.5t-48 -46t-84.5 -16.5q-47 0 -78 16.5t-66 38.5q-39 27 -64.5 42t-54.5 15q-39 0 -53 -26.5t-14 -87.5h-105z" />
<glyph unicode="&#x1e7e;" horiz-adv-x="1296" d="M27 1352h143l371 -914q29 -70 48 -126t32 -97q14 -49 24 -86h8q8 37 23 86q12 41 30.5 97.5t47.5 127.5l368 912h146l-555 -1352h-129zM583 -174h127v-170h-127v170z" />
<glyph unicode="&#x1e7f;" horiz-adv-x="946" d="M18 942h146l231 -577q23 -55 35 -100.5t23 -80.5q8 -39 16 -69h4q6 31 16 69q10 33 23.5 79t36.5 99l231 580h144l-387 -942h-129zM407 -174h127v-170h-127v170z" />
<glyph unicode="&#x1e80;" horiz-adv-x="1689" d="M31 1352h139l258 -906q18 -70 30.5 -128t20.5 -101q8 -51 15 -92h8q6 41 14 92q8 43 20.5 101.5t30.5 125.5l195 703h164l196 -703q18 -68 30.5 -126t21.5 -101q8 -51 14 -92h6q6 41 14 92q8 43 20.5 101.5t33.5 127.5l256 906h141l-395 -1352h-152l-205 727 q-18 68 -30.5 126t-18.5 99q-8 49 -10 88h-8q-4 -39 -13 -88q-8 -41 -19 -98t-30 -127l-203 -727h-151zM673 1764h195l145 -267h-123z" />
<glyph unicode="&#x1e81;" horiz-adv-x="1347" d="M23 942h141l151 -536q18 -70 30.5 -125.5t19.5 -94.5q8 -45 12 -80h8q2 35 10 80q6 39 17.5 94.5t29.5 127.5l148 534h162l147 -534q37 -145 49 -222q8 -45 13 -80h6q0 33 8 78q6 39 17.5 94.5t33.5 127.5l156 536h139l-285 -942h-151l-154 530q-20 66 -30.5 119 t-16.5 90q-8 43 -10 74h-6q-2 -31 -11 -74q-6 -37 -17 -90t-30 -119l-151 -530h-152zM501 1354h195l145 -267h-123z" />
<glyph unicode="&#x1e82;" horiz-adv-x="1689" d="M31 1352h139l258 -906q18 -70 30.5 -128t20.5 -101q8 -51 15 -92h8q6 41 14 92q8 43 20.5 101.5t30.5 125.5l195 703h164l196 -703q18 -68 30.5 -126t21.5 -101q8 -51 14 -92h6q6 41 14 92q8 43 20.5 101.5t33.5 127.5l256 906h141l-395 -1352h-152l-205 727 q-18 68 -30.5 126t-18.5 99q-8 49 -10 88h-8q-4 -39 -13 -88q-8 -41 -19 -98t-30 -127l-203 -727h-151zM673 1497l146 267h194l-217 -267h-123z" />
<glyph unicode="&#x1e83;" horiz-adv-x="1347" d="M23 942h141l151 -536q18 -70 30.5 -125.5t19.5 -94.5q8 -45 12 -80h8q2 35 10 80q6 39 17.5 94.5t29.5 127.5l148 534h162l147 -534q37 -145 49 -222q8 -45 13 -80h6q0 33 8 78q6 39 17.5 94.5t33.5 127.5l156 536h139l-285 -942h-151l-154 530q-20 66 -30.5 119 t-16.5 90q-8 43 -10 74h-6q-2 -31 -11 -74q-6 -37 -17 -90t-30 -119l-151 -530h-152zM501 1087l146 267h194l-217 -267h-123z" />
<glyph unicode="&#x1e84;" horiz-adv-x="1689" d="M31 1352h139l258 -906q18 -70 30.5 -128t20.5 -101q8 -51 15 -92h8q6 41 14 92q8 43 20.5 101.5t30.5 125.5l195 703h164l196 -703q18 -68 30.5 -126t21.5 -101q8 -51 14 -92h6q6 41 14 92q8 43 20.5 101.5t33.5 127.5l256 906h141l-395 -1352h-152l-205 727 q-18 68 -30.5 126t-18.5 99q-8 49 -10 88h-8q-4 -39 -13 -88q-8 -41 -19 -98t-30 -127l-203 -727h-151zM592 1526v168h129v-168h-129zM967 1526v168h127v-168h-127z" />
<glyph unicode="&#x1e85;" horiz-adv-x="1347" d="M23 942h141l151 -536q18 -70 30.5 -125.5t19.5 -94.5q8 -45 12 -80h8q2 35 10 80q6 39 17.5 94.5t29.5 127.5l148 534h162l147 -534q37 -145 49 -222q8 -45 13 -80h6q0 33 8 78q6 39 17.5 94.5t33.5 127.5l156 536h139l-285 -942h-151l-154 530q-20 66 -30.5 119 t-16.5 90q-8 43 -10 74h-6q-2 -31 -11 -74q-6 -37 -17 -90t-30 -119l-151 -530h-152zM422 1116v168h127v-168h-127zM795 1116v168h129v-168h-129z" />
<glyph unicode="&#x1e86;" horiz-adv-x="1689" d="M31 1352h139l258 -906q18 -70 30.5 -128t20.5 -101q8 -51 15 -92h8q6 41 14 92q8 43 20.5 101.5t30.5 125.5l195 703h164l196 -703q18 -68 30.5 -126t21.5 -101q8 -51 14 -92h6q6 41 14 92q8 43 20.5 101.5t33.5 127.5l256 906h141l-395 -1352h-152l-205 727 q-18 68 -30.5 126t-18.5 99q-8 49 -10 88h-8q-4 -39 -13 -88q-8 -41 -19 -98t-30 -127l-203 -727h-151zM780 1526v168h127v-168h-127z" />
<glyph unicode="&#x1e87;" horiz-adv-x="1347" d="M23 942h141l151 -536q18 -70 30.5 -125.5t19.5 -94.5q8 -45 12 -80h8q2 35 10 80q6 39 17.5 94.5t29.5 127.5l148 534h162l147 -534q37 -145 49 -222q8 -45 13 -80h6q0 33 8 78q6 39 17.5 94.5t33.5 127.5l156 536h139l-285 -942h-151l-154 530q-20 66 -30.5 119 t-16.5 90q-8 43 -10 74h-6q-2 -31 -11 -74q-6 -37 -17 -90t-30 -119l-151 -530h-152zM608 1116v168h127v-168h-127z" />
<glyph unicode="&#x1e88;" horiz-adv-x="1689" d="M31 1352h139l258 -906q18 -70 30.5 -128t20.5 -101q8 -51 15 -92h8q6 41 14 92q8 43 20.5 101.5t30.5 125.5l195 703h164l196 -703q18 -68 30.5 -126t21.5 -101q8 -51 14 -92h6q6 41 14 92q8 43 20.5 101.5t33.5 127.5l256 906h141l-395 -1352h-152l-205 727 q-18 68 -30.5 126t-18.5 99q-8 49 -10 88h-8q-4 -39 -13 -88q-8 -41 -19 -98t-30 -127l-203 -727h-151zM780 -174h127v-170h-127v170z" />
<glyph unicode="&#x1e89;" horiz-adv-x="1347" d="M23 942h141l151 -536q18 -70 30.5 -125.5t19.5 -94.5q8 -45 12 -80h8q2 35 10 80q6 39 17.5 94.5t29.5 127.5l148 534h162l147 -534q37 -145 49 -222q8 -45 13 -80h6q0 33 8 78q6 39 17.5 94.5t33.5 127.5l156 536h139l-285 -942h-151l-154 530q-20 66 -30.5 119 t-16.5 90q-8 43 -10 74h-6q-2 -31 -11 -74q-6 -37 -17 -90t-30 -119l-151 -530h-152zM608 -174h127v-170h-127v170z" />
<glyph unicode="&#x1e8a;" horiz-adv-x="1105" d="M27 0l440 684l-422 668h162l268 -439q41 -72 55.5 -104.5t18.5 -42.5q6 -2 18.5 34t61.5 113l274 439h160l-426 -668l440 -684h-166q-72 113 -142.5 224.5t-141.5 226.5q-43 72 -57.5 103.5t-18.5 43.5q-10 -8 -21.5 -39.5t-56.5 -109.5q-72 -113 -142.5 -224.5 t-142.5 -224.5h-161zM487 1526v168h127v-168h-127z" />
<glyph unicode="&#x1e8b;" horiz-adv-x="880" d="M37 0l321 479l-301 463h162l143 -223q27 -45 42.5 -74t25.5 -45q10 -20 14 -31h7q4 10 12 31q8 16 23.5 45t43.5 72l146 225h151l-305 -459l322 -483h-154l-170 254q-29 41 -43 67.5t-22 43.5q-8 20 -11 30h-8q-4 -8 -12 -28q-8 -16 -23.5 -45t-44.5 -70l-168 -252h-151z M374 1116v168h127v-168h-127z" />
<glyph unicode="&#x1e8c;" horiz-adv-x="1105" d="M27 0l440 684l-422 668h162l268 -439q41 -72 55.5 -104.5t18.5 -42.5q6 -2 18.5 34t61.5 113l274 439h160l-426 -668l440 -684h-166q-72 113 -142.5 224.5t-141.5 226.5q-43 72 -57.5 103.5t-18.5 43.5q-10 -8 -21.5 -39.5t-56.5 -109.5q-72 -113 -142.5 -224.5 t-142.5 -224.5h-161zM301 1526v168h127v-168h-127zM674 1526v168h129v-168h-129z" />
<glyph unicode="&#x1e8d;" horiz-adv-x="880" d="M37 0l321 479l-301 463h162l143 -223q27 -45 42.5 -74t25.5 -45q10 -20 14 -31h7q4 10 12 31q8 16 23.5 45t43.5 72l146 225h151l-305 -459l322 -483h-154l-170 254q-29 41 -43 67.5t-22 43.5q-8 20 -11 30h-8q-4 -8 -12 -28q-8 -16 -23.5 -45t-44.5 -70l-168 -252h-151z M188 1116v168h129v-168h-129zM563 1116v168h127v-168h-127z" />
<glyph unicode="&#x1e8e;" horiz-adv-x="1114" d="M23 1352h149l246 -449q16 -31 33.5 -61.5t31.5 -59.5q43 -92 54.5 -133t13.5 -41h6q-6 4 10.5 44t46 101.5t71.5 139.5t86 160t87 159.5t78 139.5h149l-462 -844v-508h-140v508zM491 1526v168h127v-168h-127z" />
<glyph unicode="&#x1e8f;" horiz-adv-x="923" d="M18 942h144l194 -498l54 -155q16 -43 25 -78t16 -59q8 -29 10 -52h6q4 29 12 66q6 33 18.5 77t32.5 99l41 98l193 502h141l-391 -1003q-43 -111 -85 -193t-86 -134t-95 -78t-113 -26v121q43 0 78 24.5t65.5 71t59.5 112t57 149.5zM397 1116v168h127v-168h-127z" />
<glyph unicode="&#x1e90;" horiz-adv-x="1040" d="M57 0v121l764 1110h-764v121h932v-121l-766 -1110h766v-121h-932zM209 1502l266 260h90l264 -260h-149l-84 82q-23 20 -35 37.5t-22 31.5q-10 16 -17 29h-4q-6 -12 -16 -29q-10 -14 -23.5 -31.5t-36.5 -37.5l-82 -82h-151z" />
<glyph unicode="&#x1e91;" horiz-adv-x="849" d="M51 0v115l574 712h-574v115h748v-115l-574 -712h574v-115h-748zM113 1092l266 260h90l264 -260h-149l-84 82q-23 20 -35 37.5t-22 31.5q-10 16 -17 29h-4q-6 -12 -16 -29q-10 -14 -23.5 -31.5t-36.5 -37.5l-82 -82h-151z" />
<glyph unicode="&#x1e92;" horiz-adv-x="1040" d="M57 0v121l764 1110h-764v121h932v-121l-766 -1110h766v-121h-932zM454 -174h127v-170h-127v170z" />
<glyph unicode="&#x1e93;" horiz-adv-x="849" d="M51 0v115l574 712h-574v115h748v-115l-574 -712h574v-115h-748zM360 -174h127v-170h-127v170z" />
<glyph unicode="&#x1e94;" horiz-adv-x="1040" d="M57 0v121l764 1110h-764v121h932v-121l-766 -1110h766v-121h-932zM187 -244h665v-98h-665v98z" />
<glyph unicode="&#x1e95;" horiz-adv-x="849" d="M51 0v115l574 712h-574v115h748v-115l-574 -712h574v-115h-748zM97 -244h665v-98h-665v98z" />
<glyph unicode="&#x1e96;" horiz-adv-x="1067" d="M150 0v1409l139 25v-508q0 -39 -2 -79t-6 -79h4q35 111 107.5 153t191.5 42q174 0 259 -91.5t85 -318.5v-553h-137v553q0 84 -13.5 140.5t-42 90t-71.5 48t-103 14.5q-72 0 -123 -18.5t-85 -60.5t-49 -110.5t-15 -169.5v-487h-139zM199 -244h665v-98h-665v98z" />
<glyph unicode="&#x1e97;" horiz-adv-x="628" d="M8 1352v168h129v-168h-129zM23 825v117h124v215q35 6 70 14.5t70 16.5v-246h309v-117h-309v-456q0 -141 67.5 -197.5t198.5 -56.5v-115q-96 0 -172 18.5t-128 61.5t-79 113.5t-27 175.5v456h-124zM383 1352v168h127v-168h-127z" />
<glyph unicode="&#x1e98;" horiz-adv-x="1347" d="M23 942h141l151 -536q18 -70 30.5 -125.5t19.5 -94.5q8 -45 12 -80h8q2 35 10 80q6 39 17.5 94.5t29.5 127.5l148 534h162l147 -534q37 -145 49 -222q8 -45 13 -80h6q0 33 8 78q6 39 17.5 94.5t33.5 127.5l156 536h139l-285 -942h-151l-154 530q-20 66 -30.5 119 t-16.5 90q-8 43 -10 74h-6q-2 -31 -11 -74q-6 -37 -17 -90t-30 -119l-151 -530h-152zM483 1255q0 72 51.5 125.5t137.5 53.5t137 -53.5t51 -125.5q0 -78 -48 -131t-140 -53t-140.5 53.5t-48.5 130.5zM574 1253q0 -39 24.5 -68.5t73.5 -29.5t73.5 29.5t24.5 68.5 q0 43 -25.5 72t-72.5 29t-72.5 -29t-25.5 -72z" />
<glyph unicode="&#x1e99;" horiz-adv-x="923" d="M18 942h144l194 -498l54 -155q16 -43 25 -78t16 -59q8 -29 10 -52h6q4 29 12 66q6 33 18.5 77t32.5 99l41 98l193 502h141l-391 -1003q-43 -111 -85 -193t-86 -134t-95 -78t-113 -26v121q43 0 78 24.5t65.5 71t59.5 112t57 149.5zM272 1255q0 72 51.5 125.5t137.5 53.5 t137 -53.5t51 -125.5q0 -78 -48 -131t-140 -53t-140.5 53.5t-48.5 130.5zM363 1253q0 -39 24.5 -68.5t73.5 -29.5t73.5 29.5t24.5 68.5q0 43 -25.5 72t-72.5 29t-72.5 -29t-25.5 -72z" />
<glyph unicode="&#x1e9a;" horiz-adv-x="1101" d="M76 254q0 94 33.5 147.5t86 79t116 32.5t122.5 13l289 27v98q0 109 -54.5 152t-187.5 43q-127 0 -175 -39t-48 -123h-135q0 147 85 213t273 66q156 0 240 -43t115 -123q27 -53 56.5 -89t76.5 -36q78 0 78 108q0 37 -11.5 82t-38.5 80h105q29 -35 41 -88t12 -100 q0 -88 -41 -140.5t-121 -52.5q-41 0 -74.5 13.5t-56.5 35.5v-397q0 -47 21.5 -73.5t54.5 -26.5v-117q-61 0 -99 14.5t-61.5 38t-33 55t-11.5 68.5q-37 -113 -111.5 -152.5t-201.5 -39.5q-68 0 -130.5 11t-110.5 40.5t-75.5 83t-27.5 139.5zM213 256q0 -94 48 -127t161 -33 q76 0 131 15.5t91 52.5t53.5 98.5t21.5 153.5l4 30l-313 -30q-39 -4 -75 -9.5t-62.5 -21.5t-43 -46t-16.5 -83z" />
<glyph unicode="&#x1e9b;" horiz-adv-x="548" d="M39 827v115h125v123q0 104 26.5 175t81 114t134 61.5t184.5 18.5v-115q-86 0 -141.5 -12.5t-87 -42t-45 -78.5t-13.5 -121v-1065h-139v827h-125zM280 1612v168h127v-168h-127z" />
<glyph unicode="&#x1ea0;" horiz-adv-x="1282" d="M20 0l558 1352h129q139 -340 276 -676t279 -676h-146q-31 74 -59.5 147.5t-59.5 147.5h-714q-29 -74 -58.5 -147.5t-60.5 -147.5h-144zM332 416h616q-59 147 -116.5 290.5t-101.5 257t-68.5 185.5t-16.5 74h-8q-8 -37 -23 -86q-12 -41 -31.5 -98.5t-47.5 -127.5z M577 -174h127v-170h-127v170z" />
<glyph unicode="&#x1ea1;" horiz-adv-x="985" d="M76 254q0 94 33.5 147.5t86 79t116 32.5t122.5 13l289 27v98q0 104 -53.5 149.5t-188.5 45.5q-127 0 -175 -43t-48 -119h-135q0 147 85 213t273 66q109 0 181.5 -20.5t117.5 -60.5t63.5 -98.5t18.5 -132.5v-438q0 -47 21.5 -73.5t54.5 -26.5v-117q-61 0 -99 14.5 t-61.5 38t-33 55t-11.5 68.5q-37 -113 -111.5 -152.5t-201.5 -39.5q-68 0 -130.5 11t-110.5 40.5t-75.5 83t-27.5 139.5zM213 256q0 -94 48 -127t161 -33q76 0 131 15.5t91 52.5t53.5 98.5t21.5 153.5l4 30l-313 -30q-39 -4 -75 -9.5t-62.5 -21.5t-43 -46t-16.5 -83z M428 -174h127v-170h-127v170z" />
<glyph unicode="&#x1ea2;" horiz-adv-x="1282" d="M20 0l558 1352h129q139 -340 276 -676t279 -676h-146q-31 74 -59.5 147.5t-59.5 147.5h-714q-29 -74 -58.5 -147.5t-60.5 -147.5h-144zM332 416h616q-59 147 -116.5 290.5t-101.5 257t-68.5 185.5t-16.5 74h-8q-8 -37 -23 -86q-12 -41 -31.5 -98.5t-47.5 -127.5z M407 1657q0 49 43 86t115 37q70 0 113 -35t43 -88t-34 -90t-97 -37v-80h-72v97q0 47 47 47h20q29 0 43.5 19.5t14.5 43.5q0 27 -20.5 44.5t-57.5 17.5q-39 0 -59.5 -17.5t-20.5 -44.5h-78z" />
<glyph unicode="&#x1ea3;" horiz-adv-x="985" d="M76 254q0 94 33.5 147.5t86 79t116 32.5t122.5 13l289 27v98q0 104 -53.5 149.5t-188.5 45.5q-127 0 -175 -43t-48 -119h-135q0 147 85 213t273 66q109 0 181.5 -20.5t117.5 -60.5t63.5 -98.5t18.5 -132.5v-438q0 -47 21.5 -73.5t54.5 -26.5v-117q-61 0 -99 14.5 t-61.5 38t-33 55t-11.5 68.5q-37 -113 -111.5 -152.5t-201.5 -39.5q-68 0 -130.5 11t-110.5 40.5t-75.5 83t-27.5 139.5zM78 1247q0 49 43 86t115 37q70 0 113 -35t43 -88t-34 -90t-97 -37v-80h-72v97q0 47 47 47h20q29 0 43.5 19.5t14.5 43.5q0 27 -20.5 44.5t-57.5 17.5 q-39 0 -59.5 -17.5t-20.5 -44.5h-78zM213 256q0 -94 48 -127t161 -33q76 0 131 15.5t91 52.5t53.5 98.5t21.5 153.5l4 30l-313 -30q-39 -4 -75 -9.5t-62.5 -21.5t-43 -46t-16.5 -83z" />
<glyph unicode="&#x1ea4;" horiz-adv-x="1282" d="M20 0l558 1352h129q139 -340 276 -676t279 -676h-146q-31 74 -59.5 147.5t-59.5 147.5h-714q-29 -74 -58.5 -147.5t-60.5 -147.5h-144zM328 1420l266 260h90l264 -260h-149l-84 82q-23 20 -35 37.5t-22 31.5q-10 16 -17 29h-4q-6 -12 -16 -29q-10 -14 -23.5 -31.5 t-36.5 -37.5l-82 -82h-151zM332 416h616q-59 147 -116.5 290.5t-101.5 257t-68.5 185.5t-16.5 74h-8q-8 -37 -23 -86q-12 -41 -31.5 -98.5t-47.5 -127.5zM784 1685l146 267h194l-217 -267h-123z" />
<glyph unicode="&#x1ea5;" horiz-adv-x="985" d="M76 254q0 94 33.5 147.5t86 79t116 32.5t122.5 13l289 27v98q0 104 -53.5 149.5t-188.5 45.5q-127 0 -175 -43t-48 -119h-135q0 147 85 213t273 66q109 0 181.5 -20.5t117.5 -60.5t63.5 -98.5t18.5 -132.5v-438q0 -47 21.5 -73.5t54.5 -26.5v-117q-61 0 -99 14.5 t-61.5 38t-33 55t-11.5 68.5q-37 -113 -111.5 -152.5t-201.5 -39.5q-68 0 -130.5 11t-110.5 40.5t-75.5 83t-27.5 139.5zM180 1053l266 260h90l264 -260h-149l-84 82q-23 20 -35 37.5t-22 31.5q-10 16 -17 29h-4q-6 -12 -16 -29q-10 -14 -23.5 -31.5t-36.5 -37.5l-82 -82 h-151zM213 256q0 -94 48 -127t161 -33q76 0 131 15.5t91 52.5t53.5 98.5t21.5 153.5l4 30l-313 -30q-39 -4 -75 -9.5t-62.5 -21.5t-43 -46t-16.5 -83zM632 1302l146 267h194l-217 -267h-123z" />
<glyph unicode="&#x1ea6;" horiz-adv-x="1282" d="M20 0l558 1352h129q139 -340 276 -676t279 -676h-146q-31 74 -59.5 147.5t-59.5 147.5h-714q-29 -74 -58.5 -147.5t-60.5 -147.5h-144zM149 1952h195l145 -267h-123zM328 1420l266 260h90l264 -260h-149l-84 82q-23 20 -35 37.5t-22 31.5q-10 16 -17 29h-4 q-6 -12 -16 -29q-10 -14 -23.5 -31.5t-36.5 -37.5l-82 -82h-151zM332 416h616q-59 147 -116.5 290.5t-101.5 257t-68.5 185.5t-16.5 74h-8q-8 -37 -23 -86q-12 -41 -31.5 -98.5t-47.5 -127.5z" />
<glyph unicode="&#x1ea7;" horiz-adv-x="985" d="M10 1569h195l145 -267h-123zM76 254q0 94 33.5 147.5t86 79t116 32.5t122.5 13l289 27v98q0 104 -53.5 149.5t-188.5 45.5q-127 0 -175 -43t-48 -119h-135q0 147 85 213t273 66q109 0 181.5 -20.5t117.5 -60.5t63.5 -98.5t18.5 -132.5v-438q0 -47 21.5 -73.5t54.5 -26.5 v-117q-61 0 -99 14.5t-61.5 38t-33 55t-11.5 68.5q-37 -113 -111.5 -152.5t-201.5 -39.5q-68 0 -130.5 11t-110.5 40.5t-75.5 83t-27.5 139.5zM180 1053l266 260h90l264 -260h-149l-84 82q-23 20 -35 37.5t-22 31.5q-10 16 -17 29h-4q-6 -12 -16 -29q-10 -14 -23.5 -31.5 t-36.5 -37.5l-82 -82h-151zM213 256q0 -94 48 -127t161 -33q76 0 131 15.5t91 52.5t53.5 98.5t21.5 153.5l4 30l-313 -30q-39 -4 -75 -9.5t-62.5 -21.5t-43 -46t-16.5 -83z" />
<glyph unicode="&#x1ea8;" horiz-adv-x="1282" d="M20 0l558 1352h129q139 -340 276 -676t279 -676h-146q-31 74 -59.5 147.5t-59.5 147.5h-714q-29 -74 -58.5 -147.5t-60.5 -147.5h-144zM328 1420l266 260h90l264 -260h-149l-84 82q-23 20 -35 37.5t-22 31.5q-10 16 -17 29h-4q-6 -12 -16 -29q-10 -14 -23.5 -31.5 t-36.5 -37.5l-82 -82h-151zM332 416h616q-59 147 -116.5 290.5t-101.5 257t-68.5 185.5t-16.5 74h-8q-8 -37 -23 -86q-12 -41 -31.5 -98.5t-47.5 -127.5zM792 1773q0 49 43 86t115 37q70 0 113 -35t43 -88t-34 -90t-97 -37v-80h-72v97q0 47 47 47h20q29 0 43.5 19.5 t14.5 43.5q0 27 -20.5 44.5t-57.5 17.5q-39 0 -59.5 -17.5t-20.5 -44.5h-78z" />
<glyph unicode="&#x1ea9;" horiz-adv-x="985" d="M76 254q0 94 33.5 147.5t86 79t116 32.5t122.5 13l289 27v98q0 104 -53.5 149.5t-188.5 45.5q-127 0 -175 -43t-48 -119h-135q0 147 85 213t273 66q109 0 181.5 -20.5t117.5 -60.5t63.5 -98.5t18.5 -132.5v-438q0 -47 21.5 -73.5t54.5 -26.5v-117q-61 0 -99 14.5 t-61.5 38t-33 55t-11.5 68.5q-37 -113 -111.5 -152.5t-201.5 -39.5q-68 0 -130.5 11t-110.5 40.5t-75.5 83t-27.5 139.5zM180 1053l266 260h90l264 -260h-149l-84 82q-23 20 -35 37.5t-22 31.5q-10 16 -17 29h-4q-6 -12 -16 -29q-10 -14 -23.5 -31.5t-36.5 -37.5l-82 -82 h-151zM213 256q0 -94 48 -127t161 -33q76 0 131 15.5t91 52.5t53.5 98.5t21.5 153.5l4 30l-313 -30q-39 -4 -75 -9.5t-62.5 -21.5t-43 -46t-16.5 -83zM643 1405q0 49 43 86t115 37q70 0 113 -35t43 -88t-34 -90t-97 -37v-80h-72v97q0 47 47 47h20q29 0 43.5 19.5t14.5 43.5 q0 27 -20.5 44.5t-57.5 17.5q-39 0 -59.5 -17.5t-20.5 -44.5h-78z" />
<glyph unicode="&#x1eaa;" horiz-adv-x="1282" d="M20 0l558 1352h129q139 -340 276 -676t279 -676h-146q-31 74 -59.5 147.5t-59.5 147.5h-714q-29 -74 -58.5 -147.5t-60.5 -147.5h-144zM328 1420l266 260h90l264 -260h-149l-84 82q-23 20 -35 37.5t-22 31.5q-10 16 -17 29h-4q-6 -12 -16 -29q-10 -14 -23.5 -31.5 t-36.5 -37.5l-82 -82h-151zM332 416h616q-59 147 -116.5 290.5t-101.5 257t-68.5 185.5t-16.5 74h-8q-8 -37 -23 -86q-12 -41 -31.5 -98.5t-47.5 -127.5zM344 1723q0 45 5.5 85t21.5 70.5t46 48t81 17.5q49 0 82 -17.5t70 -41.5q35 -27 59.5 -41.5t54.5 -14.5 q35 0 49.5 26.5t14.5 90.5h108q0 -47 -4 -88t-20.5 -70.5t-48 -46t-84.5 -16.5q-47 0 -78 16.5t-66 38.5q-39 27 -64.5 42t-54.5 15q-39 0 -53 -26.5t-14 -87.5h-105z" />
<glyph unicode="&#x1eab;" horiz-adv-x="985" d="M76 254q0 94 33.5 147.5t86 79t116 32.5t122.5 13l289 27v98q0 104 -53.5 149.5t-188.5 45.5q-127 0 -175 -43t-48 -119h-135q0 147 85 213t273 66q109 0 181.5 -20.5t117.5 -60.5t63.5 -98.5t18.5 -132.5v-438q0 -47 21.5 -73.5t54.5 -26.5v-117q-61 0 -99 14.5 t-61.5 38t-33 55t-11.5 68.5q-37 -113 -111.5 -152.5t-201.5 -39.5q-68 0 -130.5 11t-110.5 40.5t-75.5 83t-27.5 139.5zM180 1053l266 260h90l264 -260h-149l-84 82q-23 20 -35 37.5t-22 31.5q-10 16 -17 29h-4q-6 -12 -16 -29q-10 -14 -23.5 -31.5t-36.5 -37.5l-82 -82 h-151zM196 1354q0 45 5.5 85t21.5 70.5t46 48t81 17.5q49 0 82 -17.5t70 -41.5q35 -27 59.5 -41.5t54.5 -14.5q35 0 49.5 26.5t14.5 90.5h108q0 -47 -4 -88t-20.5 -70.5t-48 -46t-84.5 -16.5q-47 0 -78 16.5t-66 38.5q-39 27 -64.5 42t-54.5 15q-39 0 -53 -26.5t-14 -87.5 h-105zM213 256q0 -94 48 -127t161 -33q76 0 131 15.5t91 52.5t53.5 98.5t21.5 153.5l4 30l-313 -30q-39 -4 -75 -9.5t-62.5 -21.5t-43 -46t-16.5 -83z" />
<glyph unicode="&#x1eac;" horiz-adv-x="1282" d="M20 0l558 1352h129q139 -340 276 -676t279 -676h-146q-31 74 -59.5 147.5t-59.5 147.5h-714q-29 -74 -58.5 -147.5t-60.5 -147.5h-144zM328 1502l266 260h90l264 -260h-149l-84 82q-23 20 -35 37.5t-22 31.5q-10 16 -17 29h-4q-6 -12 -16 -29q-10 -14 -23.5 -31.5 t-36.5 -37.5l-82 -82h-151zM332 416h616q-59 147 -116.5 290.5t-101.5 257t-68.5 185.5t-16.5 74h-8q-8 -37 -23 -86q-12 -41 -31.5 -98.5t-47.5 -127.5zM577 -174h127v-170h-127v170z" />
<glyph unicode="&#x1ead;" horiz-adv-x="985" d="M76 254q0 94 33.5 147.5t86 79t116 32.5t122.5 13l289 27v98q0 104 -53.5 149.5t-188.5 45.5q-127 0 -175 -43t-48 -119h-135q0 147 85 213t273 66q109 0 181.5 -20.5t117.5 -60.5t63.5 -98.5t18.5 -132.5v-438q0 -47 21.5 -73.5t54.5 -26.5v-117q-61 0 -99 14.5 t-61.5 38t-33 55t-11.5 68.5q-37 -113 -111.5 -152.5t-201.5 -39.5q-68 0 -130.5 11t-110.5 40.5t-75.5 83t-27.5 139.5zM180 1092l266 260h90l264 -260h-149l-84 82q-23 20 -35 37.5t-22 31.5q-10 16 -17 29h-4q-6 -12 -16 -29q-10 -14 -23.5 -31.5t-36.5 -37.5l-82 -82 h-151zM213 256q0 -94 48 -127t161 -33q76 0 131 15.5t91 52.5t53.5 98.5t21.5 153.5l4 30l-313 -30q-39 -4 -75 -9.5t-62.5 -21.5t-43 -46t-16.5 -83zM428 -174h127v-170h-127v170z" />
<glyph unicode="&#x1eae;" horiz-adv-x="1282" d="M20 0l558 1352h129q139 -340 276 -676t279 -676h-146q-31 74 -59.5 147.5t-59.5 147.5h-714q-29 -74 -58.5 -147.5t-60.5 -147.5h-144zM332 416h616q-59 147 -116.5 290.5t-101.5 257t-68.5 185.5t-16.5 74h-8q-8 -37 -23 -86q-12 -41 -31.5 -98.5t-47.5 -127.5z M366 1669h109q0 -98 164 -98t164 98h110q0 -104 -69.5 -152t-204.5 -48t-204 48t-69 152zM563 1685l146 267h194l-217 -267h-123z" />
<glyph unicode="&#x1eaf;" horiz-adv-x="985" d="M76 254q0 94 33.5 147.5t86 79t116 32.5t122.5 13l289 27v98q0 104 -53.5 149.5t-188.5 45.5q-127 0 -175 -43t-48 -119h-135q0 147 85 213t273 66q109 0 181.5 -20.5t117.5 -60.5t63.5 -98.5t18.5 -132.5v-438q0 -47 21.5 -73.5t54.5 -26.5v-117q-61 0 -99 14.5 t-61.5 38t-33 55t-11.5 68.5q-37 -113 -111.5 -152.5t-201.5 -39.5q-68 0 -130.5 11t-110.5 40.5t-75.5 83t-27.5 139.5zM213 256q0 -94 48 -127t161 -33q76 0 131 15.5t91 52.5t53.5 98.5t21.5 153.5l4 30l-313 -30q-39 -4 -75 -9.5t-62.5 -21.5t-43 -46t-16.5 -83z M217 1261h109q0 -98 164 -98t164 98h110q0 -104 -69.5 -152t-204.5 -48t-204 48t-69 152zM424 1275l146 267h194l-217 -267h-123z" />
<glyph unicode="&#x1eb0;" horiz-adv-x="1282" d="M20 0l558 1352h129q139 -340 276 -676t279 -676h-146q-31 74 -59.5 147.5t-59.5 147.5h-714q-29 -74 -58.5 -147.5t-60.5 -147.5h-144zM332 416h616q-59 147 -116.5 290.5t-101.5 257t-68.5 185.5t-16.5 74h-8q-8 -37 -23 -86q-12 -41 -31.5 -98.5t-47.5 -127.5z M366 1669h109q0 -98 164 -98t164 98h110q0 -104 -69.5 -152t-204.5 -48t-204 48t-69 152zM368 1952h195l145 -267h-123z" />
<glyph unicode="&#x1eb1;" horiz-adv-x="985" d="M76 254q0 94 33.5 147.5t86 79t116 32.5t122.5 13l289 27v98q0 104 -53.5 149.5t-188.5 45.5q-127 0 -175 -43t-48 -119h-135q0 147 85 213t273 66q109 0 181.5 -20.5t117.5 -60.5t63.5 -98.5t18.5 -132.5v-438q0 -47 21.5 -73.5t54.5 -26.5v-117q-61 0 -99 14.5 t-61.5 38t-33 55t-11.5 68.5q-37 -113 -111.5 -152.5t-201.5 -39.5q-68 0 -130.5 11t-110.5 40.5t-75.5 83t-27.5 139.5zM213 256q0 -94 48 -127t161 -33q76 0 131 15.5t91 52.5t53.5 98.5t21.5 153.5l4 30l-313 -30q-39 -4 -75 -9.5t-62.5 -21.5t-43 -46t-16.5 -83z M217 1261h109q0 -98 164 -98t164 98h110q0 -104 -69.5 -152t-204.5 -48t-204 48t-69 152zM229 1542h195l145 -267h-123z" />
<glyph unicode="&#x1eb2;" horiz-adv-x="1282" d="M20 0l558 1352h129q139 -340 276 -676t279 -676h-146q-31 74 -59.5 147.5t-59.5 147.5h-714q-29 -74 -58.5 -147.5t-60.5 -147.5h-144zM332 416h616q-59 147 -116.5 290.5t-101.5 257t-68.5 185.5t-16.5 74h-8q-8 -37 -23 -86q-12 -41 -31.5 -98.5t-47.5 -127.5z M366 1669h109q0 -98 164 -98t164 98h110q0 -104 -69.5 -152t-204.5 -48t-204 48t-69 152zM483 1876q0 49 43 86t115 37q70 0 113 -35t43 -88t-34 -90t-97 -37v-80h-72v97q0 47 47 47h20q29 0 43.5 19.5t14.5 43.5q0 27 -20.5 44.5t-57.5 17.5q-39 0 -59.5 -17.5t-20.5 -44.5 h-78z" />
<glyph unicode="&#x1eb3;" horiz-adv-x="985" d="M76 254q0 94 33.5 147.5t86 79t116 32.5t122.5 13l289 27v98q0 104 -53.5 149.5t-188.5 45.5q-127 0 -175 -43t-48 -119h-135q0 147 85 213t273 66q109 0 181.5 -20.5t117.5 -60.5t63.5 -98.5t18.5 -132.5v-438q0 -47 21.5 -73.5t54.5 -26.5v-117q-61 0 -99 14.5 t-61.5 38t-33 55t-11.5 68.5q-37 -113 -111.5 -152.5t-201.5 -39.5q-68 0 -130.5 11t-110.5 40.5t-75.5 83t-27.5 139.5zM213 256q0 -94 48 -127t161 -33q76 0 131 15.5t91 52.5t53.5 98.5t21.5 153.5l4 30l-313 -30q-39 -4 -75 -9.5t-62.5 -21.5t-43 -46t-16.5 -83z M217 1261h109q0 -98 164 -98t164 98h110q0 -104 -69.5 -152t-204.5 -48t-204 48t-69 152zM336 1466q0 49 43 86t115 37q70 0 113 -35t43 -88t-34 -90t-97 -37v-80h-72v97q0 47 47 47h20q29 0 43.5 19.5t14.5 43.5q0 27 -20.5 44.5t-57.5 17.5q-39 0 -59.5 -17.5t-20.5 -44.5 h-78z" />
<glyph unicode="&#x1eb4;" horiz-adv-x="1282" d="M20 0l558 1352h129q139 -340 276 -676t279 -676h-146q-31 74 -59.5 147.5t-59.5 147.5h-714q-29 -74 -58.5 -147.5t-60.5 -147.5h-144zM332 416h616q-59 147 -116.5 290.5t-101.5 257t-68.5 185.5t-16.5 74h-8q-8 -37 -23 -86q-12 -41 -31.5 -98.5t-47.5 -127.5z M344 1757q0 45 5.5 85t21.5 70.5t46 48t81 17.5q49 0 82 -17.5t70 -41.5q35 -27 59.5 -41.5t54.5 -14.5q35 0 49.5 26.5t14.5 90.5h108q0 -47 -4 -88t-20.5 -70.5t-48 -46t-84.5 -16.5q-47 0 -78 16.5t-66 38.5q-39 27 -64.5 42t-54.5 15q-39 0 -53 -26.5t-14 -87.5h-105z M366 1669h109q0 -98 164 -98t164 98h110q0 -104 -69.5 -152t-204.5 -48t-204 48t-69 152z" />
<glyph unicode="&#x1eb5;" horiz-adv-x="985" d="M76 254q0 94 33.5 147.5t86 79t116 32.5t122.5 13l289 27v98q0 104 -53.5 149.5t-188.5 45.5q-127 0 -175 -43t-48 -119h-135q0 147 85 213t273 66q109 0 181.5 -20.5t117.5 -60.5t63.5 -98.5t18.5 -132.5v-438q0 -47 21.5 -73.5t54.5 -26.5v-117q-61 0 -99 14.5 t-61.5 38t-33 55t-11.5 68.5q-37 -113 -111.5 -152.5t-201.5 -39.5q-68 0 -130.5 11t-110.5 40.5t-75.5 83t-27.5 139.5zM196 1348q0 45 5.5 85t21.5 70.5t46 48t81 17.5q49 0 82 -17.5t70 -41.5q35 -27 59.5 -41.5t54.5 -14.5q35 0 49.5 26.5t14.5 90.5h108q0 -47 -4 -88 t-20.5 -70.5t-48 -46t-84.5 -16.5q-47 0 -78 16.5t-66 38.5q-39 27 -64.5 42t-54.5 15q-39 0 -53 -26.5t-14 -87.5h-105zM213 256q0 -94 48 -127t161 -33q76 0 131 15.5t91 52.5t53.5 98.5t21.5 153.5l4 30l-313 -30q-39 -4 -75 -9.5t-62.5 -21.5t-43 -46t-16.5 -83z M217 1261h109q0 -98 164 -98t164 98h110q0 -104 -69.5 -152t-204.5 -48t-204 48t-69 152z" />
<glyph unicode="&#x1eb6;" horiz-adv-x="1282" d="M20 0l558 1352h129q139 -340 276 -676t279 -676h-146q-31 74 -59.5 147.5t-59.5 147.5h-714q-29 -74 -58.5 -147.5t-60.5 -147.5h-144zM332 416h616q-59 147 -116.5 290.5t-101.5 257t-68.5 185.5t-16.5 74h-8q-8 -37 -23 -86q-12 -41 -31.5 -98.5t-47.5 -127.5z M366 1710h109q0 -98 164 -98t164 98h110q0 -104 -69.5 -152t-204.5 -48t-204 48t-69 152zM577 -174h127v-170h-127v170z" />
<glyph unicode="&#x1eb7;" horiz-adv-x="985" d="M76 254q0 94 33.5 147.5t86 79t116 32.5t122.5 13l289 27v98q0 104 -53.5 149.5t-188.5 45.5q-127 0 -175 -43t-48 -119h-135q0 147 85 213t273 66q109 0 181.5 -20.5t117.5 -60.5t63.5 -98.5t18.5 -132.5v-438q0 -47 21.5 -73.5t54.5 -26.5v-117q-61 0 -99 14.5 t-61.5 38t-33 55t-11.5 68.5q-37 -113 -111.5 -152.5t-201.5 -39.5q-68 0 -130.5 11t-110.5 40.5t-75.5 83t-27.5 139.5zM213 256q0 -94 48 -127t161 -33q76 0 131 15.5t91 52.5t53.5 98.5t21.5 153.5l4 30l-313 -30q-39 -4 -75 -9.5t-62.5 -21.5t-43 -46t-16.5 -83z M217 1300h109q0 -98 164 -98t164 98h110q0 -104 -69.5 -152t-204.5 -48t-204 48t-69 152zM428 -174h127v-170h-127v170z" />
<glyph unicode="&#x1eb8;" horiz-adv-x="1122" d="M172 0v1352h846v-121h-707v-492h625v-118h-625v-500h707v-121h-846zM497 -174h127v-170h-127v170z" />
<glyph unicode="&#x1eb9;" horiz-adv-x="964" d="M86 471q0 141 24.5 235.5t75 150.5t128 81t184.5 25q98 0 168.5 -19.5t117.5 -64.5t70 -119t23 -180q0 -37 -3.5 -80t-15.5 -80h-633q2 -92 16.5 -154.5t47.5 -100.5t84 -54.5t127 -16.5q49 0 90 8.5t71.5 26.5t48 49t17.5 78h135q0 -76 -28.5 -129t-78.5 -86t-120 -47 t-150 -14q-102 0 -178 24.5t-125 81.5t-72.5 151.5t-23.5 233.5zM225 528h510q2 16 3 34t1 38q0 133 -54 189.5t-191 56.5q-74 0 -123 -16.5t-81 -53.5t-47.5 -97.5t-17.5 -150.5zM417 -174h127v-170h-127v170z" />
<glyph unicode="&#x1eba;" horiz-adv-x="1122" d="M96 1657q0 49 43 86t115 37q70 0 113 -35t43 -88t-34 -90t-97 -37v-80h-72v97q0 47 47 47h20q29 0 43.5 19.5t14.5 43.5q0 27 -20.5 44.5t-57.5 17.5q-39 0 -59.5 -17.5t-20.5 -44.5h-78zM172 0v1352h846v-121h-707v-492h625v-118h-625v-500h707v-121h-846z" />
<glyph unicode="&#x1ebb;" horiz-adv-x="964" d="M86 471q0 141 24.5 235.5t75 150.5t128 81t184.5 25q98 0 168.5 -19.5t117.5 -64.5t70 -119t23 -180q0 -37 -3.5 -80t-15.5 -80h-633q2 -92 16.5 -154.5t47.5 -100.5t84 -54.5t127 -16.5q49 0 90 8.5t71.5 26.5t48 49t17.5 78h135q0 -76 -28.5 -129t-78.5 -86t-120 -47 t-150 -14q-102 0 -178 24.5t-125 81.5t-72.5 151.5t-23.5 233.5zM96 1247q0 49 43 86t115 37q70 0 113 -35t43 -88t-34 -90t-97 -37v-80h-72v97q0 47 47 47h20q29 0 43.5 19.5t14.5 43.5q0 27 -20.5 44.5t-57.5 17.5q-39 0 -59.5 -17.5t-20.5 -44.5h-78zM225 528h510 q2 16 3 34t1 38q0 133 -54 189.5t-191 56.5q-74 0 -123 -16.5t-81 -53.5t-47.5 -97.5t-17.5 -150.5z" />
<glyph unicode="&#x1ebc;" horiz-adv-x="1122" d="M172 0v1352h846v-121h-707v-492h625v-118h-625v-500h707v-121h-846zM264 1508q0 45 5.5 85t21.5 70.5t46 48t81 17.5q49 0 82 -17.5t70 -41.5q35 -27 59.5 -41.5t54.5 -14.5q35 0 49.5 26.5t14.5 90.5h108q0 -47 -4 -88t-20.5 -70.5t-48 -46t-84.5 -16.5q-47 0 -78 16.5 t-66 38.5q-39 27 -64.5 42t-54.5 15q-39 0 -53 -26.5t-14 -87.5h-105z" />
<glyph unicode="&#x1ebd;" horiz-adv-x="964" d="M86 471q0 141 24.5 235.5t75 150.5t128 81t184.5 25q98 0 168.5 -19.5t117.5 -64.5t70 -119t23 -180q0 -37 -3.5 -80t-15.5 -80h-633q2 -92 16.5 -154.5t47.5 -100.5t84 -54.5t127 -16.5q49 0 90 8.5t71.5 26.5t48 49t17.5 78h135q0 -76 -28.5 -129t-78.5 -86t-120 -47 t-150 -14q-102 0 -178 24.5t-125 81.5t-72.5 151.5t-23.5 233.5zM184 1098q0 45 5.5 85t21.5 70.5t46 48t81 17.5q49 0 82 -17.5t70 -41.5q35 -27 59.5 -41.5t54.5 -14.5q35 0 49.5 26.5t14.5 90.5h108q0 -47 -4 -88t-20.5 -70.5t-48 -46t-84.5 -16.5q-47 0 -78 16.5 t-66 38.5q-39 27 -64.5 42t-54.5 15q-39 0 -53 -26.5t-14 -87.5h-105zM225 528h510q2 16 3 34t1 38q0 133 -54 189.5t-191 56.5q-74 0 -123 -16.5t-81 -53.5t-47.5 -97.5t-17.5 -150.5z" />
<glyph unicode="&#x1ebe;" horiz-adv-x="1122" d="M172 0v1352h846v-121h-707v-492h625v-118h-625v-500h707v-121h-846zM305 1461l266 260h90l264 -260h-149l-84 82q-23 20 -35 37.5t-22 31.5q-10 16 -17 29h-4q-6 -12 -16 -29q-10 -14 -23.5 -31.5t-36.5 -37.5l-82 -82h-151zM768 1695l146 267h194l-217 -267h-123z" />
<glyph unicode="&#x1ebf;" horiz-adv-x="964" d="M86 471q0 141 24.5 235.5t75 150.5t128 81t184.5 25q98 0 168.5 -19.5t117.5 -64.5t70 -119t23 -180q0 -37 -3.5 -80t-15.5 -80h-633q2 -92 16.5 -154.5t47.5 -100.5t84 -54.5t127 -16.5q49 0 90 8.5t71.5 26.5t48 49t17.5 78h135q0 -76 -28.5 -129t-78.5 -86t-120 -47 t-150 -14q-102 0 -178 24.5t-125 81.5t-72.5 151.5t-23.5 233.5zM170 1053l266 260h90l264 -260h-149l-84 82q-23 20 -35 37.5t-22 31.5q-10 16 -17 29h-4q-6 -12 -16 -29q-10 -14 -23.5 -31.5t-36.5 -37.5l-82 -82h-151zM225 528h510q2 16 3 34t1 38q0 133 -54 189.5 t-191 56.5q-74 0 -123 -16.5t-81 -53.5t-47.5 -97.5t-17.5 -150.5zM626 1302l146 267h194l-217 -267h-123z" />
<glyph unicode="&#x1ec0;" horiz-adv-x="1122" d="M112 2009h195l145 -267h-123zM172 0v1352h846v-121h-707v-492h625v-118h-625v-500h707v-121h-846zM289 1491l266 260h90l264 -260h-149l-84 82q-23 20 -35 37.5t-22 31.5q-10 16 -17 29h-4q-6 -12 -16 -29q-10 -14 -23.5 -31.5t-36.5 -37.5l-82 -82h-151z" />
<glyph unicode="&#x1ec1;" horiz-adv-x="964" d="M-9 1569h195l145 -267h-123zM86 471q0 141 24.5 235.5t75 150.5t128 81t184.5 25q98 0 168.5 -19.5t117.5 -64.5t70 -119t23 -180q0 -37 -3.5 -80t-15.5 -80h-633q2 -92 16.5 -154.5t47.5 -100.5t84 -54.5t127 -16.5q49 0 90 8.5t71.5 26.5t48 49t17.5 78h135 q0 -76 -28.5 -129t-78.5 -86t-120 -47t-150 -14q-102 0 -178 24.5t-125 81.5t-72.5 151.5t-23.5 233.5zM170 1053l266 260h90l264 -260h-149l-84 82q-23 20 -35 37.5t-22 31.5q-10 16 -17 29h-4q-6 -12 -16 -29q-10 -14 -23.5 -31.5t-36.5 -37.5l-82 -82h-151zM225 528h510 q2 16 3 34t1 38q0 133 -54 189.5t-191 56.5q-74 0 -123 -16.5t-81 -53.5t-47.5 -97.5t-17.5 -150.5z" />
<glyph unicode="&#x1ec2;" horiz-adv-x="1122" d="M172 0v1352h846v-121h-707v-492h625v-118h-625v-500h707v-121h-846zM289 1471l266 260h90l264 -260h-149l-84 82q-23 20 -35 37.5t-22 31.5q-10 16 -17 29h-4q-6 -12 -16 -29q-10 -14 -23.5 -31.5t-36.5 -37.5l-82 -82h-151zM747 1825q0 49 43 86t115 37q70 0 113 -35 t43 -88t-34 -90t-97 -37v-80h-72v97q0 47 47 47h20q29 0 43.5 19.5t14.5 43.5q0 27 -20.5 44.5t-57.5 17.5q-39 0 -59.5 -17.5t-20.5 -44.5h-78z" />
<glyph unicode="&#x1ec3;" horiz-adv-x="964" d="M86 471q0 141 24.5 235.5t75 150.5t128 81t184.5 25q98 0 168.5 -19.5t117.5 -64.5t70 -119t23 -180q0 -37 -3.5 -80t-15.5 -80h-633q2 -92 16.5 -154.5t47.5 -100.5t84 -54.5t127 -16.5q49 0 90 8.5t71.5 26.5t48 49t17.5 78h135q0 -76 -28.5 -129t-78.5 -86t-120 -47 t-150 -14q-102 0 -178 24.5t-125 81.5t-72.5 151.5t-23.5 233.5zM170 1053l266 260h90l264 -260h-149l-84 82q-23 20 -35 37.5t-22 31.5q-10 16 -17 29h-4q-6 -12 -16 -29q-10 -14 -23.5 -31.5t-36.5 -37.5l-82 -82h-151zM225 528h510q2 16 3 34t1 38q0 133 -54 189.5 t-191 56.5q-74 0 -123 -16.5t-81 -53.5t-47.5 -97.5t-17.5 -150.5zM633 1374q0 49 43 86t115 37q70 0 113 -35t43 -88t-34 -90t-97 -37v-80h-72v97q0 47 47 47h20q29 0 43.5 19.5t14.5 43.5q0 27 -20.5 44.5t-57.5 17.5q-39 0 -59.5 -17.5t-20.5 -44.5h-78z" />
<glyph unicode="&#x1ec4;" horiz-adv-x="1122" d="M172 0v1352h846v-121h-707v-492h625v-118h-625v-500h707v-121h-846zM289 1461l266 260h90l264 -260h-149l-84 82q-23 20 -35 37.5t-22 31.5q-10 16 -17 29h-4q-6 -12 -16 -29q-10 -14 -23.5 -31.5t-36.5 -37.5l-82 -82h-151zM305 1764q0 45 5.5 85t21.5 70.5t46 48 t81 17.5q49 0 82 -17.5t70 -41.5q35 -27 59.5 -41.5t54.5 -14.5q35 0 49.5 26.5t14.5 90.5h108q0 -47 -4 -88t-20.5 -70.5t-48 -46t-84.5 -16.5q-47 0 -78 16.5t-66 38.5q-39 27 -64.5 42t-54.5 15q-39 0 -53 -26.5t-14 -87.5h-105z" />
<glyph unicode="&#x1ec5;" horiz-adv-x="964" d="M86 471q0 141 24.5 235.5t75 150.5t128 81t184.5 25q98 0 168.5 -19.5t117.5 -64.5t70 -119t23 -180q0 -37 -3.5 -80t-15.5 -80h-633q2 -92 16.5 -154.5t47.5 -100.5t84 -54.5t127 -16.5q49 0 90 8.5t71.5 26.5t48 49t17.5 78h135q0 -76 -28.5 -129t-78.5 -86t-120 -47 t-150 -14q-102 0 -178 24.5t-125 81.5t-72.5 151.5t-23.5 233.5zM170 1053l266 260h90l264 -260h-149l-84 82q-23 20 -35 37.5t-22 31.5q-10 16 -17 29h-4q-6 -12 -16 -29q-10 -14 -23.5 -31.5t-36.5 -37.5l-82 -82h-151zM184 1356q0 45 5.5 85t21.5 70.5t46 48t81 17.5 q49 0 82 -17.5t70 -41.5q35 -27 59.5 -41.5t54.5 -14.5q35 0 49.5 26.5t14.5 90.5h108q0 -47 -4 -88t-20.5 -70.5t-48 -46t-84.5 -16.5q-47 0 -78 16.5t-66 38.5q-39 27 -64.5 42t-54.5 15q-39 0 -53 -26.5t-14 -87.5h-105zM225 528h510q2 16 3 34t1 38q0 133 -54 189.5 t-191 56.5q-74 0 -123 -16.5t-81 -53.5t-47.5 -97.5t-17.5 -150.5z" />
<glyph unicode="&#x1ec6;" horiz-adv-x="1122" d="M172 0v1352h846v-121h-707v-492h625v-118h-625v-500h707v-121h-846zM248 1502l266 260h90l264 -260h-149l-84 82q-23 20 -35 37.5t-22 31.5q-10 16 -17 29h-4q-6 -12 -16 -29q-10 -14 -23.5 -31.5t-36.5 -37.5l-82 -82h-151zM497 -174h127v-170h-127v170z" />
<glyph unicode="&#x1ec7;" horiz-adv-x="964" d="M86 471q0 141 24.5 235.5t75 150.5t128 81t184.5 25q98 0 168.5 -19.5t117.5 -64.5t70 -119t23 -180q0 -37 -3.5 -80t-15.5 -80h-633q2 -92 16.5 -154.5t47.5 -100.5t84 -54.5t127 -16.5q49 0 90 8.5t71.5 26.5t48 49t17.5 78h135q0 -76 -28.5 -129t-78.5 -86t-120 -47 t-150 -14q-102 0 -178 24.5t-125 81.5t-72.5 151.5t-23.5 233.5zM170 1092l266 260h90l264 -260h-149l-84 82q-23 20 -35 37.5t-22 31.5q-10 16 -17 29h-4q-6 -12 -16 -29q-10 -14 -23.5 -31.5t-36.5 -37.5l-82 -82h-151zM225 528h510q2 16 3 34t1 38q0 133 -54 189.5 t-191 56.5q-74 0 -123 -16.5t-81 -53.5t-47.5 -97.5t-17.5 -150.5zM417 -174h127v-170h-127v170z" />
<glyph unicode="&#x1ec8;" horiz-adv-x="483" d="M69 1657q0 49 43 86t115 37q70 0 113 -35t43 -88t-34 -90t-97 -37v-80h-72v97q0 47 47 47h20q29 0 43.5 19.5t14.5 43.5q0 27 -20.5 44.5t-57.5 17.5q-39 0 -59.5 -17.5t-20.5 -44.5h-78zM172 0v1352h139v-1352h-139z" />
<glyph unicode="&#x1ec9;" horiz-adv-x="385" d="M22 1247q0 49 43 86t115 37q70 0 113 -35t43 -88t-34 -90t-97 -37v-80h-72v97q0 47 47 47h20q29 0 43.5 19.5t14.5 43.5q0 27 -20.5 44.5t-57.5 17.5q-39 0 -59.5 -17.5t-20.5 -44.5h-78zM125 0v942h137v-942h-137z" />
<glyph unicode="&#x1eca;" horiz-adv-x="483" d="M172 0v1352h139v-1352h-139zM178 -174h127v-170h-127v170z" />
<glyph unicode="&#x1ecb;" horiz-adv-x="385" d="M125 0v942h137v-942h-137zM125 1188v164h137v-164h-137zM133 -174h127v-170h-127v170z" />
<glyph unicode="&#x1ecc;" horiz-adv-x="1345" d="M94 676q0 197 34 331t104.5 215t180 115.5t261.5 34.5q150 0 259 -34.5t180 -115.5t104.5 -215.5t33.5 -330.5q0 -197 -33.5 -331t-104.5 -215t-180 -115.5t-259 -34.5q-152 0 -261.5 34.5t-180 115.5t-104.5 215t-34 331zM233 676q0 -164 26 -274.5t79 -177t137 -95.5 t199 -29t197.5 29t137 95.5t80 177t25.5 274.5q0 162 -25.5 272.5t-80 178t-137.5 96t-197 28.5q-115 0 -199 -28.5t-137 -96t-79 -178t-26 -272.5zM608 -174h127v-170h-127v170z" />
<glyph unicode="&#x1ecd;" horiz-adv-x="1003" d="M88 471q0 139 24.5 233.5t75 151.5t128 82t186.5 25q106 0 185 -25t130 -82t76 -151.5t25 -233.5t-25 -233.5t-76 -151.5t-130 -81.5t-185 -24.5q-109 0 -186.5 24.5t-128 81.5t-75 151.5t-24.5 233.5zM225 471q0 -106 15.5 -179t48.5 -117t86 -62.5t127 -18.5 q76 0 128 18.5t85 62.5t48 117t15 179t-15 179t-48 117t-85 62.5t-128 18.5q-74 0 -127 -18.5t-86 -62.5t-48.5 -116.5t-15.5 -179.5zM436 -174h127v-170h-127v170z" />
<glyph unicode="&#x1ece;" horiz-adv-x="1345" d="M94 676q0 197 34 331t104.5 215t180 115.5t261.5 34.5q150 0 259 -34.5t180 -115.5t104.5 -215.5t33.5 -330.5q0 -197 -33.5 -331t-104.5 -215t-180 -115.5t-259 -34.5q-152 0 -261.5 34.5t-180 115.5t-104.5 215t-34 331zM96 1657q0 49 43 86t115 37q70 0 113 -35 t43 -88t-34 -90t-97 -37v-80h-72v97q0 47 47 47h20q29 0 43.5 19.5t14.5 43.5q0 27 -20.5 44.5t-57.5 17.5q-39 0 -59.5 -17.5t-20.5 -44.5h-78zM233 676q0 -164 26 -274.5t79 -177t137 -95.5t199 -29t197.5 29t137 95.5t80 177t25.5 274.5q0 162 -25.5 272.5t-80 178 t-137.5 96t-197 28.5q-115 0 -199 -28.5t-137 -96t-79 -178t-26 -272.5z" />
<glyph unicode="&#x1ecf;" horiz-adv-x="1003" d="M88 471q0 139 24.5 233.5t75 151.5t128 82t186.5 25q106 0 185 -25t130 -82t76 -151.5t25 -233.5t-25 -233.5t-76 -151.5t-130 -81.5t-185 -24.5q-109 0 -186.5 24.5t-128 81.5t-75 151.5t-24.5 233.5zM96 1247q0 49 43 86t115 37q70 0 113 -35t43 -88t-34 -90t-97 -37 v-80h-72v97q0 47 47 47h20q29 0 43.5 19.5t14.5 43.5q0 27 -20.5 44.5t-57.5 17.5q-39 0 -59.5 -17.5t-20.5 -44.5h-78zM225 471q0 -106 15.5 -179t48.5 -117t86 -62.5t127 -18.5q76 0 128 18.5t85 62.5t48 117t15 179t-15 179t-48 117t-85 62.5t-128 18.5q-74 0 -127 -18.5 t-86 -62.5t-48.5 -116.5t-15.5 -179.5z" />
<glyph unicode="&#x1ed0;" horiz-adv-x="1345" d="M94 676q0 197 34 331t104.5 215t180 115.5t261.5 34.5q150 0 259 -34.5t180 -115.5t104.5 -215.5t33.5 -330.5q0 -197 -33.5 -331t-104.5 -215t-180 -115.5t-259 -34.5q-152 0 -261.5 34.5t-180 115.5t-104.5 215t-34 331zM233 676q0 -164 26 -274.5t79 -177t137 -95.5 t199 -29t197.5 29t137 95.5t80 177t25.5 274.5q0 162 -25.5 272.5t-80 178t-137.5 96t-197 28.5q-115 0 -199 -28.5t-137 -96t-79 -178t-26 -272.5zM361 1444l266 260h90l264 -260h-149l-84 82q-23 20 -35 37.5t-22 31.5q-10 16 -17 29h-4q-6 -12 -16 -29 q-10 -14 -23.5 -31.5t-36.5 -37.5l-82 -82h-151zM829 1695l146 267h194l-217 -267h-123z" />
<glyph unicode="&#x1ed1;" horiz-adv-x="1003" d="M88 471q0 139 24.5 233.5t75 151.5t128 82t186.5 25q106 0 185 -25t130 -82t76 -151.5t25 -233.5t-25 -233.5t-76 -151.5t-130 -81.5t-185 -24.5q-109 0 -186.5 24.5t-128 81.5t-75 151.5t-24.5 233.5zM191 1053l266 260h90l264 -260h-149l-84 82q-23 20 -35 37.5 t-22 31.5q-10 16 -17 29h-4q-6 -12 -16 -29q-10 -14 -23.5 -31.5t-36.5 -37.5l-82 -82h-151zM225 471q0 -106 15.5 -179t48.5 -117t86 -62.5t127 -18.5q76 0 128 18.5t85 62.5t48 117t15 179t-15 179t-48 117t-85 62.5t-128 18.5q-74 0 -127 -18.5t-86 -62.5t-48.5 -116.5 t-15.5 -179.5zM655 1302l146 267h194l-217 -267h-123z" />
<glyph unicode="&#x1ed2;" horiz-adv-x="1345" d="M94 676q0 197 34 331t104.5 215t180 115.5t261.5 34.5q150 0 259 -34.5t180 -115.5t104.5 -215.5t33.5 -330.5q0 -197 -33.5 -331t-104.5 -215t-180 -115.5t-259 -34.5q-152 0 -261.5 34.5t-180 115.5t-104.5 215t-34 331zM176 1962h195l145 -267h-123zM233 676 q0 -164 26 -274.5t79 -177t137 -95.5t199 -29t197.5 29t137 95.5t80 177t25.5 274.5q0 162 -25.5 272.5t-80 178t-137.5 96t-197 28.5q-115 0 -199 -28.5t-137 -96t-79 -178t-26 -272.5zM361 1444l266 260h90l264 -260h-149l-84 82q-23 20 -35 37.5t-22 31.5q-10 16 -17 29 h-4q-6 -12 -16 -29q-10 -14 -23.5 -31.5t-36.5 -37.5l-82 -82h-151z" />
<glyph unicode="&#x1ed3;" horiz-adv-x="1003" d="M20 1565h193l143 -264h-121zM88 471q0 139 24.5 233.5t75 151.5t128 82t186.5 25q106 0 185 -25t130 -82t76 -151.5t25 -233.5t-25 -233.5t-76 -151.5t-130 -81.5t-185 -24.5q-109 0 -186.5 24.5t-128 81.5t-75 151.5t-24.5 233.5zM191 1053l266 260h90l264 -260h-149 l-84 82q-23 20 -35 37.5t-22 31.5q-10 16 -17 29h-4q-6 -12 -16 -29q-10 -14 -23.5 -31.5t-36.5 -37.5l-82 -82h-151zM225 471q0 -106 15.5 -179t48.5 -117t86 -62.5t127 -18.5q76 0 128 18.5t85 62.5t48 117t15 179t-15 179t-48 117t-85 62.5t-128 18.5q-74 0 -127 -18.5 t-86 -62.5t-48.5 -116.5t-15.5 -179.5z" />
<glyph unicode="&#x1ed4;" horiz-adv-x="1345" d="M94 676q0 197 34 331t104.5 215t180 115.5t261.5 34.5q150 0 259 -34.5t180 -115.5t104.5 -215.5t33.5 -330.5q0 -197 -33.5 -331t-104.5 -215t-180 -115.5t-259 -34.5q-152 0 -261.5 34.5t-180 115.5t-104.5 215t-34 331zM233 676q0 -164 26 -274.5t79 -177t137 -95.5 t199 -29t197.5 29t137 95.5t80 177t25.5 274.5q0 162 -25.5 272.5t-80 178t-137.5 96t-197 28.5q-115 0 -199 -28.5t-137 -96t-79 -178t-26 -272.5zM361 1461l266 260h90l264 -260h-149l-84 82q-23 20 -35 37.5t-22 31.5q-10 16 -17 29h-4q-6 -12 -16 -29 q-10 -14 -23.5 -31.5t-36.5 -37.5l-82 -82h-151zM817 1812q0 49 43 86t115 37q70 0 113 -35t43 -88t-34 -90t-97 -37v-80h-72v97q0 47 47 47h20q29 0 43.5 19.5t14.5 43.5q0 27 -20.5 44.5t-57.5 17.5q-39 0 -59.5 -17.5t-20.5 -44.5h-78z" />
<glyph unicode="&#x1ed5;" horiz-adv-x="1003" d="M88 471q0 139 24.5 233.5t75 151.5t128 82t186.5 25q106 0 185 -25t130 -82t76 -151.5t25 -233.5t-25 -233.5t-76 -151.5t-130 -81.5t-185 -24.5q-109 0 -186.5 24.5t-128 81.5t-75 151.5t-24.5 233.5zM191 1053l266 260h90l264 -260h-149l-84 82q-23 20 -35 37.5 t-22 31.5q-10 16 -17 29h-4q-6 -12 -16 -29q-10 -14 -23.5 -31.5t-36.5 -37.5l-82 -82h-151zM225 471q0 -106 15.5 -179t48.5 -117t86 -62.5t127 -18.5q76 0 128 18.5t85 62.5t48 117t15 179t-15 179t-48 117t-85 62.5t-128 18.5q-74 0 -127 -18.5t-86 -62.5t-48.5 -116.5 t-15.5 -179.5zM651 1405q0 49 43 86t115 37q70 0 113 -35t43 -88t-34 -90t-97 -37v-80h-72v97q0 47 47 47h20q29 0 43.5 19.5t14.5 43.5q0 27 -20.5 44.5t-57.5 17.5q-39 0 -59.5 -17.5t-20.5 -44.5h-78z" />
<glyph unicode="&#x1ed6;" horiz-adv-x="1345" d="M94 676q0 197 34 331t104.5 215t180 115.5t261.5 34.5q150 0 259 -34.5t180 -115.5t104.5 -215.5t33.5 -330.5q0 -197 -33.5 -331t-104.5 -215t-180 -115.5t-259 -34.5q-152 0 -261.5 34.5t-180 115.5t-104.5 215t-34 331zM233 676q0 -164 26 -274.5t79 -177t137 -95.5 t199 -29t197.5 29t137 95.5t80 177t25.5 274.5q0 162 -25.5 272.5t-80 178t-137.5 96t-197 28.5q-115 0 -199 -28.5t-137 -96t-79 -178t-26 -272.5zM361 1461l266 260h90l264 -260h-149l-84 82q-23 20 -35 37.5t-22 31.5q-10 16 -17 29h-4q-6 -12 -16 -29 q-10 -14 -23.5 -31.5t-36.5 -37.5l-82 -82h-151zM374 1757q0 45 5.5 85t21.5 70.5t46 48t81 17.5q49 0 82 -17.5t70 -41.5q35 -27 59.5 -41.5t54.5 -14.5q35 0 49.5 26.5t14.5 90.5h108q0 -47 -4 -88t-20.5 -70.5t-48 -46t-84.5 -16.5q-47 0 -78 16.5t-66 38.5 q-39 27 -64.5 42t-54.5 15q-39 0 -53 -26.5t-14 -87.5h-105z" />
<glyph unicode="&#x1ed7;" horiz-adv-x="1003" d="M88 471q0 139 24.5 233.5t75 151.5t128 82t186.5 25q106 0 185 -25t130 -82t76 -151.5t25 -233.5t-25 -233.5t-76 -151.5t-130 -81.5t-185 -24.5q-109 0 -186.5 24.5t-128 81.5t-75 151.5t-24.5 233.5zM191 1053l266 260h90l264 -260h-149l-84 82q-23 20 -35 37.5 t-22 31.5q-10 16 -17 29h-4q-6 -12 -16 -29q-10 -14 -23.5 -31.5t-36.5 -37.5l-82 -82h-151zM204 1348q0 45 5.5 85t21.5 70.5t46 48t81 17.5q49 0 82 -17.5t70 -41.5q35 -27 59.5 -41.5t54.5 -14.5q35 0 49.5 26.5t14.5 90.5h108q0 -47 -4 -88t-20.5 -70.5t-48 -46 t-84.5 -16.5q-47 0 -78 16.5t-66 38.5q-39 27 -64.5 42t-54.5 15q-39 0 -53 -26.5t-14 -87.5h-105zM225 471q0 -106 15.5 -179t48.5 -117t86 -62.5t127 -18.5q76 0 128 18.5t85 62.5t48 117t15 179t-15 179t-48 117t-85 62.5t-128 18.5q-74 0 -127 -18.5t-86 -62.5 t-48.5 -116.5t-15.5 -179.5z" />
<glyph unicode="&#x1ed8;" horiz-adv-x="1345" d="M94 676q0 197 34 331t104.5 215t180 115.5t261.5 34.5q150 0 259 -34.5t180 -115.5t104.5 -215.5t33.5 -330.5q0 -197 -33.5 -331t-104.5 -215t-180 -115.5t-259 -34.5q-152 0 -261.5 34.5t-180 115.5t-104.5 215t-34 331zM233 676q0 -164 26 -274.5t79 -177t137 -95.5 t199 -29t197.5 29t137 95.5t80 177t25.5 274.5q0 162 -25.5 272.5t-80 178t-137.5 96t-197 28.5q-115 0 -199 -28.5t-137 -96t-79 -178t-26 -272.5zM361 1502l266 260h90l264 -260h-149l-84 82q-23 20 -35 37.5t-22 31.5q-10 16 -17 29h-4q-6 -12 -16 -29 q-10 -14 -23.5 -31.5t-36.5 -37.5l-82 -82h-151zM608 -174h127v-170h-127v170z" />
<glyph unicode="&#x1ed9;" horiz-adv-x="1003" d="M88 471q0 139 24.5 233.5t75 151.5t128 82t186.5 25q106 0 185 -25t130 -82t76 -151.5t25 -233.5t-25 -233.5t-76 -151.5t-130 -81.5t-185 -24.5q-109 0 -186.5 24.5t-128 81.5t-75 151.5t-24.5 233.5zM191 1092l266 260h90l264 -260h-149l-84 82q-23 20 -35 37.5 t-22 31.5q-10 16 -17 29h-4q-6 -12 -16 -29q-10 -14 -23.5 -31.5t-36.5 -37.5l-82 -82h-151zM225 471q0 -106 15.5 -179t48.5 -117t86 -62.5t127 -18.5q76 0 128 18.5t85 62.5t48 117t15 179t-15 179t-48 117t-85 62.5t-128 18.5q-74 0 -127 -18.5t-86 -62.5t-48.5 -116.5 t-15.5 -179.5zM436 -174h127v-170h-127v170z" />
</font>
</defs>
</svg>
