<?xml version="1.0" standalone="no"?>
<!DOCTYPE svg PUBLIC "-//W3C//DTD SVG 1.1//EN" "http://www.w3.org/Graphics/SVG/1.1/DTD/svg11.dtd" >
<svg xmlns="http://www.w3.org/2000/svg" xmlns:xlink="http://www.w3.org/1999/xlink" version="1.1">
<metadata></metadata>
<defs>
<font id="akzentica_4fsemibold" horiz-adv-x="1329" >
<font-face units-per-em="2048" ascent="1638" descent="-410" />
<missing-glyph horiz-adv-x="573" />
<glyph unicode="ffj" horiz-adv-x="1724" d="M27 754v188h125v123q0 209 127 292t399 77v-189q-86 2 -141.5 -6t-87 -29.5t-45 -57.5t-13.5 -87v-123h400v123q0 104 30.5 175t95 114t164 61.5t236.5 18.5h76v-189h-76q-86 0 -141.5 -9t-87 -29.5t-45 -55.5t-13.5 -86v-123h592v-1114q0 -61 -16.5 -118.5t-56.5 -101.5 t-106.5 -70.5t-168.5 -26.5v194q47 0 77.5 23.5t30.5 83.5v942h-352v-754h-239v754h-400v-754h-239v754h-125z" />
<glyph unicode="&#x407;&#x407;" horiz-adv-x="1126" d="M-14 1503v226h207v-226h-207zM162 0v1352h239v-1352h-239zM459 1503v226h207v-226h-207zM725 0v1352h240v-1352h-240zM934 1503v226h207v-226h-207z" />
<glyph unicode="&#x457;&#x457;" horiz-adv-x="899" d="M-72 1094v225h207v-225h-207zM106 0v942h240v-942h-240zM348 1094v225h207v-225h-207zM557 0v942h240v-942h-240zM764 1094v225h207v-225h-207z" />
<glyph unicode="&#x27;&#x457;" horiz-adv-x="700" d="M20 1155v279h269v-279q0 -55 -9.5 -107.5t-37 -91t-79.5 -62.5t-136 -24v129q57 0 82.5 35t25.5 121h-115zM358 0v942h240v-942h-240zM565 1094v225h207v-225h-207z" />
<glyph unicode="&#x27;&#x407;" horiz-adv-x="759" d="M20 1450v279h269v-279q0 -55 -9.5 -107.5t-37 -91.5t-79.5 -62.5t-136 -23.5v129q57 0 82.5 35t25.5 121h-115zM358 0v1352h240v-1352h-240zM567 1503v226h207v-226h-207z" />
<glyph unicode="fk" horiz-adv-x="1642" d="M27 754v188h125v123q0 104 31.5 175t96 114t164 61.5t234.5 18.5h315v-865h119l240 373h256l-299 -463l309 -479h-256l-240 373h-129v-373h-239v1245h-76q-86 0 -141.5 -9t-87 -30.5t-45 -55.5t-13.5 -85v-123h248v-188h-248v-754h-239v754h-125z" />
<glyph unicode="fj" horiz-adv-x="1087" d="M27 754v188h125v123q0 104 31.5 175t97 114t165 61.5t232.5 18.5h76v-189h-76q-86 0 -141.5 -9t-87 -30.5t-45 -55.5t-13.5 -85v-123h592v-1114q0 -61 -17.5 -117.5t-57.5 -101.5t-106.5 -71.5t-166.5 -26.5v194q47 0 77.5 23.5t30.5 83.5v942h-352v-754h-239v754h-125z " />
<glyph unicode="fb" horiz-adv-x="1736" d="M27 754v188h125v123q0 104 31.5 175t96 114t164 61.5t234.5 18.5h315v-451q0 -47 -4 -91t-8 -89h6q35 90 98.5 125t165.5 35q104 0 182 -27t128.5 -85t76 -152.5t25.5 -227.5q0 -135 -25.5 -228t-76 -151.5t-128.5 -85t-182 -26.5t-169.5 35.5t-98.5 134.5l-20 -58 q-6 -25 -11.5 -47t-11.5 -45h-186v1245h-76q-86 0 -141.5 -9t-87 -30.5t-45 -55.5t-13.5 -85v-123h248v-188h-248v-754h-239v754h-125zM993 471q0 -168 51 -235.5t168 -67.5q59 0 99.5 13.5t65 48t35.5 93t11 148.5t-11 148.5t-35.5 93.5t-65.5 48t-99 13q-113 0 -164 -62.5 t-55 -213.5v-27z" />
<glyph unicode="ffb" horiz-adv-x="2367" d="M27 754v188h125v123q0 201 117.5 285t367.5 84h41v-189q-86 0 -141.5 -9t-87 -30.5t-45 -55.5t-13.5 -85v-123h397v123q0 106 33 178t100.5 114t170 59.5t243.5 17.5h289v-451q0 -47 -5 -91t-7 -89q39 88 102.5 124t167.5 36t181 -27t128.5 -85t77 -152.5t25.5 -227.5 q0 -135 -25.5 -228t-77 -151.5t-128 -85t-181.5 -26.5q-106 0 -171.5 35.5t-98.5 134.5q-12 -41 -22.5 -78t-18.5 -72h-187v1245h-69q-86 0 -141.5 -9t-87 -30.5t-45 -55.5t-13.5 -85v-123h248v-188h-248v-754h-240v754h-397v-754h-239v754h-125zM1624 475q0 -170 50 -238.5 t169 -68.5q57 0 98 13.5t66 48t36 93t11 148.5t-11 148.5t-36 93.5t-65.5 48t-98.5 13q-117 0 -168 -67.5t-51 -231.5z" />
<glyph unicode="ffk" horiz-adv-x="2281" d="M27 754v188h125v123q0 209 127 292t399 77v-189q-86 0 -141.5 -9t-87 -29.5t-45 -55.5t-13.5 -86v-123h397v123q0 104 32 175t96.5 114t164 61.5t234.5 18.5h309v-865h117l241 373h256l-299 -463l310 -479h-256l-242 373h-127v-373h-240v1245h-69q-86 0 -141.5 -9 t-87 -29.5t-45 -55.5t-13.5 -86v-123h248v-188h-248v-754h-240v754h-397v-754h-239v754h-125z" />
<glyph unicode="fh" horiz-adv-x="1746" d="M27 754v188h125v123q0 104 31.5 175t96 114t164 61.5t234.5 18.5h315v-451q0 -47 -4 -91t-8 -89h6q35 92 100.5 126t172.5 34q182 0 272 -93.5t90 -316.5v-553h-240v553q0 66 -9 109t-28.5 67.5t-51 34.5t-76.5 10q-117 0 -170.5 -67.5t-53.5 -231.5v-475h-239v1245h-76 q-86 0 -141.5 -9t-87 -30.5t-45 -55.5t-13.5 -85v-123h248v-188h-248v-754h-239v754h-125z" />
<glyph unicode="&#xfb00;" horiz-adv-x="1275" d="M27 754v188h125v123q0 209 127 292t399 77v-189q-86 2 -141.5 -6t-87 -29.5t-45 -57.5t-13.5 -87v-123h400v123q0 104 30.5 176t95 116t164 61.5t236.5 15.5v-189q-86 2 -141.5 -6t-87 -29.5t-45 -57.5t-13.5 -87v-123h248v-188h-248v-754h-239v754h-400v-754h-239v754 h-125z" />
<glyph unicode="&#xfb01;" horiz-adv-x="1087" d="M27 754v188h125v123q0 104 31.5 175t96 114t164 61.5t234.5 18.5h76v-189h-76q-86 0 -141.5 -9t-87 -29.5t-45 -55.5t-13.5 -86v-123h594v-942h-240v754h-354v-754h-239v754h-125z" />
<glyph unicode="&#xfb02;" horiz-adv-x="1153" d="M27 754v188h125v123q0 104 31.5 175t96 114t164 61.5t234.5 18.5h315v-1117q0 -70 31 -96t78 -26v-195q-104 0 -172 28.5t-107 76t-54 109.5t-15 128v903h-76q-86 0 -141.5 -9t-87 -30.5t-45 -55.5t-13.5 -85v-123h248v-188h-248v-754h-239v754h-125z" />
<glyph unicode="&#xfb03;" horiz-adv-x="1724" d="M27 754v188h125v123q0 209 127 292t399 77v-189q-86 2 -141.5 -6t-87 -29.5t-45 -57.5t-13.5 -87v-123h400v123q0 104 30.5 175t95 114t164 61.5t236.5 18.5h76v-189h-76q-86 0 -141.5 -9t-87 -29.5t-45 -55.5t-13.5 -86v-123h592v-942h-240v754h-352v-754h-239v754h-400 v-754h-239v754h-125z" />
<glyph unicode="&#xfb04;" horiz-adv-x="1781" d="M27 754v188h125v123q0 209 127 292t399 77v-189q-86 2 -141.5 -6t-87 -29.5t-45 -57.5t-13.5 -87v-123h400v123q0 104 30.5 175t95 114t164 61.5t236.5 18.5h307v-1117q0 -70 31 -96t78 -26v-195q-102 0 -169 26.5t-107 70.5t-56.5 101.5t-16.5 118.5v928h-67 q-86 0 -141.5 -9t-87 -29.5t-45 -55.5t-13.5 -86v-123h248v-188h-248v-754h-239v754h-400v-754h-239v754h-125z" />
<glyph horiz-adv-x="0" />
<glyph horiz-adv-x="682" />
<glyph unicode=" "  horiz-adv-x="573" />
<glyph unicode="&#x09;" horiz-adv-x="573" />
<glyph unicode="&#xa0;" horiz-adv-x="573" />
<glyph unicode="!" horiz-adv-x="460" d="M94 1352h277l-37 -942h-203zM113 0v225h239v-225h-239z" />
<glyph unicode="&#x22;" horiz-adv-x="686" d="M131 1352h195l-37 -328h-121zM397 1352h195l-37 -328h-121z" />
<glyph unicode="#" horiz-adv-x="1165" d="M70 391l24 158h193l35 252h-195l25 157h192l55 394h158l-55 -394h252l55 394h158l-56 -394h183l-25 -157h-180l-35 -252h182l-24 -158h-181l-55 -391h-158l56 391h-252l-55 -391h-158l55 391h-194zM444 549h252l35 252h-252z" />
<glyph unicode="$" horiz-adv-x="1138" d="M90 475h238q0 -90 45 -131t123 -53v293q-72 12 -140.5 34.5t-122 62.5t-86 101.5t-32.5 151.5q0 154 97 236.5t284 95.5v168h153v-168q86 -6 157 -31t121 -72t76.5 -117.5t26.5 -168.5h-237q0 86 -38 126.5t-106 53.5v-291q86 -14 160 -39t129 -64.5t87 -99t32 -145.5 q0 -162 -108.5 -242t-299.5 -92v-166h-153v166q-203 16 -304.5 108.5t-101.5 282.5zM354 930q0 -68 42 -96.5t100 -42.5v268q-59 -8 -100.5 -35.5t-41.5 -93.5zM649 289q74 8 121 37.5t47 95.5q0 35 -14.5 58.5t-37 40t-53 25.5t-63.5 15v-272z" />
<glyph unicode="%" horiz-adv-x="1488" d="M59 1014q0 98 16.5 164.5t50.5 107.5t85 58.5t123 17.5q141 0 206.5 -76t65.5 -272q0 -98 -16.5 -166t-49 -108t-84.5 -57t-122 -17q-72 0 -123 17t-85 57t-50.5 107.5t-16.5 166.5zM233 1014q0 -123 24 -170t77 -47q51 0 74.5 47t23.5 170t-23.5 170t-74.5 47 q-53 0 -77 -47t-24 -170zM283 0l731 1352h198l-731 -1352h-198zM883 328q0 98 16 164.5t50 107.5t85 58.5t123 17.5q141 0 207 -76t66 -272q0 -98 -16.5 -166t-49.5 -108t-85 -57t-122 -17q-72 0 -123 17t-85 57t-50 107.5t-16 166.5zM1057 328q0 -123 23.5 -170t76.5 -47 q51 0 74.5 47t23.5 170t-23.5 170t-74.5 47q-53 0 -76.5 -47t-23.5 -170z" />
<glyph unicode="&#x26;" horiz-adv-x="1230" d="M33 350q0 74 16.5 129.5t44 100.5t66.5 82.5t86 74.5l-45 54q-45 53 -75 114.5t-32 153.5q0 147 97.5 230t314.5 83q100 0 176 -20.5t126 -66.5t74.5 -122t24.5 -184h-237q0 59 -11.5 96t-33 57.5t-52 27.5t-69.5 7q-86 0 -125 -28.5t-39 -106.5q0 -74 39 -123t88 -102 l326 -354q12 68 12 153h237q0 -113 -16 -201t-45 -155l233 -250h-282l-80 84q-68 -55 -161 -79.5t-210 -24.5q-233 0 -340.5 97t-107.5 273zM272 365q0 -104 55.5 -142.5t153.5 -38.5q72 0 125 14.5t92 49.5q-78 86 -156.5 169t-156.5 169q-61 -41 -87 -101.5t-26 -119.5z " />
<glyph unicode="'" horiz-adv-x="419" d="M131 1319h195l-37 -328h-121z" />
<glyph unicode="(" horiz-adv-x="622" d="M121 471q0 276 28.5 461.5t87 297t149.5 158t216 46.5v-205q-63 0 -108 -37t-75 -125t-44.5 -233.5t-14.5 -362.5t14.5 -362.5t44.5 -233.5t75 -125t108 -37v-205q-125 0 -216 46.5t-149.5 158t-87 297t-28.5 461.5z" />
<glyph unicode=")" horiz-adv-x="624" d="M23 -287q61 0 107 37t76 125t44 233.5t14 362.5t-14 362.5t-44 233.5t-76 125t-107 37v205q125 0 216 -46.5t149 -158t87 -296.5t29 -462q0 -276 -29 -461.5t-87 -297t-149.5 -158t-215.5 -46.5v205z" />
<glyph unicode="*" horiz-adv-x="894" d="M90 1122q12 37 25.5 72t25.5 72l228 -74v242h155v-244q57 20 113.5 37.5t114.5 38.5q12 -37 25.5 -72t25.5 -72l-234 -75l148 -193l-119 -94q-39 51 -76 101t-76 100l-151 -203l-119 96q35 49 71 96t72 97z" />
<glyph unicode="+" horiz-adv-x="1202" d="M94 590v180h416v416h180v-416h418v-180h-418v-418h-180v418h-416z" />
<glyph unicode="," horiz-adv-x="526" d="M102 0v279h301v-279q0 -55 -10 -107.5t-40.5 -91.5t-89 -62.5t-154.5 -23.5v129q76 0 108.5 35t32.5 121h-148z" />
<glyph unicode="-" horiz-adv-x="909" d="M131 373v205h645v-205h-645z" />
<glyph unicode="." horiz-adv-x="563" d="M131 0v279h301v-279h-301z" />
<glyph unicode="/" horiz-adv-x="823" d="M23 -246l542 1680h193l-543 -1680h-192z" />
<glyph unicode="0" horiz-adv-x="1236" d="M88 676q0 197 31 331t96.5 215t164.5 115.5t238 34.5q137 0 237.5 -34.5t166 -115.5t96.5 -215.5t31 -330.5q0 -197 -31 -331t-96.5 -215t-166 -115.5t-237.5 -34.5q-139 0 -238 34.5t-164.5 115.5t-96.5 215t-31 331zM328 676q0 -139 17 -233.5t53 -152t90 -82 t130 -24.5t131.5 24.5t90 82t52 152t17.5 233.5q0 137 -17.5 231t-52 151.5t-90 83t-131.5 25.5t-130 -25.5t-90 -83t-53 -151.5t-17 -231z" />
<glyph unicode="1" horiz-adv-x="937" d="M113 0v205h235v901l-235 -43v207l475 82v-1147h235v-205h-710z" />
<glyph unicode="2" horiz-adv-x="1099" d="M72 0v205l553 565q14 14 39.5 40t50 58.5t42 70.5t17.5 77q0 80 -55 115.5t-174 35.5q-123 0 -176.5 -40t-53.5 -148h-237q0 109 29.5 184.5t88 121.5t145.5 66.5t200 20.5q250 0 361.5 -88t111.5 -248q0 -70 -18.5 -124t-43 -93t-49 -64.5t-35.5 -37.5l-497 -512h649 v-205h-948z" />
<glyph unicode="3" horiz-adv-x="1097" d="M10 373h240q0 -53 18.5 -89t51 -57.5t76.5 -32t96 -10.5q80 0 131 17.5t81.5 48.5t42 71.5t11.5 88.5q0 98 -58.5 153t-197.5 55h-142v197q70 82 138.5 165t140.5 167h-588v205h897v-205q-86 -88 -166 -174t-172 -166q195 -20 291 -121.5t96 -275.5q0 -92 -26.5 -171 t-86 -136.5t-154.5 -90t-234 -32.5q-98 0 -187.5 21.5t-155 67.5t-104.5 120.5t-39 183.5z" />
<glyph unicode="4" horiz-adv-x="1159" d="M37 315v205l428 832h260l-428 -832h438v385l240 37v-422h125v-205h-125v-315h-240v315h-698z" />
<glyph unicode="5" horiz-adv-x="1099" d="M20 373h240q0 -53 18.5 -90t51 -58.5t78 -31t98.5 -9.5q80 0 131 18.5t81 50.5t40 75t10 94q0 55 -11.5 101t-40 80t-77.5 53.5t-125 19.5q-43 0 -86 -6t-77 -21.5t-54.5 -39t-20.5 -56.5h-239l39 799h876v-205h-651l-20 -344q49 41 118.5 59.5t151.5 18.5 q223 0 340 -117t117 -342q0 -98 -26 -179t-84 -139.5t-152.5 -91t-229.5 -32.5q-104 0 -194.5 21.5t-158 68.5t-105.5 121.5t-38 181.5z" />
<glyph unicode="6" horiz-adv-x="1183" d="M92 676q0 193 31 326t93.5 214.5t157.5 118.5t224 37q98 0 186 -21.5t155 -68.5t104.5 -122t37.5 -181h-239q0 51 -18.5 87t-51.5 58.5t-75 32.5t-87 10q-104 0 -166.5 -55t-85.5 -192q-23 -63 -26 -183q43 66 116.5 92.5t178.5 26.5q229 0 351 -114.5t122 -321.5 q0 -98 -29 -179t-89 -139.5t-153.5 -90t-224.5 -31.5t-227 36.5t-159.5 118.5t-94.5 215t-31 326zM354 449q0 -74 21.5 -124.5t57.5 -81t82 -45t95 -14.5q131 0 190.5 69t59.5 171t-60.5 164.5t-189.5 62.5q-121 0 -188.5 -53t-67.5 -149z" />
<glyph unicode="7" horiz-adv-x="1101" d="M57 1147v205h959v-205l-590 -1147h-260l590 1147h-699z" />
<glyph unicode="8" horiz-adv-x="1191" d="M90 367q0 147 64.5 227t162.5 121q-90 35 -140 98.5t-56 173.5q-6 82 18.5 152.5t83 123t152.5 81t229 28.5q242 0 355.5 -96.5t113.5 -286.5q0 -141 -58.5 -220t-152.5 -120q109 -35 175.5 -101.5t66.5 -197.5q0 -186 -135 -278t-383 -92q-135 0 -230.5 27.5t-155 77.5 t-85 122t-25.5 160zM330 367q0 -45 13 -79t44 -57.5t82 -35t127 -11.5q57 0 107.5 8.5t85 29t55 56.5t20.5 89q0 55 -21.5 92t-60.5 59.5t-90 35.5t-108 21q-6 -2 -15 -2q-43 -6 -85 -15t-76.5 -30.5t-56 -59.5t-21.5 -101zM360 987q0 -55 15.5 -92t45.5 -59.5t70.5 -35 t92.5 -20.5q45 6 90 17.5t79.5 33t57.5 58.5t23 96q0 104 -68 143t-174 39q-125 0 -178.5 -44t-53.5 -136z" />
<glyph unicode="9" horiz-adv-x="1148" d="M49 930q0 98 28.5 179t88 139.5t154 91t225.5 32.5t227 -37t159.5 -118.5t94.5 -216t31 -326.5q0 -193 -31 -326t-93.5 -215t-157.5 -117.5t-224 -35.5q-100 0 -188.5 21.5t-154 67.5t-103 120.5t-37.5 183.5h239q0 -51 18.5 -87t50.5 -58.5t74 -33t89 -10.5 q63 0 112 21.5t83 72t54.5 132.5t26.5 202q-43 -66 -116.5 -91t-178.5 -25q-229 0 -350 113.5t-121 320.5zM289 926q0 -102 60.5 -164t189.5 -62q119 0 187.5 53.5t68.5 151.5q0 72 -22.5 122t-59.5 81t-83 45t-93 14q-66 0 -113 -18.5t-77 -51t-44 -76.5t-14 -95z" />
<glyph unicode=":" horiz-adv-x="563" d="M131 0v279h301v-279h-301zM131 614v279h301v-279h-301z" />
<glyph unicode=";" horiz-adv-x="538" d="M111 0v279h301v-279q0 -55 -10.5 -107.5t-41 -91.5t-89 -62.5t-154.5 -23.5v129q76 0 108.5 35t32.5 121h-147zM113 614v279h301v-279h-301z" />
<glyph unicode="&#x3c;" horiz-adv-x="1107" d="M92 616v127l914 482v-213q-104 -53 -205 -107.5t-203 -107.5l-166 -66q-39 -16 -74.5 -26.5t-72.5 -22.5q154 -59 313 -117l408 -209v-215z" />
<glyph unicode="=" horiz-adv-x="1038" d="M94 471v180h850v-180h-850zM94 709v180h850v-180h-850z" />
<glyph unicode="&#x3e;" horiz-adv-x="1107" d="M96 141v215l408 209q154 57 313 117q-37 12 -74.5 23.5t-74.5 25.5q-150 55 -289 130t-283 151v213l914 -482v-127z" />
<glyph unicode="?" horiz-adv-x="1026" d="M4 979q0 106 35 181t98.5 122t152.5 68.5t197 21.5q270 0 392 -102.5t122 -286.5q0 -123 -38.5 -195.5t-94 -112.5t-117 -56.5t-106.5 -30.5q-18 -6 -34.5 -15.5t-29 -29t-18.5 -53t-6 -89.5h-240q0 117 27 187.5t72 113.5t104.5 63.5t124.5 35.5q18 8 40 16t38 26.5 t27.5 50.5t11.5 87q0 53 -19.5 89t-55.5 57.5t-85 30.5t-108 9q-119 0 -185.5 -42t-66.5 -146h-238zM317 0v225h240v-225h-240z" />
<glyph unicode="@" horiz-adv-x="1447" d="M92 467q0 199 37 333t113.5 216t194.5 116.5t280 34.5q180 0 302 -34.5t195.5 -113.5t104.5 -208t31 -319q0 -113 -13.5 -188t-43 -120t-74.5 -63.5t-109 -18.5q-57 0 -93 12.5t-57.5 35t-29.5 52t-10 64.5q-23 -106 -78.5 -145t-153.5 -39q-150 0 -223.5 87t-73.5 302 q0 213 74 301t223 88q74 0 124 -22.5t79 -81.5l35 84h121v-531q0 -23 16 -41t47 -18q47 0 64.5 53t17.5 170q0 158 -20.5 264.5t-74 171t-143.5 92t-231 27.5q-125 0 -214 -27.5t-146.5 -94t-85 -174t-27.5 -267.5q0 -164 28.5 -269.5t90 -169t159 -88t232.5 -24.5 q55 0 114.5 4t108.5 14.5t81 26.5t32 41h174q0 -63 -46 -106.5t-122 -70t-171 -37.5t-194 -11q-170 0 -291.5 33.5t-200.5 113.5t-116 213t-37 332zM557 471q0 -137 36 -189.5t124 -52.5t126 51.5t38 184.5v27q-2 123 -40 172t-124 49q-88 0 -124 -52.5t-36 -189.5z" />
<glyph unicode="A" horiz-adv-x="1349" d="M20 0q135 340 272.5 676t274.5 676h219q135 -340 270.5 -676t272.5 -676h-246l-102 262h-612l-103 -262h-246zM446 467h455q-45 109 -88 225.5t-75.5 212.5t-49 156.5t-8.5 56.5h-8l-5 -26q-5 -25 -16.5 -71t-30 -107.5t-47.5 -131.5z" />
<glyph unicode="B" horiz-adv-x="1273" d="M162 0v1352h545q111 0 192.5 -18.5t136 -61.5t80 -112.5t25.5 -170.5q0 -141 -62.5 -214t-193.5 -95q154 -23 225.5 -95.5t71.5 -219.5q0 -102 -29 -172t-87 -113t-147.5 -61.5t-211.5 -18.5h-545zM401 205h293q74 0 122 10t76 31.5t39 56.5t11 82q0 100 -53 146.5 t-195 46.5h-293v-373zM401 782h293q111 0 159 42t48 157q0 43 -9 74.5t-31.5 51t-63.5 30t-103 10.5h-293v-365z" />
<glyph unicode="C" horiz-adv-x="1239" d="M86 678q0 207 35 341t106.5 213t181 109.5t261.5 30.5q111 0 208 -16.5t167.5 -60.5t111.5 -120.5t41 -195.5h-240q0 63 -23.5 100t-63.5 56.5t-91 25.5t-106 6q-94 0 -161 -17t-107.5 -69.5t-60 -148.5t-19.5 -254t18 -254t60 -149.5t106.5 -72t157.5 -18.5 q49 0 100 5.5t94 24.5t69.5 57t26.5 102h240q0 -121 -43 -198t-116.5 -120t-171 -59t-203.5 -16q-147 0 -257 31.5t-180.5 110.5t-105.5 214t-35 342z" />
<glyph unicode="D" horiz-adv-x="1349" d="M162 0v1352h407q180 0 312.5 -34t216.5 -113t125 -209t41 -320t-41 -320.5t-125 -209t-216 -112.5t-313 -34h-407zM401 205h168q119 0 205 23.5t141.5 78.5t82 145.5t26.5 223.5t-26.5 223t-82 145.5t-141.5 79t-205 23.5h-168v-942z" />
<glyph unicode="E" horiz-adv-x="1165" d="M162 0v1352h901v-205h-662v-365h580v-204h-580v-373h662v-205h-901z" />
<glyph unicode="F" horiz-adv-x="1130" d="M162 0v1352h901v-205h-662v-367h580v-202h-580v-578h-239z" />
<glyph unicode="G" horiz-adv-x="1349" d="M86 682q0 203 35 336t106.5 212t182 110.5t262.5 31.5q111 0 207 -16.5t166.5 -60.5t111.5 -120.5t41 -195.5h-237q0 59 -21.5 96t-59.5 57.5t-90.5 27.5t-113.5 7q-100 0 -167 -20.5t-108 -75.5t-58 -151.5t-17 -249.5q0 -129 13 -221.5t47 -150.5t92.5 -86t148.5 -28 q147 0 245.5 78t114.5 250h-293v186h535v-698h-203l-18 127l-7.5 37.5t-7.5 36.5q-57 -121 -157.5 -171t-239.5 -50q-152 0 -250 52t-156.5 145t-81 222t-22.5 283z" />
<glyph unicode="H" horiz-adv-x="1415" d="M162 0v1352h239v-570h613v570h239v-1352h-239v578h-613v-578h-239z" />
<glyph unicode="I" horiz-adv-x="563" d="M162 0v1352h239v-1352h-239z" />
<glyph unicode="J" horiz-adv-x="999" d="M4 373h232q0 -102 48 -149.5t154 -47.5q90 0 142.5 41t52.5 156v979h239v-979q0 -188 -102 -290.5t-334 -102.5q-219 0 -325.5 94t-106.5 299z" />
<glyph unicode="K" horiz-adv-x="1257" d="M162 0v1352h239v-570h195l369 570h256l-430 -668l440 -684h-256l-373 578h-201v-578h-239z" />
<glyph unicode="L" horiz-adv-x="1085" d="M162 0v1352h239v-1147h629v-205h-868z" />
<glyph unicode="M" horiz-adv-x="1777" d="M162 0v1352h323q33 -90 76 -211t89 -248t90 -251t78 -222t52 -160q15 -51 16 -60q0 -2 -1 -3h6q2 0 13 53t46 153q84 238 169 473.5t171 475.5h324v-1352h-240v795q0 111 6 166q2 33 6 55h-6q-8 -23 -17 -55.5t-26 -73.5l-53 -144l-262 -743h-268q-68 186 -132.5 371.5 t-129.5 371.5l-68 189q-31 84 -29 84h-6l6 -55q2 -29 4 -71t2 -95v-795h-239z" />
<glyph unicode="N" horiz-adv-x="1415" d="M162 0v1352h289l434 -787q63 -123 101 -199.5t40 -82.5h8q-6 37 -10 75q-4 35 -7 76t-3 84v834h239v-1352h-290l-435 784q-68 121 -102.5 199t-38.5 82h-8q4 -37 10 -76q4 -35 8 -76t4 -84v-829h-239z" />
<glyph unicode="O" horiz-adv-x="1398" d="M86 676q0 197 36 331t111.5 215t190.5 115.5t274 34.5q160 0 276 -34.5t190.5 -115.5t110.5 -215.5t36 -330.5q0 -197 -36 -331t-110.5 -215t-190.5 -115.5t-276 -34.5t-274.5 34.5t-190 115.5t-111.5 215t-36 331zM326 676q0 -139 21.5 -233.5t67.5 -152t116.5 -82 t166.5 -24.5q98 0 168 24.5t116 82t67.5 152t21.5 233.5q0 137 -21.5 231t-67.5 152.5t-115.5 83t-168.5 24.5q-96 0 -166.5 -24.5t-116.5 -83t-67.5 -152.5t-21.5 -231z" />
<glyph unicode="P" horiz-adv-x="1243" d="M162 0v1352h545q123 0 212 -22.5t147 -75t87 -138.5t29 -211q0 -131 -29 -220t-87 -144.5t-147.5 -79t-211.5 -23.5h-306v-438h-239zM401 643h293q133 0 190.5 57.5t57.5 204.5q0 135 -57.5 188.5t-190.5 53.5h-293v-504z" />
<glyph unicode="Q" horiz-adv-x="1398" d="M86 676q0 197 36 331t111.5 215t190.5 115.5t274 34.5q160 0 276 -34.5t190.5 -115.5t110.5 -215.5t36 -330.5q0 -158 -22.5 -273.5t-70 -196.5t-119 -130t-169.5 -72l215 -332h-258l-199 308q-158 2 -271.5 36.5t-187 116.5t-108.5 214t-35 329zM326 676 q0 -139 21.5 -233.5t67.5 -152t116.5 -82t166.5 -24.5q98 0 168 24.5t116 82t67.5 152t21.5 233.5q0 137 -21.5 231t-67.5 152.5t-115.5 83t-168.5 24.5q-96 0 -166.5 -24.5t-116.5 -83t-67.5 -152.5t-21.5 -231z" />
<glyph unicode="R" horiz-adv-x="1294" d="M162 0v1352h545q123 0 212 -23.5t147 -76t87 -137.5t29 -210q0 -193 -60.5 -295t-189.5 -143q78 -117 151.5 -233.5t151.5 -233.5h-274l-283 438h-277v-438h-239zM401 643h293q133 0 190.5 57.5t57.5 204.5q0 135 -57.5 188.5t-190.5 53.5h-293v-504z" />
<glyph unicode="S" horiz-adv-x="1236" d="M61 373h238q0 -51 13.5 -87t48 -58.5t95 -33t152.5 -10.5q164 0 233.5 38t69.5 140q0 68 -26.5 106t-69.5 56.5t-97 25.5t-112 15q-113 16 -208 39t-164.5 68t-108.5 119.5t-39 197.5q0 90 24.5 161t85 120t163 75.5t255.5 26.5q133 0 229.5 -21.5t159 -67.5t92 -122 t29.5 -182h-237q0 51 -12.5 88t-43 58.5t-85 31.5t-138.5 10q-78 0 -132 -9t-88 -30.5t-48 -55.5t-14 -85q0 -68 23.5 -103.5t61.5 -55t89 -26.5t106 -16q111 -16 210 -35.5t174 -62.5t118 -118.5t43 -200.5q0 -102 -30.5 -176t-97.5 -121t-171 -69.5t-250 -22.5 q-150 0 -252 23.5t-166.5 71.5t-93.5 121.5t-29 176.5z" />
<glyph unicode="T" horiz-adv-x="1116" d="M23 1147v205h1071v-205h-416v-1147h-240v1147h-415z" />
<glyph unicode="U" horiz-adv-x="1357" d="M127 676v676h240v-676q0 -139 18 -233.5t56 -152t97.5 -82t139.5 -24.5q82 0 140.5 24.5t96 82t56 152t18.5 233.5v676h240v-676q0 -197 -32 -331t-99.5 -215t-172 -115.5t-247.5 -34.5t-246.5 34.5t-171 115.5t-100.5 215t-33 331z" />
<glyph unicode="V" horiz-adv-x="1353" d="M23 1352h245l307 -785q29 -72 47.5 -132t30.5 -105q14 -53 23 -97h8q8 41 21 95q10 45 28.5 106.5t46.5 132.5l305 785h246l-543 -1352h-219z" />
<glyph unicode="W" horiz-adv-x="1765" d="M35 1352h241l207 -801q14 -66 23.5 -127.5t15.5 -108.5q8 -55 10 -102h9q2 47 10 102q6 47 15 107.5t22 126.5l145 598h299l146 -598q14 -66 22 -125t14 -107q6 -55 11 -104h8q0 49 8 104q10 98 41 234l207 801h242l-361 -1352h-287l-151 631q-14 66 -22.5 125t-12.5 106 q-6 53 -10 101h-8q-2 -47 -11 -101q-6 -47 -15 -107.5t-22 -125.5l-149 -629h-287z" />
<glyph unicode="X" horiz-adv-x="1230" d="M20 0l441 684l-422 668h274q59 -92 114.5 -185.5t115.5 -185.5q25 -53 40 -94t31 -76q16 35 33 76t41 94l232 371h272l-426 -668l440 -684h-282q-59 92 -119 186.5t-119 186.5q-25 53 -41 94t-31 76q-4 0 -13 -20.5t-19.5 -48.5t-21.5 -56.5t-19 -44.5l-240 -373h-281z " />
<glyph unicode="Y" horiz-adv-x="1193" d="M20 1352h265q51 -100 101 -198.5t103 -197.5q33 -61 52.5 -111t30 -86t14.5 -55.5t4 -17.5h8q0 -2 4 17.5t14.5 56.5t30 87t51.5 107l209 398h262q-115 -217 -227.5 -433.5t-228.5 -433.5v-485h-240v485z" />
<glyph unicode="Z" horiz-adv-x="1112" d="M57 0v205l701 942h-701v205h1000v-205l-701 -942h701v-205h-1000z" />
<glyph unicode="[" horiz-adv-x="692" d="M162 -492v1926h459v-205h-220v-1516h220v-205h-459z" />
<glyph unicode="\" horiz-adv-x="823" d="M66 1434h192l543 -1680h-193z" />
<glyph unicode="]" horiz-adv-x="692" d="M70 -287h219v1516h-219v205h458v-1926h-458v205z" />
<glyph unicode="^" horiz-adv-x="923" d="M66 954l309 480h174l309 -480h-225l-101 170l-71 203l-72 -203l-100 -170h-223z" />
<glyph unicode="_" horiz-adv-x="1202" d="M104 -219h994v-172h-994v172z" />
<glyph unicode="`" horiz-adv-x="620" d="M102 1362h273l143 -285h-184z" />
<glyph unicode="a" horiz-adv-x="1030" d="M61 264q0 100 38 155.5t95.5 82t127 34t133.5 13.5q55 4 110.5 9t110.5 11v82q0 66 -37 94.5t-131 28.5q-72 0 -117 -29.5t-45 -93.5h-237q0 166 95 239t304 73q115 0 192.5 -21.5t125.5 -61.5t68.5 -97.5t20.5 -131.5v-387q0 -41 21.5 -62.5t54.5 -21.5v-188 q-78 0 -131 11t-86 29.5t-50 45t-24 57.5q-33 -92 -100.5 -123.5t-179.5 -31.5q-68 0 -132.5 11t-114.5 41.5t-81 86t-31 145.5zM301 272q0 -55 29.5 -75.5t109.5 -20.5q119 0 170.5 53.5t61.5 169.5l-223 -22q-78 -8 -113 -25.5t-35 -79.5z" />
<glyph unicode="b" horiz-adv-x="1116" d="M133 0v1405q59 6 119.5 13t120.5 16v-451q0 -47 -4 -91t-9 -89h7q35 90 98 125t166 35q104 0 182 -27t128 -85t75.5 -152.5t25.5 -227.5q0 -135 -25.5 -228t-75.5 -151.5t-128 -85t-182 -26.5t-170 35.5t-99 134.5l-20 -58q-6 -25 -11 -47t-12 -45h-186zM373 465 q0 -164 52 -230.5t167 -66.5q59 0 99 13.5t64.5 48t36 93t11.5 148.5t-11.5 148.5t-36 93.5t-65.5 48t-98 13q-113 0 -164 -62.5t-55 -213.5v-33z" />
<glyph unicode="c" horiz-adv-x="960" d="M74 471q0 135 22.5 229.5t73.5 152.5t131 84t195 26q94 0 171.5 -17.5t133 -54.5t85 -96.5t29.5 -143.5h-237q0 66 -41 94.5t-125 28.5q-63 0 -102 -15.5t-60.5 -51t-29 -93t-7.5 -143.5t7.5 -143.5t29 -93t61.5 -51t103 -15.5q80 0 122 25.5t42 97.5h237 q0 -86 -29.5 -145.5t-85 -96.5t-132 -53t-170.5 -16q-115 0 -196 25.5t-132 83.5t-73.5 151.5t-22.5 230.5z" />
<glyph unicode="d" horiz-adv-x="1116" d="M72 471q0 133 25.5 227.5t75.5 152.5t128 85t182 27q102 0 166 -35t99 -125h6q-4 45 -8.5 89t-4.5 91v422q59 6 120 13t120 16v-1434h-186q-10 35 -19.5 72t-21.5 78q-35 -98 -101 -134t-170 -36t-182 26.5t-128 85t-75.5 151.5t-25.5 228zM311 471q0 -90 11.5 -148.5 t37 -93t65.5 -48t99 -13.5q115 0 166 66.5t51 230.5v6q0 166 -50 234.5t-167 68.5q-59 0 -99 -13t-65.5 -48t-37 -93.5t-11.5 -148.5z" />
<glyph unicode="e" horiz-adv-x="1005" d="M72 467q0 141 27.5 236.5t83 152.5t139.5 82t198 25q104 0 182 -20.5t128.5 -67t75 -122t24.5 -188.5q0 -29 -4 -77t-21 -91h-592q2 -61 13.5 -105t36 -71.5t64.5 -40t101 -12.5q72 0 111 23.5t39 99.5h237q0 -86 -29.5 -145.5t-82.5 -96.5t-128 -53t-167 -16 q-115 0 -197 25.5t-135 82.5t-78.5 150.5t-25.5 228.5zM315 569h375v37q0 43 -6 75t-24.5 52.5t-52.5 30.5t-89 10q-111 0 -153.5 -46t-49.5 -159z" />
<glyph unicode="f" horiz-adv-x="636" d="M27 754v188h125v123q0 209 127 292q118 77 363 77h36v-189h-33q-64 0 -109 -6q-55 -8 -86.5 -29.5t-45 -57.5t-13.5 -87v-123h248v-188h-248v-754h-239v754h-125z" />
<glyph unicode="g" horiz-adv-x="1075" d="M45 -250q0 84 46 144.5t112 113.5q-29 25 -44.5 58.5t-15.5 76.5q0 51 20.5 82t55.5 60q-72 41 -108.5 115.5t-36.5 193.5q0 104 29.5 175t86 114t135 61.5t177.5 18.5q129 0 222 -33t146 -111q35 66 85.5 94.5t119.5 28.5v-205q-98 0 -153 -67q4 -16 6 -34.5t2 -41.5 q0 -104 -31 -175t-86 -114t-134 -61.5t-177 -18.5q-57 0 -101 6q-12 -16 -16 -33.5t-4 -35.5q0 -31 24.5 -44.5t96.5 -23.5q61 -10 143 -21.5t157 -42t126 -89t51 -158.5q0 -133 -110.5 -209t-362.5 -76q-236 0 -348.5 65.5t-112.5 186.5zM279 -195q0 -61 52 -89.5 t171 -28.5q100 0 168.5 23.5t68.5 90.5q0 35 -21.5 54.5t-55 29t-75.5 13.5t-85 10q-41 4 -80 11t-74 20q-23 -31 -46 -58.5t-23 -75.5zM313 594q0 -102 40 -141t149 -39q106 0 147 39t41 141t-41 141t-147 39q-109 0 -149 -39t-40 -141z" />
<glyph unicode="h" horiz-adv-x="1126" d="M133 0v1405q59 6 119.5 13t120.5 16v-451q0 -47 -4 -91t-9 -89h7q35 92 100 126t172 34q182 0 272 -93.5t90 -316.5v-553h-239v553q0 66 -9.5 109t-30 67.5t-52 34.5t-74.5 10q-117 0 -170 -67.5t-53 -231.5v-475h-240z" />
<glyph unicode="i" horiz-adv-x="450" d="M106 0v942h240v-942h-240zM106 1143v209h240v-209h-240z" />
<glyph unicode="j" horiz-adv-x="544" d="M45 -297q47 0 78 23.5t31 83.5v1132h239v-1116q0 -61 -16.5 -118.5t-56 -101.5t-107.5 -71t-168 -27v195zM154 1143v209h239v-209h-239z" />
<glyph unicode="k" horiz-adv-x="1021" d="M135 0v1405l240 29v-865h117l241 373h256l-299 -463l309 -479h-256l-241 373h-127v-373h-240z" />
<glyph unicode="l" horiz-adv-x="516" d="M117 317v1088l239 29v-1117q0 -70 31 -96t78 -26v-195q-102 0 -169 26.5t-106.5 70.5t-56 101.5t-16.5 118.5z" />
<glyph unicode="m" horiz-adv-x="1626" d="M135 0v942h203l35 -147q29 100 84 134t151 34q115 0 187.5 -42t107.5 -135q29 102 93.5 139.5t168.5 37.5q172 0 254 -90.5t82 -303.5v-569h-239v569q0 121 -30 163t-108 42q-98 0 -140 -59.5t-46 -214.5v-500h-240v569q0 121 -29.5 163t-107.5 42q-98 0 -140 -59.5 t-46 -214.5v-500h-240z" />
<glyph unicode="n" horiz-adv-x="1128" d="M133 0v942h186l25 -92q10 -29 21 -53q33 96 101.5 131t180.5 35q102 0 171 -24t110 -73t57 -126.5t16 -186.5v-553h-239v553q0 66 -7 109t-24.5 67.5t-48.5 34.5t-78 10q-121 0 -174 -63.5t-57 -216.5v-494h-240z" />
<glyph unicode="o" horiz-adv-x="1042" d="M74 471q0 139 26.5 233.5t81 151.5t139.5 82t201 25q117 0 201 -25t139.5 -82t82 -151.5t26.5 -233.5t-26.5 -233.5t-82 -151.5t-139.5 -81.5t-201 -24.5t-201.5 24.5t-139 81.5t-81 151.5t-26.5 233.5zM313 471q0 -170 47 -236.5t162 -66.5q113 0 161 66.5t48 236.5 t-48 236.5t-161 66.5q-115 0 -162 -66.5t-47 -236.5z" />
<glyph unicode="p" horiz-adv-x="1116" d="M133 -492v1434h186l23 -94l20 -60q33 98 100.5 136.5t178.5 38.5q201 0 301 -113t100 -379q0 -133 -24.5 -227t-74.5 -152.5t-126 -85t-176 -26.5q-106 0 -173 32.5t-101 126.5h-7q4 -47 8.5 -91t4.5 -89v-451h-240zM373 471q0 -84 12 -142.5t40 -94t71 -51t102 -15.5 q55 0 94 14.5t63.5 48t36 92t11.5 148.5q0 88 -11.5 146.5t-36 93t-63.5 49t-94 14.5q-117 0 -169 -61.5t-56 -214.5v-27z" />
<glyph unicode="q" horiz-adv-x="1116" d="M72 471q0 266 100 379t303 113q111 0 177.5 -38t99.5 -137q12 35 22 74t21 80h186v-1434h-240v451q0 45 4.5 89t8.5 91h-6q-35 -94 -101 -126.5t-172 -32.5q-102 0 -177 26.5t-126 85t-75.5 152.5t-24.5 227zM311 471q0 -90 11.5 -148.5t36 -92t63.5 -48t94 -14.5 q115 0 168 60.5t57 211.5v54q0 156 -55 218t-170 62q-55 0 -94 -14.5t-63.5 -49t-36 -93t-11.5 -146.5z" />
<glyph unicode="r" horiz-adv-x="655" d="M111 0v942h202q4 -29 9.5 -53.5t11.5 -48.5l16 -70q33 109 99.5 148.5t177.5 39.5v-188q-141 0 -207 -65.5t-70 -219.5v-485h-239z" />
<glyph unicode="s" horiz-adv-x="950" d="M55 291h232q0 -74 46 -98.5t138 -24.5q94 0 134 20.5t40 75.5q0 33 -13.5 52.5t-38 30.5t-56 16.5t-68.5 9.5q-82 10 -154.5 28.5t-128 52t-88 89t-32.5 139.5q0 133 92 207t315 74q213 0 306 -73t93 -239h-237q0 72 -39 97.5t-127 25.5t-127 -20.5t-39 -77.5 q0 -31 12.5 -50.5t34 -29.5t52 -16.5t67.5 -10.5q90 -12 166 -31.5t131 -53t86 -87t31 -135.5q0 -68 -22.5 -120t-72 -89t-128 -55t-193.5 -18q-219 0 -315.5 72.5t-96.5 238.5z" />
<glyph unicode="t" horiz-adv-x="681" d="M20 754v188h125v193q59 12 120 25.5t120 27.5v-246h264v-188h-264v-385q0 -102 50 -141.5t171 -39.5v-188q-109 0 -194.5 18.5t-145 61.5t-90.5 113.5t-31 175.5v385h-125z" />
<glyph unicode="u" horiz-adv-x="1120" d="M117 471v471h239v-471q0 -92 7.5 -151.5t26 -93t51 -46t81.5 -12.5q111 0 165 61.5t58 212.5v500h240v-942h-186q-8 23 -13.5 44.5t-13.5 43.5l-18 55q-35 -96 -102.5 -129.5t-178.5 -33.5q-104 0 -173 27.5t-109.5 87t-57 152.5t-16.5 224z" />
<glyph unicode="v" horiz-adv-x="993" d="M8 942h246l172 -465q20 -57 32.5 -109.5t20.5 -93.5q8 -49 13 -90h8q6 41 14 90q8 41 21.5 93.5t33.5 107.5l168 467h248l-377 -942h-219z" />
<glyph unicode="w" horiz-adv-x="1490" d="M20 942h242l113 -416q18 -72 29.5 -135t17.5 -110q8 -55 12 -105h8q4 49 13 105q6 47 16 111.5t27 135.5l94 414h299l92 -414q16 -72 27.5 -136t17.5 -111q8 -55 12 -105h9q0 49 8 105q6 47 17 110.5t34 134.5l119 416h241l-284 -942h-287l-109 459q-14 59 -22 113.5 t-12 95.5q-6 49 -9 90h-8q-2 -41 -8 -90q-4 -41 -13 -96.5t-24 -114.5l-106 -457h-287z" />
<glyph unicode="x" horiz-adv-x="972" d="M18 0l310 475l-289 467h274l93 -154q29 -53 45 -86.5t26 -56.5q8 -25 12 -41h9q2 14 12 39q10 23 26.5 56.5t47.5 86.5l96 156h258l-295 -461l311 -481h-264l-123 195q-29 45 -44 76.5t-23 52.5q-8 23 -13 36h-8q-4 -16 -14 -38q-10 -20 -25.5 -52t-44.5 -77l-119 -193 h-258z" />
<glyph unicode="y" horiz-adv-x="980" d="M8 942h250q37 -113 74 -224.5t76 -223.5q43 -150 59 -232t16 -84h6q4 33 13 78q8 37 20.5 90t34.5 119l10 27q39 113 78 224t78 226h250q-98 -258 -193.5 -512t-193.5 -510q-82 -215 -192.5 -313.5t-246.5 -98.5v205q33 0 66 20.5t62.5 55.5t53 80t42.5 94 q-92 246 -182.5 488.5t-180.5 490.5z" />
<glyph unicode="z" horiz-adv-x="925" d="M55 0v188l506 566h-506v188h815v-188l-505 -566h505v-188h-815z" />
<glyph unicode="{" horiz-adv-x="735" d="M53 592v84l205 84q35 16 41 36.5t10 45.5q8 55 10.5 122.5t10.5 135t25.5 132t56.5 114t102.5 79t163.5 29.5v-197q-43 0 -68.5 -34.5t-39 -94t-19.5 -139.5t-10 -168q0 -23 -6.5 -46t-22.5 -44.5t-44 -38t-71 -22.5l-149 -35v-2l149 -35q53 -8 82 -27.5t42.5 -42 t16.5 -45t3 -37.5q4 -88 10 -166.5t19.5 -139t39 -95.5t68.5 -35v-196q-100 0 -166 37.5t-105.5 97t-59 131.5t-27 139.5t-8.5 123.5t-3 83q-4 27 -12 48.5t-39 33.5z" />
<glyph unicode="|" horiz-adv-x="583" d="M207 -246v1680h170v-1680h-170z" />
<glyph unicode="}" horiz-adv-x="735" d="M57 10q43 0 69 35t39 95.5t19 139t11 166.5q0 14 3 37t16 45.5t42 42t82 27.5l149 35v2l-149 35q-43 6 -70.5 22.5t-44 38t-22.5 45t-6 45.5q-4 88 -10.5 168t-19.5 139.5t-39 94t-69 34.5v197q100 0 164 -29.5t102.5 -79t56 -114t26 -132t10.5 -135t10 -122.5 q4 -25 10 -45.5t41 -36.5l205 -84v-84l-205 -84q-31 -12 -39 -33.5t-12 -48.5q-2 -27 -3 -83t-8 -123.5t-26.5 -139.5t-59.5 -131.5t-105.5 -97t-166.5 -37.5v196z" />
<glyph unicode="~" horiz-adv-x="1228" d="M113 526q0 178 86 251t231 73q70 0 115 -13.5t72.5 -32t43 -40t23.5 -39.5q12 -23 39 -41t84 -18q55 0 87 31.5t32 133.5h188q0 -90 -21.5 -151.5t-63.5 -100t-100.5 -55t-131.5 -16.5q-66 0 -109 11t-71.5 29.5t-46 41t-29.5 43.5q-14 23 -39 41t-84 18q-27 0 -48.5 -6 t-37 -23.5t-23.5 -50t-8 -86.5h-188z" />
<glyph unicode="&#xa1;" horiz-adv-x="460" d="M94 -492l37 943h203l37 -943h-277zM113 635v225h239v-225h-239z" />
<glyph unicode="&#xa2;" horiz-adv-x="960" d="M74 799q0 98 18.5 167.5t59.5 115.5t106.5 71t157.5 31v168h153v-168q158 -10 252 -84t94 -223h-221q0 59 -32.5 87.5t-92.5 39.5v-410q59 8 92 36.5t33 90.5h221q0 -154 -94 -225.5t-252 -83.5v-166h-153v166q-92 6 -157.5 30.5t-106.5 70.5t-59.5 116.5t-18.5 169.5z M297 799q0 -94 22.5 -140.5t96.5 -62.5v403q-74 -14 -96.5 -60t-22.5 -140z" />
<glyph unicode="&#xa3;" horiz-adv-x="1085" d="M47 0v209h59q43 0 78 20.5t57.5 54t35 75.5t12.5 85q0 14 -1 27.5t-3 28.5h-203v147h139q-25 31 -49.5 61.5t-43.5 66.5t-32.5 77t-13.5 94q0 82 30.5 143.5t85 101.5t128 59.5t161.5 19.5q80 0 154 -17.5t130 -56.5t90 -101.5t34 -152.5h-238q0 78 -54 108.5t-126 30.5 q-84 0 -122 -36.5t-38 -108.5q0 -45 14.5 -83t37 -71.5t49 -66.5t51.5 -68h258v-147h-205q0 -111 -40 -193t-105 -102h307q68 0 90.5 26.5t22.5 79.5h237q0 -166 -84 -238.5t-266 -72.5h-637z" />
<glyph unicode="&#xa5;" horiz-adv-x="1193" d="M20 1352h265l219 -418q29 -59 46 -104.5t28 -77.5q10 -37 14 -66h8q4 31 14 68q10 33 26.5 76.5t45.5 101.5l223 420h262l-337 -639h186v-148h-264l-41 -80v-100h305v-147h-305v-238h-240v238h-305v147h305v100l-43 80h-262v148h186z" />
<glyph unicode="&#xa7;" horiz-adv-x="950" d="M55 297h232q0 -76 45 -99.5t137 -23.5q96 0 136 20.5t40 75.5q0 33 -13.5 52.5t-38 31t-56 16.5t-68.5 9q-76 10 -148.5 27.5t-129 50t-91 86t-34.5 135.5q0 66 26.5 114t87.5 76q-53 35 -83.5 87.5t-30.5 134.5q0 133 92 206.5t315 73.5q213 0 306 -72.5t93 -238.5h-237 q0 72 -39 97.5t-127 25.5t-127 -20.5t-39 -78.5q0 -31 12.5 -50t34 -29.5t52 -16.5t67.5 -10q90 -12 166 -31.5t131 -53.5t86 -85t31 -127q0 -68 -27 -116t-88 -77q53 -35 84 -86t31 -131q0 -68 -22.5 -121t-72 -89.5t-128 -55t-193.5 -18.5q-219 0 -315.5 72.5t-96.5 238.5 zM303 680q0 -59 44 -76.5t122 -28.5q94 0 135 21t41 78q0 33 -13.5 51t-38 29.5t-56 16.5t-68.5 9q-88 0 -127 -21.5t-39 -78.5z" />
<glyph unicode="&#xa8;" horiz-adv-x="817" d="M113 1094v225h206v-225h-206zM498 1094v225h207v-225h-207z" />
<glyph unicode="&#xa9;" horiz-adv-x="1527" d="M98 676q0 197 39 331t120 215t207 115.5t300 34.5t299 -34.5t207 -115.5t121 -215.5t39 -330.5q0 -197 -39 -331t-121 -215t-207 -115.5t-299 -34.5t-300 34.5t-207 115.5t-120 215t-39 331zM190 676q0 -174 34 -292t103.5 -189.5t178 -102.5t258.5 -31t258 31t178 102.5 t103.5 189.5t33.5 292t-33.5 291.5t-103.5 189.5t-178.5 102.5t-257.5 30.5q-150 0 -258.5 -30.5t-178 -102.5t-103.5 -189.5t-34 -291.5zM377 676q0 119 21.5 202t67.5 133t121 72.5t181 22.5q176 0 280.5 -67.5t104.5 -227.5h-221q0 66 -37 94.5t-113 28.5 q-57 0 -93 -13.5t-55.5 -43t-26.5 -78.5t-7 -123t7 -123t27.5 -79t56.5 -43t93 -13q72 0 110 25.5t38 97.5h221q0 -80 -27.5 -136.5t-78 -92.5t-121 -51t-156.5 -15q-109 0 -183.5 21.5t-120.5 72.5t-67.5 133t-21.5 203z" />
<glyph unicode="&#xaa;" horiz-adv-x="937" d="M244 807q0 49 18.5 77.5t48 43t64.5 18.5t67 6l107 9v40q0 33 -18.5 45.5t-61.5 12.5q-47 0 -62.5 -13.5t-15.5 -46.5h-123q0 86 48.5 122t152.5 36q117 0 161 -41t44 -115v-190q0 -41 39 -41v-100q-78 0 -111 20.5t-41 48.5q-16 -43 -50 -58t-87 -15q-35 0 -66.5 5 t-57.5 20.5t-41 43t-15 72.5zM369 813q0 -27 13 -36t52 -9q55 0 82 22.5t31 81.5q-78 -4 -128 -12t-50 -47z" />
<glyph unicode="&#xab;" horiz-adv-x="829" d="M88 483l260 357h201l-219 -291q-12 -16 -24.5 -30.5t-26.5 -31.5v-8q14 -16 26 -29.5t25 -29.5l235 -318h-200zM399 483l191 254h168l-150 -190q-12 -16 -24.5 -29.5t-26.5 -30.5v-8q14 -16 26.5 -29.5t24.5 -29.5l166 -215h-168z" />
<glyph unicode="&#xad;" horiz-adv-x="909" d="M131 373v205h645v-205h-645z" />
<glyph unicode="&#xae;" horiz-adv-x="1527" d="M98 676q0 197 39 331t120 215t207 115.5t300 34.5t299 -34.5t207 -115.5t121 -215.5t39 -330.5q0 -197 -39 -331t-121 -215t-207 -115.5t-299 -34.5t-300 34.5t-207 115.5t-120 215t-39 331zM190 676q0 -174 34 -292t103.5 -189.5t178 -102.5t258.5 -31t258 31t178 102.5 t103.5 189.5t33.5 292t-33.5 291.5t-103.5 189.5t-178.5 102.5t-257.5 30.5q-150 0 -258.5 -30.5t-178 -102.5t-103.5 -189.5t-34 -291.5zM444 246v860h373q180 0 264 -65.5t84 -223.5q0 -117 -43 -181.5t-129 -90.5l193 -299h-221l-179 278h-118v-278h-224zM668 696h137 q86 0 119.5 26t33.5 93q0 66 -33.5 92.5t-119.5 26.5h-137v-238z" />
<glyph unicode="&#xb0;" horiz-adv-x="665" d="M59 1096q0 150 65.5 208t209.5 58q141 0 206.5 -58.5t65.5 -207.5q0 -76 -16.5 -127t-49 -82t-84.5 -44.5t-122 -13.5q-72 0 -123 13.5t-85 44.5t-50.5 82t-16.5 127zM233 1096q0 -78 24 -106.5t77 -28.5q51 0 74.5 28.5t23.5 106.5q0 76 -23.5 105.5t-74.5 29.5 q-53 0 -77 -30t-24 -105z" />
<glyph unicode="&#xb2;" horiz-adv-x="552" d="M37 676v102l274 283q8 6 20.5 19.5t25 28.5t21.5 34.5t9 38.5q0 76 -115 75q-59 0 -85.5 -19t-26.5 -73h-119q0 111 58.5 154t170.5 43q127 0 183.5 -45t56.5 -123q0 -35 -9 -62.5t-21.5 -47t-25 -32l-18.5 -18.5l-248 -256h324v-102h-475z" />
<glyph unicode="&#xb3;" horiz-adv-x="552" d="M12 862h121q0 -51 34 -72.5t87 -21.5q78 0 104.5 33t26.5 80t-28.5 74.5t-98.5 27.5h-72v100l138 164h-291v105h448v-105l-94 -100q-16 -18 -35 -34t-39 -32q193 -20 193 -200q0 -92 -55.5 -153.5t-194.5 -61.5q-51 0 -95 10t-77 33.5t-52.5 61.5t-19.5 91z" />
<glyph unicode="&#xb4;" horiz-adv-x="620" d="M102 1077l144 285h272l-231 -285h-185z" />
<glyph unicode="&#xb7;" horiz-adv-x="432" d="M113 633v225h206v-225h-206z" />
<glyph unicode="&#xb8;" horiz-adv-x="651" d="M160 -276q31 -14 66.5 -22.5t72.5 -8.5q47 0 74.5 13t27.5 44q0 35 -35.5 56.5t-117.5 25.5l22 199h127l-12 -115q98 -6 148.5 -44t50.5 -116q0 -94 -75 -140t-187 -46q-53 0 -96.5 9t-65.5 24v121z" />
<glyph unicode="&#xb9;" horiz-adv-x="460" d="M53 676v102h115v449l-115 -21v105l238 41v-574h117v-102h-355z" />
<glyph unicode="&#xba;" horiz-adv-x="665" d="M59 1014q0 98 16.5 164.5t50.5 107.5t85 58.5t123 17.5q141 0 206.5 -76t65.5 -272q0 -98 -16.5 -166t-49 -108t-84.5 -57t-122 -17q-72 0 -123 17t-85 57t-50.5 107.5t-16.5 166.5zM233 1014q0 -123 24 -170t77 -47q51 0 74.5 47t23.5 170t-23.5 170t-74.5 47 q-53 0 -77 -47t-24 -170z" />
<glyph unicode="&#xbb;" horiz-adv-x="862" d="M88 205l166 215q12 16 24.5 29.5t26.5 29.5v8q-14 16 -26.5 29.5t-24.5 30.5l-150 190h168l191 -254l-207 -278h-168zM297 102l235 318q12 16 24.5 29.5t27.5 29.5v8q-14 16 -26.5 30.5t-25.5 31.5l-219 291h201l260 -357l-276 -381h-201z" />
<glyph unicode="&#xbf;" horiz-adv-x="1026" d="M25 -123q0 123 38.5 195.5t94 112.5t117 56.5t106.5 30.5q18 6 34.5 15.5t29 29t18.5 53t6 89.5h240q0 -117 -27 -187.5t-72 -113.5t-104.5 -63.5t-124.5 -35.5q-20 -8 -41 -16t-38 -26.5t-27.5 -50.5t-10.5 -87q0 -53 19.5 -89t55.5 -57.5t85 -30.5t108 -9 q117 0 184.5 42t67.5 146h238q0 -106 -35 -181t-99.5 -122t-153.5 -68.5t-195 -21.5q-272 0 -393 102.5t-121 286.5zM469 635v225h240v-225h-240z" />
<glyph unicode="&#xc6;" horiz-adv-x="1716" d="M20 0l547 1352h1047v-205h-559v-365h477v-204h-477v-373h559v-205h-799v262h-446l-103 -262h-246zM449 467h366v651h-141q-8 -43 -23 -96q-12 -45 -30.5 -105.5t-47.5 -132.5z" />
<glyph unicode="&#xe6;" horiz-adv-x="1525" d="M61 262q0 86 28 138.5t72 82t99 41t109 17.5l266 26v84q0 66 -34 94.5t-114 28.5q-88 0 -114.5 -31.5t-26.5 -91.5h-237q0 160 87 236t273 76q137 0 209 -43t98 -134q39 100 114 138.5t191 38.5q186 0 278.5 -90.5t92.5 -307.5q0 -29 -4 -77t-21 -91h-553 q2 -61 12.5 -105t32 -71.5t57.5 -40t89 -12.5q63 0 99 23.5t36 99.5h238q0 -86 -29 -145.5t-79 -96.5t-117.5 -53t-145.5 -16q-121 0 -194.5 43t-108.5 157q-35 -119 -116 -159.5t-220 -40.5q-74 0 -139.5 11t-116.5 41.5t-81 86t-30 143.5zM301 274q0 -55 28.5 -76.5 t100.5 -21.5q51 0 87 10.5t60.5 35t37 67.5t16.5 108l-180 -18q-80 -8 -115 -24.5t-35 -80.5zM877 569h335v25q0 49 -5 83t-21.5 55.5t-47 31.5t-79.5 10q-96 0 -136 -44t-46 -161z" />
<glyph unicode="&#x130;" horiz-adv-x="563" d="M162 0v1352h239v-1352h-239zM179 1504v225h206v-225h-206z" />
<glyph unicode="&#x152;" horiz-adv-x="1845" d="M86 676q0 197 33 331t100.5 215t172 115.5t249.5 34.5q117 0 201 -20h899v-205h-635q41 -63 61.5 -153.5t26.5 -211.5h465v-204h-465q-8 -246 -88 -373h635v-205h-899q-84 -20 -201 -20q-145 0 -249.5 34.5t-172 115.5t-100.5 215t-33 331zM326 676q0 -139 18 -233.5 t57 -152t98.5 -82t141.5 -24.5t141.5 24.5t98.5 82t57 152t18 233.5q0 137 -18 231t-57 152.5t-98.5 83t-141.5 24.5t-141.5 -24.5t-98.5 -83t-57 -152.5t-18 -231z" />
<glyph unicode="&#x153;" horiz-adv-x="1501" d="M72 471q0 137 23.5 231.5t72.5 151.5t124 83t177 26q111 0 184.5 -33t116.5 -113q43 80 115.5 113t181.5 33q180 0 269 -89.5t89 -308.5q0 -29 -4 -77t-20 -91h-512q2 -61 11 -105t28.5 -71.5t51.5 -40t79 -12.5q55 0 85 22.5t30 100.5h237q0 -86 -26.5 -145.5 t-73.5 -96.5t-112.5 -53t-143.5 -16q-104 0 -175 31.5t-112 109.5q-41 -80 -114.5 -110.5t-184.5 -30.5q-102 0 -177 24.5t-124 82.5t-72.5 151.5t-23.5 232.5zM311 471q0 -172 38 -237.5t130 -65.5q47 0 79 15.5t52.5 50t28.5 93t8 144.5t-8 143.5t-28.5 93t-52.5 51 t-79 15.5q-92 0 -130 -66.5t-38 -236.5zM891 569h295v31q0 92 -23.5 133t-109.5 41t-121 -45t-41 -160z" />
<glyph unicode="&#x192;" horiz-adv-x="636" d="M27 754v188h125v123q0 209 127 292t399 77v-189q-86 2 -141.5 -6t-87 -29.5t-45 -57.5t-13.5 -87v-123h248v-188h-248v-928q0 -61 -16.5 -118.5t-56 -101.5t-106.5 -71t-169 -27v195q47 0 78 23.5t31 83.5v944h-125z" />
<glyph unicode="&#x2c6;" horiz-adv-x="890" d="M127 1090l250 286h137l248 -286h-201l-67 69q-16 14 -24.5 26.5t-12.5 22.5q-6 10 -8 19h-7q-2 -8 -8 -19q-10 -20 -39 -49l-65 -69h-203z" />
<glyph unicode="&#x2da;" horiz-adv-x="581" d="M102 1255q0 72 51.5 125.5t137.5 53.5t137 -53.5t51 -125.5q0 -78 -48 -131t-140 -53t-140.5 53.5t-48.5 130.5zM207 1253q0 -33 20.5 -58.5t63.5 -25.5t63.5 26t20.5 58q0 37 -21.5 61.5t-62.5 24.5t-62.5 -24.5t-21.5 -61.5z" />
<glyph unicode="&#x2dc;" horiz-adv-x="815" d="M102 1090q0 43 5.5 86t22.5 76.5t51 55t91 21.5q43 0 72 -12t57 -33q35 -25 58.5 -41t52.5 -16t41 22.5t12 77.5h148q0 -49 -4 -91t-20.5 -75t-50.5 -51t-93 -18q-47 0 -74 13t-61 36q-37 25 -59.5 39t-45.5 14q-63 0 -63 -104h-140z" />
<glyph unicode="&#x400;" horiz-adv-x="1165" d="M162 0v1352h901v-205h-662v-365h580v-204h-580v-373h662v-205h-901zM356 1772h306l143 -285h-201z" />
<glyph unicode="&#x401;" horiz-adv-x="1165" d="M162 0v1352h901v-205h-662v-365h580v-204h-580v-373h662v-205h-901zM295 1504v225h206v-225h-206zM680 1504v225h207v-225h-207z" />
<glyph unicode="&#x402;" horiz-adv-x="1433" d="M29 1147v205h915v-205h-416v-158q0 -80 -5 -159.5t-19 -157.5h4q18 61 48 102t71 64.5t92 33t110 9.5q246 0 355.5 -100.5t109.5 -327.5q0 -125 -30.5 -211t-94 -140.5t-162 -78t-233.5 -23.5h-51v205h35q88 0 145.5 13t91 44t47 79t13.5 116q0 61 -13.5 103t-44 67.5 t-82 37t-127.5 11.5q-78 0 -127 -16.5t-78.5 -47t-42 -73.5t-12.5 -97v-442h-239v1147h-260z" />
<glyph unicode="&#x403;" horiz-adv-x="1091" d="M178 0v1352h856v-205h-616v-1147h-240zM401 1487l144 285h305l-248 -285h-201z" />
<glyph unicode="&#x404;" horiz-adv-x="1239" d="M86 678q0 193 35 325t105.5 213.5t177 118.5t251.5 37q117 0 217.5 -21.5t172 -68.5t112.5 -122t41 -181h-231q0 51 -22.5 87t-61.5 58.5t-93.5 32.5t-115.5 10q-84 0 -146.5 -19.5t-105.5 -64.5t-67.5 -118.5t-32.5 -182.5h489v-204h-489q6 -111 30.5 -187t68.5 -122 t106.5 -65.5t146.5 -19.5q55 0 108.5 10.5t94.5 33t65.5 58.5t24.5 87h231q0 -106 -43 -181t-117.5 -122t-173 -68.5t-209.5 -21.5q-145 0 -251.5 36.5t-177 119.5t-105.5 216t-35 326z" />
<glyph unicode="&#x405;" horiz-adv-x="1236" d="M61 373h238q0 -51 13.5 -87t48 -58.5t95 -33t152.5 -10.5q164 0 233.5 38t69.5 140q0 68 -26.5 106t-69.5 56.5t-97 25.5t-112 15q-113 16 -208 39t-164.5 68t-108.5 119.5t-39 197.5q0 90 24.5 161t85 120t163 75.5t255.5 26.5q133 0 229.5 -21.5t159 -67.5t92 -122 t29.5 -182h-237q0 51 -12.5 88t-43 58.5t-85 31.5t-138.5 10q-78 0 -132 -9t-88 -30.5t-48 -55.5t-14 -85q0 -68 23.5 -103.5t61.5 -55t89 -26.5t106 -16q111 -16 210 -35.5t174 -62.5t118 -118.5t43 -200.5q0 -102 -30.5 -176t-97.5 -121t-171 -69.5t-250 -22.5 q-150 0 -252 23.5t-166.5 71.5t-93.5 121.5t-29 176.5z" />
<glyph unicode="&#x406;" horiz-adv-x="563" d="M162 0v1352h239v-1352h-239z" />
<glyph unicode="&#x407;" horiz-adv-x="563" d="M-12 1504v225h206v-225h-206zM162 0v1352h239v-1352h-239zM373 1504v225h207v-225h-207z" />
<glyph unicode="&#x408;" horiz-adv-x="999" d="M4 373h232q0 -102 48 -149.5t154 -47.5q90 0 142.5 41t52.5 156v979h239v-979q0 -188 -102 -290.5t-334 -102.5q-219 0 -325.5 94t-106.5 299z" />
<glyph unicode="&#x409;" horiz-adv-x="1847" d="M43 0v205q72 0 109.5 22.5t55 66.5t21.5 109.5t11 149.5l49 799h798v-488h224q123 0 212 -22.5t147.5 -74.5t87 -137t28.5 -208q0 -119 -28.5 -200t-87 -130t-147.5 -70.5t-212 -21.5h-463v1147h-336l-33 -594q-8 -152 -23.5 -256t-59.5 -171t-127 -96.5t-226 -29.5z M1087 205h211q135 0 191.5 47t56.5 170q0 133 -57 185t-191 52h-211v-454z" />
<glyph unicode="&#x40a;" horiz-adv-x="1931" d="M162 0v1352h239v-570h531v570h239v-488h224q123 0 212 -22.5t147 -74.5t87 -137t29 -208q0 -119 -29 -200t-87 -130t-147 -70.5t-212 -21.5h-463v578h-531v-578h-239zM1171 205h211q135 0 191.5 47t56.5 170q0 133 -57 185t-191 52h-211v-454z" />
<glyph unicode="&#x40b;" horiz-adv-x="1433" d="M29 1147v205h915v-205h-416v-148q0 -84 -4 -164.5t-20 -162.5l2 -2q18 66 48 106.5t71 64t92 32t112 8.5q233 0 349 -104.5t116 -346.5v-430h-239v432q0 23 -8 43q-4 63 -23.5 102t-52.5 60.5t-76 30t-96 8.5q-137 0 -204 -50.5t-67 -187.5v-438h-239v1147h-260z" />
<glyph unicode="&#x40c;" horiz-adv-x="1257" d="M162 0v1352h239v-570h195l369 570h256l-430 -668l440 -684h-256l-373 578h-201v-578h-239zM485 1487l144 285h305l-248 -285h-201z" />
<glyph unicode="&#x40d;" horiz-adv-x="1415" d="M162 0v1352h239v-834q0 -63 -4 -112.5t-8 -83.5q-6 -41 -10 -72h8q4 4 37 92t108 227l431 783h290v-1352h-239v829q0 61 3 111.5t7 85.5q4 41 10 72h-8q-4 -2 -12 -26.5t-25.5 -66.5t-44 -99.5t-63.5 -125.5l-430 -780h-289zM368 1772h306l143 -285h-201z" />
<glyph unicode="&#x40e;" horiz-adv-x="1261" d="M20 1352h259l266 -594q31 -70 48 -124t26.5 -91t12.5 -55.5t5 -18.5h6q4 35 16 78q10 37 28 90t46 119l246 596h258l-508 -1098q-25 -51 -45 -98t-57 -84t-102.5 -58.5t-184.5 -21.5v205q55 0 86 6t49.5 19.5t28.5 36t20 52.5zM322 1745h166q0 -98 141 -98t141 98h166 q0 -129 -77 -187t-230 -58q-154 0 -230.5 58t-76.5 187z" />
<glyph unicode="&#x40f;" horiz-adv-x="1363" d="M162 0v1352h239v-1147h562v1147h239v-1352h-399v-287h-240v287h-401z" />
<glyph unicode="&#x410;" horiz-adv-x="1349" d="M20 0q135 340 272.5 676t274.5 676h219q135 -340 270.5 -676t272.5 -676h-246l-102 262h-612l-103 -262h-246zM446 467h455q-45 109 -88 225.5t-75.5 212.5t-49 156.5t-8.5 56.5h-8l-5 -26q-5 -25 -16.5 -71t-30 -107.5t-47.5 -131.5z" />
<glyph unicode="&#x411;" horiz-adv-x="1259" d="M178 0v1352h918v-205h-678v-316h272q131 0 227.5 -21.5t159 -71.5t92 -132t29.5 -200q0 -115 -29.5 -193t-92 -125t-159 -67.5t-227.5 -20.5h-512zM418 205h260q152 0 216 44t64 157q0 123 -64.5 172t-215.5 49h-260v-422z" />
<glyph unicode="&#x412;" horiz-adv-x="1273" d="M162 0v1352h545q111 0 192.5 -18.5t136 -61.5t80 -112.5t25.5 -170.5q0 -141 -62.5 -214t-193.5 -95q154 -23 225.5 -95.5t71.5 -219.5q0 -102 -29 -172t-87 -113t-147.5 -61.5t-211.5 -18.5h-545zM401 205h293q74 0 122 10t76 31.5t39 56.5t11 82q0 100 -53 146.5 t-195 46.5h-293v-373zM401 782h293q111 0 159 42t48 157q0 43 -9 74.5t-31.5 51t-63.5 30t-103 10.5h-293v-365z" />
<glyph unicode="&#x413;" horiz-adv-x="1091" d="M178 0v1352h856v-205h-616v-1147h-240z" />
<glyph unicode="&#x414;" horiz-adv-x="1409" d="M49 205h80q8 0 32.5 22.5t52.5 71.5t51.5 124t29.5 179l45 750h885v-1147h133v-451h-240v246h-829v-246h-240v451zM387 205h598v942h-418q-10 -137 -17 -272.5t-15 -272.5q-10 -164 -56.5 -260t-91.5 -137z" />
<glyph unicode="&#x415;" horiz-adv-x="1165" d="M162 0v1352h901v-205h-662v-365h580v-204h-580v-373h662v-205h-901z" />
<glyph unicode="&#x416;" horiz-adv-x="1777" d="M25 0l440 684l-430 668h256l366 -570h113v570h240v-570h108l369 570h256l-430 -668l440 -684h-256l-373 578h-114v-578h-240v578h-117l-372 -578h-256z" />
<glyph unicode="&#x417;" horiz-adv-x="1249" d="M63 373h238q0 -102 67.5 -145.5t239.5 -43.5q154 0 229.5 39t75.5 144q0 61 -24.5 101t-65.5 64.5t-97 35t-118 10.5h-100v204h94q57 0 107.5 9.5t89.5 33t61.5 62.5t22.5 100q0 104 -69 142t-216 38q-154 0 -215 -41t-61 -147h-238q0 213 128 303t378 90 q150 0 254 -28.5t167.5 -79t90 -121t20.5 -156.5q-10 -133 -85.5 -204.5t-196.5 -100.5q147 -27 230 -102.5t83 -227.5q0 -193 -137 -282.5t-418 -89.5q-285 0 -410 96t-125 297z" />
<glyph unicode="&#x418;" horiz-adv-x="1415" d="M162 0v1352h239v-834q0 -63 -4 -112.5t-8 -83.5q-6 -41 -10 -72h8q4 4 37 92t108 227l431 783h290v-1352h-239v829q0 61 3 111.5t7 85.5q4 41 10 72h-8q-4 -2 -12 -26.5t-25.5 -66.5t-44 -99.5t-63.5 -125.5l-430 -780h-289z" />
<glyph unicode="&#x419;" horiz-adv-x="1415" d="M162 0v1352h239v-834q0 -63 -4 -112.5t-8 -83.5q-6 -41 -10 -72h8q4 4 37 92t108 227l431 783h290v-1352h-239v829q0 61 3 111.5t7 85.5q4 41 10 72h-8q-4 -2 -12 -26.5t-25.5 -66.5t-44 -99.5t-63.5 -125.5l-430 -780h-289zM400 1745h166q0 -98 141 -98t141 98h166 q0 -129 -77 -187t-230 -58q-154 0 -230.5 58t-76.5 187z" />
<glyph unicode="&#x41a;" horiz-adv-x="1257" d="M162 0v1352h239v-570h195l369 570h256l-430 -668l440 -684h-256l-373 578h-201v-578h-239z" />
<glyph unicode="&#x41b;" horiz-adv-x="1349" d="M43 0v205q72 0 109.5 20.5t55 62.5t21.5 107.5t11 157.5l49 799h880v-1352h-239v1147h-418q-10 -150 -17.5 -297.5t-15.5 -296.5q-12 -152 -27.5 -256t-58.5 -171t-125 -96.5t-225 -29.5z" />
<glyph unicode="&#x41c;" horiz-adv-x="1777" d="M162 0v1352h323q33 -90 76 -211t89 -248t90 -251t78 -222t52.5 -159.5t14.5 -63.5h6q2 0 13 53t46 153q84 238 169 473.5t171 475.5h324v-1352h-240v795q0 111 6 166q2 33 6 55h-6q-8 -23 -17 -55.5t-26 -73.5l-53 -144l-262 -743h-268q-68 186 -132.5 371.5 t-129.5 371.5l-68 189q-31 84 -29 84h-6l6 -55q2 -29 4 -71t2 -95v-795h-239z" />
<glyph unicode="&#x41d;" horiz-adv-x="1415" d="M162 0v1352h239v-570h613v570h239v-1352h-239v578h-613v-578h-239z" />
<glyph unicode="&#x41e;" horiz-adv-x="1398" d="M86 676q0 197 36 331t111.5 215t190.5 115.5t274 34.5q160 0 276 -34.5t190.5 -115.5t110.5 -215.5t36 -330.5q0 -197 -36 -331t-110.5 -215t-190.5 -115.5t-276 -34.5t-274.5 34.5t-190 115.5t-111.5 215t-36 331zM326 676q0 -139 21.5 -233.5t67.5 -152t116.5 -82 t166.5 -24.5q98 0 168 24.5t116 82t67.5 152t21.5 233.5q0 137 -21.5 231t-67.5 152.5t-115.5 83t-168.5 24.5q-96 0 -166.5 -24.5t-116.5 -83t-67.5 -152.5t-21.5 -231z" />
<glyph unicode="&#x41f;" horiz-adv-x="1363" d="M162 0v1352h1040v-1352h-239v1147h-562v-1147h-239z" />
<glyph unicode="&#x420;" horiz-adv-x="1243" d="M162 0v1352h545q123 0 212 -22.5t147 -75t87 -138.5t29 -211q0 -131 -29 -220t-87 -144.5t-147.5 -79t-211.5 -23.5h-306v-438h-239zM401 643h293q133 0 190.5 57.5t57.5 204.5q0 135 -57.5 188.5t-190.5 53.5h-293v-504z" />
<glyph unicode="&#x421;" horiz-adv-x="1239" d="M86 678q0 207 35 341t106.5 213t181 109.5t261.5 30.5q111 0 208 -16.5t167.5 -60.5t111.5 -120.5t41 -195.5h-240q0 63 -23.5 100t-63.5 56.5t-91 25.5t-106 6q-94 0 -161 -17t-107.5 -69.5t-60 -148.5t-19.5 -254t18 -254t60 -149.5t106.5 -72t157.5 -18.5 q49 0 100 5.5t94 24.5t69.5 57t26.5 102h240q0 -121 -43 -198t-116.5 -120t-171 -59t-203.5 -16q-147 0 -257 31.5t-180.5 110.5t-105.5 214t-35 342z" />
<glyph unicode="&#x422;" horiz-adv-x="1116" d="M23 1147v205h1071v-205h-416v-1147h-240v1147h-415z" />
<glyph unicode="&#x423;" horiz-adv-x="1261" d="M20 1352h259l266 -594q31 -70 48 -124t26.5 -91t12.5 -55.5t5 -18.5h6q4 35 16 78q10 37 28 90t46 119l246 596h258l-508 -1098q-25 -51 -45 -98t-57 -84t-102.5 -58.5t-184.5 -21.5v205q55 0 86 6t49.5 19.5t28.5 36t20 52.5z" />
<glyph unicode="&#x424;" horiz-adv-x="1626" d="M98 676q0 129 30 218t99.5 147.5t184 87t282.5 34.5v168l240 21v-189q168 -6 281.5 -34.5t183 -87t99.5 -147.5t30 -218t-30 -219t-99.5 -148.5t-183 -87t-281.5 -35.5v-186h-240v186q-168 6 -282.5 35t-184 87.5t-99.5 148.5t-30 219zM338 676q0 -74 14.5 -125t53 -85 t108.5 -51.5t180 -23.5v567q-111 -4 -180.5 -22t-108 -52t-53 -85t-14.5 -123zM934 391q111 6 179.5 23.5t107.5 51.5t53 86t14 124t-14 123t-53 85t-108 51t-179 23v-567z" />
<glyph unicode="&#x425;" horiz-adv-x="1230" d="M20 0l441 684l-422 668h274q59 -92 114.5 -185.5t115.5 -185.5q25 -53 40 -94t31 -76q16 35 33 76t41 94l232 371h272l-426 -668l440 -684h-282q-59 92 -119 186.5t-119 186.5q-25 53 -41 94t-31 76q-4 0 -13 -20.5t-19.5 -48.5t-21.5 -56.5t-19 -44.5l-240 -373h-281z " />
<glyph unicode="&#x426;" horiz-adv-x="1398" d="M178 0v1352h240v-1147h561v1147h240v-1147h133v-451h-240v246h-934z" />
<glyph unicode="&#x427;" horiz-adv-x="1245" d="M61 922v430h240v-430q0 -162 70.5 -228.5t222.5 -66.5q66 0 113 13t77.5 47t45 90.5t14.5 144.5v430h239v-1352h-239v416q0 47 4 91t8 89h-4q-37 -106 -110.5 -140t-184.5 -34q-244 0 -370 118.5t-126 381.5z" />
<glyph unicode="&#x428;" horiz-adv-x="1794" d="M162 0v1352h239v-1147h377v1147h240v-1147h375v1147h239v-1352h-1470z" />
<glyph unicode="&#x429;" horiz-adv-x="1794" d="M162 0v1352h239v-1147h377v1147h240v-1147h375v1147h239v-1147h133v-451h-239v246h-1364z" />
<glyph unicode="&#x42a;" horiz-adv-x="1345" d="M25 1147v205h479v-488h305q123 0 212 -22.5t147.5 -74.5t87 -137t28.5 -208q0 -119 -28.5 -200t-87 -130t-147.5 -70.5t-212 -21.5h-545v1147h-239zM504 205h293q133 0 190 47t57 170q0 133 -57 185t-190 52h-293v-454z" />
<glyph unicode="&#x42b;" horiz-adv-x="1732" d="M162 0v1352h239v-488h306q123 0 212 -22.5t147 -74.5t87 -137t29 -208q0 -119 -29 -200t-87 -130t-147.5 -70.5t-211.5 -21.5h-545zM401 205h293q135 0 191.5 47t56.5 170q0 133 -57.5 185t-190.5 52h-293v-454zM1331 0v1352h240v-1352h-240z" />
<glyph unicode="&#x42c;" horiz-adv-x="1243" d="M162 0v1352h239v-488h306q123 0 212 -22.5t147 -74.5t87 -137t29 -208q0 -119 -29 -200t-87 -130t-147.5 -70.5t-211.5 -21.5h-545zM401 205h293q135 0 191.5 47t56.5 170q0 133 -57.5 185t-190.5 52h-293v-454z" />
<glyph unicode="&#x42d;" horiz-adv-x="1234" d="M35 373h231q0 -51 24.5 -87t65.5 -58.5t94.5 -33t108.5 -10.5q84 0 146.5 19.5t106.5 65.5t68.5 122t32.5 187h-489v204h487q-8 109 -32.5 182.5t-67.5 118.5t-105.5 64.5t-144.5 19.5q-63 0 -116.5 -10t-93.5 -32.5t-62.5 -58.5t-22.5 -87h-231q0 106 41 181t113.5 122 t173 68.5t217.5 21.5q145 0 251.5 -37t177 -118.5t104.5 -214t34 -324.5q0 -193 -34 -326t-104.5 -216t-177 -119.5t-251.5 -36.5q-111 0 -210.5 21.5t-173 68.5t-117.5 121.5t-44 181.5z" />
<glyph unicode="&#x42e;" horiz-adv-x="1871" d="M178 0v1352h240v-570h215q8 166 46 279t108.5 182.5t173 99t241.5 29.5q150 0 257.5 -34.5t177 -115.5t103.5 -215.5t34 -330.5q0 -197 -34 -331t-103.5 -215t-177 -115.5t-257.5 -34.5q-139 0 -242.5 30.5t-173 100t-107.5 184.5t-46 283h-215v-578h-240zM870 676 q0 -139 19.5 -233.5t60.5 -152t103.5 -82t148.5 -24.5t148.5 24.5t103.5 82t60.5 152t19.5 233.5q0 137 -19.5 231t-60.5 151.5t-103.5 83t-148.5 25.5t-148.5 -25.5t-103.5 -83t-60.5 -151.5t-19.5 -231z" />
<glyph unicode="&#x42f;" horiz-adv-x="1294" d="M57 0l299 467q-127 41 -186 143.5t-59 294.5q0 125 27.5 210t86 137.5t148.5 76t213 23.5h544v-1352h-239v438h-281l-280 -438h-273zM350 905q0 -147 56.5 -204.5t191.5 -57.5h293v504h-293q-135 0 -191.5 -53.5t-56.5 -188.5z" />
<glyph unicode="&#x430;" horiz-adv-x="1030" d="M61 264q0 100 38 155.5t95.5 82t127 34t133.5 13.5q55 4 110.5 9t110.5 11v82q0 66 -37 94.5t-131 28.5q-72 0 -117 -29.5t-45 -93.5h-237q0 166 95 239t304 73q115 0 192.5 -21.5t125.5 -61.5t68.5 -97.5t20.5 -131.5v-387q0 -41 21.5 -62.5t54.5 -21.5v-188 q-78 0 -131 11t-86 29.5t-50 45t-24 57.5q-33 -92 -100.5 -123.5t-179.5 -31.5q-68 0 -132.5 11t-114.5 41.5t-81 86t-31 145.5zM301 272q0 -55 29.5 -75.5t109.5 -20.5q119 0 170.5 53.5t61.5 169.5l-223 -22q-78 -8 -113 -25.5t-35 -79.5z" />
<glyph unicode="&#x431;" horiz-adv-x="1085" d="M78 471q0 266 28.5 429t87 253t145.5 123t204 43q33 2 61.5 6t50 15.5t36 33t18.5 60.5h237q-6 -119 -47 -180.5t-100.5 -89t-128 -35t-127.5 -15.5q-45 -6 -82 -23.5t-64.5 -55.5t-46 -105.5t-26.5 -173.5h6q14 61 39.5 102t61.5 63.5t80 32t99 9.5q88 0 159 -22.5 t120 -78t75.5 -151t26.5 -238.5q0 -139 -25.5 -234.5t-81 -152.5t-141.5 -81.5t-204 -24.5q-119 0 -206 24.5t-143.5 81.5t-84 151.5t-27.5 233.5zM334 471q0 -82 11 -136t36 -88t65 -48.5t97 -14.5t97 14.5t64.5 48.5t36 88t11.5 136q0 162 -47.5 224.5t-161.5 62.5 q-115 0 -162 -62.5t-47 -224.5z" />
<glyph unicode="&#x432;" horiz-adv-x="1028" d="M133 0v942h434q182 0 266.5 -55.5t84.5 -196.5q0 -86 -33 -137t-101 -76q90 -18 132 -71.5t42 -155.5q0 -139 -79.5 -194.5t-249.5 -55.5h-496zM373 197h248q53 0 75.5 17t22.5 69q0 57 -22.5 77.5t-75.5 20.5h-248v-184zM373 561h207q53 0 75.5 20.5t22.5 75.5t-32 71.5 t-105 16.5h-168v-184z" />
<glyph unicode="&#x433;" horiz-adv-x="815" d="M135 0v942h651v-205h-411v-737h-240z" />
<glyph unicode="&#x434;" horiz-adv-x="1128" d="M37 205h65q12 0 30 14t34 51t30.5 99.5t22.5 158.5q10 104 17.5 207t15.5 207h711v-737h124v-451h-239v246h-572v-246h-239v451zM358 205h365v532h-248l-16 -209q-10 -147 -39 -222t-62 -101z" />
<glyph unicode="&#x435;" horiz-adv-x="1005" d="M72 467q0 141 27.5 236.5t83 152.5t139.5 82t198 25q104 0 182 -20.5t128.5 -67t75 -122t24.5 -188.5q0 -29 -4 -77t-21 -91h-592q2 -61 13.5 -105t36 -71.5t64.5 -40t101 -12.5q72 0 111 23.5t39 99.5h237q0 -86 -29.5 -145.5t-82.5 -96.5t-128 -53t-167 -16 q-115 0 -197 25.5t-135 82.5t-78.5 150.5t-25.5 228.5zM315 569h375v37q0 43 -6 75t-24.5 52.5t-52.5 30.5t-89 10q-111 0 -153.5 -46t-49.5 -159z" />
<glyph unicode="&#x436;" horiz-adv-x="1411" d="M12 0l310 479l-299 463h256l239 -373h68v373h239v-373h66l242 373h256l-299 -463l309 -479h-256l-242 373h-76v-373h-239v373h-78l-240 -373h-256z" />
<glyph unicode="&#x437;" horiz-adv-x="964" d="M59 291h232q0 -57 45 -82t137 -25q82 0 129 22.5t47 80.5q0 31 -16.5 50t-41 31.5t-56 16.5t-62.5 4h-102v164h102q61 0 113.5 24.5t52.5 86.5q0 53 -40 73.5t-116 20.5q-88 0 -132 -22.5t-44 -84.5h-237q0 166 98 239t307 73q213 0 307.5 -71t94.5 -190 q0 -102 -54.5 -155t-140.5 -76q90 -20 147.5 -73.5t57.5 -155.5q0 -121 -98.5 -191.5t-315.5 -70.5q-211 0 -312.5 72.5t-101.5 238.5z" />
<glyph unicode="&#x438;" horiz-adv-x="1138" d="M133 0v942h240v-440q0 -63 -3 -113.5t-8 -85.5q-6 -41 -10 -72h8q10 37 29 82q16 39 37.5 91.5t54.5 113.5q59 106 117.5 212t116.5 212h289v-942h-240v436q0 61 3 111.5t7 85.5q6 41 12 72h-8q6 8 -21.5 -53.5t-78.5 -164t-118.5 -231.5t-137.5 -256h-289z" />
<glyph unicode="&#x439;" horiz-adv-x="1138" d="M133 0v942h240v-440q0 -63 -3 -113.5t-8 -85.5q-6 -41 -10 -72h8q10 37 29 82q16 39 37.5 91.5t54.5 113.5q59 106 117.5 212t116.5 212h289v-942h-240v436q0 61 3 111.5t7 85.5q6 41 12 72h-8q6 8 -21.5 -53.5t-78.5 -164t-118.5 -231.5t-137.5 -256h-289zM263 1335h166 q0 -98 141 -98t141 98h166q0 -129 -77 -187t-230 -58q-154 0 -230.5 58t-76.5 187z" />
<glyph unicode="&#x43a;" horiz-adv-x="1021" d="M135 0v942h240v-373h117l241 373h256l-299 -463l309 -479h-256l-241 373h-127v-373h-240z" />
<glyph unicode="&#x43b;" horiz-adv-x="1040" d="M29 -8v205q45 0 68.5 9t34.5 30.5t14.5 57.5t7.5 87l39 561h712v-942h-239v737h-248q-12 -145 -17.5 -256.5t-13.5 -194.5t-26.5 -139.5t-57.5 -90t-105.5 -49t-168.5 -15.5z" />
<glyph unicode="&#x43c;" horiz-adv-x="1431" d="M135 0v942h324l258 -721l258 721h323v-942h-239v389q0 68 3 118t7 85q4 39 10 67h-6l-18 -67q-18 -68 -62 -197l-143 -395h-266l-144 395q-23 66 -38 114t-25 83q-10 39 -17 67h-6q4 -29 11 -67q4 -35 7 -85t3 -118v-389h-240z" />
<glyph unicode="&#x43d;" horiz-adv-x="1105" d="M135 0v942h240v-364h358v364h240v-942h-240v373h-358v-373h-240z" />
<glyph unicode="&#x43e;" horiz-adv-x="1042" d="M74 471q0 139 26.5 233.5t81 151.5t139.5 82t201 25q117 0 201 -25t139.5 -82t82 -151.5t26.5 -233.5t-26.5 -233.5t-82 -151.5t-139.5 -81.5t-201 -24.5t-201.5 24.5t-139 81.5t-81 151.5t-26.5 233.5zM313 471q0 -170 47 -236.5t162 -66.5q113 0 161 66.5t48 236.5 t-48 236.5t-161 66.5q-115 0 -162 -66.5t-47 -236.5z" />
<glyph unicode="&#x43f;" horiz-adv-x="1085" d="M135 0v942h817v-942h-239v737h-338v-737h-240z" />
<glyph unicode="&#x440;" horiz-adv-x="1116" d="M133 -492v1434h186l23 -94l20 -60q33 98 100.5 136.5t178.5 38.5q201 0 301 -113t100 -379q0 -133 -24.5 -227t-74.5 -152.5t-126 -85t-176 -26.5q-106 0 -173 32.5t-101 126.5h-7q4 -47 8.5 -91t4.5 -89v-451h-240zM373 471q0 -84 12 -142.5t40 -94t71 -51t102 -15.5 q55 0 94 14.5t63.5 48t36 92t11.5 148.5q0 88 -11.5 146.5t-36 93t-63.5 49t-94 14.5q-117 0 -169 -61.5t-56 -214.5v-27z" />
<glyph unicode="&#x441;" horiz-adv-x="960" d="M74 471q0 135 22.5 229.5t73.5 152.5t131 84t195 26q94 0 171.5 -17.5t133 -54.5t85 -96.5t29.5 -143.5h-237q0 66 -41 94.5t-125 28.5q-63 0 -102 -15.5t-60.5 -51t-29 -93t-7.5 -143.5t7.5 -143.5t29 -93t61.5 -51t103 -15.5q80 0 122 25.5t42 97.5h237 q0 -86 -29.5 -145.5t-85 -96.5t-132 -53t-170.5 -16q-115 0 -196 25.5t-132 83.5t-73.5 151.5t-22.5 230.5z" />
<glyph unicode="&#x442;" horiz-adv-x="882" d="M29 737v205h825v-205h-293v-737h-239v737h-293z" />
<glyph unicode="&#x443;" horiz-adv-x="989" d="M8 942h250q37 -113 74 -224.5t76 -223.5q43 -150 59 -232t16 -84h6q4 33 13 78q8 37 20.5 90t34.5 119l10 27q39 113 78 224t78 226h250q-98 -258 -193.5 -512t-193.5 -510q-82 -215 -192.5 -313.5t-246.5 -98.5v205q33 0 66 20.5t62.5 55.5t53 80t42.5 94 q-92 246 -182.5 488.5t-180.5 490.5z" />
<glyph unicode="&#x444;" horiz-adv-x="1445" d="M94 471q0 139 30 231.5t92.5 147.5t158.5 78.5t229 29.5v357l240 37v-394q131 -6 227 -30.5t158.5 -79.5t92.5 -146.5t30 -230.5t-30 -231.5t-92.5 -147.5t-158.5 -78.5t-227 -29.5v-476h-240v476q-133 6 -229 29.5t-158.5 78.5t-92.5 147.5t-30 231.5zM334 471 q0 -80 12 -132t43 -84t83 -47t132 -20v566q-80 -6 -132 -21.5t-83 -47.5t-43 -84t-12 -130zM844 188q78 4 129 19.5t81.5 47.5t44 84t13.5 132q0 78 -13.5 130t-44 84t-81.5 47.5t-129 21.5v-566z" />
<glyph unicode="&#x445;" horiz-adv-x="954" d="M16 0l310 475l-289 467h274l93 -154q29 -53 45 -86.5t26 -56.5q8 -25 12 -41h9q2 14 12 39q10 23 26.5 56.5t47.5 86.5l96 156h258l-295 -461l311 -481h-264l-123 195q-29 45 -44 76.5t-23 52.5q-8 23 -13 36h-8q-4 -16 -14 -38q-10 -20 -25.5 -52t-44.5 -77l-119 -193 h-258z" />
<glyph unicode="&#x446;" horiz-adv-x="1128" d="M156 0v942h239v-737h338v737h240v-737h133v-451h-240v246h-710z" />
<glyph unicode="&#x447;" horiz-adv-x="1056" d="M70 647v295h239v-295q0 -121 35 -163t121 -42q115 0 166 68t51 231v201h240v-942h-240v242q0 47 4 90t8 90h-2q-35 -98 -99.5 -133t-168.5 -35q-178 0 -266 88t-88 305z" />
<glyph unicode="&#x448;" horiz-adv-x="1447" d="M135 0v942h240v-737h231v737h240v-737h229v737h240v-942h-1180z" />
<glyph unicode="&#x449;" horiz-adv-x="1447" d="M133 0v942h240v-737h231v737h240v-737h229v737h240v-737h133v-451h-240v246h-1073z" />
<glyph unicode="&#x44a;" horiz-adv-x="1064" d="M25 737v205h462v-321h154q193 0 282 -70t89 -240q0 -90 -21.5 -149.5t-67.5 -95t-116 -51t-166 -15.5h-393v737h-223zM487 197h146q72 0 105.5 23.5t33.5 90.5q0 59 -33.5 86t-105.5 27h-146v-227z" />
<glyph unicode="&#x44b;" horiz-adv-x="1349" d="M133 0v942h240v-321h153q193 0 282 -70t89 -240q0 -90 -21.5 -149.5t-67.5 -95t-115.5 -51t-166.5 -15.5h-393zM373 197h145q74 0 106.5 23.5t32.5 90.5q0 59 -32.5 86t-106.5 27h-145v-227zM999 0v942h240v-942h-240z" />
<glyph unicode="&#x44c;" horiz-adv-x="968" d="M133 0v942h240v-321h153q193 0 282 -70t89 -240q0 -90 -21.5 -149.5t-67.5 -95t-115.5 -51t-166.5 -15.5h-393zM373 197h145q74 0 106.5 23.5t32.5 90.5q0 59 -32.5 86t-106.5 27h-145v-227z" />
<glyph unicode="&#x44d;" horiz-adv-x="960" d="M45 291h238q0 -72 42 -97.5t121 -25.5q109 0 151 48t50 169h-315v172h315q-8 121 -50 169t-148 48q-84 0 -125 -28.5t-41 -94.5h-238q0 84 29.5 143.5t85 96.5t132.5 54.5t173 17.5q115 0 194.5 -26t131 -84t74 -152.5t22.5 -229.5q0 -137 -23.5 -230.5t-74 -151.5 t-131 -83.5t-195.5 -25.5q-94 0 -171 16t-132.5 53t-85 96.5t-29.5 145.5z" />
<glyph unicode="&#x44e;" horiz-adv-x="1474" d="M135 0v942h240v-364h151q8 109 39 182.5t83 118.5t128 64.5t176 19.5q111 0 192 -25t133 -82t77.5 -151.5t25.5 -233.5t-25.5 -233.5t-77.5 -151.5t-133 -81.5t-192 -24.5q-102 0 -178 19t-128 65.5t-81.5 122t-38.5 186.5h-151v-373h-240zM764 471q0 -164 42 -227.5 t146 -63.5q102 0 145.5 63.5t43.5 227.5q0 162 -43 224.5t-146 62.5q-53 0 -89 -14.5t-57.5 -48t-31.5 -89t-10 -135.5z" />
<glyph unicode="&#x44f;" horiz-adv-x="1003" d="M57 0l207 348q-90 29 -133 97.5t-43 191.5q0 86 22.5 145.5t67.5 94t114.5 50t166.5 15.5h409v-942h-239v322h-127l-191 -322h-254zM328 621q0 -78 33.5 -107t105.5 -29h162v260h-162q-74 0 -106.5 -23.5t-32.5 -100.5z" />
<glyph unicode="&#x450;" horiz-adv-x="1005" d="M72 467q0 141 27.5 236.5t83 152.5t139.5 82t198 25q104 0 182 -20.5t128.5 -67t75 -122t24.5 -188.5q0 -29 -4 -77t-21 -91h-592q2 -61 13.5 -105t36 -71.5t64.5 -40t101 -12.5q72 0 111 23.5t39 99.5h237q0 -86 -29.5 -145.5t-82.5 -96.5t-128 -53t-167 -16 q-115 0 -197 25.5t-135 82.5t-78.5 150.5t-25.5 228.5zM249 1362h273l143 -285h-184zM315 569h375v37q0 43 -6 75t-24.5 52.5t-52.5 30.5t-89 10q-111 0 -153.5 -46t-49.5 -159z" />
<glyph unicode="&#x451;" horiz-adv-x="1005" d="M72 467q0 141 27.5 236.5t83 152.5t139.5 82t198 25q104 0 182 -20.5t128.5 -67t75 -122t24.5 -188.5q0 -29 -4 -77t-21 -91h-592q2 -61 13.5 -105t36 -71.5t64.5 -40t101 -12.5q72 0 111 23.5t39 99.5h237q0 -86 -29.5 -145.5t-82.5 -96.5t-128 -53t-167 -16 q-115 0 -197 25.5t-135 82.5t-78.5 150.5t-25.5 228.5zM207 1094v225h206v-225h-206zM315 569h375v37q0 43 -6 75t-24.5 52.5t-52.5 30.5t-89 10q-111 0 -153.5 -46t-49.5 -159zM592 1094v225h207v-225h-207z" />
<glyph unicode="&#x452;" horiz-adv-x="1173" d="M29 1100v180h151v125q59 6 119.5 13t120.5 16v-154h254v-180h-254v-129q0 -43 -4 -85t-8 -83h6q35 92 99.5 126t170.5 34q182 0 273.5 -93.5t91.5 -312.5v-557q0 -137 -22.5 -230.5t-70 -151.5t-118 -84t-168.5 -26q-160 0 -250 67t-90 220h237q0 -82 101 -82 q39 0 66.5 14.5t44 48.5t23.5 88t7 136v557q0 127 -38 172t-128 45q-68 0 -111 -19.5t-68.5 -61.5t-34.5 -109.5t-9 -165.5v-418h-240v1100h-151z" />
<glyph unicode="&#x453;" horiz-adv-x="815" d="M135 0v942h651v-205h-411v-737h-240zM264 1077l144 285h305l-248 -285h-201z" />
<glyph unicode="&#x454;" horiz-adv-x="960" d="M72 471q0 135 22.5 229.5t73.5 152.5t132 84t196 26q94 0 171.5 -17.5t132 -54.5t84 -96.5t29.5 -143.5h-237q0 66 -41 94.5t-125 28.5q-53 0 -90 -11t-59.5 -38t-34 -68t-13.5 -102h316v-170h-316q6 -121 48 -169t151 -48q84 0 124 27.5t40 95.5h237q0 -86 -29.5 -145.5 t-84 -96.5t-131 -53t-170.5 -16q-117 0 -198 25.5t-131 82.5t-73.5 151.5t-23.5 231.5z" />
<glyph unicode="&#x455;" horiz-adv-x="950" d="M55 291h232q0 -74 46 -98.5t138 -24.5q94 0 134 20.5t40 75.5q0 33 -13.5 52.5t-38 30.5t-56 16.5t-68.5 9.5q-82 10 -154.5 28.5t-128 52t-88 89t-32.5 139.5q0 133 92 207t315 74q213 0 306 -73t93 -239h-237q0 72 -39 97.5t-127 25.5t-127 -20.5t-39 -77.5 q0 -31 12.5 -50.5t34 -29.5t52 -16.5t67.5 -10.5q90 -12 166 -31.5t131 -53t86 -87t31 -135.5q0 -68 -22.5 -120t-72 -89t-128 -55t-193.5 -18q-219 0 -315.5 72.5t-96.5 238.5z" />
<glyph unicode="&#x456;" horiz-adv-x="450" d="M106 0v942h240v-942h-240zM106 1143v209h240v-209h-240z" />
<glyph unicode="&#x457;" horiz-adv-x="450" d="M-72 1094v225h207v-225h-207zM106 0v942h240v-942h-240zM313 1094v225h207v-225h-207z" />
<glyph unicode="&#x458;" horiz-adv-x="544" d="M45 -297q47 0 78 23.5t31 83.5v1132h239v-1116q0 -61 -16.5 -118.5t-56 -101.5t-107.5 -71t-168 -27v195zM154 1143v209h239v-209h-239z" />
<glyph unicode="&#x459;" horiz-adv-x="1400" d="M29 -8v205q45 0 68.5 9t34.5 30.5t14.5 57.5t7.5 87l39 561h663v-321h105q190 0 280 -70t90 -240q0 -178 -90 -244.5t-280 -66.5h-345v737h-198q-12 -145 -17.5 -256.5t-13.5 -194.5t-26.5 -139.5t-57.5 -90t-105.5 -49t-168.5 -15.5zM856 197h96q72 0 106 23.5t34 90.5 q0 59 -34 86t-106 27h-96v-227z" />
<glyph unicode="&#x45a;" horiz-adv-x="1468" d="M135 0v942h240v-364h309v364h240v-321h104q190 0 280.5 -70t90.5 -240q0 -178 -90 -244.5t-281 -66.5h-344v373h-309v-373h-240zM924 197h96q72 0 105.5 24.5t33.5 89.5q0 61 -33.5 87t-105.5 26h-96v-227z" />
<glyph unicode="&#x45b;" horiz-adv-x="1173" d="M29 1100v180h151v125q59 6 119.5 13t120.5 16v-154h254v-180h-254v-129q0 -43 -4 -85t-8 -83h4q35 92 100.5 126t171.5 34q182 0 273.5 -98.5t91.5 -327.5v-537h-240v446q0 98 -6 162t-23.5 100.5t-50.5 51t-86 14.5q-68 0 -111 -19.5t-68.5 -61.5t-34.5 -109.5 t-9 -165.5v-418h-240v1100h-151z" />
<glyph unicode="&#x45c;" horiz-adv-x="1021" d="M135 0v942h240v-373h117l241 373h256l-299 -463l309 -479h-256l-241 373h-127v-373h-240zM364 1077l144 285h305l-248 -285h-201z" />
<glyph unicode="&#x45d;" horiz-adv-x="1138" d="M133 0v942h240v-440q0 -63 -3 -113.5t-8 -85.5q-6 -41 -10 -72h8q10 37 29 82q16 39 37.5 91.5t54.5 113.5q59 106 117.5 212t116.5 212h289v-942h-240v436q0 61 3 111.5t7 85.5q6 41 12 72h-8q6 8 -21.5 -53.5t-78.5 -164t-118.5 -231.5t-137.5 -256h-289zM266 1362h306 l143 -285h-201z" />
<glyph unicode="&#x45e;" horiz-adv-x="989" d="M8 942h250q37 -113 74 -224.5t76 -223.5q43 -150 59 -232t16 -84h6q4 33 13 78q8 37 20.5 90t34.5 119l10 27q39 113 78 224t78 226h250q-98 -258 -193.5 -512t-193.5 -510q-82 -215 -192.5 -313.5t-246.5 -98.5v205q33 0 66 20.5t62.5 55.5t53 80t42.5 94 q-92 246 -182.5 488.5t-180.5 490.5zM187 1335h166q0 -98 141 -98t141 98h166q0 -129 -77 -187t-230 -58q-154 0 -230.5 58t-76.5 187z" />
<glyph unicode="&#x45f;" horiz-adv-x="1085" d="M135 0v942h240v-737h338v737h239v-942h-288v-287h-240v287h-289z" />
<glyph unicode="&#x462;" horiz-adv-x="1314" d="M20 1147v205h867v-205h-371v-316h227q131 0 227.5 -22.5t159 -72.5t92 -131t29.5 -199q0 -115 -29.5 -193t-92 -125t-159 -67.5t-227.5 -20.5h-467v1147h-256zM516 205h215q152 0 216.5 44t64.5 157q0 123 -64.5 172t-216.5 49h-215v-422z" />
<glyph unicode="&#x463;" horiz-adv-x="1030" d="M8 999v189h125v217q59 6 119.5 13t120.5 16v-246h264v-189h-264v-256h153q223 0 327.5 -84t104.5 -286q0 -109 -25.5 -180.5t-78.5 -114.5t-134 -60.5t-194 -17.5h-393v999h-125zM373 197h145q106 0 153.5 35.5t47.5 140.5q0 92 -47 133t-154 41h-145v-350z" />
<glyph unicode="&#x464;" horiz-adv-x="1783" d="M178 0v1352h240v-570h215q8 174 47 288t110.5 181.5t177 94t246.5 26.5q111 0 207.5 -16.5t168 -60.5t112.5 -120.5t41 -195.5h-240q0 63 -24.5 100t-64.5 56.5t-91 25.5t-106 6q-86 0 -148.5 -14t-103.5 -56t-63.5 -117t-29.5 -198h340v-204h-340q6 -123 28 -200 t63 -120t102 -58.5t147 -15.5q49 0 100.5 5.5t94.5 24.5t69.5 57t26.5 102h240q0 -121 -44 -198t-118 -120t-171 -59t-204 -16q-139 0 -243.5 27.5t-175 95t-108.5 183t-46 292.5h-215v-578h-240z" />
<glyph unicode="&#x465;" horiz-adv-x="1413" d="M135 0v942h240v-364h155q8 106 36 178.5t78 119t126 67t178 20.5q94 0 172 -17.5t132.5 -54.5t84 -96.5t29.5 -143.5h-238q0 66 -39.5 94.5t-125.5 28.5q-51 0 -86 -10t-57.5 -33.5t-35 -61.5t-16.5 -91h197v-205h-199q8 -115 50 -160t149 -45q80 0 121.5 25.5t41.5 97.5 h238q0 -86 -29.5 -145.5t-84 -96.5t-131.5 -53t-171 -16q-104 0 -180 20t-127 66.5t-78.5 122t-36.5 184.5h-153v-373h-240z" />
<glyph unicode="&#x466;" horiz-adv-x="1349" d="M20 0l547 1352h219l543 -1352h-246l-139 352h-149v-352h-240v352h-152l-137 -352h-246zM483 557h383l-88 227q-29 72 -47 133.5t-29 106.5q-12 53 -20 94h-8q-8 -43 -23 -96q-12 -45 -30.5 -105.5t-47.5 -132.5z" />
<glyph unicode="&#x467;" horiz-adv-x="993" d="M8 0l381 942h219l377 -942h-248l-94 262h-59v-262h-172v262h-62l-96 -262h-246zM399 401h195l-25 66q-20 55 -33.5 107.5t-21.5 93.5q-8 47 -14 90h-8q-4 -43 -13 -90q-8 -41 -20.5 -93.5t-32.5 -109.5z" />
<glyph unicode="&#x468;" horiz-adv-x="1830" d="M162 0v1352h239v-570h416l232 570h219l542 -1352h-245l-140 352h-149v-352h-240v352h-151l-137 -352h-246l233 578h-334v-578h-239zM965 557h383l-88 227q-29 72 -47.5 133.5t-28.5 106.5q-12 53 -21 94h-8q-8 -43 -22 -96q-12 -45 -31 -105.5t-47 -132.5z" />
<glyph unicode="&#x469;" horiz-adv-x="1427" d="M135 0v942h240v-364h284l150 364h219l379 -942h-248l-94 262h-59v-262h-175v262h-61l-96 -262h-246l152 373h-205v-373h-240zM819 401h197l-27 66q-20 55 -33.5 107.5t-21.5 93.5q-8 47 -14 90h-9q-4 -43 -12 -90q-8 -41 -20.5 -93.5t-32.5 -109.5z" />
<glyph unicode="&#x46a;" horiz-adv-x="1552" d="M111 1352h1329l-391 -607q106 -29 177.5 -84t117 -145t64.5 -217t19 -299h-239q0 137 -14.5 236.5t-49 166t-91 104.5t-138.5 52v-559h-240v559q-84 -14 -140 -52t-91 -104.5t-49.5 -166t-14.5 -236.5h-239q0 172 19.5 299t64.5 217t117.5 145.5t177.5 83.5zM500 1147 q59 -94 118.5 -186.5t118.5 -184.5h15h59q61 92 120.5 184.5t119.5 186.5h-551z" />
<glyph unicode="&#x46b;" horiz-adv-x="1298" d="M104 0q0 119 12.5 208t43 153.5t81 107.5t126.5 68l-263 405h1086q-66 -104 -130.5 -203.5t-129.5 -201.5q76 -25 126 -68t79.5 -107.5t42 -153.5t12.5 -208h-240q0 160 -41 244t-141 110v-354h-240v354q-78 -18 -117.5 -68t-48.5 -145q-18 -59 -18 -141h-240zM471 770 l129 -199q6 0 12.5 1t12.5 1q18 0 36.5 -1t34.5 -1l127 199h-352z" />
<glyph unicode="&#x46c;" horiz-adv-x="2023" d="M162 0v1352h239v-572h549q-92 143 -183 285.5t-183 286.5h1327q-98 -154 -195.5 -303.5t-195.5 -303.5q106 -29 179 -84t118 -145t64.5 -217t19.5 -299h-240q0 137 -14.5 236.5t-49 166t-91 104.5t-138.5 52v-559h-240v559q-80 -14 -136 -52t-91 -104.5t-51 -166 t-16 -236.5h-240q0 211 28.5 348t100.5 230h-322v-578h-239zM971 1147l237 -371h15h61l240 371h-553z" />
<glyph unicode="&#x46d;" horiz-adv-x="1701" d="M133 0v942h240v-367h372l-235 367h1085l-262 -405q76 -25 126 -68t81 -107.5t43 -153.5t12 -208h-239q0 84 -7.5 145.5t-28 103.5t-56 67.5t-90.5 37.5v-354h-240v354q-53 -12 -89 -37.5t-57.5 -68.5t-29.5 -104.5t-8 -143.5h-240q0 127 12.5 215t50.5 158h-200v-373 h-240zM877 770q31 -51 63.5 -100t63.5 -99q6 0 12 1t14 1q16 0 34.5 -1t35.5 -1l127 199h-350z" />
<glyph unicode="&#x48a;" horiz-adv-x="1431" d="M162 0v1352h239v-834q0 -63 -4 -112.5t-8 -83.5q-6 -41 -10 -72h8l9 24q10 25 27 68t43 99.5t60 119.5l437 791h290v-1131h160l-131 -467h-190l51 246h-129v829q0 61 3 111.5t7 85.5q4 41 10 72h-8q-31 -90 -97.5 -222.5t-147.5 -282t-169 -304t-161 -289.5h-289z M399 1745h166q1 -98 142 -98t141 98h166q0 -129 -77 -187.5t-230 -58.5q-154 0 -231 58.5t-77 187.5z" />
<glyph unicode="&#x48b;" horiz-adv-x="1179" d="M133 0v942h240v-422q0 -127 -10.5 -207t-10.5 -82h8q10 37 29 82q16 39 37.5 91.5t54.5 113.5q59 106 117.5 212t116.5 212h289v-721h161l-131 -467h-190l51 246h-131v436q0 61 3 111.5t7 85.5q6 41 12 72h-8q-4 -2 -13 -25t-25.5 -64t-42 -99t-64.5 -132l-211 -385h-289 zM262 1335h166q0 -98 141 -98t142 98h166q0 -129 -77 -187t-231 -58t-230.5 58t-76.5 187z" />
<glyph unicode="&#x48c;" horiz-adv-x="1243" d="M37 1040v164h125v148h239v-148h330v-164h-330v-176h306q123 0 212 -22.5t147 -74.5t87 -137t29 -208q0 -119 -29 -200t-87 -130t-147.5 -70.5t-211.5 -21.5h-545v1040h-125zM401 205h293q135 0 191.5 47t56.5 170q0 133 -57.5 185t-190.5 52h-293v-454z" />
<glyph unicode="&#x48d;" horiz-adv-x="1011" d="M23 719v123h124v100h240v-100h328v-123h-328v-107h154q193 0 281.5 -67.5t88.5 -233.5q0 -90 -21.5 -149.5t-67.5 -95t-115.5 -51t-165.5 -15.5h-394v719h-124zM387 197h145q72 0 106 24.5t34 89.5q0 61 -34 87t-106 26h-145v-227z" />
<glyph unicode="&#x48e;" horiz-adv-x="1243" d="M162 0v1352h545q123 0 212 -23.5t147 -76t87 -137.5t29 -210q0 -207 -70 -309q29 -25 58.5 -50.5t58.5 -47.5l-84 -105q-33 29 -64.5 55.5t-64.5 53.5q-57 -35 -134 -49.5t-175 -14.5h-306v-438h-239zM401 643h236h80q33 0 58.5 6t47.5 15q-41 35 -79.5 67.5t-79.5 65.5 l84 104l170 -145q25 57 24 149q0 135 -57.5 188.5t-190.5 53.5h-293v-504z" />
<glyph unicode="&#x48f;" horiz-adv-x="1116" d="M133 -492v1434h186l23 -94l20 -60q33 102 104 137.5t191 35.5q193 -4 289 -118t96 -372q0 -213 -65 -332q25 -20 49.5 -40.5t50.5 -41.5l-80 -102l-108 90q-92 -65 -248 -65q-106 0 -173 32.5t-101 126.5h-7q4 -47 8.5 -91t4.5 -89v-451h-240zM373 446q4 -156 56 -217 t169 -61q35 0 63.5 5t49.5 22q-33 29 -65 55t-64 53l80 105l124 -109q10 33 13.5 75t3.5 97q0 88 -11.5 146.5t-36 93t-63.5 49t-94 14.5q-117 0 -169 -61.5t-56 -214.5v-52z" />
<glyph unicode="&#x490;" horiz-adv-x="1091" d="M178 0v1352h617v286h239v-491h-616v-1147h-240z" />
<glyph unicode="&#x491;" horiz-adv-x="815" d="M133 0v942h412v287h239v-492h-411v-737h-240z" />
<glyph unicode="&#x492;" horiz-adv-x="1097" d="M-10 573v148h192v631h856v-205h-616v-426h344v-148h-344v-573h-240v573h-192z" />
<glyph unicode="&#x493;" horiz-adv-x="825" d="M-10 401v148h153v393h652v-205h-412v-188h219v-148h-219v-401h-240v401h-153z" />
<glyph unicode="&#x494;" horiz-adv-x="1259" d="M178 0v1352h918v-205h-678v-316h239q139 0 240.5 -29.5t168.5 -97t98.5 -176t31.5 -266.5q0 -164 -35 -270.5t-107.5 -168t-184 -86t-265.5 -24.5v35t-1 70t-1 67.5v32.5q94 0 161.5 15.5t111 53.5t62.5 104.5t19 170.5q0 201 -72.5 283t-234.5 82h-231v-627h-240z" />
<glyph unicode="&#x495;" horiz-adv-x="968" d="M133 0v942h692v-205h-452v-143h139q100 0 173 -22.5t120 -75t69.5 -135t22.5 -205.5q0 -129 -24.5 -214t-74.5 -135.5t-127 -71t-184 -20.5v197q45 0 78 10t53.5 37t29.5 74t9 123q0 133 -37.5 187t-115.5 54h-131v-397h-240z" />
<glyph unicode="&#x496;" horiz-adv-x="1777" d="M25 0l440 684l-430 668h256l366 -570h113v570h240v-570h108l369 570h256l-430 -668l297 -463h157v-467h-239v246h-31l-373 578h-114v-578h-240v578h-117l-372 -578h-256z" />
<glyph unicode="&#x497;" horiz-adv-x="1411" d="M12 0l310 479l-299 463h256l239 -373h68v373h239v-373h66l242 373h256l-299 -463q41 -66 82.5 -130t82.5 -130v2h158v-467h-239v246h-31q-61 92 -121.5 185.5t-120.5 187.5h-76v-373h-239v373h-78l-240 -373h-256z" />
<glyph unicode="&#x498;" horiz-adv-x="1249" d="M63 373h238q0 -102 67.5 -145.5t239.5 -43.5q154 0 229.5 39t75.5 144q0 61 -24.5 101t-65.5 64.5t-97 35t-118 10.5h-100v204h94q57 0 107.5 9.5t89.5 33t61.5 62.5t22.5 100q0 104 -69 142t-216 38q-154 0 -215 -41t-61 -147h-238q0 213 128 303t378 90 q150 0 254 -28.5t167.5 -79t90 -121t20.5 -156.5q-10 -133 -85.5 -204.5t-196.5 -100.5q147 -27 230 -102.5t83 -227.5q0 -164 -99.5 -253t-297.5 -111q-4 -174 -80 -261t-242 -87v147q82 0 121 47t43 146q-285 0 -410 96t-125 297z" />
<glyph unicode="&#x499;" horiz-adv-x="964" d="M59 291h232q0 -57 45 -82t137 -25q82 0 129 22.5t47 80.5q0 31 -16.5 50t-41 31.5t-56 16.5t-62.5 4h-102v164h102q61 0 113.5 24.5t52.5 86.5q0 53 -40 73.5t-116 20.5q-88 0 -132 -22.5t-44 -84.5h-237q0 166 98 239t307 73q213 0 307.5 -71t94.5 -190 q0 -102 -54.5 -155t-140.5 -76q90 -20 147.5 -73.5t57.5 -155.5q0 -96 -61.5 -161t-194.5 -87q-2 -178 -79 -266t-243 -88v147q158 0 164 193q-211 0 -312.5 72.5t-101.5 238.5z" />
<glyph unicode="&#x49a;" horiz-adv-x="1257" d="M162 0v1352h239v-570h195l369 570h256l-430 -668l299 -463h155v-467h-237v246h-33l-373 578h-201v-578h-239z" />
<glyph unicode="&#x49b;" horiz-adv-x="1021" d="M133 0v942h240v-373h119l239 373h256l-299 -463q41 -66 82 -129t82 -129h162v-467h-240v246h-33l-239 373h-129v-373h-240z" />
<glyph unicode="&#x49c;" horiz-adv-x="1374" d="M162 0v1352h239v-570h146v365h125v-365h41l368 570h256l-430 -668l441 -684h-256l-373 578h-47v-373h-125v373h-146v-578h-239z" />
<glyph unicode="&#x49d;" horiz-adv-x="1138" d="M135 0v942h240v-373h92v201h125v-201h16l242 373h256l-299 -463l309 -479h-256l-242 373h-26v-201h-125v201h-92v-373h-240z" />
<glyph unicode="&#x49e;" horiz-adv-x="1323" d="M23 1073v148h206v131h240v-131h264v-148h-264v-291h195l368 570h256l-430 -668l440 -684h-256l-372 578h-201v-578h-240v1073h-206z" />
<glyph unicode="&#x49f;" horiz-adv-x="1083" d="M23 727v115h174v100h239v-100h180v-115h-180v-158h117l242 373h256l-299 -463l309 -479h-256l-242 373h-127v-373h-239v727h-174z" />
<glyph unicode="&#x4a0;" horiz-adv-x="1345" d="M10 1147v205h479v-570h195l369 570h256l-430 -668l440 -684h-256l-373 578h-201v-578h-239v1147h-240z" />
<glyph unicode="&#x4a1;" horiz-adv-x="1122" d="M10 737v205h463v-373h117l241 373h256l-299 -463l310 -479h-256q-61 92 -122 185.5t-120 187.5h-127v-373h-240v737h-223z" />
<glyph unicode="&#x4a2;" horiz-adv-x="1415" d="M162 0v1352h239v-572h613v572h239v-1131h127v-467h-239v246h-127v578h-613v-578h-239z" />
<glyph unicode="&#x4a3;" horiz-adv-x="1105" d="M133 0v942h240v-367h358v367h240v-721h127v-467h-238v246h-129v373h-358v-373h-240z" />
<glyph unicode="&#x4a4;" horiz-adv-x="1503" d="M162 0v1352h239v-570h613v570h479v-205h-240v-1147h-239v578h-613v-578h-239z" />
<glyph unicode="&#x4a5;" horiz-adv-x="1206" d="M133 0v942h240v-367h358v367h463v-205h-223v-737h-240v373h-358v-373h-240z" />
<glyph unicode="&#x4a6;" horiz-adv-x="1576" d="M162 0v1352h766v-539q147 0 252.5 -31.5t175 -106.5t102.5 -198t33 -303q0 -182 -33 -305t-102.5 -197.5t-175 -107.5t-252.5 -33v205q84 0 145.5 22.5t101 73.5t58 135t18.5 207q0 121 -18.5 204t-58 134t-101 73.5t-145.5 22.5v-608h-240v1147h-287v-1147h-239z" />
<glyph unicode="&#x4a7;" horiz-adv-x="1302" d="M135 0v942h647v-381q117 0 201 -25.5t139.5 -85t82 -158.5t26.5 -247q0 -147 -26.5 -246.5t-82 -159t-139.5 -85t-201 -25.5v205q57 0 97.5 15t65 52t35.5 96.5t11 147.5q0 174 -48 242.5t-161 68.5v-356h-239v737h-168v-737h-240z" />
<glyph unicode="&#x4a8;" horiz-adv-x="1331" d="M86 678q0 197 36 329t110.5 214t189.5 116.5t272 34.5q113 0 209 -17.5t167 -61.5t111 -120.5t40 -193.5h-240q0 61 -23.5 98t-63.5 57.5t-92 26.5t-108 6q-96 0 -165.5 -25.5t-114.5 -83t-66.5 -152.5t-21.5 -232q0 -129 20.5 -218t61.5 -146.5t105.5 -85t152.5 -36.5 q-29 150 -29 349q0 82 8 144t41 104t96.5 63.5t171.5 21.5q92 0 149.5 -16t88.5 -52t41 -92.5t10 -136.5q0 -240 -67.5 -371.5t-204.5 -183.5q82 -115 221 -114v-205q-162 0 -278.5 67.5t-186.5 217.5q-10 -2 -18.5 -3t-18.5 -1q-158 0 -271.5 35.5t-187 116.5t-109.5 215 t-36 331zM860 520q0 -92 7 -165.5t20 -133.5q66 35 99.5 115t33.5 221q0 61 -13.5 85t-68.5 24q-25 0 -40 -5.5t-23.5 -21.5t-11.5 -45t-3 -74z" />
<glyph unicode="&#x4a9;" horiz-adv-x="1017" d="M72 469q0 139 26.5 234.5t80.5 152.5t137 82t198 25q193 0 300.5 -72t107.5 -240h-238q0 66 -41 94.5t-123 28.5q-59 0 -99 -15.5t-64.5 -50t-35 -93t-10.5 -146.5q0 -41 9.5 -58.5t31.5 -21.5q14 -197 127 -217q-4 31 -4 64.5v72.5q0 68 7 118t30 84t68 50.5t120 16.5 q139 0 187.5 -58.5t48.5 -179.5q0 -158 -60.5 -240t-189.5 -106q59 -109 199 -109v-155q-143 0 -234.5 58t-136.5 194h-20q-111 0 -191 25.5t-131 84t-75.5 151.5t-24.5 226zM633 233.5q0 -30.5 4 -57.5q70 16 93.5 57t23.5 107q0 53 -13.5 71.5t-48.5 18.5q-39 0 -49 -24.5 t-10 -106.5v-65.5z" />
<glyph unicode="&#x4aa;" horiz-adv-x="1239" d="M86 678q0 207 35 341t106.5 213t181 109.5t261.5 30.5q111 0 208 -16.5t167.5 -60.5t111.5 -120.5t41 -195.5h-240q0 63 -23.5 100t-63.5 56.5t-91 25.5t-106 6q-94 0 -161 -17t-107.5 -69.5t-60 -148.5t-19.5 -254t18 -254t60 -149.5t106.5 -72t157.5 -18.5 q49 0 100 5.5t94 24.5t69.5 57t26.5 102h240q0 -117 -40 -192t-109.5 -119t-160.5 -62t-192 -20q6 -193 164 -193v-147q-166 0 -241.5 86t-79.5 260q-117 12 -202 52t-140.5 122t-83 208t-27.5 310z" />
<glyph unicode="&#x4ab;" horiz-adv-x="960" d="M74 471q0 135 22.5 229.5t73.5 152.5t131 84t195 26q94 0 171.5 -17.5t133 -54.5t85 -96.5t29.5 -143.5h-237q0 66 -41 94.5t-125 28.5q-63 0 -102 -15.5t-60.5 -51t-29 -93t-7.5 -143.5t7.5 -143.5t29 -93t61.5 -51t103 -15.5q80 0 122 25.5t42 97.5h237 q0 -80 -26.5 -137.5t-75.5 -94t-118.5 -56t-155.5 -21.5q6 -195 163 -195v-147q-166 0 -242.5 87t-78.5 261q-84 12 -142.5 43.5t-95.5 90t-53 144.5t-16 205z" />
<glyph unicode="&#x4ac;" horiz-adv-x="1116" d="M20 1147v205h1072v-205h-416v-926h129v-467h-240v246h-129v1147h-416z" />
<glyph unicode="&#x4ad;" horiz-adv-x="882" d="M29 737v205h825v-205h-293v-516h127v-467h-239v246h-127v737h-293z" />
<glyph unicode="&#x4ae;" horiz-adv-x="1193" d="M20 1352h265q51 -100 101 -198.5t103 -197.5q33 -61 52.5 -111t30 -86t14.5 -55.5t4 -17.5h8q0 -2 4 17.5t14.5 56.5t30 87t51.5 107l209 398h262q-115 -217 -227.5 -433.5t-228.5 -433.5v-485h-240v485z" />
<glyph unicode="&#x4af;" horiz-adv-x="993" d="M8 942h246l160 -440q20 -59 35.5 -116.5t24.5 -102.5t14 -72l4 -27h6q0 -2 4 26t14 73t25.5 102t36.5 115l159 442h248l-369 -917v-504h-239v504z" />
<glyph unicode="&#x4b0;" horiz-adv-x="1193" d="M20 1352h265l207 -400q31 -59 50 -109t30.5 -85t14.5 -54.5t3 -17.5h8q-2 -2 18.5 70.5t79.5 195.5l211 400h262q-115 -217 -227.5 -433.5t-228.5 -433.5v-100h299v-147h-299v-238h-240v238h-295v147h295v100z" />
<glyph unicode="&#x4b1;" horiz-adv-x="993" d="M8 942h246q39 -113 81 -224.5t83 -223.5q20 -59 34.5 -114.5t22.5 -99.5t13 -70l4 -26h6l4 26t13 69t24.5 98t35.5 115l162 450h248l-369 -917v-99h289v-147h-289v-258h-239v258h-289v147h289v99z" />
<glyph unicode="&#x4b2;" horiz-adv-x="1230" d="M20 0l441 684l-422 668h274q59 -92 114.5 -185.5t115.5 -185.5q25 -53 40 -94t31 -76q16 35 33 76t41 94l232 371h272l-426 -668q76 -117 150.5 -232.5t148.5 -232.5v2h158v-467h-240v246h-59q-59 92 -119 186.5t-119 186.5q-25 53 -41 94t-31 76q-4 0 -13 -20.5 t-19.5 -48.5t-21.5 -56.5t-19 -44.5q-61 -92 -120 -186.5t-120 -186.5h-281z" />
<glyph unicode="&#x4b3;" horiz-adv-x="972" d="M18 0l310 475l-289 467h274l93 -154q29 -53 45 -86.5t26 -56.5q8 -25 12 -41h9q2 14 12 39q10 23 26.5 56.5t47.5 86.5l96 156h258l-295 -461l168 -260h152v-467h-240v246h-33l-123 195q-29 45 -44 76.5t-23 52.5q-8 23 -13 36h-8q-4 -16 -14 -38q-10 -20 -25.5 -52 t-44.5 -77l-119 -193h-258z" />
<glyph unicode="&#x4b4;" horiz-adv-x="1486" d="M23 1147v205h866v-205h-383v-942h561v1147h240v-1147h133v-451h-240v246h-934v1147h-243z" />
<glyph unicode="&#x4b5;" horiz-adv-x="1206" d="M23 737v205h677v-205h-227v-532h338v737h240v-737h133v-451h-240v246h-711v737h-210z" />
<glyph unicode="&#x4b6;" horiz-adv-x="1245" d="M61 922v430h240v-430q0 -162 72 -228.5t219 -66.5q66 0 113 13t77.5 45t46 88t15.5 142v437h239v-1131h127v-467h-239v246h-127v416q0 45 4 89t8 91h-4q-18 -53 -46 -87t-64.5 -53.5t-83 -26.5t-101.5 -7q-244 0 -370 118.5t-126 381.5z" />
<glyph unicode="&#x4b7;" horiz-adv-x="1056" d="M70 643v299h239v-299q0 -121 35 -163t121 -42q115 0 166 67.5t51 231.5v205h240v-721h127v-467h-238v246h-129v238q0 47 4 90t8 90h-2q-35 -98 -99.5 -133t-168.5 -35q-178 0 -266 88t-88 305z" />
<glyph unicode="&#x4b8;" horiz-adv-x="1245" d="M61 922v430h240v-430q0 -135 49 -203t154 -86v350h158v-352q92 12 135 70.5t47 193.5v457h239v-1352h-239v416q0 47 4 91t8 89h-4q-27 -78 -74 -116t-116 -50v-307h-158v301q-217 10 -330 130t-113 368z" />
<glyph unicode="&#x4b9;" horiz-adv-x="1056" d="M70 647v295h239v-319q4 -96 30 -135t87 -46v213h125v-196q76 27 103.5 104.5t27.5 231.5v147h240v-942h-240v242q0 45 4 89t8 91h-4q-20 -63 -55 -97t-84 -51v-151h-125v131q-180 0 -268 88t-88 305z" />
<glyph unicode="&#x4ba;" horiz-adv-x="1245" d="M160 0v1352h239v-416q0 -47 -5 -91t-7 -89h2q37 106 110.5 140t186.5 34q244 0 370 -119t126 -381v-430h-240v430q0 162 -70.5 228.5t-222.5 66.5q-66 0 -113 -13.5t-77.5 -46t-45 -89t-14.5 -142.5v-434h-239z" />
<glyph unicode="&#x4bb;" horiz-adv-x="1112" d="M133 0v1405q59 6 119.5 13t120.5 16v-721q0 -47 -4 -91t-9 -90h7q35 92 100 126t172 34q182 0 272 -93t90 -316v-283h-239v283q0 66 -9.5 108.5t-28.5 67t-51 35t-77 10.5q-117 0 -170 -67.5t-53 -231.5v-205h-240z" />
<glyph unicode="&#x4bc;" horiz-adv-x="1675" d="M29 993h237q0 -78 48 -121t126 -55q12 154 53.5 259.5t114 172t176 95t240.5 28.5q143 0 248.5 -26.5t175.5 -95t103.5 -187.5t33.5 -303q0 -25 -2 -66t-18 -80h-889q4 -123 26.5 -206.5t64.5 -135t105.5 -74t149.5 -22.5q59 0 111.5 10.5t91.5 33t61.5 60t22.5 93.5h239 q0 -109 -41 -183.5t-112.5 -120.5t-169 -67.5t-207.5 -21.5q-143 0 -249.5 32.5t-179.5 108.5t-111 196.5t-44 298.5q-90 8 -164.5 34t-128 72t-83 113.5t-29.5 157.5zM682 811h670q0 115 -23.5 186.5t-65.5 111.5t-100.5 53.5t-128.5 13.5q-162 0 -248 -81t-104 -284z" />
<glyph unicode="&#x4bd;" horiz-adv-x="1267" d="M29 692h202q0 -55 28 -82.5t81 -36.5q10 111 42 184.5t87 120t133 66t180 19.5q104 0 182 -20.5t128.5 -67t75 -122t24.5 -188.5q0 -29 -4 -77t-21 -91h-592q2 -61 13.5 -105t36 -71.5t64.5 -40t102 -12.5q72 0 110.5 23.5t38.5 99.5h238q0 -86 -30 -145.5t-83 -96.5 t-128 -53t-167 -16q-106 0 -185 21.5t-132.5 71.5t-82 130t-34.5 196q-145 16 -226 84t-81 209zM578 569h374v37q0 43 -6 75t-24.5 52.5t-52.5 30.5t-89 10q-111 0 -153.5 -46t-48.5 -159z" />
<glyph unicode="&#x4be;" horiz-adv-x="1675" d="M29 993h237q0 -78 48 -121t126 -55q12 154 53.5 259.5t114 172t176 95t240.5 28.5q143 0 248.5 -26.5t175.5 -95t103.5 -187.5t33.5 -303q0 -25 -2 -66t-18 -80h-889q4 -123 26.5 -206.5t64.5 -135t105.5 -74t149.5 -22.5q35 0 53 10q98 6 166 48t68 139h239 q0 -104 -37.5 -177t-105.5 -119t-159 -69.5t-195 -25.5q6 -195 163 -195v-147q-164 0 -240.5 87t-80.5 261q-111 12 -195 52t-141 115.5t-88 189.5t-35 271q-90 8 -164.5 34t-128 72t-83 113.5t-29.5 157.5zM682 811h672q0 115 -23.5 186.5t-66.5 111.5t-101.5 53.5 t-128.5 13.5q-162 0 -248 -81t-104 -284z" />
<glyph unicode="&#x4bf;" horiz-adv-x="1267" d="M29 692h202q0 -55 28 -82.5t81 -36.5q10 111 42 184.5t87 120t133 66t180 19.5q104 0 182 -20.5t128.5 -67t75 -122t24.5 -188.5q0 -29 -4 -77t-21 -91h-592q2 -61 13.5 -105t36 -71.5t64.5 -40t102 -12.5q72 0 110.5 23.5t38.5 99.5h238q0 -82 -27 -139.5t-74 -94.5 t-115.5 -55t-150.5 -20q6 -195 164 -195v-147q-166 0 -242 88t-80 262q-154 20 -230.5 114.5t-86.5 294.5q-145 16 -226 84t-81 209zM578 569h374v37q0 43 -6 75t-24.5 52.5t-52.5 30.5t-89 10q-111 0 -153.5 -46t-48.5 -159z" />
<glyph unicode="&#x4c0;" horiz-adv-x="604" d="M29 0v205h153v942h-153v205h546v-205h-153v-942h153v-205h-546z" />
<glyph unicode="&#x4c1;" horiz-adv-x="1777" d="M25 0l440 684l-430 668h256l366 -570h113v570h240v-570h108l369 570h256l-430 -668l440 -684h-256l-373 578h-114v-578h-240v578h-117l-372 -578h-256zM580 1745h166q0 -98 141 -98t141 98h166q0 -129 -77 -187t-230 -58q-154 0 -230.5 58t-76.5 187z" />
<glyph unicode="&#x4c2;" horiz-adv-x="1411" d="M12 0l310 479l-299 463h256l239 -373h68v373h239v-373h66l242 373h256l-299 -463l309 -479h-256l-242 373h-76v-373h-239v373h-78l-240 -373h-256zM398 1335h166q0 -98 141 -98t141 98h166q0 -129 -77 -187t-230 -58q-154 0 -230.5 58t-76.5 187z" />
<glyph unicode="&#x4c3;" horiz-adv-x="1296" d="M162 0v1352h239v-572h183l368 572h256q-98 -152 -194 -302.5t-195 -301.5q199 -49 291 -198t92 -427q0 -178 -28.5 -298t-90 -192.5t-155.5 -102.5t-223 -30v238q70 0 118.5 19.5t79.5 64.5t45.5 118.5t14.5 182.5q0 127 -26 213t-78 139t-133 76.5t-194 23.5h-131v-575 h-239z" />
<glyph unicode="&#x4c4;" horiz-adv-x="1083" d="M135 0v942h240v-373h104l242 373h256l-256 -395q150 -37 219.5 -160t69.5 -367q0 -141 -29 -237t-87 -154.5t-149.5 -83t-216.5 -24.5v205q66 0 112 14t74.5 49t42 91.5t13.5 139.5q0 100 -13.5 168t-42 109t-74.5 58.5t-112 17.5h-153v-373h-240z" />
<glyph unicode="&#x4c5;" horiz-adv-x="1349" d="M43 0v205q72 0 109.5 20.5t55 62.5t21.5 107.5t11 157.5l49 799h880v-1131h160l-131 -467h-190l51 246h-129v1147h-418q-10 -150 -17.5 -297.5t-15.5 -296.5q-12 -152 -27.5 -256t-58.5 -171t-125 -96.5t-225 -29.5z" />
<glyph unicode="&#x4c6;" horiz-adv-x="1079" d="M29 -8v205q45 0 68.5 9t34.5 30.5t14.5 57.5t7.5 87l39 561h712v-721h160l-131 -467h-191l52 246h-129v737h-252q-8 -145 -12.5 -257.5t-13.5 -194.5t-29.5 -138.5t-60.5 -91.5t-104.5 -49t-164.5 -14z" />
<glyph unicode="&#x4c7;" horiz-adv-x="1415" d="M162 0v1352h239v-570h613v570h239v-1205q0 -186 -30.5 -311t-96 -201.5t-166 -109.5t-237.5 -33v205q76 0 131 22.5t90 74.5t52.5 139t17.5 214v431h-613v-578h-239z" />
<glyph unicode="&#x4c8;" horiz-adv-x="1105" d="M133 0v942h240v-367h358v367h240v-876q0 -139 -26.5 -233.5t-81 -152t-139.5 -82t-202 -24.5v188q115 0 162 67t47 237v307h-358v-373h-240z" />
<glyph unicode="&#x4c9;" horiz-adv-x="1431" d="M162 0v1352h239v-572h613v572h239v-1131h160l-131 -467h-190l51 246h-129v578h-613v-578h-239z" />
<glyph unicode="&#x4ca;" horiz-adv-x="1144" d="M133 0v942h240v-367h358v367h240v-721h162l-132 -467h-190l51 246h-131v373h-358v-373h-240z" />
<glyph unicode="&#x4cb;" horiz-adv-x="1245" d="M61 922v430h240v-430q0 -162 70.5 -228.5t222.5 -66.5q66 0 113 13t77.5 47t45 90.5t14.5 144.5v430h239v-1352h-129v-246h-237v467h127v195q0 47 4 91t8 89h-4q-37 -106 -110.5 -140t-184.5 -34q-244 0 -370 118.5t-126 381.5z" />
<glyph unicode="&#x4cc;" horiz-adv-x="1056" d="M70 643v299h239v-326q2 -53 11.5 -87.5t28 -55t46 -28t68.5 -7.5q61 0 103 18.5t67.5 58.5t37 104.5t11.5 156.5v166h240v-942h-129v-246h-240v434h129v50q0 45 4 89t8 91h-4q-33 -98 -98.5 -133t-169.5 -35q-90 0 -155.5 20.5t-109.5 66.5t-65.5 122t-21.5 184z" />
<glyph unicode="&#x4cd;" horiz-adv-x="1792" d="M162 0v1352h323q33 -90 76 -211t89 -248t90 -251t78 -222t52.5 -159.5t14.5 -63.5h6q2 0 13 53t46 153q84 238 169 473.5t171 475.5h324v-1131h162l-131 -467h-191l51 246h-131v795q0 111 6 166q2 33 6 55h-6q-16 -43 -32.5 -96.5t-38.5 -118.5l-25 -58l-262 -743h-268 q-68 186 -132.5 371.5t-129.5 371.5l-68 189q-31 84 -29 84h-6l6 -55q2 -29 4 -71t2 -95v-795h-239z" />
<glyph unicode="&#x4ce;" horiz-adv-x="1470" d="M133 0v942h324l258 -721l258 721h323v-721h162l-131 -467h-190l51 246h-131v340q0 168 11 241.5t9 77.5h-6q6 18 -9 -30.5t-46 -142t-74 -221.5t-94 -265h-266q-33 88 -64 176t-61 178q-57 164 -78 232.5t-21 72.5h-6q-2 -4 9.5 -77.5t11.5 -241.5v-340h-240z" />
<glyph unicode="&#x4d0;" horiz-adv-x="1349" d="M20 0q135 340 272.5 676t274.5 676h219q135 -340 270.5 -676t272.5 -676h-246l-102 262h-612l-103 -262h-246zM367 1745h166q0 -98 141 -98t141 98h166q0 -129 -77 -187t-230 -58q-154 0 -230.5 58t-76.5 187zM446 467h455q-45 109 -88 225.5t-75.5 212.5t-49 156.5 t-8.5 56.5h-8l-5 -26q-5 -25 -16.5 -71t-30 -107.5t-47.5 -131.5z" />
<glyph unicode="&#x4d1;" horiz-adv-x="1030" d="M61 264q0 100 38 155.5t95.5 82t127 34t133.5 13.5q55 4 110.5 9t110.5 11v82q0 66 -37 94.5t-131 28.5q-72 0 -117 -29.5t-45 -93.5h-237q0 166 95 239t304 73q115 0 192.5 -21.5t125.5 -61.5t68.5 -97.5t20.5 -131.5v-387q0 -41 21.5 -62.5t54.5 -21.5v-188 q-78 0 -131 11t-86 29.5t-50 45t-24 57.5q-33 -92 -100.5 -123.5t-179.5 -31.5q-68 0 -132.5 11t-114.5 41.5t-81 86t-31 145.5zM207 1335h166q0 -98 141 -98t141 98h166q0 -129 -77 -187t-230 -58q-154 0 -230.5 58t-76.5 187zM301 272q0 -55 29.5 -75.5t109.5 -20.5 q119 0 170.5 53.5t61.5 169.5l-223 -22q-78 -8 -113 -25.5t-35 -79.5z" />
<glyph unicode="&#x4d2;" horiz-adv-x="1349" d="M20 0q135 340 272.5 676t274.5 676h219q135 -340 270.5 -676t272.5 -676h-246l-102 262h-612l-103 -262h-246zM379 1504v225h206v-225h-206zM446 467h455q-45 109 -88 225.5t-75.5 212.5t-49 156.5t-8.5 56.5h-8l-5 -26q-5 -25 -16.5 -71t-30 -107.5t-47.5 -131.5z M764 1504v225h207v-225h-207z" />
<glyph unicode="&#x4d3;" horiz-adv-x="1030" d="M61 264q0 100 38 155.5t95.5 82t127 34t133.5 13.5q55 4 110.5 9t110.5 11v82q0 66 -37 94.5t-131 28.5q-72 0 -117 -29.5t-45 -93.5h-237q0 166 95 239t304 73q115 0 192.5 -21.5t125.5 -61.5t68.5 -97.5t20.5 -131.5v-387q0 -41 21.5 -62.5t54.5 -21.5v-188 q-78 0 -131 11t-86 29.5t-50 45t-24 57.5q-33 -92 -100.5 -123.5t-179.5 -31.5q-68 0 -132.5 11t-114.5 41.5t-81 86t-31 145.5zM219 1094v225h206v-225h-206zM301 272q0 -55 29.5 -75.5t109.5 -20.5q119 0 170.5 53.5t61.5 169.5l-223 -22q-78 -8 -113 -25.5t-35 -79.5z M604 1094v225h207v-225h-207z" />
<glyph unicode="&#x4d4;" horiz-adv-x="1716" d="M20 0l547 1352h1047v-205h-559v-365h477v-204h-477v-373h559v-205h-799v262h-446l-103 -262h-246zM449 467h366v651h-141q-8 -43 -23 -96q-12 -45 -30.5 -105.5t-47.5 -132.5z" />
<glyph unicode="&#x4d5;" horiz-adv-x="1525" d="M61 262q0 86 28 138.5t72 82t99 41t109 17.5l266 26v84q0 66 -34 94.5t-114 28.5q-88 0 -114.5 -31.5t-26.5 -91.5h-237q0 160 87 236t273 76q137 0 209 -43t98 -134q39 100 114 138.5t191 38.5q186 0 278.5 -90.5t92.5 -307.5q0 -29 -4 -77t-21 -91h-553 q2 -61 12.5 -105t32 -71.5t57.5 -40t89 -12.5q63 0 99 23.5t36 99.5h238q0 -86 -29 -145.5t-79 -96.5t-117.5 -53t-145.5 -16q-121 0 -194.5 43t-108.5 157q-35 -119 -116 -159.5t-220 -40.5q-74 0 -139.5 11t-116.5 41.5t-81 86t-30 143.5zM301 274q0 -55 28.5 -76.5 t100.5 -21.5q51 0 87 10.5t60.5 35t37 67.5t16.5 108l-180 -18q-80 -8 -115 -24.5t-35 -80.5zM877 569h335v25q0 49 -5 83t-21.5 55.5t-47 31.5t-79.5 10q-96 0 -136 -44t-46 -161z" />
<glyph unicode="&#x4d6;" horiz-adv-x="1165" d="M162 0v1352h901v-205h-662v-365h580v-204h-580v-373h662v-205h-901zM275 1745h166q0 -98 141 -98t141 98h166q0 -129 -77 -187t-230 -58q-154 0 -230.5 58t-76.5 187z" />
<glyph unicode="&#x4d7;" horiz-adv-x="1005" d="M72 467q0 141 27.5 236.5t83 152.5t139.5 82t198 25q104 0 182 -20.5t128.5 -67t75 -122t24.5 -188.5q0 -29 -4 -77t-21 -91h-592q2 -61 13.5 -105t36 -71.5t64.5 -40t101 -12.5q72 0 111 23.5t39 99.5h237q0 -86 -29.5 -145.5t-82.5 -96.5t-128 -53t-167 -16 q-115 0 -197 25.5t-135 82.5t-78.5 150.5t-25.5 228.5zM195 1335h166q0 -98 141 -98t141 98h166q0 -129 -77 -187t-230 -58q-154 0 -230.5 58t-76.5 187zM315 569h375v37q0 43 -6 75t-24.5 52.5t-52.5 30.5t-89 10q-111 0 -153.5 -46t-49.5 -159z" />
<glyph unicode="&#x4d8;" horiz-adv-x="1325" d="M86 592q0 23 2 65.5t18 79.5h889q-4 123 -26.5 207t-64.5 135t-105.5 74t-149.5 23q-59 0 -111.5 -10.5t-91 -34t-61.5 -60.5t-23 -92h-239q0 106 41 181t112.5 122t169 68.5t207.5 21.5q152 0 261.5 -36t181 -117.5t106.5 -214t35 -324.5q0 -197 -35 -330t-107.5 -216 t-184 -118.5t-263.5 -35.5q-143 0 -248.5 25.5t-175 94t-103.5 187.5t-34 305zM328 541q6 -115 29.5 -186.5t61.5 -111.5t92 -53.5t126 -13.5q162 0 247 81t105 284h-661z" />
<glyph unicode="&#x4d9;" horiz-adv-x="1005" d="M82 375q0 31 4 78t20 92h592q-2 61 -12 105t-34.5 72t-64.5 40t-102 12q-72 0 -111.5 -25.5t-39.5 -97.5h-238q0 86 30 145.5t83 96.5t128 53.5t167 16.5q113 0 195.5 -26t136 -83t79 -151.5t25.5 -229.5q0 -141 -27.5 -236.5t-83 -151.5t-140.5 -80.5t-197 -24.5 q-104 0 -182.5 20t-128.5 66.5t-74.5 122t-24.5 186.5zM322 336q0 -43 6 -75t24.5 -52.5t52.5 -30.5t89 -10t93 10t61.5 34t34.5 62.5t15 98.5h-374q-2 -10 -2 -18.5v-18.5z" />
<glyph unicode="&#x4da;" horiz-adv-x="1325" d="M86 592q0 23 2 65.5t18 79.5h889q-4 123 -26.5 207t-64.5 135t-105.5 74t-149.5 23q-59 0 -111.5 -10.5t-91 -34t-61.5 -60.5t-23 -92h-239q0 106 41 181t112.5 122t169 68.5t207.5 21.5q152 0 261.5 -36t181 -117.5t106.5 -214t35 -324.5q0 -197 -35 -330t-107.5 -216 t-184 -118.5t-263.5 -35.5q-143 0 -248.5 25.5t-175 94t-103.5 187.5t-34 305zM328 541q6 -115 29.5 -186.5t61.5 -111.5t92 -53.5t126 -13.5q162 0 247 81t105 284h-661zM365 1504v225h206v-225h-206zM750 1504v225h207v-225h-207z" />
<glyph unicode="&#x4db;" horiz-adv-x="1005" d="M82 375q0 31 4 78t20 92h592q-2 61 -12 105t-34.5 72t-64.5 40t-102 12q-72 0 -111.5 -25.5t-39.5 -97.5h-238q0 86 30 145.5t83 96.5t128 53.5t167 16.5q113 0 195.5 -26t136 -83t79 -151.5t25.5 -229.5q0 -141 -27.5 -236.5t-83 -151.5t-140.5 -80.5t-197 -24.5 q-104 0 -182.5 20t-128.5 66.5t-74.5 122t-24.5 186.5zM205 1094v225h206v-225h-206zM322 336q0 -43 6 -75t24.5 -52.5t52.5 -30.5t89 -10t93 10t61.5 34t34.5 62.5t15 98.5h-374q-2 -10 -2 -18.5v-18.5zM590 1094v225h207v-225h-207z" />
<glyph unicode="&#x4dc;" horiz-adv-x="1777" d="M25 0l440 684l-430 668h256l366 -570h113v570h240v-570h108l369 570h256l-430 -668l440 -684h-256l-373 578h-114v-578h-240v578h-117l-372 -578h-256zM592 1504v225h206v-225h-206zM977 1504v225h207v-225h-207z" />
<glyph unicode="&#x4dd;" horiz-adv-x="1411" d="M12 0l310 479l-299 463h256l239 -373h68v373h239v-373h66l242 373h256l-299 -463l309 -479h-256l-242 373h-76v-373h-239v373h-78l-240 -373h-256zM410 1094v225h206v-225h-206zM795 1094v225h207v-225h-207z" />
<glyph unicode="&#x4de;" horiz-adv-x="1249" d="M63 373h238q0 -102 67.5 -145.5t239.5 -43.5q154 0 229.5 39t75.5 144q0 61 -24.5 101t-65.5 64.5t-97 35t-118 10.5h-100v204h94q57 0 107.5 9.5t89.5 33t61.5 62.5t22.5 100q0 104 -69 142t-216 38q-154 0 -215 -41t-61 -147h-238q0 213 128 303t378 90 q150 0 254 -28.5t167.5 -79t90 -121t20.5 -156.5q-10 -133 -85.5 -204.5t-196.5 -100.5q147 -27 230 -102.5t83 -227.5q0 -193 -137 -282.5t-418 -89.5q-285 0 -410 96t-125 297zM328 1504v225h206v-225h-206zM713 1504v225h207v-225h-207z" />
<glyph unicode="&#x4df;" horiz-adv-x="964" d="M59 291h232q0 -57 45 -82t137 -25q82 0 129 22.5t47 80.5q0 31 -16.5 50t-41 31.5t-56 16.5t-62.5 4h-102v164h102q61 0 113.5 24.5t52.5 86.5q0 53 -40 73.5t-116 20.5q-88 0 -132 -22.5t-44 -84.5h-237q0 166 98 239t307 73q213 0 307.5 -71t94.5 -190 q0 -102 -54.5 -155t-140.5 -76q90 -20 147.5 -73.5t57.5 -155.5q0 -121 -98.5 -191.5t-315.5 -70.5q-211 0 -312.5 72.5t-101.5 238.5zM187 1094v225h206v-225h-206zM572 1094v225h207v-225h-207z" />
<glyph unicode="&#x4e0;" horiz-adv-x="1097" d="M10 -119h240q0 -53 18.5 -89t51 -57.5t76.5 -31.5t96 -10q80 0 131 38t81.5 102.5t42 149.5t11.5 181q0 211 -57.5 332.5t-198.5 121.5h-142v197q70 82 138.5 165t140.5 167h-588v205h897v-205l-174 -182q-41 -41 -84 -82t-88 -76q197 -45 296 -195.5t99 -447.5 q0 -145 -26.5 -269t-86 -214.5t-154.5 -141.5t-234 -51q-98 0 -187.5 21.5t-155 68.5t-104.5 122t-39 181z" />
<glyph unicode="&#x4e1;" horiz-adv-x="1064" d="M35 -119h239q0 -104 59.5 -146t149.5 -42q74 0 120 21.5t74 58.5t38 85t10 101q0 117 -55.5 183.5t-184.5 66.5h-141v197q70 82 138.5 164.5t140.5 166.5h-547v205h839v-205q-86 -88 -167.5 -172t-167.5 -168q385 -41 385 -438q0 -102 -25 -188t-81 -148.5t-147 -98.5 t-225 -36q-92 0 -175 21.5t-144.5 68.5t-97 122t-35.5 181z" />
<glyph unicode="&#x4e2;" horiz-adv-x="1415" d="M162 0v1352h239v-834q0 -63 -4 -112.5t-8 -83.5q-6 -41 -10 -72h8q4 4 37 92t108 227l431 783h290v-1352h-239v829q0 61 3 111.5t7 85.5q4 41 10 72h-8q-4 -2 -12 -26.5t-25.5 -66.5t-44 -99.5t-63.5 -125.5l-430 -780h-289zM353 1551v131h710v-131h-710z" />
<glyph unicode="&#x4e3;" horiz-adv-x="1138" d="M133 0v942h240v-440q0 -63 -3 -113.5t-8 -85.5q-6 -41 -10 -72h8q10 37 29 82q16 39 37.5 91.5t54.5 113.5q59 106 117.5 212t116.5 212h289v-942h-240v436q0 61 3 111.5t7 85.5q6 41 12 72h-8q6 8 -21.5 -53.5t-78.5 -164t-118.5 -231.5t-137.5 -256h-289zM213 1141v131 h710v-131h-710z" />
<glyph unicode="&#x4e4;" horiz-adv-x="1415" d="M162 0v1352h239v-834q0 -63 -4 -112.5t-8 -83.5q-6 -41 -10 -72h8q4 4 37 92t108 227l431 783h290v-1352h-239v829q0 61 3 111.5t7 85.5q4 41 10 72h-8q-4 -2 -12 -26.5t-25.5 -66.5t-44 -99.5t-63.5 -125.5l-430 -780h-289zM412 1504v225h206v-225h-206zM797 1504v225 h207v-225h-207z" />
<glyph unicode="&#x4e5;" horiz-adv-x="1138" d="M133 0v942h240v-440q0 -63 -3 -113.5t-8 -85.5q-6 -41 -10 -72h8q10 37 29 82q16 39 37.5 91.5t54.5 113.5q59 106 117.5 212t116.5 212h289v-942h-240v436q0 61 3 111.5t7 85.5q6 41 12 72h-8q6 8 -21.5 -53.5t-78.5 -164t-118.5 -231.5t-137.5 -256h-289zM273 1094v225 h206v-225h-206zM658 1094v225h207v-225h-207z" />
<glyph unicode="&#x4e6;" horiz-adv-x="1398" d="M86 676q0 197 36 331t111.5 215t190.5 115.5t274 34.5q160 0 276 -34.5t190.5 -115.5t110.5 -215.5t36 -330.5q0 -197 -36 -331t-110.5 -215t-190.5 -115.5t-276 -34.5t-274.5 34.5t-190 115.5t-111.5 215t-36 331zM326 676q0 -139 21.5 -233.5t67.5 -152t116.5 -82 t166.5 -24.5q98 0 168 24.5t116 82t67.5 152t21.5 233.5q0 137 -21.5 231t-67.5 152.5t-115.5 83t-168.5 24.5q-96 0 -166.5 -24.5t-116.5 -83t-67.5 -152.5t-21.5 -231zM402 1504v225h206v-225h-206zM787 1504v225h207v-225h-207z" />
<glyph unicode="&#x4e7;" horiz-adv-x="1042" d="M74 471q0 139 26.5 233.5t81 151.5t139.5 82t201 25q117 0 201 -25t139.5 -82t82 -151.5t26.5 -233.5t-26.5 -233.5t-82 -151.5t-139.5 -81.5t-201 -24.5t-201.5 24.5t-139 81.5t-81 151.5t-26.5 233.5zM224 1094v225h206v-225h-206zM313 471q0 -170 47 -236.5t162 -66.5 q113 0 161 66.5t48 236.5t-48 236.5t-161 66.5q-115 0 -162 -66.5t-47 -236.5zM609 1094v225h207v-225h-207z" />
<glyph unicode="&#x4e8;" horiz-adv-x="1398" d="M86 676q0 197 36 331t111.5 215t190.5 115.5t274 34.5q160 0 276 -34.5t190.5 -115.5t110.5 -215.5t36 -330.5q0 -197 -36 -331t-110.5 -215t-190.5 -115.5t-276 -34.5t-274.5 34.5t-190 115.5t-111.5 215t-36 331zM330 578q6 -111 31.5 -187t71.5 -122t111.5 -65.5 t153.5 -19.5t155 19.5t112 65.5t70.5 122t33.5 187h-739zM330 782h737q-16 213 -105.5 299t-263.5 86q-86 0 -151.5 -20.5t-111.5 -65.5t-71.5 -118.5t-33.5 -180.5z" />
<glyph unicode="&#x4e9;" horiz-adv-x="1042" d="M74 471q0 139 26.5 233.5t81 151.5t139.5 82t201 25q117 0 201 -25t139.5 -82t82 -151.5t26.5 -233.5t-26.5 -233.5t-82 -151.5t-139.5 -81.5t-201 -24.5t-201.5 24.5t-139 81.5t-81 151.5t-26.5 233.5zM315 389q10 -125 58.5 -173t148.5 -48q98 0 146.5 48t58.5 173 h-412zM315 561h410q-10 119 -57.5 166t-145.5 47t-147 -47t-60 -166z" />
<glyph unicode="&#x4ea;" horiz-adv-x="1398" d="M86 676q0 197 36 331t111.5 215t190.5 115.5t274 34.5q160 0 276 -34.5t190.5 -115.5t110.5 -215.5t36 -330.5q0 -197 -36 -331t-110.5 -215t-190.5 -115.5t-276 -34.5t-274.5 34.5t-190 115.5t-111.5 215t-36 331zM330 578q6 -111 31.5 -187t71.5 -122t111.5 -65.5 t153.5 -19.5t155 19.5t112 65.5t70.5 122t33.5 187h-739zM330 782h737q-16 213 -105.5 299t-263.5 86q-86 0 -151.5 -20.5t-111.5 -65.5t-71.5 -118.5t-33.5 -180.5zM402 1504v225h206v-225h-206zM787 1504v225h207v-225h-207z" />
<glyph unicode="&#x4eb;" horiz-adv-x="1042" d="M74 471q0 139 26.5 233.5t81 151.5t139.5 82t201 25q117 0 201 -25t139.5 -82t82 -151.5t26.5 -233.5t-26.5 -233.5t-82 -151.5t-139.5 -81.5t-201 -24.5t-201.5 24.5t-139 81.5t-81 151.5t-26.5 233.5zM224 1094v225h206v-225h-206zM315 389q10 -125 58.5 -173 t148.5 -48q98 0 146.5 48t58.5 173h-412zM315 561h410q-10 119 -57.5 166t-145.5 47t-147 -47t-60 -166zM609 1094v225h207v-225h-207z" />
<glyph unicode="&#x4ec;" horiz-adv-x="1234" d="M35 373h231q0 -51 24.5 -87t65.5 -58.5t94.5 -33t108.5 -10.5q84 0 146.5 19.5t106.5 65.5t68.5 122t32.5 187h-489v204h487q-8 109 -32.5 182.5t-67.5 118.5t-105.5 64.5t-144.5 19.5q-63 0 -116.5 -10t-93.5 -32.5t-62.5 -58.5t-22.5 -87h-231q0 106 41 181t113.5 122 t173 68.5t217.5 21.5q145 0 251.5 -37t177 -118.5t104.5 -214t34 -324.5q0 -193 -34 -326t-104.5 -216t-177 -119.5t-251.5 -36.5q-111 0 -210.5 21.5t-173 68.5t-117.5 121.5t-44 181.5zM320 1504v225h206v-225h-206zM705 1504v225h207v-225h-207z" />
<glyph unicode="&#x4ed;" horiz-adv-x="960" d="M45 291h238q0 -72 42 -97.5t121 -25.5q109 0 151 48t50 169h-315v172h315q-8 121 -50 169t-148 48q-84 0 -125 -28.5t-41 -94.5h-238q0 84 29.5 143.5t85 96.5t132.5 54.5t173 17.5q115 0 194.5 -26t131 -84t74 -152.5t22.5 -229.5q0 -137 -23.5 -230.5t-74 -151.5 t-131 -83.5t-195.5 -25.5q-94 0 -171 16t-132.5 53t-85 96.5t-29.5 145.5zM185 1094v225h206v-225h-206zM570 1094v225h207v-225h-207z" />
<glyph unicode="&#x4ee;" horiz-adv-x="1261" d="M20 1352h259l266 -594q31 -70 48 -124t26.5 -91t12.5 -55.5t5 -18.5h6q4 35 16 78q10 37 28 90t46 119l246 596h258l-508 -1098q-25 -51 -45 -98t-57 -84t-102.5 -58.5t-184.5 -21.5v205q55 0 86 6t49.5 19.5t28.5 36t20 52.5zM273 1551v131h710v-131h-710z" />
<glyph unicode="&#x4ef;" horiz-adv-x="989" d="M8 942h250q37 -113 74 -224.5t76 -223.5q43 -150 59 -232t16 -84h6q4 33 13 78q8 37 20.5 90t34.5 119l10 27q39 113 78 224t78 226h250q-98 -258 -193.5 -512t-193.5 -510q-82 -215 -192.5 -313.5t-246.5 -98.5v205q33 0 66 20.5t62.5 55.5t53 80t42.5 94 q-92 246 -182.5 488.5t-180.5 490.5zM144 1141v131h710v-131h-710z" />
<glyph unicode="&#x4f0;" horiz-adv-x="1261" d="M20 1352h259l266 -594q31 -70 48 -124t26.5 -91t12.5 -55.5t5 -18.5h6q4 35 16 78q10 37 28 90t46 119l246 596h258l-508 -1098q-25 -51 -45 -98t-57 -84t-102.5 -58.5t-184.5 -21.5v205q55 0 86 6t49.5 19.5t28.5 36t20 52.5zM332 1504v225h206v-225h-206zM717 1504v225 h207v-225h-207z" />
<glyph unicode="&#x4f1;" horiz-adv-x="989" d="M8 942h250q37 -113 74 -224.5t76 -223.5q43 -150 59 -232t16 -84h6q4 33 13 78q8 37 20.5 90t34.5 119l10 27q39 113 78 224t78 226h250q-98 -258 -193.5 -512t-193.5 -510q-82 -215 -192.5 -313.5t-246.5 -98.5v205q33 0 66 20.5t62.5 55.5t53 80t42.5 94 q-92 246 -182.5 488.5t-180.5 490.5zM197 1094v225h206v-225h-206zM582 1094v225h207v-225h-207z" />
<glyph unicode="&#x4f2;" horiz-adv-x="1261" d="M20 1352h259l266 -594q31 -70 48 -124t26.5 -91t12.5 -55.5t5 -18.5h6q4 35 16 78q10 37 28 90t46 119l246 596h258l-508 -1098q-25 -51 -45 -98t-57 -84t-102.5 -58.5t-184.5 -21.5v205q55 0 86 6t49.5 19.5t28.5 36t20 52.5zM358 1487l113 285h242l-199 -285h-156z M680 1487l145 285h256l-231 -285h-170z" />
<glyph unicode="&#x4f3;" horiz-adv-x="989" d="M8 942h250q37 -113 74 -224.5t76 -223.5q43 -150 59 -232t16 -84h6q4 33 13 78q8 37 20.5 90t34.5 119l10 27q39 113 78 224t78 226h250q-98 -258 -193.5 -512t-193.5 -510q-82 -215 -192.5 -313.5t-246.5 -98.5v205q33 0 66 20.5t62.5 55.5t53 80t42.5 94 q-92 246 -182.5 488.5t-180.5 490.5zM213 1077l113 285h242l-199 -285h-156zM535 1077l145 285h256l-231 -285h-170z" />
<glyph unicode="&#x4f4;" horiz-adv-x="1245" d="M61 922v430h240v-430q0 -162 70.5 -228.5t222.5 -66.5q66 0 113 13t77.5 47t45 90.5t14.5 144.5v430h239v-1352h-239v416q0 47 4 91t8 89h-4q-37 -106 -110.5 -140t-184.5 -34q-244 0 -370 118.5t-126 381.5zM326 1504v225h206v-225h-206zM711 1504v225h207v-225h-207z " />
<glyph unicode="&#x4f5;" horiz-adv-x="1056" d="M70 647v295h239v-295q0 -121 35 -163t121 -42q115 0 166 68t51 231v201h240v-942h-240v242q0 47 4 90t8 90h-2q-35 -98 -99.5 -133t-168.5 -35q-178 0 -266 88t-88 305zM232 1094v225h206v-225h-206zM617 1094v225h207v-225h-207z" />
<glyph unicode="&#x4f8;" horiz-adv-x="1732" d="M162 0v1352h239v-488h306q123 0 212 -22.5t147 -74.5t87 -137t29 -208q0 -119 -29 -200t-87 -130t-147.5 -70.5t-211.5 -21.5h-545zM401 205h293q135 0 191.5 47t56.5 170q0 133 -57.5 185t-190.5 52h-293v-454zM570 1504v225h206v-225h-206zM955 1504v225h207v-225h-207 zM1331 0v1352h240v-1352h-240z" />
<glyph unicode="&#x4f9;" horiz-adv-x="1349" d="M133 0v942h240v-321h153q193 0 282 -70t89 -240q0 -90 -21.5 -149.5t-67.5 -95t-115.5 -51t-166.5 -15.5h-393zM373 197h145q74 0 106.5 23.5t32.5 90.5q0 59 -32.5 86t-106.5 27h-145v-227zM379 1094v225h206v-225h-206zM764 1094v225h207v-225h-207zM999 0v942h240 v-942h-240z" />
<glyph unicode="&#x1e00;" horiz-adv-x="1349" d="M20 0q135 340 272.5 676t274.5 676h219q135 -340 270.5 -676t272.5 -676h-246l-102 262h-612l-103 -262h-246zM446 467h455q-45 109 -88 225.5t-75.5 212.5t-49 156.5t-8.5 56.5h-8l-5 -26q-5 -25 -16.5 -71t-30 -107.5t-47.5 -131.5zM485 -307q0 72 51.5 125t137.5 53 t137 -53.5t51 -124.5q0 -78 -48 -131.5t-140 -53.5t-140.5 53.5t-48.5 131.5zM590 -309q0 -33 20.5 -58.5t63.5 -25.5t63.5 25.5t20.5 58.5q0 37 -21.5 61.5t-62.5 24.5t-62.5 -24.5t-21.5 -61.5z" />
<glyph unicode="&#x1e01;" horiz-adv-x="1030" d="M61 264q0 100 38 155.5t95.5 82t127 34t133.5 13.5q55 4 110.5 9t110.5 11v82q0 66 -37 94.5t-131 28.5q-72 0 -117 -29.5t-45 -93.5h-237q0 166 95 239t304 73q115 0 192.5 -21.5t125.5 -61.5t68.5 -97.5t20.5 -131.5v-387q0 -41 21.5 -62.5t54.5 -21.5v-188 q-78 0 -131 11t-86 29.5t-50 45t-24 57.5q-33 -92 -100.5 -123.5t-179.5 -31.5q-68 0 -132.5 11t-114.5 41.5t-81 86t-31 145.5zM301 272q0 -55 29.5 -75.5t109.5 -20.5q119 0 170.5 53.5t61.5 169.5l-223 -22q-78 -8 -113 -25.5t-35 -79.5zM325 -307q0 72 51.5 125 t137.5 53t137 -53.5t51 -124.5q0 -78 -48 -131.5t-140 -53.5t-140.5 53.5t-48.5 131.5zM430 -309q0 -33 20.5 -58.5t63.5 -25.5t63.5 25.5t20.5 58.5q0 37 -21.5 61.5t-62.5 24.5t-62.5 -24.5t-21.5 -61.5z" />
<glyph unicode="&#x1e02;" horiz-adv-x="1273" d="M162 0v1352h545q111 0 192.5 -18.5t136 -61.5t80 -112.5t25.5 -170.5q0 -141 -62.5 -214t-193.5 -95q154 -23 225.5 -95.5t71.5 -219.5q0 -102 -29 -172t-87 -113t-147.5 -61.5t-211.5 -18.5h-545zM401 205h293q74 0 122 10t76 31.5t39 56.5t11 82q0 100 -53 146.5 t-195 46.5h-293v-373zM401 782h293q111 0 159 42t48 157q0 43 -9 74.5t-31.5 51t-63.5 30t-103 10.5h-293v-365zM531 1504v225h206v-225h-206z" />
<glyph unicode="&#x1e03;" horiz-adv-x="1116" d="M133 0v1405q59 6 119.5 13t120.5 16v-451q0 -47 -4 -91t-9 -89h7q35 90 98 125t166 35q104 0 182 -27t128 -85t75.5 -152.5t25.5 -227.5q0 -135 -25.5 -228t-75.5 -151.5t-128 -85t-182 -26.5t-170 35.5t-99 134.5l-20 -58q-6 -25 -11 -47t-12 -45h-186zM373 465 q0 -164 52 -230.5t167 -66.5q59 0 99 13.5t64.5 48t36 93t11.5 148.5t-11.5 148.5t-36 93.5t-65.5 48t-98 13q-113 0 -164 -62.5t-55 -213.5v-33zM443 1512v225h206v-225h-206z" />
<glyph unicode="&#x1e04;" horiz-adv-x="1273" d="M162 0v1352h545q111 0 192.5 -18.5t136 -61.5t80 -112.5t25.5 -170.5q0 -141 -62.5 -214t-193.5 -95q154 -23 225.5 -95.5t71.5 -219.5q0 -102 -29 -172t-87 -113t-147.5 -61.5t-211.5 -18.5h-545zM401 205h293q74 0 122 10t76 31.5t39 56.5t11 82q0 100 -53 146.5 t-195 46.5h-293v-373zM401 782h293q111 0 159 42t48 157q0 43 -9 74.5t-31.5 51t-63.5 30t-103 10.5h-293v-365zM531 -152h206v-225h-206v225z" />
<glyph unicode="&#x1e05;" horiz-adv-x="1116" d="M133 0v1405q59 6 119.5 13t120.5 16v-451q0 -47 -4 -91t-9 -89h7q35 90 98 125t166 35q104 0 182 -27t128 -85t75.5 -152.5t25.5 -227.5q0 -135 -25.5 -228t-75.5 -151.5t-128 -85t-182 -26.5t-170 35.5t-99 134.5l-20 -58q-6 -25 -11 -47t-12 -45h-186zM373 465 q0 -164 52 -230.5t167 -66.5q59 0 99 13.5t64.5 48t36 93t11.5 148.5t-11.5 148.5t-36 93.5t-65.5 48t-98 13q-113 0 -164 -62.5t-55 -213.5v-33zM453 -152h206v-225h-206v225z" />
<glyph unicode="&#x1e06;" horiz-adv-x="1273" d="M162 0v1352h545q111 0 192.5 -18.5t136 -61.5t80 -112.5t25.5 -170.5q0 -141 -62.5 -214t-193.5 -95q154 -23 225.5 -95.5t71.5 -219.5q0 -102 -29 -172t-87 -113t-147.5 -61.5t-211.5 -18.5h-545zM279 -199h710v-131h-710v131zM401 205h293q74 0 122 10t76 31.5t39 56.5 t11 82q0 100 -53 146.5t-195 46.5h-293v-373zM401 782h293q111 0 159 42t48 157q0 43 -9 74.5t-31.5 51t-63.5 30t-103 10.5h-293v-365z" />
<glyph unicode="&#x1e07;" horiz-adv-x="1116" d="M133 0v1405q59 6 119.5 13t120.5 16v-451q0 -47 -4 -91t-9 -89h7q35 90 98 125t166 35q104 0 182 -27t128 -85t75.5 -152.5t25.5 -227.5q0 -135 -25.5 -228t-75.5 -151.5t-128 -85t-182 -26.5t-170 35.5t-99 134.5l-20 -58q-6 -25 -11 -47t-12 -45h-186zM201 -199h710 v-131h-710v131zM373 465q0 -164 52 -230.5t167 -66.5q59 0 99 13.5t64.5 48t36 93t11.5 148.5t-11.5 148.5t-36 93.5t-65.5 48t-98 13q-113 0 -164 -62.5t-55 -213.5v-33z" />
<glyph unicode="&#x1e08;" horiz-adv-x="1239" d="M86 678q0 207 35 341t106.5 213t181 109.5t261.5 30.5q111 0 208 -16.5t167.5 -60.5t111.5 -120.5t41 -195.5h-240q0 63 -23.5 100t-63.5 56.5t-91 25.5t-106 6q-94 0 -161 -17t-107.5 -69.5t-60 -148.5t-19.5 -254t18 -254t60 -149.5t106.5 -72t157.5 -18.5 q49 0 100 5.5t94 24.5t69.5 57t26.5 102h240q0 -111 -37 -184.5t-101.5 -118.5t-150.5 -64.5t-182 -23.5l-6 -66q98 -6 148.5 -44t50.5 -116q0 -94 -75 -140t-188 -46q-53 0 -96 9t-65 24v121q31 -14 66.5 -22.5t72.5 -8.5q47 0 74.5 13t27.5 44q0 35 -35.5 56.5 t-117.5 25.5l16 150q-133 6 -229.5 41.5t-160 115.5t-94 211t-30.5 328zM503 1487l144 285h305l-248 -285h-201z" />
<glyph unicode="&#x1e09;" horiz-adv-x="960" d="M74 471q0 135 22.5 229.5t73.5 152.5t131 84t195 26q94 0 171.5 -17.5t133 -54.5t85 -96.5t29.5 -143.5h-237q0 66 -41 94.5t-125 28.5q-63 0 -102 -15.5t-60.5 -51t-29 -93t-7.5 -143.5t7.5 -143.5t29 -93t61.5 -51t103 -15.5q80 0 122 25.5t42 97.5h237 q0 -158 -99 -228.5t-265 -80.5l-6 -66q98 -6 148 -44t50 -116q0 -94 -74.5 -140t-187.5 -46q-53 0 -96 9t-66 24v121q31 -14 67 -22.5t73 -8.5q47 0 74.5 13t27.5 44q0 35 -36 56.5t-117 25.5l16 152q-96 6 -162.5 35.5t-107.5 88t-60.5 147.5t-19.5 216zM364 1077l144 285 h305l-248 -285h-201z" />
<glyph unicode="&#x1e0a;" horiz-adv-x="1349" d="M162 0v1352h407q180 0 312.5 -34t216.5 -113t125 -209t41 -320t-41 -320.5t-125 -209t-216 -112.5t-313 -34h-407zM401 205h168q119 0 205 23.5t141.5 78.5t82 145.5t26.5 223.5t-26.5 223t-82 145.5t-141.5 79t-205 23.5h-168v-942zM570 1504v225h206v-225h-206z" />
<glyph unicode="&#x1e0b;" horiz-adv-x="1116" d="M72 471q0 133 25.5 227.5t75.5 152.5t128 85t182 27q102 0 166 -35t99 -125h6q-4 45 -8.5 89t-4.5 91v422q59 6 120 13t120 16v-1434h-186q-10 35 -19.5 72t-21.5 78q-35 -98 -101 -134t-170 -36t-182 26.5t-128 85t-75.5 151.5t-25.5 228zM311 471q0 -90 11.5 -148.5 t37 -93t65.5 -48t99 -13.5q115 0 166 66.5t51 230.5v6q0 166 -50 234.5t-167 68.5q-59 0 -99 -13t-65.5 -48t-37 -93.5t-11.5 -148.5zM447 1512v225h206v-225h-206z" />
<glyph unicode="&#x1e0c;" horiz-adv-x="1349" d="M162 0v1352h407q180 0 312.5 -34t216.5 -113t125 -209t41 -320t-41 -320.5t-125 -209t-216 -112.5t-313 -34h-407zM401 205h168q119 0 205 23.5t141.5 78.5t82 145.5t26.5 223.5t-26.5 223t-82 145.5t-141.5 79t-205 23.5h-168v-942zM570 -152h206v-225h-206v225z" />
<glyph unicode="&#x1e0d;" horiz-adv-x="1116" d="M72 471q0 133 25.5 227.5t75.5 152.5t128 85t182 27q102 0 166 -35t99 -125h6q-4 45 -8.5 89t-4.5 91v422q59 6 120 13t120 16v-1434h-186q-10 35 -19.5 72t-21.5 78q-35 -98 -101 -134t-170 -36t-182 26.5t-128 85t-75.5 151.5t-25.5 228zM311 471q0 -90 11.5 -148.5 t37 -93t65.5 -48t99 -13.5q115 0 166 66.5t51 230.5v6q0 166 -50 234.5t-167 68.5q-59 0 -99 -13t-65.5 -48t-37 -93.5t-11.5 -148.5zM453 -152h206v-225h-206v225z" />
<glyph unicode="&#x1e0e;" horiz-adv-x="1349" d="M162 0v1352h407q180 0 312.5 -34t216.5 -113t125 -209t41 -320t-41 -320.5t-125 -209t-216 -112.5t-313 -34h-407zM318 -199h710v-131h-710v131zM401 205h168q119 0 205 23.5t141.5 78.5t82 145.5t26.5 223.5t-26.5 223t-82 145.5t-141.5 79t-205 23.5h-168v-942z" />
<glyph unicode="&#x1e0f;" horiz-adv-x="1116" d="M72 471q0 133 25.5 227.5t75.5 152.5t128 85t182 27q102 0 166 -35t99 -125h6q-4 45 -8.5 89t-4.5 91v422q59 6 120 13t120 16v-1434h-186q-10 35 -19.5 72t-21.5 78q-35 -98 -101 -134t-170 -36t-182 26.5t-128 85t-75.5 151.5t-25.5 228zM201 -199h710v-131h-710v131z M311 471q0 -90 11.5 -148.5t37 -93t65.5 -48t99 -13.5q115 0 166 66.5t51 230.5v6q0 166 -50 234.5t-167 68.5q-59 0 -99 -13t-65.5 -48t-37 -93.5t-11.5 -148.5z" />
<glyph unicode="&#x1e10;" horiz-adv-x="1349" d="M162 0v1352h407q180 0 312.5 -34t216.5 -113t125 -209t41 -320q0 -172 -33 -295t-101.5 -203t-174 -121t-250.5 -53l-9 -88q88 -6 135.5 -44t47.5 -116q0 -94 -72 -140t-174 -46q-53 0 -96 9t-66 24v121q31 -14 65.5 -22.5t71.5 -8.5q41 0 64.5 13t23.5 44 q0 35 -32.5 56.5t-104.5 25.5l19 168h-416zM401 205h168q119 0 205 23.5t141.5 78.5t82 145.5t26.5 223.5t-26.5 223t-82 145.5t-141.5 79t-205 23.5h-168v-942z" />
<glyph unicode="&#x1e11;" horiz-adv-x="1116" d="M72 471q0 133 25.5 227.5t75.5 152.5t128 85t182 27q102 0 166 -35t99 -125h6q-4 49 -8.5 98t-4.5 98v404q59 8 120 15t120 14v-1432h-186q-10 35 -19.5 72t-21.5 78q-25 -72 -66 -109t-102 -49q-2 -18 -3 -36.5t-5 -37.5q182 -12 182 -162q0 -94 -71 -139t-175 -45 q-53 0 -96 9t-66 24v121q62 -31 140 -31q41 0 63.5 12t22.5 45q0 35 -32 55.5t-106 26.5l17 148q-98 2 -170 30.5t-120 87t-71.5 150.5t-23.5 221zM311 471q0 -90 11.5 -148.5t37 -93t65.5 -48t99 -13.5q109 0 163 62.5t54 215.5v29q0 164 -51 231.5t-166 67.5 q-59 0 -99 -13t-65.5 -48t-37 -93.5t-11.5 -148.5z" />
<glyph unicode="&#x1e12;" horiz-adv-x="1349" d="M162 0v1352h407q180 0 312.5 -34t216.5 -113t125 -209t41 -320t-41 -320.5t-125 -209t-216 -112.5t-313 -34h-407zM307 -418l282 271h170l281 -271h-233l-68 70q-20 20 -31.5 35.5t-17.5 25.5q-8 12 -12 23h-7q-4 -10 -12 -23q-8 -10 -20.5 -25.5t-30.5 -35.5l-66 -70 h-235zM401 205h168q119 0 205 23.5t141.5 78.5t82 145.5t26.5 223.5t-26.5 223t-82 145.5t-141.5 79t-205 23.5h-168v-942z" />
<glyph unicode="&#x1e13;" horiz-adv-x="1116" d="M72 471q0 133 25.5 227.5t75.5 152.5t128 85t182 27q102 0 166 -35t99 -125h6q-4 45 -8.5 89t-4.5 91v422q59 6 120 13t120 16v-1434h-186q-10 35 -19.5 72t-21.5 78q-35 -98 -101 -134t-170 -36t-182 26.5t-128 85t-75.5 151.5t-25.5 228zM191 -418l282 271h170 l281 -271h-233l-68 70q-20 20 -31.5 35.5t-17.5 25.5q-8 12 -12 23h-7q-4 -10 -12 -23q-8 -10 -20.5 -25.5t-30.5 -35.5l-66 -70h-235zM311 471q0 -90 11.5 -148.5t37 -93t65.5 -48t99 -13.5q115 0 166 66.5t51 230.5v6q0 166 -50 234.5t-167 68.5q-59 0 -99 -13t-65.5 -48 t-37 -93.5t-11.5 -148.5z" />
<glyph unicode="&#x1e14;" horiz-adv-x="1165" d="M162 0v1352h901v-205h-662v-365h580v-204h-580v-373h662v-205h-901zM228 1510v131h710v-131h-710zM297 2030h306l143 -285h-201z" />
<glyph unicode="&#x1e15;" horiz-adv-x="1005" d="M72 467q0 141 27.5 236.5t83 152.5t139.5 82t198 25q104 0 182 -20.5t128.5 -67t75 -122t24.5 -188.5q0 -29 -4 -77t-21 -91h-592q2 -61 13.5 -105t36 -71.5t64.5 -40t101 -12.5q72 0 111 23.5t39 99.5h237q0 -86 -29.5 -145.5t-82.5 -96.5t-128 -53t-167 -16 q-115 0 -197 25.5t-135 82.5t-78.5 150.5t-25.5 228.5zM152 1102v131h710v-131h-710zM233 1636h306l143 -285h-201zM315 569h375v37q0 43 -6 75t-24.5 52.5t-52.5 30.5t-89 10q-111 0 -153.5 -46t-49.5 -159z" />
<glyph unicode="&#x1e16;" horiz-adv-x="1165" d="M162 0v1352h901v-205h-662v-365h580v-204h-580v-373h662v-205h-901zM271 1510v131h710v-131h-710zM487 1745l144 285h305l-248 -285h-201z" />
<glyph unicode="&#x1e17;" horiz-adv-x="1005" d="M72 467q0 141 27.5 236.5t83 152.5t139.5 82t198 25q104 0 182 -20.5t128.5 -67t75 -122t24.5 -188.5q0 -29 -4 -77t-21 -91h-592q2 -61 13.5 -105t36 -71.5t64.5 -40t101 -12.5q72 0 111 23.5t39 99.5h237q0 -86 -29.5 -145.5t-82.5 -96.5t-128 -53t-167 -16 q-115 0 -197 25.5t-135 82.5t-78.5 150.5t-25.5 228.5zM152 1102v131h710v-131h-710zM315 569h375v37q0 43 -6 75t-24.5 52.5t-52.5 30.5t-89 10q-111 0 -153.5 -46t-49.5 -159zM389 1351l144 285h305l-248 -285h-201z" />
<glyph unicode="&#x1e18;" horiz-adv-x="1165" d="M162 0v1352h901v-205h-662v-365h580v-204h-580v-373h662v-205h-901zM213 -418l282 271h170l281 -271h-233l-68 70q-20 20 -31.5 35.5t-17.5 25.5q-8 12 -12 23h-7q-4 -10 -12 -23q-8 -10 -20.5 -25.5t-30.5 -35.5l-66 -70h-235z" />
<glyph unicode="&#x1e19;" horiz-adv-x="1005" d="M72 467q0 141 27.5 236.5t83 152.5t139.5 82t198 25q104 0 182 -20.5t128.5 -67t75 -122t24.5 -188.5q0 -29 -4 -77t-21 -91h-592q2 -61 13.5 -105t36 -71.5t64.5 -40t101 -12.5q72 0 111 23.5t39 99.5h237q0 -86 -29.5 -145.5t-82.5 -96.5t-128 -53t-167 -16 q-115 0 -197 25.5t-135 82.5t-78.5 150.5t-25.5 228.5zM135 -418l282 271h170l281 -271h-233l-68 70q-20 20 -31.5 35.5t-17.5 25.5q-8 12 -12 23h-7q-4 -10 -12 -23q-8 -10 -20.5 -25.5t-30.5 -35.5l-66 -70h-235zM315 569h375v37q0 43 -6 75t-24.5 52.5t-52.5 30.5t-89 10 q-111 0 -153.5 -46t-49.5 -159z" />
<glyph unicode="&#x1e1a;" horiz-adv-x="1165" d="M162 0v1352h901v-205h-662v-365h580v-204h-580v-373h662v-205h-901zM276 -385q0 43 5.5 87t22.5 78t51 55.5t91 21.5q43 0 72 -13.5t57 -33.5q35 -25 58.5 -41.5t52.5 -16.5t41 22.5t12 78.5h148q0 -47 -4 -90.5t-20.5 -76t-50.5 -51t-93 -18.5q-47 0 -74 13.5t-61 35.5 q-37 25 -59.5 39t-45.5 14q-33 0 -48 -24.5t-15 -79.5h-140z" />
<glyph unicode="&#x1e1b;" horiz-adv-x="1005" d="M72 467q0 141 27.5 236.5t83 152.5t139.5 82t198 25q104 0 182 -20.5t128.5 -67t75 -122t24.5 -188.5q0 -29 -4 -77t-21 -91h-592q2 -61 13.5 -105t36 -71.5t64.5 -40t101 -12.5q72 0 111 23.5t39 99.5h237q0 -86 -29.5 -145.5t-82.5 -96.5t-128 -53t-167 -16 q-115 0 -197 25.5t-135 82.5t-78.5 150.5t-25.5 228.5zM196 -385q0 43 5.5 87t22.5 78t51 55.5t91 21.5q43 0 72 -13.5t57 -33.5q35 -25 58.5 -41.5t52.5 -16.5t41 22.5t12 78.5h148q0 -47 -4 -90.5t-20.5 -76t-50.5 -51t-93 -18.5q-47 0 -74 13.5t-61 35.5q-37 25 -59.5 39 t-45.5 14q-33 0 -48 -24.5t-15 -79.5h-140zM315 569h375v37q0 43 -6 75t-24.5 52.5t-52.5 30.5t-89 10q-111 0 -153.5 -46t-49.5 -159z" />
<glyph unicode="&#x1e1c;" horiz-adv-x="1165" d="M162 0v1352h901v-205h-662v-365h580v-204h-580v-373h662v-205h-451l-8 -84q98 -6 148.5 -44t50.5 -116q0 -94 -75 -140t-187 -46q-53 0 -96.5 9t-65.5 24v121q31 -14 66.5 -22.5t72.5 -8.5q47 0 75 13t28 44q0 35 -36 56.5t-118 25.5l18 168h-323zM275 1745h166 q0 -98 141 -98t141 98h166q0 -129 -77 -187t-230 -58q-154 0 -230.5 58t-76.5 187z" />
<glyph unicode="&#x1e1d;" horiz-adv-x="1005" d="M72 467q0 141 27.5 236.5t83 152.5t139.5 82t198 25q104 0 182 -20.5t128.5 -67t75 -122t24.5 -188.5q0 -29 -4 -77t-21 -91h-592q2 -61 13.5 -105t36 -71.5t64.5 -40t101 -12.5q70 0 110 25.5t40 97.5h237q0 -82 -28.5 -141.5t-79.5 -97.5t-122 -55t-157 -17l-6 -62 q182 -12 183 -162q0 -94 -71 -139t-175 -45q-53 0 -96.5 9t-65.5 24v121q61 -31 139 -31q41 0 63.5 12t22.5 45q0 35 -32.5 55.5t-104.5 26.5l16 152q-170 20 -249.5 130.5t-79.5 350.5zM195 1335h166q0 -98 141 -98t141 98h166q0 -129 -77 -187t-230 -58q-154 0 -230.5 58 t-76.5 187zM315 569h375v37q0 43 -6 75t-24.5 52.5t-52.5 30.5t-89 10q-111 0 -153.5 -46t-49.5 -159z" />
<glyph unicode="&#x1e1e;" horiz-adv-x="1130" d="M162 0v1352h901v-205h-662v-367h580v-202h-580v-578h-239zM461 1504v225h206v-225h-206z" />
<glyph unicode="&#x1e1f;" horiz-adv-x="636" d="M27 754v188h125v123q0 209 127 292t399 77v-189q-86 2 -141.5 -6t-87 -29.5t-45 -57.5t-13.5 -87v-123h248v-188h-248v-754h-239v754h-125zM189 1512v225h206v-225h-206z" />
<glyph unicode="&#x1e20;" horiz-adv-x="1349" d="M86 682q0 203 35 336t106.5 212t182 110.5t262.5 31.5q111 0 207 -16.5t166.5 -60.5t111.5 -120.5t41 -195.5h-237q0 59 -21.5 96t-59.5 57.5t-90.5 27.5t-113.5 7q-100 0 -167 -20.5t-108 -75.5t-58 -151.5t-17 -249.5q0 -129 13 -221.5t47 -150.5t92.5 -86t148.5 -28 q147 0 245.5 78t114.5 250h-293v186h535v-698h-203l-18 127l-7.5 37.5t-7.5 36.5q-57 -121 -157.5 -171t-239.5 -50q-152 0 -250 52t-156.5 145t-81 222t-22.5 283zM318 1551v131h710v-131h-710z" />
<glyph unicode="&#x1e21;" horiz-adv-x="1075" d="M45 -250q0 84 46 144.5t112 113.5q-29 25 -44.5 58.5t-15.5 76.5q0 51 20.5 82t55.5 60q-72 41 -108.5 115.5t-36.5 193.5q0 104 29.5 175t86 114t135 61.5t177.5 18.5q129 0 222 -33t146 -111q35 66 85.5 94.5t119.5 28.5v-205q-98 0 -153 -67q4 -16 6 -34.5t2 -41.5 q0 -104 -31 -175t-86 -114t-134 -61.5t-177 -18.5q-57 0 -101 6q-12 -16 -16 -33.5t-4 -35.5q0 -31 24.5 -44.5t96.5 -23.5q61 -10 143 -21.5t157 -42t126 -89t51 -158.5q0 -133 -110.5 -209t-362.5 -76q-236 0 -348.5 65.5t-112.5 186.5zM181 1141v131h710v-131h-710z M279 -195q0 -61 52 -89.5t171 -28.5q100 0 168.5 23.5t68.5 90.5q0 35 -21.5 54.5t-55 29t-75.5 13.5t-85 10q-41 4 -80 11t-74 20q-23 -31 -46 -58.5t-23 -75.5zM313 594q0 -102 40 -141t149 -39q106 0 147 39t41 141t-41 141t-147 39q-109 0 -149 -39t-40 -141z" />
<glyph unicode="&#x1e22;" horiz-adv-x="1415" d="M162 0v1352h239v-570h613v570h239v-1352h-239v578h-613v-578h-239zM605 1504v225h206v-225h-206z" />
<glyph unicode="&#x1e23;" horiz-adv-x="1126" d="M133 0v1405q59 6 119.5 13t120.5 16v-451q0 -47 -4 -91t-9 -89h7q35 92 100 126t172 34q182 0 272 -93.5t90 -316.5v-553h-239v553q0 66 -9.5 109t-30 67.5t-52 34.5t-74.5 10q-117 0 -170 -67.5t-53 -231.5v-475h-240zM527 1422v225h206v-225h-206z" />
<glyph unicode="&#x1e24;" horiz-adv-x="1415" d="M162 0v1352h239v-570h613v570h239v-1352h-239v578h-613v-578h-239zM605 -152h206v-225h-206v225z" />
<glyph unicode="&#x1e25;" horiz-adv-x="1126" d="M133 0v1405q59 6 119.5 13t120.5 16v-451q0 -47 -4 -91t-9 -89h7q35 92 100 126t172 34q182 0 272 -93.5t90 -316.5v-553h-239v553q0 66 -9.5 109t-30 67.5t-52 34.5t-74.5 10q-117 0 -170 -67.5t-53 -231.5v-475h-240zM459 -152h206v-225h-206v225z" />
<glyph unicode="&#x1e26;" horiz-adv-x="1415" d="M162 0v1352h239v-570h613v570h239v-1352h-239v578h-613v-578h-239zM412 1503v226h206v-226h-206zM797 1503v226h207v-226h-207z" />
<glyph unicode="&#x1e27;" horiz-adv-x="1126" d="M133 0v1405q59 6 119.5 13t120.5 16v-451q0 -47 -4 -91t-9 -89h7q35 92 100 126t172 34q182 0 272 -93.5t90 -316.5v-553h-239v553q0 66 -9.5 109t-30 67.5t-52 34.5t-74.5 10q-117 0 -170 -67.5t-53 -231.5v-475h-240zM322 1544v225h206v-225h-206zM707 1544v225h206 v-225h-206z" />
<glyph unicode="&#x1e28;" horiz-adv-x="1415" d="M106 -274q29 -16 65 -23.5t73 -7.5q41 0 64.5 12t23.5 45q0 35 -33 55.5t-104 26.5l18 166h-51v1352h239v-572h613v572h239v-1352h-239v578h-613v-578h-63l-6 -82q180 -12 180 -162q0 -94 -69.5 -139t-174.5 -45q-53 0 -96 9t-66 24v121z" />
<glyph unicode="&#x1e29;" horiz-adv-x="1126" d="M86 -274q29 -16 64.5 -23.5t72.5 -7.5q41 0 64.5 12t23.5 45q0 35 -32.5 55.5t-104.5 26.5l19 166h-60v1405q59 6 119.5 13t120.5 16v-451q0 -47 -4 -91t-9 -89h7q35 90 98 125t168 35q92 0 161.5 -27t115.5 -85t68.5 -152.5t22.5 -227.5v-471h-239v498q-2 82 -12.5 135 t-30 85t-51 44t-76.5 12q-115 0 -167 -67.5t-52 -231.5v-475h-56l-6 -82q180 -12 181 -162q0 -90 -71 -137t-173 -47q-53 0 -96 9t-66 24v121z" />
<glyph unicode="&#x1e2a;" horiz-adv-x="1415" d="M162 0v1352h239v-570h613v570h239v-1352h-239v578h-613v-578h-239zM400 -147h166q0 -99 141 -99t141 99h166q0 -129 -77 -187.5t-230 -58.5q-154 0 -230.5 58.5t-76.5 187.5z" />
<glyph unicode="&#x1e2b;" horiz-adv-x="1126" d="M133 0v1405q59 6 119.5 13t120.5 16v-451q0 -47 -4 -91t-9 -89h7q35 92 100 126t172 34q182 0 272 -93.5t90 -316.5v-553h-239v553q0 66 -9.5 109t-30 67.5t-52 34.5t-74.5 10q-117 0 -170 -67.5t-53 -231.5v-475h-240zM254 -147h166q0 -99 141 -99t141 99h166 q0 -129 -77 -187.5t-230 -58.5q-154 0 -230.5 58.5t-76.5 187.5z" />
<glyph unicode="&#x1e2c;" horiz-adv-x="563" d="M-21 -385q0 43 5.5 87t22.5 78t51 55.5t91 21.5q43 0 72 -13.5t57 -33.5q35 -25 58.5 -41.5t52.5 -16.5t41 22.5t12 78.5h148q0 -47 -4 -90.5t-20.5 -76t-50.5 -51t-93 -18.5q-47 0 -74 13.5t-61 35.5q-37 25 -59.5 39t-45.5 14q-33 0 -48 -24.5t-15 -79.5h-140zM162 0 v1352h239v-1352h-239z" />
<glyph unicode="&#x1e2d;" horiz-adv-x="450" d="M-78 -385q0 43 5.5 87t22.5 78t51 55.5t91 21.5q43 0 72 -13.5t57 -33.5q35 -25 58.5 -41.5t52.5 -16.5t41 22.5t12 78.5h148q0 -47 -4 -90.5t-20.5 -76t-50.5 -51t-93 -18.5q-47 0 -74 13.5t-61 35.5q-37 25 -59.5 39t-45.5 14q-33 0 -48 -24.5t-15 -79.5h-140zM106 0 v942h240v-942h-240zM106 1143v209h240v-209h-240z" />
<glyph unicode="&#x1e2e;" horiz-adv-x="563" d="M-57 1495v193h174v-193h-174zM162 0v1352h239v-1352h-239zM178 1592l123 252h191l-178 -252h-136zM451 1495v193h174v-193h-174z" />
<glyph unicode="&#x1e2f;" horiz-adv-x="450" d="M-113 1085v193h174v-193h-174zM106 0v942h240v-942h-240zM122 1182l123 252h191l-178 -252h-136zM395 1085v193h174v-193h-174z" />
<glyph unicode="&#x1e30;" horiz-adv-x="1257" d="M162 0v1352h239v-570h195l369 570h256l-430 -668l440 -684h-256l-373 578h-201v-578h-239zM481 1487l144 285h305l-248 -285h-201z" />
<glyph unicode="&#x1e31;" horiz-adv-x="1021" d="M135 0v1405l240 29v-865h117l241 373h256l-299 -463l309 -479h-256l-241 373h-127v-373h-240zM458 1495l144 285h305l-248 -285h-201z" />
<glyph unicode="&#x1e32;" horiz-adv-x="1257" d="M162 0v1352h239v-570h195l369 570h256l-430 -668l440 -684h-256l-373 578h-201v-578h-239zM525 -152h206v-225h-206v225z" />
<glyph unicode="&#x1e33;" horiz-adv-x="1021" d="M135 0v1405l240 29v-865h117l241 373h256l-299 -463l309 -479h-256l-241 373h-127v-373h-240zM404 -152h206v-225h-206v225z" />
<glyph unicode="&#x1e34;" horiz-adv-x="1257" d="M162 0v1352h239v-570h195l369 570h256l-430 -668l440 -684h-256l-373 578h-201v-578h-239zM273 -199h710v-131h-710v131z" />
<glyph unicode="&#x1e35;" horiz-adv-x="1021" d="M135 0v1405l240 29v-865h117l241 373h256l-299 -463l309 -479h-256l-241 373h-127v-373h-240zM170 -199h710v-131h-710v131z" />
<glyph unicode="&#x1e36;" horiz-adv-x="1085" d="M162 0v1352h239v-1147h629v-205h-868zM439 -152h206v-225h-206v225z" />
<glyph unicode="&#x1e37;" horiz-adv-x="516" d="M117 317v1088l239 29v-1117q0 -70 31 -96t78 -26v-195q-102 0 -169 26.5t-106.5 70.5t-56 101.5t-16.5 118.5zM164 -152h206v-225h-206v225z" />
<glyph unicode="&#x1e38;" horiz-adv-x="1085" d="M162 0v1352h239v-1147h629v-205h-868zM187 1551v131h710v-131h-710zM439 -152h206v-225h-206v225z" />
<glyph unicode="&#x1e39;" horiz-adv-x="516" d="M-116 1559v131h710v-131h-710zM117 317v1088l239 29v-1117q0 -70 31 -96t78 -26v-195q-102 0 -169 26.5t-106.5 70.5t-56 101.5t-16.5 118.5zM164 -152h206v-225h-206v225z" />
<glyph unicode="&#x1e3a;" horiz-adv-x="1085" d="M162 0v1352h239v-1147h629v-205h-868zM187 -199h710v-131h-710v131z" />
<glyph unicode="&#x1e3b;" horiz-adv-x="516" d="M-94 -199h710v-131h-710v131zM117 317v1088l239 29v-1117q0 -70 31 -96t78 -26v-195q-102 0 -169 26.5t-106.5 70.5t-56 101.5t-16.5 118.5z" />
<glyph unicode="&#x1e3c;" horiz-adv-x="1085" d="M162 0v1352h239v-1147h629v-205h-868zM174 -418l282 271h170l281 -271h-233l-68 70q-20 20 -31.5 35.5t-17.5 25.5q-8 12 -12 23h-7q-4 -10 -12 -23q-8 -10 -20.5 -25.5t-30.5 -35.5l-66 -70h-235z" />
<glyph unicode="&#x1e3d;" horiz-adv-x="516" d="M-106 -418l282 271h170l281 -271h-233l-68 70q-20 20 -31.5 35.5t-17.5 25.5q-8 12 -12 23h-7q-4 -10 -12 -23q-8 -10 -20.5 -25.5t-30.5 -35.5l-66 -70h-235zM117 317v1088l239 29v-1117q0 -70 31 -96t78 -26v-195q-102 0 -169 26.5t-106.5 70.5t-56 101.5t-16.5 118.5z " />
<glyph unicode="&#x1e3e;" horiz-adv-x="1777" d="M162 0v1352h323q33 -90 76 -211t89 -248t90 -251t78 -222t52.5 -159.5t14.5 -63.5h6q2 0 13 53t46 153q84 238 169 473.5t171 475.5h324v-1352h-240v795q0 111 6 166q2 33 6 55h-6q-8 -23 -17 -55.5t-26 -73.5l-53 -144l-262 -743h-268q-68 186 -132.5 371.5 t-129.5 371.5l-68 189q-31 84 -29 84h-6l6 -55q2 -29 4 -71t2 -95v-795h-239zM741 1487l144 285h305l-248 -285h-201z" />
<glyph unicode="&#x1e3f;" horiz-adv-x="1626" d="M135 0v942h203l35 -147q29 100 84 134t151 34q115 0 187.5 -42t107.5 -135q29 102 93.5 139.5t168.5 37.5q172 0 254 -90.5t82 -303.5v-569h-239v569q0 121 -30 163t-108 42q-98 0 -140 -59.5t-46 -214.5v-500h-240v569q0 121 -29.5 163t-107.5 42q-98 0 -140 -59.5 t-46 -214.5v-500h-240zM587 1077l144 285h305l-248 -285h-201z" />
<glyph unicode="&#x1e40;" horiz-adv-x="1777" d="M162 0v1352h323q33 -90 76 -211t89 -248t90 -251t78 -222t52.5 -159.5t14.5 -63.5h6q2 0 13 53t46 153q84 238 169 473.5t171 475.5h324v-1352h-240v795q0 111 6 166q2 33 6 55h-6q-8 -23 -17 -55.5t-26 -73.5l-53 -144l-262 -743h-268q-68 186 -132.5 371.5 t-129.5 371.5l-68 189q-31 84 -29 84h-6l6 -55q2 -29 4 -71t2 -95v-795h-239zM785 1504v225h206v-225h-206z" />
<glyph unicode="&#x1e41;" horiz-adv-x="1626" d="M135 0v942h203l35 -147q29 100 84 134t151 34q115 0 187.5 -42t107.5 -135q29 102 93.5 139.5t168.5 37.5q172 0 254 -90.5t82 -303.5v-569h-239v569q0 121 -30 163t-108 42q-98 0 -140 -59.5t-46 -214.5v-500h-240v569q0 121 -29.5 163t-107.5 42q-98 0 -140 -59.5 t-46 -214.5v-500h-240zM707 1094v225h206v-225h-206z" />
<glyph unicode="&#x1e42;" horiz-adv-x="1777" d="M162 0v1352h323q33 -90 76 -211t89 -248t90 -251t78 -222t52.5 -159.5t14.5 -63.5h6q2 0 13 53t46 153q84 238 169 473.5t171 475.5h324v-1352h-240v795q0 111 6 166q2 33 6 55h-6q-8 -23 -17 -55.5t-26 -73.5l-53 -144l-262 -743h-268q-68 186 -132.5 371.5 t-129.5 371.5l-68 189q-31 84 -29 84h-6l6 -55q2 -29 4 -71t2 -95v-795h-239zM785 -152h206v-225h-206v225z" />
<glyph unicode="&#x1e43;" horiz-adv-x="1626" d="M135 0v942h203l35 -147q29 100 84 134t151 34q115 0 187.5 -42t107.5 -135q29 102 93.5 139.5t168.5 37.5q172 0 254 -90.5t82 -303.5v-569h-239v569q0 121 -30 163t-108 42q-98 0 -140 -59.5t-46 -214.5v-500h-240v569q0 121 -29.5 163t-107.5 42q-98 0 -140 -59.5 t-46 -214.5v-500h-240zM707 -152h206v-225h-206v225z" />
<glyph unicode="&#x1e44;" horiz-adv-x="1415" d="M162 0v1352h289l434 -787q63 -123 101 -199.5t40 -82.5h8q-6 37 -10 75q-4 35 -7 76t-3 84v834h239v-1352h-290l-435 784q-68 121 -102.5 199t-38.5 82h-8q4 -37 10 -76q4 -35 8 -76t4 -84v-829h-239zM605 1504v225h206v-225h-206z" />
<glyph unicode="&#x1e45;" horiz-adv-x="1128" d="M133 0v942h186l25 -92q10 -29 21 -53q33 96 101.5 131t180.5 35q102 0 171 -24t110 -73t57 -126.5t16 -186.5v-553h-239v553q0 66 -7 109t-24.5 67.5t-48.5 34.5t-78 10q-121 0 -174 -63.5t-57 -216.5v-494h-240zM459 1094v225h206v-225h-206z" />
<glyph unicode="&#x1e46;" horiz-adv-x="1415" d="M162 0v1352h289l434 -787q63 -123 101 -199.5t40 -82.5h8q-6 37 -10 75q-4 35 -7 76t-3 84v834h239v-1352h-290l-435 784q-68 121 -102.5 199t-38.5 82h-8q4 -37 10 -76q4 -35 8 -76t4 -84v-829h-239zM605 -152h206v-225h-206v225z" />
<glyph unicode="&#x1e47;" horiz-adv-x="1128" d="M133 0v942h186l25 -92q10 -29 21 -53q33 96 101.5 131t180.5 35q102 0 171 -24t110 -73t57 -126.5t16 -186.5v-553h-239v553q0 66 -7 109t-24.5 67.5t-48.5 34.5t-78 10q-121 0 -174 -63.5t-57 -216.5v-494h-240zM459 -152h206v-225h-206v225z" />
<glyph unicode="&#x1e48;" horiz-adv-x="1415" d="M162 0v1352h289l434 -787q63 -123 101 -199.5t40 -82.5h8q-6 37 -10 75q-4 35 -7 76t-3 84v834h239v-1352h-290l-435 784q-68 121 -102.5 199t-38.5 82h-8q4 -37 10 -76q4 -35 8 -76t4 -84v-829h-239zM353 -199h710v-131h-710v131z" />
<glyph unicode="&#x1e49;" horiz-adv-x="1128" d="M133 0v942h186l25 -92q10 -29 21 -53q33 96 101.5 131t180.5 35q102 0 171 -24t110 -73t57 -126.5t16 -186.5v-553h-239v553q0 66 -7 109t-24.5 67.5t-48.5 34.5t-78 10q-121 0 -174 -63.5t-57 -216.5v-494h-240zM207 -199h710v-131h-710v131z" />
<glyph unicode="&#x1e4a;" horiz-adv-x="1415" d="M162 0v1352h289l434 -787q63 -123 101 -199.5t40 -82.5h8q-6 37 -10 75q-4 35 -7 76t-3 84v834h239v-1352h-290l-435 784q-68 121 -102.5 199t-38.5 82h-8q4 -37 10 -76q4 -35 8 -76t4 -84v-829h-239zM338 -418l282 271h170l281 -271h-233l-68 70q-20 20 -31.5 35.5 t-17.5 25.5q-8 12 -12 23h-7q-4 -10 -12 -23q-8 -10 -20.5 -25.5t-30.5 -35.5l-66 -70h-235z" />
<glyph unicode="&#x1e4b;" horiz-adv-x="1128" d="M133 0v942h186l25 -92q10 -29 21 -53q33 96 101.5 131t180.5 35q102 0 171 -24t110 -73t57 -126.5t16 -186.5v-553h-239v553q0 66 -7 109t-24.5 67.5t-48.5 34.5t-78 10q-121 0 -174 -63.5t-57 -216.5v-494h-240zM195 -418l282 271h170l281 -271h-233l-68 70 q-20 20 -31.5 35.5t-17.5 25.5q-8 12 -12 23h-7q-4 -10 -12 -23q-8 -10 -20.5 -25.5t-30.5 -35.5l-66 -70h-235z" />
<glyph unicode="&#x1e4c;" horiz-adv-x="1398" d="M86 676q0 197 36 331t111.5 215t190.5 115.5t274 34.5q160 0 276 -34.5t190.5 -115.5t110.5 -215.5t36 -330.5q0 -197 -36 -331t-110.5 -215t-190.5 -115.5t-276 -34.5t-274.5 34.5t-190 115.5t-111.5 215t-36 331zM326 676q0 -139 21.5 -233.5t67.5 -152t116.5 -82 t166.5 -24.5q98 0 168 24.5t116 82t67.5 152t21.5 233.5q0 137 -21.5 231t-67.5 152.5t-115.5 83t-168.5 24.5q-96 0 -166.5 -24.5t-116.5 -83t-67.5 -152.5t-21.5 -231zM393 1466q0 43 5 86t22.5 77t51.5 55.5t91 21.5q43 0 72 -12.5t57 -32.5q35 -25 58.5 -41t52.5 -16 t41 22.5t12 77.5h148q0 -49 -4.5 -91t-20.5 -75t-50 -51.5t-93 -18.5q-47 0 -74 13.5t-62 36.5q-37 25 -59.5 39t-44.5 14q-63 0 -64 -105h-139zM608 1794l144 285h305l-248 -285h-201z" />
<glyph unicode="&#x1e4d;" horiz-adv-x="1042" d="M74 471q0 139 26.5 233.5t81 151.5t139.5 82t201 25q117 0 201 -25t139.5 -82t82 -151.5t26.5 -233.5t-26.5 -233.5t-82 -151.5t-139.5 -81.5t-201 -24.5t-201.5 24.5t-139 81.5t-81 151.5t-26.5 233.5zM215 1057q0 43 5 86t22.5 76.5t51.5 55t91 21.5q45 0 72.5 -12 t56.5 -33q35 -25 58.5 -41t52.5 -16t42 22.5t13 77.5h145q0 -49 -4 -91t-20.5 -74.5t-50.5 -51t-91 -18.5q-47 0 -74.5 13t-62.5 36q-37 25 -59.5 39t-44.5 14q-63 0 -64 -104h-139zM313 471q0 -170 47 -236.5t162 -66.5q113 0 161 66.5t48 236.5t-48 236.5t-161 66.5 q-115 0 -162 -66.5t-47 -236.5zM434 1384l144 285h303l-246 -285h-201z" />
<glyph unicode="&#x1e4e;" horiz-adv-x="1398" d="M86 676q0 197 36 331t111.5 215t190.5 115.5t274 34.5q160 0 276 -34.5t190.5 -115.5t110.5 -215.5t36 -330.5q0 -197 -36 -331t-110.5 -215t-190.5 -115.5t-276 -34.5t-274.5 34.5t-190 115.5t-111.5 215t-36 331zM326 676q0 -139 21.5 -233.5t67.5 -152t116.5 -82 t166.5 -24.5q98 0 168 24.5t116 82t67.5 152t21.5 233.5q0 137 -21.5 231t-67.5 152.5t-115.5 83t-168.5 24.5q-96 0 -166.5 -24.5t-116.5 -83t-67.5 -152.5t-21.5 -231zM393 1466q0 43 5 86t22.5 77t51.5 55.5t91 21.5q43 0 72 -12.5t57 -32.5q35 -25 58.5 -41t52.5 -16 t41 22.5t12 77.5h148q0 -49 -4.5 -91t-20.5 -75t-50 -51.5t-93 -18.5q-47 0 -74 13.5t-62 36.5q-37 25 -59.5 39t-44.5 14q-63 0 -64 -105h-139zM401 1810v226h207v-226h-207zM786 1810v226h207v-226h-207z" />
<glyph unicode="&#x1e4f;" horiz-adv-x="1042" d="M74 471q0 139 26.5 233.5t81 151.5t139.5 82t201 25q117 0 201 -25t139.5 -82t82 -151.5t26.5 -233.5t-26.5 -233.5t-82 -151.5t-139.5 -81.5t-201 -24.5t-201.5 24.5t-139 81.5t-81 151.5t-26.5 233.5zM215 1057q0 43 5 86t22.5 76.5t51.5 55t91 21.5q45 0 72.5 -12 t56.5 -33q35 -25 58.5 -41t52.5 -16t42 22.5t13 77.5h145q0 -49 -4 -91t-20.5 -74.5t-50.5 -51t-91 -18.5q-47 0 -74.5 13t-62.5 36q-37 25 -59.5 39t-44.5 14q-63 0 -64 -104h-139zM225 1401v225h207v-225h-207zM313 471q0 -170 47 -236.5t162 -66.5q113 0 161 66.5 t48 236.5t-48 236.5t-161 66.5q-115 0 -162 -66.5t-47 -236.5zM610 1401v225h207v-225h-207z" />
<glyph unicode="&#x1e50;" horiz-adv-x="1398" d="M86 676q0 197 36 331t111.5 215t190.5 115.5t274 34.5q160 0 276 -34.5t190.5 -115.5t110.5 -215.5t36 -330.5q0 -197 -36 -331t-110.5 -215t-190.5 -115.5t-276 -34.5t-274.5 34.5t-190 115.5t-111.5 215t-36 331zM326 676q0 -139 21.5 -233.5t67.5 -152t116.5 -82 t166.5 -24.5q98 0 168 24.5t116 82t67.5 152t21.5 233.5q0 137 -21.5 231t-67.5 152.5t-115.5 83t-168.5 24.5q-96 0 -166.5 -24.5t-116.5 -83t-67.5 -152.5t-21.5 -231zM342 1509v131h711v-131h-711zM373 2079h303l143 -285h-201z" />
<glyph unicode="&#x1e51;" horiz-adv-x="1042" d="M74 471q0 139 26.5 233.5t81 151.5t139.5 82t201 25q117 0 201 -25t139.5 -82t82 -151.5t26.5 -233.5t-26.5 -233.5t-82 -151.5t-139.5 -81.5t-201 -24.5t-201.5 24.5t-139 81.5t-81 151.5t-26.5 233.5zM166 1100v131h711v-131h-711zM209 1669h305l143 -285h-200z M313 471q0 -170 47 -236.5t162 -66.5q113 0 161 66.5t48 236.5t-48 236.5t-161 66.5q-115 0 -162 -66.5t-47 -236.5z" />
<glyph unicode="&#x1e52;" horiz-adv-x="1398" d="M86 676q0 197 36 331t111.5 215t190.5 115.5t274 34.5q160 0 276 -34.5t190.5 -115.5t110.5 -215.5t36 -330.5q0 -197 -36 -331t-110.5 -215t-190.5 -115.5t-276 -34.5t-274.5 34.5t-190 115.5t-111.5 215t-36 331zM326 676q0 -139 21.5 -233.5t67.5 -152t116.5 -82 t166.5 -24.5q98 0 168 24.5t116 82t67.5 152t21.5 233.5q0 137 -21.5 231t-67.5 152.5t-115.5 83t-168.5 24.5q-96 0 -166.5 -24.5t-116.5 -83t-67.5 -152.5t-21.5 -231zM342 1509v131h711v-131h-711zM573 1794l144 285h305l-248 -285h-201z" />
<glyph unicode="&#x1e53;" horiz-adv-x="1042" d="M74 471q0 139 26.5 233.5t81 151.5t139.5 82t201 25q117 0 201 -25t139.5 -82t82 -151.5t26.5 -233.5t-26.5 -233.5t-82 -151.5t-139.5 -81.5t-201 -24.5t-201.5 24.5t-139 81.5t-81 151.5t-26.5 233.5zM166 1100v131h711v-131h-711zM313 471q0 -170 47 -236.5t162 -66.5 q113 0 161 66.5t48 236.5t-48 236.5t-161 66.5q-115 0 -162 -66.5t-47 -236.5zM424 1384l143 285h305l-247 -285h-201z" />
<glyph unicode="&#x1e54;" horiz-adv-x="1243" d="M162 0v1352h545q123 0 212 -22.5t147 -75t87 -138.5t29 -211q0 -131 -29 -220t-87 -144.5t-147.5 -79t-211.5 -23.5h-306v-438h-239zM401 643h293q133 0 190.5 57.5t57.5 204.5q0 135 -57.5 188.5t-190.5 53.5h-293v-504zM407 1487l144 285h305l-248 -285h-201z" />
<glyph unicode="&#x1e55;" horiz-adv-x="1116" d="M133 -492v1434h186l23 -94l20 -60q33 98 100.5 136.5t178.5 38.5q201 0 301 -113t100 -379q0 -133 -24.5 -227t-74.5 -152.5t-126 -85t-176 -26.5q-106 0 -173 32.5t-101 126.5h-7q4 -47 8.5 -91t4.5 -89v-451h-240zM346 1077l144 285h305l-248 -285h-201zM373 471 q0 -84 12 -142.5t40 -94t71 -51t102 -15.5q55 0 94 14.5t63.5 48t36 92t11.5 148.5q0 88 -11.5 146.5t-36 93t-63.5 49t-94 14.5q-117 0 -169 -61.5t-56 -214.5v-27z" />
<glyph unicode="&#x1e56;" horiz-adv-x="1243" d="M162 0v1352h545q123 0 212 -22.5t147 -75t87 -138.5t29 -211q0 -131 -29 -220t-87 -144.5t-147.5 -79t-211.5 -23.5h-306v-438h-239zM401 643h293q133 0 190.5 57.5t57.5 204.5q0 135 -57.5 188.5t-190.5 53.5h-293v-504zM519 1504v225h206v-225h-206z" />
<glyph unicode="&#x1e57;" horiz-adv-x="1116" d="M133 -492v1434h186l23 -94l20 -60q33 98 100.5 136.5t178.5 38.5q201 0 301 -113t100 -379q0 -133 -24.5 -227t-74.5 -152.5t-126 -85t-176 -26.5q-106 0 -173 32.5t-101 126.5h-7q4 -47 8.5 -91t4.5 -89v-451h-240zM373 471q0 -84 12 -142.5t40 -94t71 -51t102 -15.5 q55 0 94 14.5t63.5 48t36 92t11.5 148.5q0 88 -11.5 146.5t-36 93t-63.5 49t-94 14.5q-117 0 -169 -61.5t-56 -214.5v-27zM453 1094v225h206v-225h-206z" />
<glyph unicode="&#x1e58;" horiz-adv-x="1294" d="M162 0v1352h545q123 0 212 -23.5t147 -76t87 -137.5t29 -210q0 -193 -60.5 -295t-189.5 -143q78 -117 151.5 -233.5t151.5 -233.5h-274l-283 438h-277v-438h-239zM401 643h293q133 0 190.5 57.5t57.5 204.5q0 135 -57.5 188.5t-190.5 53.5h-293v-504zM543 1504v225h206 v-225h-206z" />
<glyph unicode="&#x1e59;" horiz-adv-x="655" d="M111 0v942h202q4 -29 9.5 -53.5t11.5 -48.5l16 -70q33 109 99.5 148.5t177.5 39.5v-188q-141 0 -207 -65.5t-70 -219.5v-485h-239zM224 1094v225h206v-225h-206z" />
<glyph unicode="&#x1e5a;" horiz-adv-x="1294" d="M162 0v1352h545q123 0 212 -23.5t147 -76t87 -137.5t29 -210q0 -193 -60.5 -295t-189.5 -143q78 -117 151.5 -233.5t151.5 -233.5h-274l-283 438h-277v-438h-239zM401 643h293q133 0 190.5 57.5t57.5 204.5q0 135 -57.5 188.5t-190.5 53.5h-293v-504zM543 -152h206v-225 h-206v225z" />
<glyph unicode="&#x1e5b;" horiz-adv-x="655" d="M111 0v942h202q4 -29 9.5 -53.5t11.5 -48.5l16 -70q33 109 99.5 148.5t177.5 39.5v-188q-141 0 -207 -65.5t-70 -219.5v-485h-239zM224 -152h206v-225h-206v225z" />
<glyph unicode="&#x1e5c;" horiz-adv-x="1294" d="M162 0v1352h545q123 0 212 -23.5t147 -76t87 -137.5t29 -210q0 -193 -60.5 -295t-189.5 -143q78 -117 151.5 -233.5t151.5 -233.5h-274l-283 438h-277v-438h-239zM291 1551v131h710v-131h-710zM401 643h293q133 0 190.5 57.5t57.5 204.5q0 135 -57.5 188.5t-190.5 53.5 h-293v-504zM543 -152h206v-225h-206v225z" />
<glyph unicode="&#x1e5d;" horiz-adv-x="655" d="M-24 1141v131h710v-131h-710zM111 0v942h202q4 -29 9.5 -53.5t11.5 -48.5l16 -70q33 109 99.5 148.5t177.5 39.5v-188q-141 0 -207 -65.5t-70 -219.5v-485h-239zM224 -152h206v-225h-206v225z" />
<glyph unicode="&#x1e5e;" horiz-adv-x="1294" d="M162 0v1352h545q123 0 212 -23.5t147 -76t87 -137.5t29 -210q0 -193 -60.5 -295t-189.5 -143q78 -117 151.5 -233.5t151.5 -233.5h-274l-283 438h-277v-438h-239zM291 -199h710v-131h-710v131zM401 643h293q133 0 190.5 57.5t57.5 204.5q0 135 -57.5 188.5t-190.5 53.5 h-293v-504z" />
<glyph unicode="&#x1e5f;" horiz-adv-x="655" d="M-24 -199h710v-131h-710v131zM111 0v942h202q4 -29 9.5 -53.5t11.5 -48.5l16 -70q33 109 99.5 148.5t177.5 39.5v-188q-141 0 -207 -65.5t-70 -219.5v-485h-239z" />
<glyph unicode="&#x1e60;" horiz-adv-x="1236" d="M61 373h238q0 -51 13.5 -87t48 -58.5t95 -33t152.5 -10.5q164 0 233.5 38t69.5 140q0 68 -26.5 106t-69.5 56.5t-97 25.5t-112 15q-113 16 -208 39t-164.5 68t-108.5 119.5t-39 197.5q0 90 24.5 161t85 120t163 75.5t255.5 26.5q133 0 229.5 -21.5t159 -67.5t92 -122 t29.5 -182h-237q0 51 -12.5 88t-43 58.5t-85 31.5t-138.5 10q-78 0 -132 -9t-88 -30.5t-48 -55.5t-14 -85q0 -68 23.5 -103.5t61.5 -55t89 -26.5t106 -16q111 -16 210 -35.5t174 -62.5t118 -118.5t43 -200.5q0 -102 -30.5 -176t-97.5 -121t-171 -69.5t-250 -22.5 q-150 0 -252 23.5t-166.5 71.5t-93.5 121.5t-29 176.5zM514 1504v225h206v-225h-206z" />
<glyph unicode="&#x1e61;" horiz-adv-x="950" d="M55 291h232q0 -74 46 -98.5t138 -24.5q94 0 134 20.5t40 75.5q0 33 -13.5 52.5t-38 30.5t-56 16.5t-68.5 9.5q-82 10 -154.5 28.5t-128 52t-88 89t-32.5 139.5q0 133 92 207t315 74q213 0 306 -73t93 -239h-237q0 72 -39 97.5t-127 25.5t-127 -20.5t-39 -77.5 q0 -31 12.5 -50.5t34 -29.5t52 -16.5t67.5 -10.5q90 -12 166 -31.5t131 -53t86 -87t31 -135.5q0 -68 -22.5 -120t-72 -89t-128 -55t-193.5 -18q-219 0 -315.5 72.5t-96.5 238.5zM371 1094v225h206v-225h-206z" />
<glyph unicode="&#x1e62;" horiz-adv-x="1236" d="M61 373h238q0 -51 13.5 -87t48 -58.5t95 -33t152.5 -10.5q164 0 233.5 38t69.5 140q0 68 -26.5 106t-69.5 56.5t-97 25.5t-112 15q-113 16 -208 39t-164.5 68t-108.5 119.5t-39 197.5q0 90 24.5 161t85 120t163 75.5t255.5 26.5q133 0 229.5 -21.5t159 -67.5t92 -122 t29.5 -182h-237q0 51 -12.5 88t-43 58.5t-85 31.5t-138.5 10q-78 0 -132 -9t-88 -30.5t-48 -55.5t-14 -85q0 -68 23.5 -103.5t61.5 -55t89 -26.5t106 -16q111 -16 210 -35.5t174 -62.5t118 -118.5t43 -200.5q0 -102 -30.5 -176t-97.5 -121t-171 -69.5t-250 -22.5 q-150 0 -252 23.5t-166.5 71.5t-93.5 121.5t-29 176.5zM514 -152h206v-225h-206v225z" />
<glyph unicode="&#x1e63;" horiz-adv-x="950" d="M55 291h232q0 -74 46 -98.5t138 -24.5q94 0 134 20.5t40 75.5q0 33 -13.5 52.5t-38 30.5t-56 16.5t-68.5 9.5q-82 10 -154.5 28.5t-128 52t-88 89t-32.5 139.5q0 133 92 207t315 74q213 0 306 -73t93 -239h-237q0 72 -39 97.5t-127 25.5t-127 -20.5t-39 -77.5 q0 -31 12.5 -50.5t34 -29.5t52 -16.5t67.5 -10.5q90 -12 166 -31.5t131 -53t86 -87t31 -135.5q0 -68 -22.5 -120t-72 -89t-128 -55t-193.5 -18q-219 0 -315.5 72.5t-96.5 238.5zM371 -152h206v-225h-206v225z" />
<glyph unicode="&#x1e64;" horiz-adv-x="1236" d="M61 373h238q0 -51 13.5 -87t48 -58.5t95 -33t152.5 -10.5q164 0 233.5 38t69.5 140q0 68 -26.5 106t-69.5 56.5t-97 25.5t-112 15q-113 16 -208 39t-164.5 68t-108.5 119.5t-39 197.5q0 90 24.5 161t85 120t163 75.5t255.5 26.5q133 0 229.5 -21.5t159 -67.5t92 -122 t29.5 -182h-237q0 51 -12.5 88t-43 58.5t-85 31.5t-138.5 10q-78 0 -132 -9t-88 -30.5t-48 -55.5t-14 -85q0 -68 23.5 -103.5t61.5 -55t89 -26.5t106 -16q111 -16 210 -35.5t174 -62.5t118 -118.5t43 -200.5q0 -102 -30.5 -176t-97.5 -121t-171 -69.5t-250 -22.5 q-150 0 -252 23.5t-166.5 71.5t-93.5 121.5t-29 176.5zM514 1811v225h206v-225h-206zM608 1470l144 285h305l-248 -285h-201z" />
<glyph unicode="&#x1e65;" horiz-adv-x="950" d="M55 291h232q0 -74 46 -98.5t138 -24.5q94 0 134 20.5t40 75.5q0 33 -13.5 52.5t-38 30.5t-56 16.5t-68.5 9.5q-82 10 -154.5 28.5t-128 52t-88 89t-32.5 139.5q0 133 92 207t315 74q213 0 306 -73t93 -239h-237q0 72 -39 97.5t-127 25.5t-127 -20.5t-39 -77.5 q0 -31 12.5 -50.5t34 -29.5t52 -16.5t67.5 -10.5q90 -12 166 -31.5t131 -53t86 -87t31 -135.5q0 -68 -22.5 -120t-72 -89t-128 -55t-193.5 -18q-219 0 -315.5 72.5t-96.5 238.5zM371 1432v225h206v-225h-206zM401 1063l144 285h305l-248 -285h-201z" />
<glyph unicode="&#x1e66;" horiz-adv-x="1236" d="M61 373h238q0 -51 13.5 -87t48 -58.5t95 -33t152.5 -10.5q164 0 233.5 38t69.5 140q0 68 -26.5 106t-69.5 56.5t-97 25.5t-112 15q-113 16 -208 39t-164.5 68t-108.5 119.5t-39 197.5q0 90 24.5 161t85 120t163 75.5t255.5 26.5q133 0 229.5 -21.5t159 -67.5t92 -122 t29.5 -182h-237q0 51 -12.5 88t-43 58.5t-85 31.5t-138.5 10q-78 0 -132 -9t-88 -30.5t-48 -55.5t-14 -85q0 -68 23.5 -103.5t61.5 -55t89 -26.5t106 -16q111 -16 210 -35.5t174 -62.5t118 -118.5t43 -200.5q0 -102 -30.5 -176t-97.5 -121t-171 -69.5t-250 -22.5 q-150 0 -252 23.5t-166.5 71.5t-93.5 121.5t-29 176.5zM256 1753h235l66 -70q18 -20 30.5 -35.5t20.5 -25.5q8 -12 12 -23h7q4 10 12 23q6 10 17 25.5t32 35.5l68 70h233l-281 -270h-170zM514 1811v225h206v-225h-206z" />
<glyph unicode="&#x1e67;" horiz-adv-x="950" d="M55 291h232q0 -74 46 -98.5t138 -24.5q94 0 134 20.5t40 75.5q0 33 -13.5 52.5t-38 30.5t-56 16.5t-68.5 9.5q-82 10 -154.5 28.5t-128 52t-88 89t-32.5 139.5q0 133 92 207t315 74q213 0 306 -73t93 -239h-237q0 72 -39 97.5t-127 25.5t-127 -20.5t-39 -77.5 q0 -31 12.5 -50.5t34 -29.5t52 -16.5t67.5 -10.5q90 -12 166 -31.5t131 -53t86 -87t31 -135.5q0 -68 -22.5 -120t-72 -89t-128 -55t-193.5 -18q-219 0 -315.5 72.5t-96.5 238.5zM113 1329h235l66 -70q18 -20 30.5 -35.5t20.5 -25.5q8 -12 12 -23h7q4 10 12 23q6 10 17 25.5 t32 35.5l68 70h233l-281 -270h-170zM371 1401v225h206v-225h-206z" />
<glyph unicode="&#x1e68;" horiz-adv-x="1236" d="M61 373h238q0 -51 13.5 -87t48 -58.5t95 -33t152.5 -10.5q164 0 233.5 38t69.5 140q0 68 -26.5 106t-69.5 56.5t-97 25.5t-112 15q-113 16 -208 39t-164.5 68t-108.5 119.5t-39 197.5q0 90 24.5 161t85 120t163 75.5t255.5 26.5q133 0 229.5 -21.5t159 -67.5t92 -122 t29.5 -182h-237q0 51 -12.5 88t-43 58.5t-85 31.5t-138.5 10q-78 0 -132 -9t-88 -30.5t-48 -55.5t-14 -85q0 -68 23.5 -103.5t61.5 -55t89 -26.5t106 -16q111 -16 210 -35.5t174 -62.5t118 -118.5t43 -200.5q0 -102 -30.5 -176t-97.5 -121t-171 -69.5t-250 -22.5 q-150 0 -252 23.5t-166.5 71.5t-93.5 121.5t-29 176.5zM514 -152h206v-225h-206v225zM514 1504v225h206v-225h-206z" />
<glyph unicode="&#x1e69;" horiz-adv-x="950" d="M55 291h232q0 -74 46 -98.5t138 -24.5q94 0 134 20.5t40 75.5q0 33 -13.5 52.5t-38 30.5t-56 16.5t-68.5 9.5q-82 10 -154.5 28.5t-128 52t-88 89t-32.5 139.5q0 133 92 207t315 74q213 0 306 -73t93 -239h-237q0 72 -39 97.5t-127 25.5t-127 -20.5t-39 -77.5 q0 -31 12.5 -50.5t34 -29.5t52 -16.5t67.5 -10.5q90 -12 166 -31.5t131 -53t86 -87t31 -135.5q0 -68 -22.5 -120t-72 -89t-128 -55t-193.5 -18q-219 0 -315.5 72.5t-96.5 238.5zM371 -152h206v-225h-206v225zM371 1094v225h206v-225h-206z" />
<glyph unicode="&#x1e6a;" horiz-adv-x="1116" d="M23 1147v205h1071v-205h-416v-1147h-240v1147h-415zM453 1504v225h206v-225h-206z" />
<glyph unicode="&#x1e6b;" horiz-adv-x="681" d="M20 754v188h125v193q59 12 120 25.5t120 27.5v-246h264v-188h-264v-385q0 -102 50 -141.5t171 -39.5v-188q-109 0 -194.5 18.5t-145 61.5t-90.5 113.5t-31 175.5v385h-125zM166 1303v225h206v-225h-206z" />
<glyph unicode="&#x1e6c;" horiz-adv-x="1116" d="M23 1147v205h1071v-205h-416v-1147h-240v1147h-415zM453 -152h206v-225h-206v225z" />
<glyph unicode="&#x1e6d;" horiz-adv-x="681" d="M20 754v188h125v193q59 12 120 25.5t120 27.5v-246h264v-188h-264v-385q0 -102 50 -141.5t171 -39.5v-188q-109 0 -194.5 18.5t-145 61.5t-90.5 113.5t-31 175.5v385h-125zM236 -152h206v-225h-206v225z" />
<glyph unicode="&#x1e6e;" horiz-adv-x="1116" d="M23 1147v205h1071v-205h-416v-1147h-240v1147h-415zM201 -199h710v-131h-710v131z" />
<glyph unicode="&#x1e6f;" horiz-adv-x="681" d="M-10 -199h710v-131h-710v131zM20 754v188h125v193q59 12 120 25.5t120 27.5v-246h264v-188h-264v-385q0 -102 50 -141.5t171 -39.5v-188q-109 0 -194.5 18.5t-145 61.5t-90.5 113.5t-31 175.5v385h-125z" />
<glyph unicode="&#x1e70;" horiz-adv-x="1116" d="M23 1147v205h1071v-205h-416v-1147h-240v1147h-415zM189 -418l282 271h170l281 -271h-233l-68 70q-20 20 -31.5 35.5t-17.5 25.5q-8 12 -12 23h-7q-4 -10 -12 -23q-8 -10 -20.5 -25.5t-30.5 -35.5l-66 -70h-235z" />
<glyph unicode="&#x1e71;" horiz-adv-x="681" d="M-24 -418l282 271h170l281 -271h-233l-68 70q-20 20 -31.5 35.5t-17.5 25.5q-8 12 -12 23h-7q-4 -10 -12 -23q-8 -10 -20.5 -25.5t-30.5 -35.5l-66 -70h-235zM20 754v188h125v193q59 12 120 25.5t120 27.5v-246h264v-188h-264v-385q0 -102 50 -141.5t171 -39.5v-188 q-109 0 -194.5 18.5t-145 61.5t-90.5 113.5t-31 175.5v385h-125z" />
<glyph unicode="&#x1e72;" horiz-adv-x="1357" d="M127 676v676h240v-676q0 -139 18 -233.5t56 -152t97.5 -82t139.5 -24.5q82 0 140.5 24.5t96 82t56 152t18.5 233.5v676h240v-676q0 -197 -32 -331t-99.5 -215t-172 -115.5t-247.5 -34.5t-246.5 34.5t-171 115.5t-100.5 215t-33 331zM381 -152h206v-225h-206v225z M766 -152h207v-225h-207v225z" />
<glyph unicode="&#x1e73;" horiz-adv-x="1120" d="M117 471v471h239v-471q0 -92 7.5 -151.5t26 -93t51 -46t81.5 -12.5q111 0 165 61.5t58 212.5v500h240v-942h-186q-8 23 -13.5 44.5t-13.5 43.5l-18 55q-35 -96 -102.5 -129.5t-178.5 -33.5q-104 0 -173 27.5t-109.5 87t-57 152.5t-16.5 224zM263 -152h206v-225h-206v225z M648 -152h207v-225h-207v225z" />
<glyph unicode="&#x1e74;" horiz-adv-x="1357" d="M127 676v676h240v-676q0 -139 18 -233.5t56 -152t97.5 -82t139.5 -24.5q82 0 140.5 24.5t96 82t56 152t18.5 233.5v676h240v-676q0 -197 -32 -331t-99.5 -215t-172 -115.5t-247.5 -34.5t-246.5 34.5t-171 115.5t-100.5 215t-33 331zM372 -385q0 43 5.5 87t22.5 78 t51 55.5t91 21.5q43 0 72 -13.5t57 -33.5q35 -25 58.5 -41.5t52.5 -16.5t41 22.5t12 78.5h148q0 -47 -4 -90.5t-20.5 -76t-50.5 -51t-93 -18.5q-47 0 -74 13.5t-61 35.5q-37 25 -59.5 39t-45.5 14q-33 0 -48 -24.5t-15 -79.5h-140z" />
<glyph unicode="&#x1e75;" horiz-adv-x="1120" d="M117 471v471h239v-471q0 -92 7.5 -151.5t26 -93t51 -46t81.5 -12.5q111 0 165 61.5t58 212.5v500h240v-942h-186q-8 23 -13.5 44.5t-13.5 43.5l-18 55q-35 -96 -102.5 -129.5t-178.5 -33.5q-104 0 -173 27.5t-109.5 87t-57 152.5t-16.5 224zM254 -385q0 43 5.5 87 t22.5 78t51 55.5t91 21.5q43 0 72 -13.5t57 -33.5q35 -25 58.5 -41.5t52.5 -16.5t41 22.5t12 78.5h148q0 -47 -4 -90.5t-20.5 -76t-50.5 -51t-93 -18.5q-47 0 -74 13.5t-61 35.5q-37 25 -59.5 39t-45.5 14q-33 0 -48 -24.5t-15 -79.5h-140z" />
<glyph unicode="&#x1e76;" horiz-adv-x="1357" d="M127 676v676h240v-676q0 -139 18 -233.5t56 -152t97.5 -82t139.5 -24.5q82 0 140.5 24.5t96 82t56 152t18.5 233.5v676h240v-676q0 -197 -32 -331t-99.5 -215t-172 -115.5t-247.5 -34.5t-246.5 34.5t-171 115.5t-100.5 215t-33 331zM311 -418l282 271h170l281 -271h-233 l-68 70q-20 20 -31.5 35.5t-17.5 25.5q-8 12 -12 23h-7q-4 -10 -12 -23q-8 -10 -20.5 -25.5t-30.5 -35.5l-66 -70h-235z" />
<glyph unicode="&#x1e77;" horiz-adv-x="1120" d="M117 471v471h239v-471q0 -92 7.5 -151.5t26 -93t51 -46t81.5 -12.5q111 0 165 61.5t58 212.5v500h240v-942h-186q-8 23 -13.5 44.5t-13.5 43.5l-18 55q-35 -96 -102.5 -129.5t-178.5 -33.5q-104 0 -173 27.5t-109.5 87t-57 152.5t-16.5 224zM191 -418l282 271h170 l281 -271h-233l-68 70q-20 20 -31.5 35.5t-17.5 25.5q-8 12 -12 23h-7q-4 -10 -12 -23q-8 -10 -20.5 -25.5t-30.5 -35.5l-66 -70h-235z" />
<glyph unicode="&#x1e78;" horiz-adv-x="1357" d="M127 676v676h240v-676q0 -139 18 -233.5t56 -152t97.5 -82t139.5 -24.5q82 0 140.5 24.5t96 82t56 152t18.5 233.5v676h240v-676q0 -197 -32 -331t-99.5 -215t-172 -115.5t-247.5 -34.5t-246.5 34.5t-171 115.5t-100.5 215t-33 331zM373 1434q0 43 5 86t22.5 76.5t51 55 t91.5 21.5q43 0 71.5 -12t57.5 -33q35 -25 58.5 -41t51.5 -16q29 0 41.5 22.5t12.5 77.5h147q0 -49 -4 -91t-20.5 -74.5t-50.5 -51t-93 -18.5q-47 0 -73.5 13t-61.5 36q-37 25 -59.5 39t-45.5 14q-63 0 -63 -104h-139zM592 1741l143 284h305l-247 -284h-201z" />
<glyph unicode="&#x1e79;" horiz-adv-x="1120" d="M117 471v471h239v-471q0 -92 7.5 -151.5t26 -93t51 -46t81.5 -12.5q111 0 165 61.5t58 212.5v500h240v-942h-186q-8 23 -13.5 44.5t-13.5 43.5l-18 55q-35 -96 -102.5 -129.5t-178.5 -33.5q-104 0 -173 27.5t-109.5 87t-57 152.5t-16.5 224zM254 1030q0 43 5 87t22.5 78 t51.5 55.5t91 21.5q41 0 66.5 -11.5t54.5 -29.5l41 -29q23 -16 39 -24.5t39 -8.5q29 0 41 22.5t12 78.5h147q0 -49 -4 -92t-20.5 -75t-50.5 -51.5t-93 -19.5q-43 2 -70.5 12.5t-58.5 32.5l-39 29q-20 16 -37.5 21.5t-33.5 7.5q-33 0 -48.5 -25t-15.5 -80h-139zM494 1341 q35 72 71.5 142.5t71.5 142.5h305q-123 -137 -248 -285h-200z" />
<glyph unicode="&#x1e7a;" horiz-adv-x="1357" d="M127 676v676h240v-676q0 -139 18 -233.5t56 -152t97.5 -82t139.5 -24.5q82 0 140.5 24.5t96 82t56 152t18.5 233.5v676h240v-676q0 -197 -32 -331t-99.5 -215t-172 -115.5t-247.5 -34.5t-246.5 34.5t-171 115.5t-100.5 215t-33 331zM322 1501v131h710v-131h-710z M381 1757v225h207v-225h-207zM766 1757v225h207v-225h-207z" />
<glyph unicode="&#x1e7b;" horiz-adv-x="1120" d="M117 471v471h239v-471q0 -92 7.5 -151.5t26 -93t51 -46t81.5 -12.5q111 0 165 61.5t58 212.5v500h240v-942h-186q-8 23 -13.5 44.5t-13.5 43.5l-18 55q-35 -96 -102.5 -129.5t-178.5 -33.5q-104 0 -173 27.5t-109.5 87t-57 152.5t-16.5 224zM203 1092v131h710v-131h-710z M262 1348v225h207v-225h-207zM647 1348v225h207v-225h-207z" />
<glyph unicode="&#x1e7c;" horiz-adv-x="1353" d="M23 1352h245l307 -785q29 -72 47.5 -132t30.5 -105q14 -53 23 -97h8q8 41 21 95q10 45 28.5 106.5t46.5 132.5l305 785h246l-543 -1352h-219zM370 1500q0 43 5.5 86t22.5 76.5t51 55t91 21.5q43 0 72 -12t57 -33q35 -25 58.5 -41t52.5 -16t41 22.5t12 77.5h148 q0 -49 -4 -91t-20.5 -75t-50.5 -51t-93 -18q-47 0 -74 13t-61 36q-37 25 -59.5 39t-45.5 14q-63 0 -63 -104h-140z" />
<glyph unicode="&#x1e7d;" horiz-adv-x="993" d="M8 942h246l172 -465q20 -57 32.5 -109.5t20.5 -93.5q8 -49 13 -90h8q6 41 14 90q8 41 21.5 93.5t33.5 107.5l168 467h248l-377 -942h-219zM190 1090q0 43 5.5 86t22.5 76.5t51 55t91 21.5q43 0 72 -12t57 -33q35 -25 58.5 -41t52.5 -16t41 22.5t12 77.5h148q0 -49 -4 -91 t-20.5 -75t-50.5 -51t-93 -18q-47 0 -74 13t-61 36q-37 25 -59.5 39t-45.5 14q-63 0 -63 -104h-140z" />
<glyph unicode="&#x1e7e;" horiz-adv-x="1353" d="M23 1352h245l307 -785q29 -72 47.5 -132t30.5 -105q14 -53 23 -97h8q8 41 21 95q10 45 28.5 106.5t46.5 132.5l305 785h246l-543 -1352h-219zM572 -152h206v-225h-206v225z" />
<glyph unicode="&#x1e7f;" horiz-adv-x="993" d="M8 942h246l172 -465q20 -57 32.5 -109.5t20.5 -93.5q8 -49 13 -90h8q6 41 14 90q8 41 21.5 93.5t33.5 107.5l168 467h248l-377 -942h-219zM392 -152h206v-225h-206v225z" />
<glyph unicode="&#x1e80;" horiz-adv-x="1765" d="M35 1352h241l207 -801q14 -66 23.5 -127.5t15.5 -108.5q8 -55 10 -102h9q2 47 10 102q6 47 15 107.5t22 126.5l145 598h299l146 -598q14 -66 22 -125t14 -107q6 -55 11 -104h8q0 49 8 104q10 98 41 234l207 801h242l-361 -1352h-287l-151 631q-14 66 -22.5 125t-12.5 106 q-6 53 -10 101h-8q-2 -47 -11 -101q-6 -47 -15 -107.5t-22 -125.5l-149 -629h-287zM657 1772h306l143 -285h-201z" />
<glyph unicode="&#x1e81;" horiz-adv-x="1490" d="M20 942h242l113 -416q18 -72 29.5 -135t17.5 -110q8 -55 12 -105h8q4 49 13 105q6 47 16 111.5t27 135.5l94 414h299l92 -414q16 -72 27.5 -136t17.5 -111q8 -55 12 -105h9q0 49 8 105q6 47 17 110.5t34 134.5l119 416h241l-284 -942h-287l-109 459q-14 59 -22 113.5 t-12 95.5q-6 49 -9 90h-8q-2 -41 -8 -90q-4 -41 -13 -96.5t-24 -114.5l-106 -457h-287zM520 1362h306l143 -285h-201z" />
<glyph unicode="&#x1e82;" horiz-adv-x="1765" d="M35 1352h241l207 -801q14 -66 23.5 -127.5t15.5 -108.5q8 -55 10 -102h9q2 47 10 102q6 47 15 107.5t22 126.5l145 598h299l146 -598q14 -66 22 -125t14 -107q6 -55 11 -104h8q0 49 8 104q10 98 41 234l207 801h242l-361 -1352h-287l-151 631q-14 66 -22.5 125t-12.5 106 q-6 53 -10 101h-8q-2 -47 -11 -101q-6 -47 -15 -107.5t-22 -125.5l-149 -629h-287zM657 1487l144 285h305l-248 -285h-201z" />
<glyph unicode="&#x1e83;" horiz-adv-x="1490" d="M20 942h242l113 -416q18 -72 29.5 -135t17.5 -110q8 -55 12 -105h8q4 49 13 105q6 47 16 111.5t27 135.5l94 414h299l92 -414q16 -72 27.5 -136t17.5 -111q8 -55 12 -105h9q0 49 8 105q6 47 17 110.5t34 134.5l119 416h241l-284 -942h-287l-109 459q-14 59 -22 113.5 t-12 95.5q-6 49 -9 90h-8q-2 -41 -8 -90q-4 -41 -13 -96.5t-24 -114.5l-106 -457h-287zM520 1077l144 285h305l-248 -285h-201z" />
<glyph unicode="&#x1e84;" horiz-adv-x="1765" d="M35 1352h241l207 -801q14 -66 23.5 -127.5t15.5 -108.5q8 -55 10 -102h9q2 47 10 102q6 47 15 107.5t22 126.5l145 598h299l146 -598q14 -66 22 -125t14 -107q6 -55 11 -104h8q0 49 8 104q10 98 41 234l207 801h242l-361 -1352h-287l-151 631q-14 66 -22.5 125t-12.5 106 q-6 53 -10 101h-8q-2 -47 -11 -101q-6 -47 -15 -107.5t-22 -125.5l-149 -629h-287zM586 1503v226h207v-226h-207zM971 1503v226h207v-226h-207z" />
<glyph unicode="&#x1e85;" horiz-adv-x="1490" d="M20 942h242l113 -416q18 -72 29.5 -135t17.5 -110q8 -55 12 -105h8q4 49 13 105q6 47 16 111.5t27 135.5l94 414h299l92 -414q16 -72 27.5 -136t17.5 -111q8 -55 12 -105h9q0 49 8 105q6 47 17 110.5t34 134.5l119 416h241l-284 -942h-287l-109 459q-14 59 -22 113.5 t-12 95.5q-6 49 -9 90h-8q-2 -41 -8 -90q-4 -41 -13 -96.5t-24 -114.5l-106 -457h-287zM449 1094v225h206v-225h-206zM834 1094v225h206v-225h-206z" />
<glyph unicode="&#x1e86;" horiz-adv-x="1765" d="M35 1352h241l207 -801q14 -66 23.5 -127.5t15.5 -108.5q8 -55 10 -102h9q2 47 10 102q6 47 15 107.5t22 126.5l145 598h299l146 -598q14 -66 22 -125t14 -107q6 -55 11 -104h8q0 49 8 104q10 98 41 234l207 801h242l-361 -1352h-287l-151 631q-14 66 -22.5 125t-12.5 106 q-6 53 -10 101h-8q-2 -47 -11 -101q-6 -47 -15 -107.5t-22 -125.5l-149 -629h-287zM779 1504v225h206v-225h-206z" />
<glyph unicode="&#x1e87;" horiz-adv-x="1490" d="M20 942h242l113 -416q18 -72 29.5 -135t17.5 -110q8 -55 12 -105h8q4 49 13 105q6 47 16 111.5t27 135.5l94 414h299l92 -414q16 -72 27.5 -136t17.5 -111q8 -55 12 -105h9q0 49 8 105q6 47 17 110.5t34 134.5l119 416h241l-284 -942h-287l-109 459q-14 59 -22 113.5 t-12 95.5q-6 49 -9 90h-8q-2 -41 -8 -90q-4 -41 -13 -96.5t-24 -114.5l-106 -457h-287zM641 1094v225h206v-225h-206z" />
<glyph unicode="&#x1e88;" horiz-adv-x="1765" d="M35 1352h241l207 -801q14 -66 23.5 -127.5t15.5 -108.5q8 -55 10 -102h9q2 47 10 102q6 47 15 107.5t22 126.5l145 598h299l146 -598q14 -66 22 -125t14 -107q6 -55 11 -104h8q0 49 8 104q10 98 41 234l207 801h242l-361 -1352h-287l-151 631q-14 66 -22.5 125t-12.5 106 q-6 53 -10 101h-8q-2 -47 -11 -101q-6 -47 -15 -107.5t-22 -125.5l-149 -629h-287zM779 -152h206v-225h-206v225z" />
<glyph unicode="&#x1e89;" horiz-adv-x="1490" d="M20 942h242l113 -416q18 -72 29.5 -135t17.5 -110q8 -55 12 -105h8q4 49 13 105q6 47 16 111.5t27 135.5l94 414h299l92 -414q16 -72 27.5 -136t17.5 -111q8 -55 12 -105h9q0 49 8 105q6 47 17 110.5t34 134.5l119 416h241l-284 -942h-287l-109 459q-14 59 -22 113.5 t-12 95.5q-6 49 -9 90h-8q-2 -41 -8 -90q-4 -41 -13 -96.5t-24 -114.5l-106 -457h-287zM641 -152h206v-225h-206v225z" />
<glyph unicode="&#x1e8a;" horiz-adv-x="1230" d="M20 0l441 684l-422 668h274q59 -92 114.5 -185.5t115.5 -185.5q25 -53 40 -94t31 -76q16 35 33 76t41 94l232 371h272l-426 -668l440 -684h-282q-59 92 -119 186.5t-119 186.5q-25 53 -41 94t-31 76q-4 0 -13 -20.5t-19.5 -48.5t-21.5 -56.5t-19 -44.5l-240 -373h-281z M510 1504v225h206v-225h-206z" />
<glyph unicode="&#x1e8b;" horiz-adv-x="972" d="M18 0l310 475l-289 467h274l93 -154q29 -53 45 -86.5t26 -56.5q8 -25 12 -41h9q2 14 12 39q10 23 26.5 56.5t47.5 86.5l96 156h258l-295 -461l311 -481h-264l-123 195q-29 45 -44 76.5t-23 52.5q-8 23 -13 36h-8q-4 -16 -14 -38q-10 -20 -25.5 -52t-44.5 -77l-119 -193 h-258zM381 1094v225h206v-225h-206z" />
<glyph unicode="&#x1e8c;" horiz-adv-x="1230" d="M20 0l441 684l-422 668h274q59 -92 114.5 -185.5t115.5 -185.5q25 -53 40 -94t31 -76q16 35 33 76t41 94l232 371h272l-426 -668l440 -684h-282q-59 92 -119 186.5t-119 186.5q-25 53 -41 94t-31 76q-4 0 -13 -20.5t-19.5 -48.5t-21.5 -56.5t-19 -44.5l-240 -373h-281z M317 1503v226h207v-226h-207zM702 1503v226h207v-226h-207z" />
<glyph unicode="&#x1e8d;" horiz-adv-x="972" d="M18 0l310 475l-289 467h274l93 -154q29 -53 45 -86.5t26 -56.5q8 -25 12 -41h9q2 14 12 39q10 23 26.5 56.5t47.5 86.5l96 156h258l-295 -461l311 -481h-264l-123 195q-29 45 -44 76.5t-23 52.5q-8 23 -13 36h-8q-4 -16 -14 -38q-10 -20 -25.5 -52t-44.5 -77l-119 -193 h-258zM190 1094v225h207v-225h-207zM575 1094v225h207v-225h-207z" />
<glyph unicode="&#x1e8e;" horiz-adv-x="1193" d="M20 1352h265q51 -100 101 -198.5t103 -197.5q33 -61 52.5 -111t30 -86t14.5 -55.5t4 -17.5h8q0 -2 4 17.5t14.5 56.5t30 87t51.5 107l209 398h262q-115 -217 -227.5 -433.5t-228.5 -433.5v-485h-240v485zM492 1504v225h206v-225h-206z" />
<glyph unicode="&#x1e8f;" horiz-adv-x="980" d="M8 942h250q37 -113 74 -224.5t76 -223.5q43 -150 59 -232t16 -84h6q4 33 13 78q8 37 20.5 90t34.5 119l10 27q39 113 78 224t78 226h250q-98 -258 -193.5 -512t-193.5 -510q-82 -215 -192.5 -313.5t-246.5 -98.5v205q33 0 66 20.5t62.5 55.5t53 80t42.5 94 q-92 246 -182.5 488.5t-180.5 490.5zM387 1094v225h206v-225h-206z" />
<glyph unicode="&#x1e90;" horiz-adv-x="1112" d="M57 0v205l701 942h-701v205h1000v-205l-701 -942h701v-205h-1000zM189 1500l282 270h170l281 -270h-233l-68 69q-20 20 -31.5 35.5t-17.5 26.5q-8 12 -12 22h-7q-4 -10 -12 -22q-8 -10 -20.5 -25.5t-30.5 -36.5l-66 -69h-235z" />
<glyph unicode="&#x1e91;" horiz-adv-x="925" d="M55 0v188l506 566h-506v188h815v-188l-505 -566h505v-188h-815zM94 1090l282 270h170l281 -270h-233l-68 69q-20 20 -31.5 35.5t-17.5 26.5q-8 12 -12 22h-7q-4 -10 -12 -22q-8 -10 -20.5 -25.5t-30.5 -36.5l-66 -69h-235z" />
<glyph unicode="&#x1e92;" horiz-adv-x="1112" d="M57 0v205l701 942h-701v205h1000v-205l-701 -942h701v-205h-1000zM451 -152h206v-225h-206v225z" />
<glyph unicode="&#x1e93;" horiz-adv-x="925" d="M55 0v188l506 566h-506v188h815v-188l-505 -566h505v-188h-815zM359 -152h206v-225h-206v225z" />
<glyph unicode="&#x1e94;" horiz-adv-x="1112" d="M57 0v205l701 942h-701v205h1000v-205l-701 -942h701v-205h-1000zM199 -199h710v-131h-710v131z" />
<glyph unicode="&#x1e95;" horiz-adv-x="925" d="M55 0v188l506 566h-506v188h815v-188l-505 -566h505v-188h-815zM113 -199h710v-131h-710v131z" />
<glyph unicode="&#x1e96;" horiz-adv-x="1126" d="M133 0v1405q59 6 119.5 13t120.5 16v-451q0 -47 -4 -91t-9 -89h7q35 92 100 126t172 34q182 0 272 -93.5t90 -316.5v-553h-239v553q0 66 -9.5 109t-30 67.5t-52 34.5t-74.5 10q-117 0 -170 -67.5t-53 -231.5v-475h-240zM207 -199h710v-131h-710v131z" />
<glyph unicode="&#x1e97;" horiz-adv-x="681" d="M20 754v188h125v193q59 12 120 25.5t120 27.5v-246h264v-188h-264v-385q0 -102 50 -141.5t171 -39.5v-188q-109 0 -194.5 18.5t-145 61.5t-90.5 113.5t-31 175.5v385h-125zM31 1352v225h207v-225h-207zM416 1352v225h207v-225h-207z" />
<glyph unicode="&#x1e98;" horiz-adv-x="1490" d="M20 942h242l113 -416q18 -72 29.5 -135t17.5 -110q8 -55 12 -105h8q4 49 13 105q6 47 16 111.5t27 135.5l94 414h299l92 -414q16 -72 27.5 -136t17.5 -111q8 -55 12 -105h9q0 49 8 105q6 47 17 110.5t34 134.5l119 416h241l-284 -942h-287l-109 459q-14 59 -22 113.5 t-12 95.5q-6 49 -9 90h-8q-2 -41 -8 -90q-4 -41 -13 -96.5t-24 -114.5l-106 -457h-287zM555 1255q0 72 51.5 125.5t137.5 53.5t137 -53.5t51 -125.5q0 -78 -48 -131t-140 -53t-140.5 53.5t-48.5 130.5zM660 1253q0 -33 20.5 -58.5t63.5 -25.5t63.5 26t20.5 58 q0 37 -21.5 61.5t-62.5 24.5t-62.5 -24.5t-21.5 -61.5z" />
<glyph unicode="&#x1e99;" horiz-adv-x="980" d="M8 942h250q37 -113 74 -224.5t76 -223.5q43 -150 59 -232t16 -84h6q4 33 13 78q8 37 20.5 90t34.5 119l10 27q39 113 78 224t78 226h250q-98 -258 -193.5 -512t-193.5 -510q-82 -215 -192.5 -313.5t-246.5 -98.5v205q33 0 66 20.5t62.5 55.5t53 80t42.5 94 q-92 246 -182.5 488.5t-180.5 490.5zM301 1255q0 72 51.5 125.5t137.5 53.5t137 -53.5t51 -125.5q0 -78 -48 -131t-140 -53t-140.5 53.5t-48.5 130.5zM406 1253q0 -33 20.5 -58.5t63.5 -25.5t63.5 26t20.5 58q0 37 -21.5 61.5t-62.5 24.5t-62.5 -24.5t-21.5 -61.5z" />
<glyph unicode="&#x1e9a;" horiz-adv-x="1157" d="M61 264q0 100 38 155.5t95.5 82t127 34t133.5 13.5q55 4 110.5 9t110.5 11v82q0 66 -37 94.5t-131 28.5q-100 0 -131 -29.5t-31 -93.5h-237q0 166 95 239t304 73q154 0 246 -39t127 -111l34 -72q12 -29 29 -40t60 -11q59 0 59 90q0 29 -7 74t-30 88h131q29 -41 41 -100.5 t12 -112.5q0 -90 -38.5 -151.5t-133.5 -61.5q-74 0 -123 39v-291q0 -41 21.5 -62.5t54.5 -21.5v-188q-78 0 -131 11t-86 29.5t-50 45t-24 57.5q-33 -92 -100.5 -123.5t-179.5 -31.5q-68 0 -132.5 11t-114.5 41.5t-81 86t-31 145.5zM301 272q0 -55 29.5 -75.5t109.5 -20.5 q104 0 155.5 37t68.5 139q4 10 6 21.5t2 25.5l-223 -22q-78 -8 -113 -25.5t-35 -79.5z" />
<glyph unicode="&#x1e9b;" horiz-adv-x="636" d="M27 754v188h125v123q0 209 127 292t399 77v-189q-86 2 -141.5 -6t-87 -29.5t-45 -57.5t-13.5 -87v-1065h-239v754h-125zM234 1557v225h206v-225h-206z" />
<glyph unicode="&#x1ea0;" horiz-adv-x="1349" d="M20 0q135 340 272.5 676t274.5 676h219q135 -340 270.5 -676t272.5 -676h-246l-102 262h-612l-103 -262h-246zM446 467h455q-45 109 -88 225.5t-75.5 212.5t-49 156.5t-8.5 56.5h-8l-5 -26q-5 -25 -16.5 -71t-30 -107.5t-47.5 -131.5zM572 -152h206v-225h-206v225z" />
<glyph unicode="&#x1ea1;" horiz-adv-x="1030" d="M61 264q0 100 38 155.5t95.5 82t127 34t133.5 13.5q55 4 110.5 9t110.5 11v82q0 66 -37 94.5t-131 28.5q-72 0 -117 -29.5t-45 -93.5h-237q0 166 95 239t304 73q115 0 192.5 -21.5t125.5 -61.5t68.5 -97.5t20.5 -131.5v-387q0 -41 21.5 -62.5t54.5 -21.5v-188 q-78 0 -131 11t-86 29.5t-50 45t-24 57.5q-33 -92 -100.5 -123.5t-179.5 -31.5q-68 0 -132.5 11t-114.5 41.5t-81 86t-31 145.5zM301 272q0 -55 29.5 -75.5t109.5 -20.5q119 0 170.5 53.5t61.5 169.5l-223 -22q-78 -8 -113 -25.5t-35 -79.5zM412 -152h206v-225h-206v225z " />
<glyph unicode="&#x1ea2;" horiz-adv-x="1349" d="M20 0q135 340 272.5 676t274.5 676h219q135 -340 270.5 -676t272.5 -676h-246l-102 262h-612l-103 -262h-246zM360 1657q0 49 45 86t123 37q68 0 118 -32.5t50 -94.5q0 -51 -34 -90t-97 -39v-74h-94v86q0 57 57 58h20q23 0 35.5 19.5t12.5 41.5q0 57 -68 58 q-33 0 -50.5 -15.5t-17.5 -40.5h-100zM446 467h455q-45 109 -88 225.5t-75.5 212.5t-49 156.5t-8.5 56.5h-8l-5 -26q-5 -25 -16.5 -71t-30 -107.5t-47.5 -131.5z" />
<glyph unicode="&#x1ea3;" horiz-adv-x="1030" d="M23 1247q0 49 45 86t123 37q68 0 118 -32.5t50 -94.5q0 -51 -34 -90t-97 -39v-74h-94v86q0 57 57 58h20q23 0 35.5 19.5t12.5 41.5q0 57 -68 58q-33 0 -50.5 -15.5t-17.5 -40.5h-100zM61 264q0 100 38 155.5t95.5 82t127 34t133.5 13.5q55 4 110.5 9t110.5 11v82 q0 66 -37 94.5t-131 28.5q-72 0 -117 -29.5t-45 -93.5h-237q0 166 95 239t304 73q115 0 192.5 -21.5t125.5 -61.5t68.5 -97.5t20.5 -131.5v-387q0 -41 21.5 -62.5t54.5 -21.5v-188q-78 0 -131 11t-86 29.5t-50 45t-24 57.5q-33 -92 -100.5 -123.5t-179.5 -31.5 q-68 0 -132.5 11t-114.5 41.5t-81 86t-31 145.5zM301 272q0 -55 29.5 -75.5t109.5 -20.5q119 0 170.5 53.5t61.5 169.5l-223 -22q-78 -8 -113 -25.5t-35 -79.5z" />
<glyph unicode="&#x1ea4;" horiz-adv-x="1349" d="M20 0q135 340 272.5 676t274.5 676h219q135 -340 270.5 -676t272.5 -676h-246l-102 262h-612l-103 -262h-246zM305 1418l282 270h170l281 -270h-233l-68 69q-20 20 -31.5 35.5t-17.5 26.5q-8 12 -12 22h-7q-4 -10 -12 -22q-8 -10 -20.5 -25.5t-30.5 -36.5l-66 -69h-235z M446 467h455q-45 109 -88 225.5t-75.5 212.5t-49 156.5t-8.5 56.5h-8l-5 -26q-5 -25 -16.5 -71t-30 -107.5t-47.5 -131.5zM839 1687l144 285h305l-248 -285h-201z" />
<glyph unicode="&#x1ea5;" horiz-adv-x="1030" d="M61 264q0 100 38 155.5t95.5 82t127 34t133.5 13.5q55 4 110.5 9t110.5 11v82q0 66 -37 94.5t-131 28.5q-72 0 -117 -29.5t-45 -93.5h-237q0 166 95 239t304 73q115 0 192.5 -21.5t125.5 -61.5t68.5 -97.5t20.5 -131.5v-387q0 -41 21.5 -62.5t54.5 -21.5v-188 q-78 0 -131 11t-86 29.5t-50 45t-24 57.5q-33 -92 -100.5 -123.5t-179.5 -31.5q-68 0 -132.5 11t-114.5 41.5t-81 86t-31 145.5zM146 1051l282 270h170l281 -270h-233l-68 69q-20 20 -31.5 35.5t-17.5 26.5q-8 12 -12 22h-7q-4 -10 -12 -22q-8 -10 -20.5 -25.5t-30.5 -36.5 l-66 -69h-235zM301 272q0 -55 29.5 -75.5t109.5 -20.5q119 0 170.5 53.5t61.5 169.5l-223 -22q-78 -8 -113 -25.5t-35 -79.5zM663 1315l144 285h305l-248 -285h-201z" />
<glyph unicode="&#x1ea6;" horiz-adv-x="1349" d="M20 0q135 340 272.5 676t274.5 676h219q135 -340 270.5 -676t272.5 -676h-246l-102 262h-612l-103 -262h-246zM57 1972h306l143 -285h-201zM305 1418l282 270h170l281 -270h-233l-68 69q-20 20 -31.5 35.5t-17.5 26.5q-8 12 -12 22h-7q-4 -10 -12 -22q-8 -10 -20.5 -25.5 t-30.5 -36.5l-66 -69h-235zM446 467h455q-45 109 -88 225.5t-75.5 212.5t-49 156.5t-8.5 56.5h-8l-5 -26q-5 -25 -16.5 -71t-30 -107.5t-47.5 -131.5z" />
<glyph unicode="&#x1ea7;" horiz-adv-x="1030" d="M-86 1600h306l143 -285h-201zM61 264q0 100 38 155.5t95.5 82t127 34t133.5 13.5q55 4 110.5 9t110.5 11v82q0 66 -37 94.5t-131 28.5q-72 0 -117 -29.5t-45 -93.5h-237q0 166 95 239t304 73q115 0 192.5 -21.5t125.5 -61.5t68.5 -97.5t20.5 -131.5v-387 q0 -41 21.5 -62.5t54.5 -21.5v-188q-78 0 -131 11t-86 29.5t-50 45t-24 57.5q-33 -92 -100.5 -123.5t-179.5 -31.5q-68 0 -132.5 11t-114.5 41.5t-81 86t-31 145.5zM146 1051l282 270h170l281 -270h-233l-68 69q-20 20 -31.5 35.5t-17.5 26.5q-8 12 -12 22h-7 q-4 -10 -12 -22q-8 -10 -20.5 -25.5t-30.5 -36.5l-66 -69h-235zM301 272q0 -55 29.5 -75.5t109.5 -20.5q119 0 170.5 53.5t61.5 169.5l-223 -22q-78 -8 -113 -25.5t-35 -79.5z" />
<glyph unicode="&#x1ea8;" horiz-adv-x="1349" d="M20 0q135 340 272.5 676t274.5 676h219q135 -340 270.5 -676t272.5 -676h-246l-102 262h-612l-103 -262h-246zM305 1418l282 270h170l281 -270h-233l-68 69q-20 20 -31.5 35.5t-17.5 26.5q-8 12 -12 22h-7q-4 -10 -12 -22q-8 -10 -20.5 -25.5t-30.5 -36.5l-66 -69h-235z M446 467h455q-45 109 -88 225.5t-75.5 212.5t-49 156.5t-8.5 56.5h-8l-5 -26q-5 -25 -16.5 -71t-30 -107.5t-47.5 -131.5zM872 1763q0 49 45 86t123 37q68 0 118 -32.5t50 -94.5q0 -51 -34 -90t-97 -39v-74h-94v86q0 57 57 58h20q23 0 35.5 19.5t12.5 41.5q0 57 -68 58 q-33 0 -50.5 -15.5t-17.5 -40.5h-100z" />
<glyph unicode="&#x1ea9;" horiz-adv-x="1030" d="M61 264q0 100 38 155.5t95.5 82t127 34t133.5 13.5q55 4 110.5 9t110.5 11v82q0 66 -37 94.5t-131 28.5q-72 0 -117 -29.5t-45 -93.5h-237q0 166 95 239t304 73q115 0 192.5 -21.5t125.5 -61.5t68.5 -97.5t20.5 -131.5v-387q0 -41 21.5 -62.5t54.5 -21.5v-188 q-78 0 -131 11t-86 29.5t-50 45t-24 57.5q-33 -92 -100.5 -123.5t-179.5 -31.5q-68 0 -132.5 11t-114.5 41.5t-81 86t-31 145.5zM146 1051l282 270h170l281 -270h-233l-68 69q-20 20 -31.5 35.5t-17.5 26.5q-8 12 -12 22h-7q-4 -10 -12 -22q-8 -10 -20.5 -25.5t-30.5 -36.5 l-66 -69h-235zM301 272q0 -55 29.5 -75.5t109.5 -20.5q119 0 170.5 53.5t61.5 169.5l-223 -22q-78 -8 -113 -25.5t-35 -79.5zM713 1394q0 49 45 86t123 37q68 0 118 -32.5t50 -94.5q0 -51 -34 -90t-97 -39v-74h-94v86q0 57 57 58h20q23 0 35.5 19.5t12.5 41.5q0 57 -68 58 q-33 0 -50.5 -15.5t-17.5 -40.5h-100z" />
<glyph unicode="&#x1eaa;" horiz-adv-x="1349" d="M20 0q135 340 272.5 676t274.5 676h219q135 -340 270.5 -676t272.5 -676h-246l-102 262h-612l-103 -262h-246zM305 1418l282 270h170l281 -270h-233l-68 69q-20 20 -31.5 35.5t-17.5 26.5q-8 12 -12 22h-7q-4 -10 -12 -22q-8 -10 -20.5 -25.5t-30.5 -36.5l-66 -69h-235z M368 1737q0 43 5.5 86t22.5 76.5t51 55t91 21.5q43 0 72 -12t57 -33q35 -25 58.5 -41t52.5 -16t41 22.5t12 77.5h148q0 -49 -4 -91t-20.5 -75t-50.5 -51t-93 -18q-47 0 -74 13t-61 36q-37 25 -59.5 39t-45.5 14q-63 0 -63 -104h-140zM446 467h455q-45 109 -88 225.5 t-75.5 212.5t-49 156.5t-8.5 56.5h-8l-5 -26q-5 -25 -16.5 -71t-30 -107.5t-47.5 -131.5z" />
<glyph unicode="&#x1eab;" horiz-adv-x="1030" d="M61 264q0 100 38 155.5t95.5 82t127 34t133.5 13.5q55 4 110.5 9t110.5 11v82q0 66 -37 94.5t-131 28.5q-72 0 -117 -29.5t-45 -93.5h-237q0 166 95 239t304 73q115 0 192.5 -21.5t125.5 -61.5t68.5 -97.5t20.5 -131.5v-387q0 -41 21.5 -62.5t54.5 -21.5v-188 q-78 0 -131 11t-86 29.5t-50 45t-24 57.5q-33 -92 -100.5 -123.5t-179.5 -31.5q-68 0 -132.5 11t-114.5 41.5t-81 86t-31 145.5zM146 1051l282 270h170l281 -270h-233l-68 69q-20 20 -31.5 35.5t-17.5 26.5q-8 12 -12 22h-7q-4 -10 -12 -22q-8 -10 -20.5 -25.5t-30.5 -36.5 l-66 -69h-235zM208 1369q0 43 5.5 86t22.5 76.5t51 55t91 21.5q43 0 72 -12t57 -33q35 -25 58.5 -41t52.5 -16t41 22.5t12 77.5h148q0 -49 -4 -91t-20.5 -75t-50.5 -51t-93 -18q-47 0 -74 13t-61 36q-37 25 -59.5 39t-45.5 14q-63 0 -63 -104h-140zM301 272 q0 -55 29.5 -75.5t109.5 -20.5q119 0 170.5 53.5t61.5 169.5l-223 -22q-78 -8 -113 -25.5t-35 -79.5z" />
<glyph unicode="&#x1eac;" horiz-adv-x="1349" d="M20 0q135 340 272.5 676t274.5 676h219q135 -340 270.5 -676t272.5 -676h-246l-102 262h-612l-103 -262h-246zM305 1500l282 270h170l281 -270h-233l-68 69q-20 20 -31.5 35.5t-17.5 26.5q-8 12 -12 22h-7q-4 -10 -12 -22q-8 -10 -20.5 -25.5t-30.5 -36.5l-66 -69h-235z M446 467h455q-45 109 -88 225.5t-75.5 212.5t-49 156.5t-8.5 56.5h-8l-5 -26q-5 -25 -16.5 -71t-30 -107.5t-47.5 -131.5zM572 -152h206v-225h-206v225z" />
<glyph unicode="&#x1ead;" horiz-adv-x="1030" d="M61 264q0 100 38 155.5t95.5 82t127 34t133.5 13.5q55 4 110.5 9t110.5 11v82q0 66 -37 94.5t-131 28.5q-72 0 -117 -29.5t-45 -93.5h-237q0 166 95 239t304 73q115 0 192.5 -21.5t125.5 -61.5t68.5 -97.5t20.5 -131.5v-387q0 -41 21.5 -62.5t54.5 -21.5v-188 q-78 0 -131 11t-86 29.5t-50 45t-24 57.5q-33 -92 -100.5 -123.5t-179.5 -31.5q-68 0 -132.5 11t-114.5 41.5t-81 86t-31 145.5zM146 1090l282 270h170l281 -270h-233l-68 69q-20 20 -31.5 35.5t-17.5 26.5q-8 12 -12 22h-7q-4 -10 -12 -22q-8 -10 -20.5 -25.5t-30.5 -36.5 l-66 -69h-235zM301 272q0 -55 29.5 -75.5t109.5 -20.5q119 0 170.5 53.5t61.5 169.5l-223 -22q-78 -8 -113 -25.5t-35 -79.5zM412 -152h206v-225h-206v225z" />
<glyph unicode="&#x1eae;" horiz-adv-x="1349" d="M20 0q135 340 272.5 676t274.5 676h219q135 -340 270.5 -676t272.5 -676h-246l-102 262h-612l-103 -262h-246zM367 1704h166q0 -98 141 -98t141 98h166q0 -129 -77 -187t-230 -58q-154 0 -230.5 58t-76.5 187zM446 467h455q-45 109 -88 225.5t-75.5 212.5t-49 156.5 t-8.5 56.5h-8l-5 -26q-5 -25 -16.5 -71t-30 -107.5t-47.5 -131.5zM565 1732l144 285h305l-248 -285h-201z" />
<glyph unicode="&#x1eaf;" horiz-adv-x="1030" d="M61 264q0 100 38 155.5t95.5 82t127 34t133.5 13.5q55 4 110.5 9t110.5 11v82q0 66 -37 94.5t-131 28.5q-72 0 -117 -29.5t-45 -93.5h-237q0 166 95 239t304 73q115 0 192.5 -21.5t125.5 -61.5t68.5 -97.5t20.5 -131.5v-387q0 -41 21.5 -62.5t54.5 -21.5v-188 q-78 0 -131 11t-86 29.5t-50 45t-24 57.5q-33 -92 -100.5 -123.5t-179.5 -31.5q-68 0 -132.5 11t-114.5 41.5t-81 86t-31 145.5zM207 1296h166q0 -98 141 -98t141 98h166q0 -129 -77 -187t-230 -58q-154 0 -230.5 58t-76.5 187zM301 272q0 -55 29.5 -75.5t109.5 -20.5 q119 0 170.5 53.5t61.5 169.5l-223 -22q-78 -8 -113 -25.5t-35 -79.5zM413 1323l144 285h305l-248 -285h-201z" />
<glyph unicode="&#x1eb0;" horiz-adv-x="1349" d="M20 0q135 340 272.5 676t274.5 676h219q135 -340 270.5 -676t272.5 -676h-246l-102 262h-612l-103 -262h-246zM323 2017h306l143 -285h-201zM367 1704h166q0 -98 141 -98t141 98h166q0 -129 -77 -187t-230 -58q-154 0 -230.5 58t-76.5 187zM446 467h455 q-45 109 -88 225.5t-75.5 212.5t-49 156.5t-8.5 56.5h-8l-5 -26q-5 -25 -16.5 -71t-30 -107.5t-47.5 -131.5z" />
<glyph unicode="&#x1eb1;" horiz-adv-x="1030" d="M61 264q0 100 38 155.5t95.5 82t127 34t133.5 13.5q55 4 110.5 9t110.5 11v82q0 66 -37 94.5t-131 28.5q-72 0 -117 -29.5t-45 -93.5h-237q0 166 95 239t304 73q115 0 192.5 -21.5t125.5 -61.5t68.5 -97.5t20.5 -131.5v-387q0 -41 21.5 -62.5t54.5 -21.5v-188 q-78 0 -131 11t-86 29.5t-50 45t-24 57.5q-33 -92 -100.5 -123.5t-179.5 -31.5q-68 0 -132.5 11t-114.5 41.5t-81 86t-31 145.5zM168 1608h306l143 -285h-201zM207 1296h166q0 -98 141 -98t141 98h166q0 -129 -77 -187t-230 -58q-154 0 -230.5 58t-76.5 187zM301 272 q0 -55 29.5 -75.5t109.5 -20.5q119 0 170.5 53.5t61.5 169.5l-223 -22q-78 -8 -113 -25.5t-35 -79.5z" />
<glyph unicode="&#x1eb2;" horiz-adv-x="1349" d="M20 0q135 340 272.5 676t274.5 676h219q135 -340 270.5 -676t272.5 -676h-246l-102 262h-612l-103 -262h-246zM367 1704h166q0 -98 141 -98t141 98h166q0 -129 -77 -187t-230 -58q-154 0 -230.5 58t-76.5 187zM446 467h455q-45 109 -88 225.5t-75.5 212.5t-49 156.5 t-8.5 56.5h-8l-5 -26q-5 -25 -16.5 -71t-30 -107.5t-47.5 -131.5zM512 1911q0 49 45 86t123 37q68 0 118 -32.5t50 -94.5q0 -51 -34 -90t-97 -39v-74h-94v86q0 57 57 58h20q23 0 35.5 19.5t12.5 41.5q0 57 -68 58q-33 0 -50.5 -15.5t-17.5 -40.5h-100z" />
<glyph unicode="&#x1eb3;" horiz-adv-x="1030" d="M61 264q0 100 38 155.5t95.5 82t127 34t133.5 13.5q55 4 110.5 9t110.5 11v82q0 66 -37 94.5t-131 28.5q-72 0 -117 -29.5t-45 -93.5h-237q0 166 95 239t304 73q115 0 192.5 -21.5t125.5 -61.5t68.5 -97.5t20.5 -131.5v-387q0 -41 21.5 -62.5t54.5 -21.5v-188 q-78 0 -131 11t-86 29.5t-50 45t-24 57.5q-33 -92 -100.5 -123.5t-179.5 -31.5q-68 0 -132.5 11t-114.5 41.5t-81 86t-31 145.5zM207 1296h166q0 -98 141 -98t141 98h166q0 -129 -77 -187t-230 -58q-154 0 -230.5 58t-76.5 187zM301 272q0 -55 29.5 -75.5t109.5 -20.5 q119 0 170.5 53.5t61.5 169.5l-223 -22q-78 -8 -113 -25.5t-35 -79.5zM352 1501q0 49 45 86t123 37q68 0 118 -32.5t50 -94.5q0 -51 -34 -90t-97 -39v-74h-94v86q0 57 57 58h20q23 0 35.5 19.5t12.5 41.5q0 57 -68 58q-33 0 -50.5 -15.5t-17.5 -40.5h-100z" />
<glyph unicode="&#x1eb4;" horiz-adv-x="1349" d="M20 0q135 340 272.5 676t274.5 676h219q135 -340 270.5 -676t272.5 -676h-246l-102 262h-612l-103 -262h-246zM367 1704h166q0 -98 141 -98t141 98h166q0 -129 -77 -187t-230 -58q-154 0 -230.5 58t-76.5 187zM368 1762q0 43 5.5 86t22.5 76.5t51 55t91 21.5q43 0 72 -12 t57 -33q35 -25 58.5 -41t52.5 -16t41 22.5t12 77.5h148q0 -49 -4 -91t-20.5 -75t-50.5 -51t-93 -18q-47 0 -74 13t-61 36q-37 25 -59.5 39t-45.5 14q-63 0 -63 -104h-140zM446 467h455q-45 109 -88 225.5t-75.5 212.5t-49 156.5t-8.5 56.5h-8l-5 -26q-5 -25 -16.5 -71 t-30 -107.5t-47.5 -131.5z" />
<glyph unicode="&#x1eb5;" horiz-adv-x="1030" d="M61 264q0 100 38 155.5t95.5 82t127 34t133.5 13.5q55 4 110.5 9t110.5 11v82q0 66 -37 94.5t-131 28.5q-72 0 -117 -29.5t-45 -93.5h-237q0 166 95 239t304 73q115 0 192.5 -21.5t125.5 -61.5t68.5 -97.5t20.5 -131.5v-387q0 -41 21.5 -62.5t54.5 -21.5v-188 q-78 0 -131 11t-86 29.5t-50 45t-24 57.5q-33 -92 -100.5 -123.5t-179.5 -31.5q-68 0 -132.5 11t-114.5 41.5t-81 86t-31 145.5zM207 1296h166q0 -98 141 -98t141 98h166q0 -129 -77 -187t-230 -58q-154 0 -230.5 58t-76.5 187zM208 1352q0 43 5.5 86t22.5 76.5t51 55 t91 21.5q43 0 72 -12t57 -33q35 -25 58.5 -41t52.5 -16t41 22.5t12 77.5h148q0 -49 -4 -91t-20.5 -75t-50.5 -51t-93 -18q-47 0 -74 13t-61 36q-37 25 -59.5 39t-45.5 14q-63 0 -63 -104h-140zM301 272q0 -55 29.5 -75.5t109.5 -20.5q119 0 170.5 53.5t61.5 169.5l-223 -22 q-78 -8 -113 -25.5t-35 -79.5z" />
<glyph unicode="&#x1eb6;" horiz-adv-x="1349" d="M20 0q135 340 272.5 676t274.5 676h219q135 -340 270.5 -676t272.5 -676h-246l-102 262h-612l-103 -262h-246zM367 1745h166q0 -98 141 -98t141 98h166q0 -129 -77 -187t-230 -58q-154 0 -230.5 58t-76.5 187zM446 467h455q-45 109 -88 225.5t-75.5 212.5t-49 156.5 t-8.5 56.5h-8l-5 -26q-5 -25 -16.5 -71t-30 -107.5t-47.5 -131.5zM572 -152h206v-225h-206v225z" />
<glyph unicode="&#x1eb7;" horiz-adv-x="1030" d="M61 264q0 100 38 155.5t95.5 82t127 34t133.5 13.5q55 4 110.5 9t110.5 11v82q0 66 -37 94.5t-131 28.5q-72 0 -117 -29.5t-45 -93.5h-237q0 166 95 239t304 73q115 0 192.5 -21.5t125.5 -61.5t68.5 -97.5t20.5 -131.5v-387q0 -41 21.5 -62.5t54.5 -21.5v-188 q-78 0 -131 11t-86 29.5t-50 45t-24 57.5q-33 -92 -100.5 -123.5t-179.5 -31.5q-68 0 -132.5 11t-114.5 41.5t-81 86t-31 145.5zM207 1335h166q0 -98 141 -98t141 98h166q0 -129 -77 -187t-230 -58q-154 0 -230.5 58t-76.5 187zM301 272q0 -55 29.5 -75.5t109.5 -20.5 q119 0 170.5 53.5t61.5 169.5l-223 -22q-78 -8 -113 -25.5t-35 -79.5zM412 -152h206v-225h-206v225z" />
<glyph unicode="&#x1eb8;" horiz-adv-x="1165" d="M162 0v1352h901v-205h-662v-365h580v-204h-580v-373h662v-205h-901zM480 -152h206v-225h-206v225z" />
<glyph unicode="&#x1eb9;" horiz-adv-x="1005" d="M72 467q0 141 27.5 236.5t83 152.5t139.5 82t198 25q104 0 182 -20.5t128.5 -67t75 -122t24.5 -188.5q0 -29 -4 -77t-21 -91h-592q2 -61 13.5 -105t36 -71.5t64.5 -40t101 -12.5q72 0 111 23.5t39 99.5h237q0 -86 -29.5 -145.5t-82.5 -96.5t-128 -53t-167 -16 q-115 0 -197 25.5t-135 82.5t-78.5 150.5t-25.5 228.5zM315 569h375v37q0 43 -6 75t-24.5 52.5t-52.5 30.5t-89 10q-111 0 -153.5 -46t-49.5 -159zM398 -152h206v-225h-206v225z" />
<glyph unicode="&#x1eba;" horiz-adv-x="1165" d="M86 1657q0 49 45 86t123 37q68 0 118 -32.5t50 -94.5q0 -51 -34 -90t-97 -39v-74h-94v86q0 57 57 58h20q23 0 35.5 19.5t12.5 41.5q0 57 -68 58q-33 0 -50.5 -15.5t-17.5 -40.5h-100zM162 0v1352h901v-205h-662v-365h580v-204h-580v-373h662v-205h-901z" />
<glyph unicode="&#x1ebb;" horiz-adv-x="1005" d="M72 467q0 141 27.5 236.5t83 152.5t139.5 82t198 25q104 0 182 -20.5t128.5 -67t75 -122t24.5 -188.5q0 -29 -4 -77t-21 -91h-592q2 -61 13.5 -105t36 -71.5t64.5 -40t101 -12.5q72 0 111 23.5t39 99.5h237q0 -86 -29.5 -145.5t-82.5 -96.5t-128 -53t-167 -16 q-115 0 -197 25.5t-135 82.5t-78.5 150.5t-25.5 228.5zM86 1247q0 49 45 86t123 37q68 0 118 -32.5t50 -94.5q0 -51 -34 -90t-97 -39v-74h-94v86q0 57 57 58h20q23 0 35.5 19.5t12.5 41.5q0 57 -68 58q-33 0 -50.5 -15.5t-17.5 -40.5h-100zM315 569h375v37q0 43 -6 75 t-24.5 52.5t-52.5 30.5t-89 10q-111 0 -153.5 -46t-49.5 -159z" />
<glyph unicode="&#x1ebc;" horiz-adv-x="1165" d="M162 0v1352h901v-205h-662v-365h580v-204h-580v-373h662v-205h-901zM276 1500q0 43 5.5 86t22.5 76.5t51 55t91 21.5q43 0 72 -12t57 -33q35 -25 58.5 -41t52.5 -16t41 22.5t12 77.5h148q0 -49 -4 -91t-20.5 -75t-50.5 -51t-93 -18q-47 0 -74 13t-61 36q-37 25 -59.5 39 t-45.5 14q-63 0 -63 -104h-140z" />
<glyph unicode="&#x1ebd;" horiz-adv-x="1005" d="M72 467q0 141 27.5 236.5t83 152.5t139.5 82t198 25q104 0 182 -20.5t128.5 -67t75 -122t24.5 -188.5q0 -29 -4 -77t-21 -91h-592q2 -61 13.5 -105t36 -71.5t64.5 -40t101 -12.5q72 0 111 23.5t39 99.5h237q0 -86 -29.5 -145.5t-82.5 -96.5t-128 -53t-167 -16 q-115 0 -197 25.5t-135 82.5t-78.5 150.5t-25.5 228.5zM196 1090q0 43 5.5 86t22.5 76.5t51 55t91 21.5q43 0 72 -12t57 -33q35 -25 58.5 -41t52.5 -16t41 22.5t12 77.5h148q0 -49 -4 -91t-20.5 -75t-50.5 -51t-93 -18q-47 0 -74 13t-61 36q-37 25 -59.5 39t-45.5 14 q-63 0 -63 -104h-140zM315 569h375v37q0 43 -6 75t-24.5 52.5t-52.5 30.5t-89 10q-111 0 -153.5 -46t-49.5 -159z" />
<glyph unicode="&#x1ebe;" horiz-adv-x="1165" d="M162 0v1352h901v-205h-662v-365h580v-204h-580v-373h662v-205h-901zM258 1459l282 270h170l281 -270h-233l-68 69q-20 20 -31.5 35.5t-17.5 26.5q-8 12 -12 22h-7q-4 -10 -12 -22q-8 -10 -20.5 -25.5t-30.5 -36.5l-66 -69h-235zM817 1720l144 285h305l-248 -285h-201z " />
<glyph unicode="&#x1ebf;" horiz-adv-x="1005" d="M72 467q0 141 27.5 236.5t83 152.5t139.5 82t198 25q104 0 182 -20.5t128.5 -67t75 -122t24.5 -188.5q0 -29 -4 -77t-21 -91h-592q2 -61 13.5 -105t36 -71.5t64.5 -40t101 -12.5q72 0 111 23.5t39 99.5h237q0 -86 -29.5 -145.5t-82.5 -96.5t-128 -53t-167 -16 q-115 0 -197 25.5t-135 82.5t-78.5 150.5t-25.5 228.5zM135 1051l282 270h170l281 -270h-233l-68 69q-20 20 -31.5 35.5t-17.5 26.5q-8 12 -12 22h-7q-4 -10 -12 -22q-8 -10 -20.5 -25.5t-30.5 -36.5l-66 -69h-235zM315 569h375v37q0 43 -6 75t-24.5 52.5t-52.5 30.5t-89 10 q-111 0 -153.5 -46t-49.5 -159zM661 1315l144 285h305l-248 -285h-201z" />
<glyph unicode="&#x1ec0;" horiz-adv-x="1165" d="M2 2017h306l143 -285h-201zM162 0v1352h901v-205h-662v-365h580v-204h-580v-373h662v-205h-901zM254 1467l282 270h170l281 -270h-233l-68 69q-20 20 -31.5 35.5t-17.5 26.5q-8 12 -12 22h-7q-4 -10 -12 -22q-8 -10 -20.5 -25.5t-30.5 -36.5l-66 -69h-235z" />
<glyph unicode="&#x1ec1;" horiz-adv-x="1005" d="M-121 1600h306l143 -285h-201zM72 467q0 141 27.5 236.5t83 152.5t139.5 82t198 25q104 0 182 -20.5t128.5 -67t75 -122t24.5 -188.5q0 -29 -4 -77t-21 -91h-592q2 -61 13.5 -105t36 -71.5t64.5 -40t101 -12.5q72 0 111 23.5t39 99.5h237q0 -86 -29.5 -145.5t-82.5 -96.5 t-128 -53t-167 -16q-115 0 -197 25.5t-135 82.5t-78.5 150.5t-25.5 228.5zM135 1051l282 270h170l281 -270h-233l-68 69q-20 20 -31.5 35.5t-17.5 26.5q-8 12 -12 22h-7q-4 -10 -12 -22q-8 -10 -20.5 -25.5t-30.5 -36.5l-66 -69h-235zM315 569h375v37q0 43 -6 75t-24.5 52.5 t-52.5 30.5t-89 10q-111 0 -153.5 -46t-49.5 -159z" />
<glyph unicode="&#x1ec2;" horiz-adv-x="1165" d="M162 0v1352h901v-205h-662v-365h580v-204h-580v-373h662v-205h-901zM254 1491l282 270h170l281 -270h-233l-68 69q-20 20 -31.5 35.5t-17.5 26.5q-8 12 -12 22h-7q-4 -10 -12 -22q-8 -10 -20.5 -25.5t-30.5 -36.5l-66 -69h-235zM823 1837q0 49 45 86t123 37 q68 0 118 -32.5t50 -94.5q0 -51 -34 -90t-97 -39v-74h-94v86q0 57 57 58h20q23 0 35.5 19.5t12.5 41.5q0 57 -68 58q-33 0 -50.5 -15.5t-17.5 -40.5h-100z" />
<glyph unicode="&#x1ec3;" horiz-adv-x="1005" d="M72 467q0 141 27.5 236.5t83 152.5t139.5 82t198 25q104 0 182 -20.5t128.5 -67t75 -122t24.5 -188.5q0 -29 -4 -77t-21 -91h-592q2 -61 13.5 -105t36 -71.5t64.5 -40t101 -12.5q72 0 111 23.5t39 99.5h237q0 -86 -29.5 -145.5t-82.5 -96.5t-128 -53t-167 -16 q-115 0 -197 25.5t-135 82.5t-78.5 150.5t-25.5 228.5zM135 1051l282 270h170l281 -270h-233l-68 69q-20 20 -31.5 35.5t-17.5 26.5q-8 12 -12 22h-7q-4 -10 -12 -22q-8 -10 -20.5 -25.5t-30.5 -36.5l-66 -69h-235zM315 569h375v37q0 43 -6 75t-24.5 52.5t-52.5 30.5t-89 10 q-111 0 -153.5 -46t-49.5 -159zM702 1386q0 49 45 86t123 37q68 0 118 -32.5t50 -94.5q0 -51 -34 -90t-97 -39v-74h-94v86q0 57 57 58h20q23 0 35.5 19.5t12.5 41.5q0 57 -68 58q-33 0 -50.5 -15.5t-17.5 -40.5h-100z" />
<glyph unicode="&#x1ec4;" horiz-adv-x="1165" d="M162 0v1352h901v-205h-662v-365h580v-204h-580v-373h662v-205h-901zM254 1459l282 270h170l281 -270h-233l-68 69q-20 20 -31.5 35.5t-17.5 26.5q-8 12 -12 22h-7q-4 -10 -12 -22q-8 -10 -20.5 -25.5t-30.5 -36.5l-66 -69h-235zM317 1778q0 43 5.5 86t22.5 76.5t51 55 t91 21.5q43 0 72 -12t57 -33q35 -25 58.5 -41t52.5 -16t41 22.5t12 77.5h148q0 -49 -4 -91t-20.5 -75t-50.5 -51t-93 -18q-47 0 -74 13t-61 36q-37 25 -59.5 39t-45.5 14q-63 0 -63 -104h-140z" />
<glyph unicode="&#x1ec5;" horiz-adv-x="1005" d="M72 467q0 141 27.5 236.5t83 152.5t139.5 82t198 25q104 0 182 -20.5t128.5 -67t75 -122t24.5 -188.5q0 -29 -4 -77t-21 -91h-592q2 -61 13.5 -105t36 -71.5t64.5 -40t101 -12.5q72 0 111 23.5t39 99.5h237q0 -86 -29.5 -145.5t-82.5 -96.5t-128 -53t-167 -16 q-115 0 -197 25.5t-135 82.5t-78.5 150.5t-25.5 228.5zM135 1051l282 270h170l281 -270h-233l-68 69q-20 20 -31.5 35.5t-17.5 26.5q-8 12 -12 22h-7q-4 -10 -12 -22q-8 -10 -20.5 -25.5t-30.5 -36.5l-66 -69h-235zM196 1369q0 43 5.5 86t22.5 76.5t51 55t91 21.5 q43 0 72 -12t57 -33q35 -25 58.5 -41t52.5 -16t41 22.5t12 77.5h148q0 -49 -4 -91t-20.5 -75t-50.5 -51t-93 -18q-47 0 -74 13t-61 36q-37 25 -59.5 39t-45.5 14q-63 0 -63 -104h-140zM315 569h375v37q0 43 -6 75t-24.5 52.5t-52.5 30.5t-89 10q-111 0 -153.5 -46 t-49.5 -159z" />
<glyph unicode="&#x1ec6;" horiz-adv-x="1165" d="M162 0v1352h901v-205h-662v-365h580v-204h-580v-373h662v-205h-901zM213 1500l282 270h170l281 -270h-233l-68 69q-20 20 -31.5 35.5t-17.5 26.5q-8 12 -12 22h-7q-4 -10 -12 -22q-8 -10 -20.5 -25.5t-30.5 -36.5l-66 -69h-235zM480 -152h206v-225h-206v225z" />
<glyph unicode="&#x1ec7;" horiz-adv-x="1005" d="M72 467q0 141 27.5 236.5t83 152.5t139.5 82t198 25q104 0 182 -20.5t128.5 -67t75 -122t24.5 -188.5q0 -29 -4 -77t-21 -91h-592q2 -61 13.5 -105t36 -71.5t64.5 -40t101 -12.5q72 0 111 23.5t39 99.5h237q0 -86 -29.5 -145.5t-82.5 -96.5t-128 -53t-167 -16 q-115 0 -197 25.5t-135 82.5t-78.5 150.5t-25.5 228.5zM135 1090l282 270h170l281 -270h-233l-68 69q-20 20 -31.5 35.5t-17.5 26.5q-8 12 -12 22h-7q-4 -10 -12 -22q-8 -10 -20.5 -25.5t-30.5 -36.5l-66 -69h-235zM315 569h375v37q0 43 -6 75t-24.5 52.5t-52.5 30.5t-89 10 q-111 0 -153.5 -46t-49.5 -159zM398 -152h206v-225h-206v225z" />
<glyph unicode="&#x1ec8;" horiz-adv-x="563" d="M57 1657q0 49 45 86t123 37q68 0 118 -32.5t50 -94.5q0 -51 -34 -90t-97 -39v-74h-94v86q0 57 57 58h20q23 0 35.5 19.5t12.5 41.5q0 57 -68 58q-33 0 -50.5 -15.5t-17.5 -40.5h-100zM162 0v1352h239v-1352h-239z" />
<glyph unicode="&#x1ec9;" horiz-adv-x="450" d="M8 1247q0 49 45 86t123 37q68 0 118 -32.5t50 -94.5q0 -51 -34 -90t-97 -39v-74h-94v86q0 57 57 58h20q23 0 35.5 19.5t12.5 41.5q0 57 -68 58q-33 0 -50.5 -15.5t-17.5 -40.5h-100zM106 0v942h240v-942h-240z" />
<glyph unicode="&#x1eca;" horiz-adv-x="563" d="M162 0v1352h239v-1352h-239zM179 -152h206v-225h-206v225z" />
<glyph unicode="&#x1ecb;" horiz-adv-x="450" d="M106 0v942h240v-942h-240zM106 1143v209h240v-209h-240zM121 -152h206v-225h-206v225z" />
<glyph unicode="&#x1ecc;" horiz-adv-x="1398" d="M86 676q0 197 36 331t111.5 215t190.5 115.5t274 34.5q160 0 276 -34.5t190.5 -115.5t110.5 -215.5t36 -330.5q0 -197 -36 -331t-110.5 -215t-190.5 -115.5t-276 -34.5t-274.5 34.5t-190 115.5t-111.5 215t-36 331zM326 676q0 -139 21.5 -233.5t67.5 -152t116.5 -82 t166.5 -24.5q98 0 168 24.5t116 82t67.5 152t21.5 233.5q0 137 -21.5 231t-67.5 152.5t-115.5 83t-168.5 24.5q-96 0 -166.5 -24.5t-116.5 -83t-67.5 -152.5t-21.5 -231zM594 -152h206v-225h-206v225z" />
<glyph unicode="&#x1ecd;" horiz-adv-x="1042" d="M74 471q0 139 26.5 233.5t81 151.5t139.5 82t201 25q117 0 201 -25t139.5 -82t82 -151.5t26.5 -233.5t-26.5 -233.5t-82 -151.5t-139.5 -81.5t-201 -24.5t-201.5 24.5t-139 81.5t-81 151.5t-26.5 233.5zM313 471q0 -170 47 -236.5t162 -66.5q113 0 161 66.5t48 236.5 t-48 236.5t-161 66.5q-115 0 -162 -66.5t-47 -236.5zM416 -152h206v-225h-206v225z" />
<glyph unicode="&#x1ece;" horiz-adv-x="1398" d="M86 676q0 197 36 331t111.5 215t190.5 115.5t274 34.5q160 0 276 -34.5t190.5 -115.5t110.5 -215.5t36 -330.5q0 -197 -36 -331t-110.5 -215t-190.5 -115.5t-276 -34.5t-274.5 34.5t-190 115.5t-111.5 215t-36 331zM86 1657q0 49 45 86t123 37q68 0 118 -32.5t50 -94.5 q0 -51 -34 -90t-97 -39v-74h-94v86q0 57 57 58h20q23 0 35.5 19.5t12.5 41.5q0 57 -68 58q-33 0 -50.5 -15.5t-17.5 -40.5h-100zM326 676q0 -139 21.5 -233.5t67.5 -152t116.5 -82t166.5 -24.5q98 0 168 24.5t116 82t67.5 152t21.5 233.5q0 137 -21.5 231t-67.5 152.5 t-115.5 83t-168.5 24.5q-96 0 -166.5 -24.5t-116.5 -83t-67.5 -152.5t-21.5 -231z" />
<glyph unicode="&#x1ecf;" horiz-adv-x="1042" d="M74 471q0 139 26.5 233.5t81 151.5t139.5 82t201 25q117 0 201 -25t139.5 -82t82 -151.5t26.5 -233.5t-26.5 -233.5t-82 -151.5t-139.5 -81.5t-201 -24.5t-201.5 24.5t-139 81.5t-81 151.5t-26.5 233.5zM86 1247q0 49 45 86t123 37q68 0 118 -32.5t50 -94.5 q0 -51 -34 -90t-97 -39v-74h-94v86q0 57 57 58h20q23 0 35.5 19.5t12.5 41.5q0 57 -68 58q-33 0 -50.5 -15.5t-17.5 -40.5h-100zM313 471q0 -170 47 -236.5t162 -66.5q113 0 161 66.5t48 236.5t-48 236.5t-161 66.5q-115 0 -162 -66.5t-47 -236.5z" />
<glyph unicode="&#x1ed0;" horiz-adv-x="1398" d="M86 676q0 197 36 331t111.5 215t190.5 115.5t274 34.5q160 0 276 -34.5t190.5 -115.5t110.5 -215.5t36 -330.5q0 -197 -36 -331t-110.5 -215t-190.5 -115.5t-276 -34.5t-274.5 34.5t-190 115.5t-111.5 215t-36 331zM326 676q0 -139 21.5 -233.5t67.5 -152t116.5 -82 t166.5 -24.5q98 0 168 24.5t116 82t67.5 152t21.5 233.5q0 137 -21.5 231t-67.5 152.5t-115.5 83t-168.5 24.5q-96 0 -166.5 -24.5t-116.5 -83t-67.5 -152.5t-21.5 -231zM332 1455l282 270h170l281 -270h-233l-68 69q-20 20 -31.5 35.5t-17.5 26.5q-8 12 -12 22h-7 q-4 -10 -12 -22q-8 -10 -20.5 -25.5t-30.5 -36.5l-66 -69h-235zM897 1720l144 285h305l-248 -285h-201z" />
<glyph unicode="&#x1ed1;" horiz-adv-x="1042" d="M74 471q0 139 26.5 233.5t81 151.5t139.5 82t201 25q117 0 201 -25t139.5 -82t82 -151.5t26.5 -233.5t-26.5 -233.5t-82 -151.5t-139.5 -81.5t-201 -24.5t-201.5 24.5t-139 81.5t-81 151.5t-26.5 233.5zM154 1051l282 270h170l281 -270h-233l-68 69q-20 20 -31.5 35.5 t-17.5 26.5q-8 12 -12 22h-7q-4 -10 -12 -22q-8 -10 -20.5 -25.5t-30.5 -36.5l-66 -69h-235zM313 471q0 -170 47 -236.5t162 -66.5q113 0 161 66.5t48 236.5t-48 236.5t-161 66.5q-115 0 -162 -66.5t-47 -236.5zM700 1315l144 285h305l-248 -285h-201z" />
<glyph unicode="&#x1ed2;" horiz-adv-x="1398" d="M49 2005h306l143 -285h-201zM86 676q0 197 36 331t111.5 215t190.5 115.5t274 34.5q160 0 276 -34.5t190.5 -115.5t110.5 -215.5t36 -330.5q0 -197 -36 -331t-110.5 -215t-190.5 -115.5t-276 -34.5t-274.5 34.5t-190 115.5t-111.5 215t-36 331zM326 676 q0 -139 21.5 -233.5t67.5 -152t116.5 -82t166.5 -24.5q98 0 168 24.5t116 82t67.5 152t21.5 233.5q0 137 -21.5 231t-67.5 152.5t-115.5 83t-168.5 24.5q-96 0 -166.5 -24.5t-116.5 -83t-67.5 -152.5t-21.5 -231zM332 1455l282 270h170l281 -270h-233l-68 69 q-20 20 -31.5 35.5t-17.5 26.5q-8 12 -12 22h-7q-4 -10 -12 -22q-8 -10 -20.5 -25.5t-30.5 -36.5l-66 -69h-235z" />
<glyph unicode="&#x1ed3;" horiz-adv-x="1042" d="M-98 1599h305l142 -284h-200zM74 471q0 139 26.5 233.5t81 151.5t139.5 82t201 25q117 0 201 -25t139.5 -82t82 -151.5t26.5 -233.5t-26.5 -233.5t-82 -151.5t-139.5 -81.5t-201 -24.5t-201.5 24.5t-139 81.5t-81 151.5t-26.5 233.5zM154 1051l282 270h170l281 -270h-233 l-68 69q-20 20 -31.5 35.5t-17.5 26.5q-8 12 -12 22h-7q-4 -10 -12 -22q-8 -10 -20.5 -25.5t-30.5 -36.5l-66 -69h-235zM313 471q0 -170 47 -236.5t162 -66.5q113 0 161 66.5t48 236.5t-48 236.5t-161 66.5q-115 0 -162 -66.5t-47 -236.5z" />
<glyph unicode="&#x1ed4;" horiz-adv-x="1398" d="M86 676q0 197 36 331t111.5 215t190.5 115.5t274 34.5q160 0 276 -34.5t190.5 -115.5t110.5 -215.5t36 -330.5q0 -197 -36 -331t-110.5 -215t-190.5 -115.5t-276 -34.5t-274.5 34.5t-190 115.5t-111.5 215t-36 331zM326 676q0 -139 21.5 -233.5t67.5 -152t116.5 -82 t166.5 -24.5q98 0 168 24.5t116 82t67.5 152t21.5 233.5q0 137 -21.5 231t-67.5 152.5t-115.5 83t-168.5 24.5q-96 0 -166.5 -24.5t-116.5 -83t-67.5 -152.5t-21.5 -231zM332 1459l282 270h170l281 -270h-233l-68 69q-20 20 -31.5 35.5t-17.5 26.5q-8 12 -12 22h-7 q-4 -10 -12 -22q-8 -10 -20.5 -25.5t-30.5 -36.5l-66 -69h-235zM887 1796q0 49 45 86t123 37q68 0 118 -32.5t50 -94.5q0 -51 -34 -90t-97 -39v-74h-94v86q0 57 57 58h20q23 0 35.5 19.5t12.5 41.5q0 57 -68 58q-33 0 -50.5 -15.5t-17.5 -40.5h-100z" />
<glyph unicode="&#x1ed5;" horiz-adv-x="1042" d="M74 471q0 139 26.5 233.5t81 151.5t139.5 82t201 25q117 0 201 -25t139.5 -82t82 -151.5t26.5 -233.5t-26.5 -233.5t-82 -151.5t-139.5 -81.5t-201 -24.5t-201.5 24.5t-139 81.5t-81 151.5t-26.5 233.5zM154 1051l282 270h170l281 -270h-233l-68 69q-20 20 -31.5 35.5 t-17.5 26.5q-8 12 -12 22h-7q-4 -10 -12 -22q-8 -10 -20.5 -25.5t-30.5 -36.5l-66 -69h-235zM313 471q0 -170 47 -236.5t162 -66.5q113 0 161 66.5t48 236.5t-48 236.5t-161 66.5q-115 0 -162 -66.5t-47 -236.5zM715 1394q0 49 45 86t123 37q68 0 118 -32.5t50 -94.5 q0 -51 -34 -90t-97 -39v-74h-94v86q0 57 57 58h20q23 0 35.5 19.5t12.5 41.5q0 57 -68 58q-33 0 -50.5 -15.5t-17.5 -40.5h-100z" />
<glyph unicode="&#x1ed6;" horiz-adv-x="1398" d="M86 676q0 197 36 331t111.5 215t190.5 115.5t274 34.5q160 0 276 -34.5t190.5 -115.5t110.5 -215.5t36 -330.5q0 -197 -36 -331t-110.5 -215t-190.5 -115.5t-276 -34.5t-274.5 34.5t-190 115.5t-111.5 215t-36 331zM326 676q0 -139 21.5 -233.5t67.5 -152t116.5 -82 t166.5 -24.5q98 0 168 24.5t116 82t67.5 152t21.5 233.5q0 137 -21.5 231t-67.5 152.5t-115.5 83t-168.5 24.5q-96 0 -166.5 -24.5t-116.5 -83t-67.5 -152.5t-21.5 -231zM332 1459l282 270h170l281 -270h-233l-68 69q-20 20 -31.5 35.5t-17.5 26.5q-8 12 -12 22h-7 q-4 -10 -12 -22q-8 -10 -20.5 -25.5t-30.5 -36.5l-66 -69h-235zM393 1762q0 43 5.5 86t22.5 76.5t51 55t91 21.5q43 0 72 -12t57 -33q35 -25 58.5 -41t52.5 -16t41 22.5t12 77.5h148q0 -49 -4 -91t-20.5 -75t-50.5 -51t-93 -18q-47 0 -74 13t-61 36q-37 25 -59.5 39 t-45.5 14q-63 0 -63 -104h-140z" />
<glyph unicode="&#x1ed7;" horiz-adv-x="1042" d="M74 471q0 139 26.5 233.5t81 151.5t139.5 82t201 25q117 0 201 -25t139.5 -82t82 -151.5t26.5 -233.5t-26.5 -233.5t-82 -151.5t-139.5 -81.5t-201 -24.5t-201.5 24.5t-139 81.5t-81 151.5t-26.5 233.5zM154 1051l282 270h170l281 -270h-233l-68 69q-20 20 -31.5 35.5 t-17.5 26.5q-8 12 -12 22h-7q-4 -10 -12 -22q-8 -10 -20.5 -25.5t-30.5 -36.5l-66 -69h-235zM215 1352q0 43 5.5 86t22.5 76.5t51 55t91 21.5q43 0 72 -12t57 -33q35 -25 58.5 -41t52.5 -16t41 22.5t12 77.5h148q0 -49 -4 -91t-20.5 -75t-50.5 -51t-93 -18q-47 0 -74 13 t-61 36q-37 25 -59.5 39t-45.5 14q-63 0 -63 -104h-140zM313 471q0 -170 47 -236.5t162 -66.5q113 0 161 66.5t48 236.5t-48 236.5t-161 66.5q-115 0 -162 -66.5t-47 -236.5z" />
<glyph unicode="&#x1ed8;" horiz-adv-x="1398" d="M86 676q0 197 36 331t111.5 215t190.5 115.5t274 34.5q160 0 276 -34.5t190.5 -115.5t110.5 -215.5t36 -330.5q0 -197 -36 -331t-110.5 -215t-190.5 -115.5t-276 -34.5t-274.5 34.5t-190 115.5t-111.5 215t-36 331zM326 676q0 -139 21.5 -233.5t67.5 -152t116.5 -82 t166.5 -24.5q98 0 168 24.5t116 82t67.5 152t21.5 233.5q0 137 -21.5 231t-67.5 152.5t-115.5 83t-168.5 24.5q-96 0 -166.5 -24.5t-116.5 -83t-67.5 -152.5t-21.5 -231zM332 1500l282 270h170l281 -270h-233l-68 69q-20 20 -31.5 35.5t-17.5 26.5q-8 12 -12 22h-7 q-4 -10 -12 -22q-8 -10 -20.5 -25.5t-30.5 -36.5l-66 -69h-235zM594 -152h206v-225h-206v225z" />
<glyph unicode="&#x1ed9;" horiz-adv-x="1042" d="M74 471q0 139 26.5 233.5t81 151.5t139.5 82t201 25q117 0 201 -25t139.5 -82t82 -151.5t26.5 -233.5t-26.5 -233.5t-82 -151.5t-139.5 -81.5t-201 -24.5t-201.5 24.5t-139 81.5t-81 151.5t-26.5 233.5zM154 1090l282 270h170l281 -270h-233l-68 69q-20 20 -31.5 35.5 t-17.5 26.5q-8 12 -12 22h-7q-4 -10 -12 -22q-8 -10 -20.5 -25.5t-30.5 -36.5l-66 -69h-235zM313 471q0 -170 47 -236.5t162 -66.5q113 0 161 66.5t48 236.5t-48 236.5t-161 66.5q-115 0 -162 -66.5t-47 -236.5zM416 -152h206v-225h-206v225z" />
<glyph unicode="&#x1eda;" horiz-adv-x="1519" d="M86 676q0 197 36 331t111.5 215t190.5 115.5t274 34.5q180 0 303 -45t197 -149q27 -33 57.5 -54.5t81.5 -21.5q45 0 67.5 21.5t22.5 70.5q0 25 -8 70t-30 88h131q29 -41 41 -99.5t12 -109.5q0 -92 -45 -154.5t-156 -62.5q-41 0 -82 10q20 -109 21 -260q0 -197 -36 -331 t-110.5 -215t-190.5 -115.5t-276 -34.5t-274.5 34.5t-190 115.5t-111.5 215t-36 331zM326 676q0 -139 21.5 -233.5t67.5 -152t116.5 -82t166.5 -24.5q98 0 168 24.5t116 82t67.5 152t21.5 233.5q0 137 -21.5 231t-67.5 152.5t-115.5 83t-168.5 24.5q-96 0 -166.5 -24.5 t-116.5 -83t-67.5 -152.5t-21.5 -231zM534 1487l144 285h305l-248 -285h-201z" />
<glyph unicode="&#x1edb;" horiz-adv-x="1175" d="M74 471q0 139 26.5 233.5t81 151.5t139.5 82t201 25q156 0 255.5 -45.5t146.5 -155.5q16 -29 39.5 -49.5t58.5 -20.5q61 0 61 88q0 29 -8 74t-31 88h134q29 -41 41 -100.5t12 -112.5q0 -90 -39 -151.5t-133 -61.5q-51 0 -92 21q0 -16 2 -33t2 -33q0 -139 -26.5 -233.5 t-82 -151.5t-139.5 -81.5t-201 -24.5t-201.5 24.5t-139 81.5t-81 151.5t-26.5 233.5zM313 471q0 -170 47 -236.5t162 -66.5q113 0 161 66.5t48 236.5t-48 236.5t-161 66.5q-115 0 -162 -66.5t-47 -236.5zM362 1077l144 285h305l-248 -285h-201z" />
<glyph unicode="&#x1edc;" horiz-adv-x="1519" d="M86 676q0 197 36 331t111.5 215t190.5 115.5t274 34.5q180 0 303 -45t197 -149q27 -33 57.5 -54.5t81.5 -21.5q45 0 67.5 21.5t22.5 70.5q0 25 -8 70t-30 88h131q29 -41 41 -99.5t12 -109.5q0 -92 -45 -154.5t-156 -62.5q-41 0 -82 10q20 -109 21 -260q0 -197 -36 -331 t-110.5 -215t-190.5 -115.5t-276 -34.5t-274.5 34.5t-190 115.5t-111.5 215t-36 331zM326 676q0 -139 21.5 -233.5t67.5 -152t116.5 -82t166.5 -24.5q98 0 168 24.5t116 82t67.5 152t21.5 233.5q0 137 -21.5 231t-67.5 152.5t-115.5 83t-168.5 24.5q-96 0 -166.5 -24.5 t-116.5 -83t-67.5 -152.5t-21.5 -231zM393 1772h306l143 -285h-201z" />
<glyph unicode="&#x1edd;" horiz-adv-x="1175" d="M74 471q0 139 26.5 233.5t81 151.5t139.5 82t201 25q156 0 255.5 -45.5t146.5 -155.5q16 -29 39.5 -49.5t58.5 -20.5q61 0 61 88q0 29 -8 74t-31 88h134q29 -41 41 -100.5t12 -112.5q0 -90 -39 -151.5t-133 -61.5q-51 0 -92 21q0 -16 2 -33t2 -33q0 -139 -26.5 -233.5 t-82 -151.5t-139.5 -81.5t-201 -24.5t-201.5 24.5t-139 81.5t-81 151.5t-26.5 233.5zM239 1362h306l143 -285h-201zM313 471q0 -170 47 -236.5t162 -66.5q113 0 161 66.5t48 236.5t-48 236.5t-161 66.5q-115 0 -162 -66.5t-47 -236.5z" />
<glyph unicode="&#x1ede;" horiz-adv-x="1519" d="M86 676q0 197 36 331t111.5 215t190.5 115.5t274 34.5q180 0 303 -45t197 -149q27 -33 57.5 -54.5t81.5 -21.5q45 0 67.5 21.5t22.5 70.5q0 25 -8 70t-30 88h131q29 -41 41 -99.5t12 -109.5q0 -92 -45 -154.5t-156 -62.5q-41 0 -82 10q20 -109 21 -260q0 -197 -36 -331 t-110.5 -215t-190.5 -115.5t-276 -34.5t-274.5 34.5t-190 115.5t-111.5 215t-36 331zM86 1657q0 49 45 86t123 37q68 0 118 -32.5t50 -94.5q0 -51 -34 -90t-97 -39v-74h-94v86q0 57 57 58h20q23 0 35.5 19.5t12.5 41.5q0 57 -68 58q-33 0 -50.5 -15.5t-17.5 -40.5h-100z M326 676q0 -139 21.5 -233.5t67.5 -152t116.5 -82t166.5 -24.5q98 0 168 24.5t116 82t67.5 152t21.5 233.5q0 137 -21.5 231t-67.5 152.5t-115.5 83t-168.5 24.5q-96 0 -166.5 -24.5t-116.5 -83t-67.5 -152.5t-21.5 -231z" />
<glyph unicode="&#x1edf;" horiz-adv-x="1175" d="M74 471q0 139 26.5 233.5t81 151.5t139.5 82t201 25q156 0 255.5 -45.5t146.5 -155.5q16 -29 39.5 -49.5t58.5 -20.5q61 0 61 88q0 29 -8 74t-31 88h134q29 -41 41 -100.5t12 -112.5q0 -90 -39 -151.5t-133 -61.5q-51 0 -92 21q0 -16 2 -33t2 -33q0 -139 -26.5 -233.5 t-82 -151.5t-139.5 -81.5t-201 -24.5t-201.5 24.5t-139 81.5t-81 151.5t-26.5 233.5zM86 1247q0 49 45 86t123 37q68 0 118 -32.5t50 -94.5q0 -51 -34 -90t-97 -39v-74h-94v86q0 57 57 58h20q23 0 35.5 19.5t12.5 41.5q0 57 -68 58q-33 0 -50.5 -15.5t-17.5 -40.5h-100z M313 471q0 -170 47 -236.5t162 -66.5q113 0 161 66.5t48 236.5t-48 236.5t-161 66.5q-115 0 -162 -66.5t-47 -236.5z" />
<glyph unicode="&#x1ee0;" horiz-adv-x="1519" d="M86 676q0 197 36 331t111.5 215t190.5 115.5t274 34.5q180 0 303 -45t197 -149q27 -33 57.5 -54.5t81.5 -21.5q45 0 67.5 21.5t22.5 70.5q0 25 -8 70t-30 88h131q29 -41 41 -99.5t12 -109.5q0 -92 -45 -154.5t-156 -62.5q-41 0 -82 10q20 -109 21 -260q0 -197 -36 -331 t-110.5 -215t-190.5 -115.5t-276 -34.5t-274.5 34.5t-190 115.5t-111.5 215t-36 331zM326 676q0 -139 21.5 -233.5t67.5 -152t116.5 -82t166.5 -24.5q98 0 168 24.5t116 82t67.5 152t21.5 233.5q0 137 -21.5 231t-67.5 152.5t-115.5 83t-168.5 24.5q-96 0 -166.5 -24.5 t-116.5 -83t-67.5 -152.5t-21.5 -231zM397 1500q0 43 5.5 86t22.5 76.5t51 55t91 21.5q43 0 72 -12t57 -33q35 -25 58.5 -41t52.5 -16t41 22.5t12 77.5h148q0 -49 -4 -91t-20.5 -75t-50.5 -51t-93 -18q-47 0 -74 13t-61 36q-37 25 -59.5 39t-45.5 14q-63 0 -63 -104h-140z " />
<glyph unicode="&#x1ee1;" horiz-adv-x="1175" d="M74 471q0 139 26.5 233.5t81 151.5t139.5 82t201 25q156 0 255.5 -45.5t146.5 -155.5q16 -29 39.5 -49.5t58.5 -20.5q61 0 61 88q0 29 -8 74t-31 88h134q29 -41 41 -100.5t12 -112.5q0 -90 -39 -151.5t-133 -61.5q-51 0 -92 21q0 -16 2 -33t2 -33q0 -139 -26.5 -233.5 t-82 -151.5t-139.5 -81.5t-201 -24.5t-201.5 24.5t-139 81.5t-81 151.5t-26.5 233.5zM223 1090q0 43 5.5 86t22.5 76.5t51 55t91 21.5q43 0 72 -12t57 -33q35 -25 58.5 -41t52.5 -16t41 22.5t12 77.5h148q0 -49 -4 -91t-20.5 -75t-50.5 -51t-93 -18q-47 0 -74 13t-61 36 q-37 25 -59.5 39t-45.5 14q-63 0 -63 -104h-140zM313 471q0 -170 47 -236.5t162 -66.5q113 0 161 66.5t48 236.5t-48 236.5t-161 66.5q-115 0 -162 -66.5t-47 -236.5z" />
<glyph unicode="&#x1ee2;" horiz-adv-x="1519" d="M86 676q0 197 36 331t111.5 215t190.5 115.5t274 34.5q180 0 303 -45t197 -149q27 -33 57.5 -54.5t81.5 -21.5q45 0 67.5 21.5t22.5 70.5q0 25 -8 70t-30 88h131q29 -41 41 -99.5t12 -109.5q0 -92 -45 -154.5t-156 -62.5q-41 0 -82 10q20 -109 21 -260q0 -197 -36 -331 t-110.5 -215t-190.5 -115.5t-276 -34.5t-274.5 34.5t-190 115.5t-111.5 215t-36 331zM326 676q0 -139 21.5 -233.5t67.5 -152t116.5 -82t166.5 -24.5q98 0 168 24.5t116 82t67.5 152t21.5 233.5q0 137 -21.5 231t-67.5 152.5t-115.5 83t-168.5 24.5q-96 0 -166.5 -24.5 t-116.5 -83t-67.5 -152.5t-21.5 -231zM594 -152h206v-225h-206v225z" />
</font>
</defs>
</svg>
