<?xml version="1.0" encoding="UTF-8"?>
<svg width="56px" height="48px" viewBox="0 0 56 48" version="1.1" xmlns="http://www.w3.org/2000/svg" xmlns:xlink="http://www.w3.org/1999/xlink">
    <!-- Generator: Sketch 45.1 (43504) - http://www.bohemiancoding.com/sketch -->
    <title>add-pic</title>
    <desc>Created with Sketch.</desc>
    <defs></defs>
    <g id="All-Design" stroke="none" stroke-width="1" fill="none" fill-rule="evenodd">
        <g id="Event" transform="translate(-683.000000, -330.000000)" fill="#D6DADE">
            <path d="M726,363 L732,363 C732.552285,363 733,363.447715 733,364 C733,364.552285 732.552285,365 732,365 L726,365 L726,371 C726,371.552285 725.552285,372 725,372 C724.447715,372 724,371.552285 724,371 L724,365 L718,365 C717.447715,365 717,364.552285 717,364 C717,363.447715 717.447715,363 718,363 L724,363 L724,357 C724,356.447715 724.447715,356 725,356 C725.552285,356 726,356.447715 726,357 L726,363 Z M685,352.726765 L695.964881,342.675624 L713.03244,356.731261 C715.489016,352.695299 719.929748,350 725,350 C727.974496,350 730.732333,350.92763 733,352.509379 L733,333 C733,332.447715 732.552285,332 732,332 L686,332 C685.447715,332 685,332.447715 685,333 L685,352.726765 Z M685,355.439902 L685,371 C685,371.552285 685.447715,372 686,372 L713.509379,372 C711.92763,369.732333 711,366.974496 711,364 C711,361.987974 711.424439,360.07508 712.188665,358.345972 L696.035119,345.324376 L685,355.439902 Z M735,354.202035 C737.474374,356.727109 739,360.18539 739,364 C739,371.731986 732.731986,378 725,378 C721.18539,378 717.727109,376.474374 715.202035,374 L685,374 L685,374 C683.895431,374 683,373.104569 683,372 L683,332 L683,332 C683,330.895431 683.895431,330 685,330 L685,330 L733,330 C734.104569,330 735,330.895431 735,332 L735,354.202035 Z M725,376 C731.627417,376 737,370.627417 737,364 C737,357.372583 731.627417,352 725,352 C718.372583,352 713,357.372583 713,364 C713,370.627417 718.372583,376 725,376 Z M713.5,344 C712.119288,344 711,342.880712 711,341.5 C711,340.119288 712.119288,339 713.5,339 C714.880712,339 716,340.119288 716,341.5 C716,342.880712 714.880712,344 713.5,344 Z" id="add-pic"></path>
        </g>
    </g>
</svg>